<svg id="illustration-kontakt" xmlns="http://www.w3.org/2000/svg" width="227.371" height="214.482" viewBox="0 0 227.371 214.482">
  <path id="Path_1366" data-name="Path 1366" d="M86.914,34l-4.527,1.206-.655-2.777-5.543.738a5,5,0,0,0,.275.782c4.761.106,3.545,3.852,3.921,6.533a20.159,20.159,0,0,1-.091,4.1c-.147,2.141-1.658,3.236-3.835,2.947a5.019,5.019,0,0,0-1.946.184c-1.235.343-2.425,1.09-3.659,1.148-3.37.158-5.155,1.66-4.985,4.9-7.179,1.412-14.179,2.8-21.182,4.162-1.938.377-4.016,1.272-5.8.885-2.392-.519-4.762-1.426-7.11-2.129-4.088-1.224-8.334-1.61-12.4-2.932-3.319-1.081-6.859-2.315-10.56-.884-2.007.776-3.329-.1-4.173-2.149-.735-1.788-2.771-3.017-2.3-5.348.028-.143-.212-.388-.157-.469,1.484-2.165.192-4.047-.581-5.987-.62-1.554-1.227-3.089.646-4.328.218-.145.12-.928,0-1.372-.148-.565-.512-1.07-.7-1.629C.963,29.831-.325,27.873.076,26.371c.324-1.21,2.759-1.8,4.142-2.821a2.157,2.157,0,0,0,.81-1.752,40.2,40.2,0,0,0-1.7-4.525A21.913,21.913,0,0,1,7.5,14.636a20.262,20.262,0,0,1,4.77-.608c0-.705.067-.916-.01-1.031C9.166,8.4,9.8,6.983,15.218,5.466c2.869-.8,5.533-2.374,8.418-3.078,2.643-.645,5.491-.4,8.189-.882C39.713.105,47.652.631,55.58.6c.471,0,.927-.394,1.412-.471,1.625-.26,3.085-.342,3.807,1.729a2.859,2.859,0,0,0,2.153,1.562,37.118,37.118,0,0,0,6.832-.852c2.5-.543,3.306-.066,3.308,2.6q0,5.363-.137,10.726c-.048,1.971.722,2.931,2.8,3.211,3.053.411,6.073,1.1,9.081,1.784a2.4,2.4,0,0,1,2.124,2.739C86.814,27.041,86.914,30.463,86.914,34Z" transform="translate(85.889 140.199) rotate(-171)" fill="#01e5d4"/>
  <path id="Path_1325" data-name="Path 1325" d="M1364.6,469.348c.135.056.269.112.4.166a5.638,5.638,0,0,0,2.895.473h0l.164-.2a2.73,2.73,0,0,0-.443-.378l-.008,0a.08.08,0,0,0-.018-.005.44.44,0,0,0-.052-.017c-.692-.137-1.395-.225-2.1-.3a2.99,2.99,0,0,0-.591.018c-.072.007-.144.013-.214.017h0c-.013.076-.026.153-.039.231Z" transform="translate(-1168.039 -407.088)"/>
  <path id="Path_1326" data-name="Path 1326" d="M1143.486,328.6a.479.479,0,0,0,.453.176q1.006-.051,2.011-.124,1.1-.079,2.2-.174c.132-.012.265-.031.4-.055.338-.059.677-.14,1.014-.174.1-.009.2-.016.294-.016.2,0,.4.01.6.021.81.044,1.621.145,2.432.156.628.008,1.256-.018,1.885-.043.528-.021,1.055-.039,1.582-.034a12.573,12.573,0,0,1,1.707.218c.087.013.177.027.27.039a2.915,2.915,0,0,1,.19.316c.584,1.116.414,2.523.568,3.856a15.266,15.266,0,0,1-.042,1.875c-.009,1.146,0,2.292,0,3.441l-.123.033a1.1,1.1,0,0,1-.277.061q-.571,0-1.141,0h0q-.962,0-1.924,0-.749,0-1.5.005a8.168,8.168,0,0,0-.857.018,1.4,1.4,0,0,0-.469.128.7.7,0,0,0-.28.368,2.09,2.09,0,0,0-.142.591c0,.026,0,.051,0,.075.007.242.168.342.381.379a1.661,1.661,0,0,0,.307.02c1.912-.031,3.825-.029,5.736-.08a2.922,2.922,0,0,0,.463-.052,7.522,7.522,0,0,0,.925-.247.355.355,0,0,0,.09-.047.625.625,0,0,0,.257-.372s0-.007,0-.009c.009-.111.017-.223.026-.334.042-.531.076-1.061.1-1.593.013-.289.024-.579.03-.868.014-.631.019-1.264.006-1.9q-.008-.4-.024-.806c-.06-1.343-.15-2.686-.25-4.028a2.941,2.941,0,0,0-2.653-2.547c-1.777-.056-3.553-.082-5.33-.12h-.081c-.334-.008-.669-.012-1-.017-.289,0-.576-.01-.865-.02l-.084,0c-.325-.01-.652-.054-.976-.071a3.905,3.905,0,0,0-.461,0,8.751,8.751,0,0,0-1.117.187h0c-.179.037-.358.071-.54.1a3.43,3.43,0,0,1-.949.012,7.512,7.512,0,0,0-2.488.324.8.8,0,0,0-.468.605,1.357,1.357,0,0,0,.118.724A.033.033,0,0,0,1143.486,328.6Z" transform="matrix(0.998, 0.07, -0.07, 0.998, -949.67, -362.815)"/>
  <path id="Path_1327" data-name="Path 1327" d="M725.487,96.465c.247,0,.64-.421.7-.7a.538.538,0,0,0,.01-.125.347.347,0,0,0-.248-.329,1.224,1.224,0,0,0-.472-.063c-.456.012-.912.03-1.367.016-.653-.02-.934.341-1.074.906-.005.021-.01.042-.016.064h0A20.7,20.7,0,0,0,725.487,96.465Z" transform="translate(-610.301 -82.11)"/>
  <path id="Path_1328" data-name="Path 1328" d="M328.642,385.091a.327.327,0,0,0,.2-.116c.06-.073.122-.154.179-.239a1.349,1.349,0,0,0,.273-.708c0-.005,0-.012,0-.017h0v0c-.013-.425-.044-.849-.082-1.273-.057-.648-.133-1.3-.193-1.946l-.1-.112c-.013-.016-.026-.031-.04-.047a4.967,4.967,0,0,0-.693.771.463.463,0,0,0-.047.157,22.669,22.669,0,0,0-.046,3.054A.493.493,0,0,0,328.642,385.091Z" transform="translate(-266.963 -332.203)"/>
  <path id="Path_1329" data-name="Path 1329" d="M131.391,372.986a.91.91,0,0,0-.527.341,1.169,1.169,0,0,0-.153.22.554.554,0,0,0-.061.171c-.067.411.248.49.574.494.071,0,.141,0,.209-.005.379-.02.759-.089,1.137-.088.05,0,.1,0,.15,0a2.023,2.023,0,0,0,.5-.022c.412-.081.609-.358.724-.983h0A20.816,20.816,0,0,0,131.391,372.986Z" transform="translate(-95.335 -323.549)"/>
  <path id="Path_1330" data-name="Path 1330" d="M51.349,288.089l.162.031a48.444,48.444,0,0,0,6.8.453.9.9,0,0,0,.12,0,.565.565,0,0,0,.4-.156,3.24,3.24,0,0,0,.316-.64,1.328,1.328,0,0,0,.054-.215,1.158,1.158,0,0,0,.018-.169s0-.006,0-.008c-.006-.062-.082-.143-.188-.218a.108.108,0,0,0-.016-.011l-.055-.035-.03-.017a1.378,1.378,0,0,0-.157-.079l-.027-.011a.718.718,0,0,0-.227-.057H58.51c-.177-.006-.354-.008-.531-.011-.905-.01-1.812.02-2.715,0-.238-.006-.478-.014-.716-.028-.354-.021-.711-.05-1.068-.088a10.526,10.526,0,0,1-2.05-.4c-.924-.293-1.379-.645-1.549-1.229a3.669,3.669,0,0,1-.021-1.462c.139-1.081.536-2.171.027-3.263a.205.205,0,0,1-.01-.1s0-.007,0-.01c0-.033.011-.067.014-.1.038-.5.084-.99.119-1.486.014-.2.028-.4.038-.6.026-.5.03-1,.043-1.5.009-.323.021-.646.045-.966.009-.112.018-.225.031-.337.1-.935.153-.927,1.105-.663a.918.918,0,0,0,.208.03c.071,0,.143,0,.214.007.582.024,1.165.018,1.749.007.816-.016,1.632-.045,2.45-.033.538.009,1.077.035,1.615.1.6.068,1.206.077,1.812.088.5.01,1,.024,1.5.079.142.016.282.034.422.057l.258.041c.41.065.816.12,1.221.147a5.981,5.981,0,0,0,1.577-.085c.092-.018.184-.04.276-.061a6.841,6.841,0,0,1,1.445-.251c.152,0,.3,0,.453.006.555.016,1.11.062,1.665.1.266.018.534.035.8.045a3.4,3.4,0,0,0,.791-.156v-.853a1.2,1.2,0,0,1,.113-.057c.279-.123.436-.054.551.086.129.157.2.4.339.56.181-.633.173-1.027-.057-1.244a1.316,1.316,0,0,0-.956-.211c-.48.018-.962.034-1.442.05s-.959.031-1.44.052h-.014c-.8.035-1.594.13-2.39.132-.4,0-.795-.006-1.192-.014-.751-.017-1.5-.045-2.254-.081-1.753-.082-3.506-.184-5.258-.273-.34-.017-.68-.035-1.019-.051-.307-.014-.619.069-.93.078h-.01c-.6.01-1.2-.016-1.8-.006-.205,0-.414.112-.615.1-.347-.027-.693-.058-1.054-.092-.529-.051-1.088-.111-1.727-.173h0c0,.881.007,1.7.009,2.5,0,.641,0,1.264-.018,1.887-.018.724-.181,1.445-.215,2.171q-.043.933-.071,1.869c-.03.908-.052,1.817-.074,2.725a5.594,5.594,0,0,0,.289,2.24C48.875,287.134,49.7,287.737,51.349,288.089Z" transform="translate(-28.432 -237.707)"/>
  <path id="Path_1331" data-name="Path 1331" d="M846.114,675.559c.134-.044.277-.082.324-.171.456-.868.983-1.716,1.377-2.607a8.1,8.1,0,0,0,.3-.783c.085-.263.183-.518.289-.763a15.831,15.831,0,0,1,3.258-4.431c.094-.1.187-.2.278-.3.238-.265.472-.537.72-.815h0a.462.462,0,0,1-.03-.041c-.042-.057-.081-.12-.114-.163s-.05-.056-.068-.052a1,1,0,0,0-.5.192c-.143.139-.284.278-.425.418-.175.175-.35.35-.523.526-.31.315-.617.632-.925.95a8.826,8.826,0,0,0-1.4,1.627,3.188,3.188,0,0,0-.212.419c-.1.242-.2.482-.307.721-.2.461-.418.917-.634,1.373q-.143.3-.285.6c-.449.95-.93,1.887-1.366,2.844-.056.124.08.335.125.5A1.081,1.081,0,0,1,846.114,675.559Z" transform="translate(-716.086 -582.782)"/>
  <path id="Path_1332" data-name="Path 1332" d="M1058.924,500c-.059.086-.113.182-.174.261h0l.02,0c.177.029.373.114.52.061a31.674,31.674,0,0,0,4.112-1.775c.728-.378,1.466-.734,2.21-1.083,1.583-.741,3.189-1.436,4.779-2.16l.375-.17.027-.013c.133-.065.261-.165.515-.323h0c-.12-.063-.217-.128-.3-.18a.436.436,0,0,0-.267-.1c-.115.017-.231.039-.346.065a3.7,3.7,0,0,0-.707.223c-1.056.47-2.1.97-3.147,1.46l-.18.085c-1.113.519-2.229,1.031-3.34,1.558-1.3.618-2.6,1.24-3.892,1.884a.56.56,0,0,0-.195.193.1.1,0,0,0-.009.013S1058.924,500,1058.924,500Z" transform="translate(-902.157 -429.206)"/>
  <path id="Path_1333" data-name="Path 1333" d="M1040.449,451.366c.012.177.018.353.022.531,0,.135.006.269.008.4,0,.1,0,.2,0,.3q.005,2.727,0,5.453h0a2.56,2.56,0,0,0,.78-.1c.57-.187.744-.656.686-1.571-.071-1.12-.027-2.246-.018-3.369,0-.294.073-.589.082-.882,0-.048,0-.1,0-.146-.039-.746-.085-1.492-.129-2.239-.029-.473-.056-.947-.085-1.421-.047-.795-.094-1.588-.132-2.382-.021-.423-.209-.582-.509-.61a1.3,1.3,0,0,0-.2,0,1.026,1.026,0,0,0-.389.09.658.658,0,0,0-.249.2,1.223,1.223,0,0,0-.184.815C1040.212,448.078,1040.345,449.722,1040.449,451.366Z" transform="translate(-885.97 -386.447)"/>
  <path id="Path_1334" data-name="Path 1334" d="M207.515,305.7a21.054,21.054,0,0,1-.7-7.421c.021-.149-.029-.395.046-.436.554-.316.354-.873.448-1.325.1-.487.152-.985.205-1.481.1-.928.191-1.857.285-2.786l-.3-.076q-.182.647-.363,1.3-.2.712-.389,1.424l-.284-.05c.793-3.8.159-7.634.408-11.6.593,1.691.438,3.4,1.167,4.9a1.375,1.375,0,0,0,.192-.737c-.054-2.01-.559-3.962-.612-5.992-.057-2.2.189-4.358.3-6.534a2.828,2.828,0,0,0-.487-2.082c-.14.372-.337.629-.291.83a12.181,12.181,0,0,1-.005,1.315,22.436,22.436,0,0,1-.144,2.807c.007.335,0,.67,0,1a4.467,4.467,0,0,1-.15-1.428,83.019,83.019,0,0,0-.267-9.873c-.218-2.006-.336-4.029-.4-6.047a48.184,48.184,0,0,0-.345-6.507,14.973,14.973,0,0,1-.01-2.865c.046-1.477.166-2.952.175-4.429.017-2.585-.077-5.17-.034-7.753.074-4.563.216-9.125.331-13.689.041-1.581.054-3.165.149-4.745.038-.638.376-1.264.378-1.895a16.7,16.7,0,0,0-.282-2.9c-.3-1.718-.9-3.288-2.619-4.118a7.179,7.179,0,0,0-3.311-.865c-1.26.03-2.52.05-3.779.085-1.372.038-2.134,1.055-2.994,1.9a.51.51,0,0,0-.074.307c-.035.738-.094,1.477-.088,2.215.018,1.976.077,3.953.091,5.929a8.157,8.157,0,0,1-.173,1.218l-.183.008c-.086-.165-.187-.323-.256-.493-.352-.86-1.121-1.6-1.695-1.4a4.41,4.41,0,0,1-1.976-.047c-1.051-.093-2.105-.159-2.884-.218.583-.067,1.44-.21,2.3-.244a11.24,11.24,0,0,1,1.542.2,4.316,4.316,0,0,0,.708-.042c0-.086-.008-.171-.013-.257a17.25,17.25,0,0,0-1.922-.263c-2.073-.061-4.147-.106-6.22-.1-2.131.009-4.262.111-6.393.129-1.346.012-2.693-.1-4.039-.076-1.5.025-2.993.1-4.484.222-2.717.219-5.443.395-8.14.771a45.589,45.589,0,0,0-5.255,1.249c-.855.225-1.681.563-2.522.843-1.231.409-2.483.761-3.688,1.234a21.076,21.076,0,0,0-2.2,1.172c-.142.076-.3.129-.446.193l-.133-.165.517-.238c-.035-.046-.069-.093-.1-.14-1.392.588-2.793,1.155-4.173,1.771-1.362.608-2.7,1.264-3.961,1.854-.256-.367-.376-.732-.576-.781-.4-.1-1.192.839-1.206,1.285a.714.714,0,0,1-.223.516c-1.458.921-3,1.73-4.388,2.738-2.016,1.46-3.958,3.025-5.886,4.6a44.7,44.7,0,0,0-5.887,6.209c-1,1.206-1.827,2.561-2.74,3.845-.741,1.04-1.512,2.061-2.228,3.118-.175.259-.093.725-.3.925a6.136,6.136,0,0,0-1.775,2.691c-.037.132-.188.231-.284.349-.257.318-.524.629-.77.955a20.635,20.635,0,0,1-1.877,2.476,8.136,8.136,0,0,1-5.364,2.334,6.558,6.558,0,0,1-2.947-.3,9.773,9.773,0,0,1-4.529-4.288c-.809-1.324-1.47-2.74-2.158-4.135-.861-1.743-1.682-3.508-2.518-5.264-.063-.132-.1-.274-.189-.524.452.332.787.575,1.121.819l.214-.243q-.653-.765-1.307-1.53c-.257-.3-.357-.851-.972-.609-.041.017-.195-.193-.261-.318a7.527,7.527,0,0,0-.431-.859A22.169,22.169,0,0,0,89,241.354c-.919-1.015-1.882-1.99-2.842-2.966-.422-.426-.894-.8-1.326-1.218-.664-.64-1.266-1.355-1.986-1.922-.491-.387-1.3-.44-1.681-.886-.834-.967-2.02-1.312-3.012-1.984-.94-.636-1.977-1.128-2.97-1.686-.727-.408-1.434-.861-2.188-1.211-.344-.159-.447-.277-.4-.657a20.616,20.616,0,0,0,.233-2.787c-.012-1.38-.161-2.757-.2-4.139-.033-1.043.014-2.088.024-3.132.005-.683,0-1.366.01-2.049s.054-1.388.034-2.08c-.035-1.159-.145-2.317-.161-3.477-.029-2.04.009-4.081-.018-6.122-.017-1.32-.1-2.638-.149-3.958a3.372,3.372,0,0,1,.065-.448c.068-.665.176-1.329.186-1.994.012-.781-.116-1.566-.093-2.346.05-1.583.23-3.164.23-4.745,0-2.261-.123-4.522-.163-6.782-.018-1,.026-2,.067-3,.016-.4-.176-.693-.528-.676a1.6,1.6,0,0,0-.838.431.81.81,0,0,0-.146.551c-.012,1.083.033,2.168-.009,3.25-.111,2.908.115,5.811-.06,8.731-.237,3.951-.1,7.923-.108,11.886q-.006,2.478.055,4.955c.013.489.225.977.209,1.461-.048,1.411-.195,2.819-.248,4.23-.038.977.021,1.959.025,2.938.008,2.035.008,4.069.01,6.1,0,1.015,0,2.029,0,3.165a5.8,5.8,0,0,0-.812-.524c-.742-.3-1.491-.58-2.249-.834-1.636-.547-3.274-1.092-4.921-1.6-1.671-.516-3.338-1.07-5.039-1.461-2.59-.595-5.2-1.112-7.819-1.572-1.848-.324-3.721-.5-5.647-.749-.02-.2-.064-.48-.073-.757-.091-2.761-.183-5.521-.256-8.283-.01-.385-.125-.71-.507-.678a1.178,1.178,0,0,0-.825.453,2.034,2.034,0,0,0-.191,1.072c.051,1.673.153,3.344.205,5.017.033,1.009.007,2.02.007,3.046a19.08,19.08,0,0,1-5.036-.472,21.792,21.792,0,0,0-7.448-.474,9.478,9.478,0,0,1-1.41.115c-.947-.023-1.894-.142-2.841-.141-.976,0-1.952.1-2.929.161a1.052,1.052,0,0,1-1.049-.617c-.128-.217-.425-.529-.585-.5-.852.166-1.806.115-2.412.946a.653.653,0,0,1-.508.225,3.659,3.659,0,0,0-3.468,1.381,3.256,3.256,0,0,1-.337.312c-.054-.251-.1-.44-.135-.633a9.8,9.8,0,0,1-.324-3.468,3.135,3.135,0,0,0-.822-2.534,6.053,6.053,0,0,0-3.219-2c-2.324-.638-4.654-1.034-6.85.444a.294.294,0,0,1-.182.057c-.642-.061-.9.47-1.108.865a10.542,10.542,0,0,0-1.264,5.317q.08,3.9.175,7.811c.068,2.695.182,5.388.21,8.081.044,4.265.035,8.532.048,12.8,0,.843,0,1.684,0,2.527a10.072,10.072,0,0,1-.369-2.129c-.065-1.431-.068-2.863-.1-4.294-.031-1.4-.063-2.8-.108-4.2-.016-.493-.1-.985-.1-1.477.01-1.061.069-2.122.085-3.182.014-.991,0-1.981-.007-2.97a3.236,3.236,0,0,0-.038-.714c-.034-.142-.183-.257-.28-.384-.084.153-.234.3-.242.457-.063,1.345-.1,2.691-.146,4.037-.037,1.092-.1,2.185-.093,3.276.009.91.131,1.818.165,2.727.042,1.168.016,2.339.073,3.506.1,2.044.284,4.084.363,6.128.064,1.667.016,3.339.048,5.008,0,.191.2.379.312.568a5.2,5.2,0,0,0,.359-.521,1.536,1.536,0,0,0,.061-.439c0,1.258,0,2.424,0,3.591.009,2.109.01,4.218.035,6.328.017,1.452.192,2.914.073,4.354a24.743,24.743,0,0,0-.073,5.072,32.879,32.879,0,0,1,0,8.583,4.538,4.538,0,0,0-.021.778c.033,1.036.09,2.071.093,3.106a.878.878,0,0,1-.331.563,1.039,1.039,0,0,0-.267,1.338,1.069,1.069,0,0,1,.124.383c0,.5-.044,1.009-.052,1.515,0,.192.086.387.072.576a31.406,31.406,0,0,0-.259,3.658,27.128,27.128,0,0,0,.631,5.791c.315,1.171.5,2.376.745,3.565a5.421,5.421,0,0,1,.235,1.115A51.38,51.38,0,0,1,1.44,316.1a5.169,5.169,0,0,0,2.74,5.634,11.48,11.48,0,0,0,5.673,1.245,6.467,6.467,0,0,0,6.47-5.285c.315-1.5.406-3.049.595-4.575.044-.367.065-.738.1-1.167a5.719,5.719,0,0,0,3.123,1.477c2.343.3,4.676.717,7.028.912a56.957,56.957,0,0,0,6.32.136,92.363,92.363,0,0,0,13.041-1.064c2.845-.49,5.715-.857,8.536-1.457a81.828,81.828,0,0,0,13.113-4.034,73.306,73.306,0,0,0,7.269-3.346c2.2-1.164,4.272-2.581,6.4-3.879.43-.26.883-.482,1.4-.763a1.13,1.13,0,0,1,.28-.395,25.3,25.3,0,0,0,4.882-4.646,23.742,23.742,0,0,0,3.875-6.41,4.568,4.568,0,0,1,.457-.932c1.151-1.572,2.257-3.183,3.507-4.674a39.714,39.714,0,0,1,3.86-4.039,6.118,6.118,0,0,1,2.8-1.583,8.658,8.658,0,0,1,6.861,1.543,17.816,17.816,0,0,1,3.886,4.1c1.076,1.526,2.117,3.076,3.182,4.61.764,1.1,1.632,2.144,2.29,3.308a18.85,18.85,0,0,0,2.978,4.126c.459.459.959.878,1.388,1.362a12.091,12.091,0,0,0,3.673,2.739,3.112,3.112,0,0,1,.5.293,57.887,57.887,0,0,0,11.533,7.2c2.8,1.27,5.672,2.391,8.536,3.515,1.061.416,2.2.644,3.294.968a28.834,28.834,0,0,0,2.913.861c2.925.533,5.858,1.034,8.8,1.444a41.46,41.46,0,0,0,4.682.3c2.04.052,4.084.074,6.124.009,1.481-.048,2.957-.268,4.437-.393,1.1-.094,2.214-.089,3.3-.255,2.078-.316,4.154-.67,6.209-1.111a10.691,10.691,0,0,0,4.5-1.593,1.917,1.917,0,0,1,.5-.154c0,.61-.005,1.128,0,1.644a1.805,1.805,0,0,0,.067.768,6.38,6.38,0,0,1,.541,2.97,7.593,7.593,0,0,0,5.158,7,7.335,7.335,0,0,0,9.454-4.545,16.9,16.9,0,0,0,.838-4.8A30.066,30.066,0,0,0,207.515,305.7ZM12.407,221.876c-.1,1.428-.124,2.861-.216,4.289-.012.188-.23.362-.3.463a4.11,4.11,0,0,1,.17.893c-.06,1.694-.111,3.389-.239,5.077-.306,4-.663,8-.983,12-.284,3.532-.58,7.063-.808,10.6-.163,2.513-.234,5.031-.321,7.549-.027.8.024,1.607.033,2.411.007.542,0,1.083,0,1.624H9.469c0-1.539.061-3.081-.013-4.617-.123-2.54-.433-5.076-.48-7.615-.048-2.693.206-5.391.173-8.084-.067-5.261-.246-10.521-.369-15.781a4.409,4.409,0,0,1,.834-3.13,2.9,2.9,0,0,0,.323-1.692,11.918,11.918,0,0,0-.812-4.655,1.566,1.566,0,0,1,.753-2.022.881.881,0,0,1,.71.1,6.73,6.73,0,0,1,.893.751A2.163,2.163,0,0,1,12.407,221.876ZM138.5,230.491c1.009-.5,2-1.044,3.033-1.477,1.346-.563,2.733-1.034,4.1-1.551.563-.214,1.112-.472,1.682-.666a18.166,18.166,0,0,0,3.328-1.129c1.8-1.055,3.836-1.151,5.747-1.732.376-.115.7-.391,1.074-.528a5.027,5.027,0,0,1,.781-.08c.974-.176,1.937-.417,2.916-.541,1.328-.17,2.674-.2,4-.385a53.108,53.108,0,0,1,8.626-.111c1.179.029,2.36-.1,3.541-.136a6.533,6.533,0,0,1,.831.069c.021.311-.057.672.076.784a1.021,1.021,0,0,0,.771.107,13.18,13.18,0,0,1,7.913.825c.18.074.359.154.538.233,2.589,1.142,2.591,1.141,3.982,3.556a.9.9,0,0,1,.116.486c-.059.78-.152,1.558-.216,2.337-.05.608-.048,1.221-.114,1.826-.119,1.078-.354,2.15-.387,3.228a30.637,30.637,0,0,0,.149,3.839c.133,1.4.378,2.791.575,4.186.005.043-.005.108.018.125.613.448.237,1.049.248,1.589.026,1.26.042,2.521.074,3.781.024.883.067,1.767.1,2.65a.286.286,0,0,0,.046.179c.672.625.273,1.452.348,2.164.119,1.137-.078,2.3-.03,3.454.037.887.289,1.764.359,2.651.029.358-.216.729-.257,1.1-.067.609-.041,1.227-.11,1.835a1.63,1.63,0,0,1-1.436,1.119c-.233-.026-.461-.084-.774-.141a1.7,1.7,0,0,0-.37-2.463,5.676,5.676,0,0,0-1.952-.68,2.187,2.187,0,0,1,0-2c.28-.455-.278-1.617-.8-1.89a2.607,2.607,0,0,1-1.094-1.99c.071-.446-.005-.721-.5-.731.072-1.341-.822-2.28-1.328-3.366a5.51,5.51,0,0,0-1.579-2.341c-.133-.1-.159-.341-.233-.518a1.929,1.929,0,0,0-.225-.532c-1.683-1.965-3.368-3.93-5.076-5.874a19.126,19.126,0,0,0-3.666-3.238c-1.409-.953-2.746-2.013-4.124-3.012a2.123,2.123,0,0,0-.574-.208c-.156-.051-.363-.051-.461-.154a7.208,7.208,0,0,0-3.134-1.555c-.63-.218-1.228-.529-1.86-.744-.86-.291-1.732-.544-2.606-.785a6.283,6.283,0,0,0-1.018-.142,1.548,1.548,0,0,1-.745-.188l.766-.144a6.389,6.389,0,0,0-.829-.307,10.061,10.061,0,0,1-1.594-.284c-.469-.175-.781.984-1.363.037-.22-.358-1.07-.328-1.635-.474l-.214.009a1.346,1.346,0,0,0-1.707.187l-.009-.007a5.383,5.383,0,0,0-1.447-.473,30.941,30.941,0,0,0-3.566.11c-1.478.128-2.961.277-4.418.549-1.175.219-2.309.653-3.471.958-.493.129-1.008.175-1.505.257C137.586,231.032,137.639,230.913,138.5,230.491Zm-65.862-.1a1.068,1.068,0,0,1,.533.214c1.554.9,3.162,1.711,4.642,2.717q3.591,2.439,7.033,5.1a16.417,16.417,0,0,1,3.211,3.7c.917,1.307,2,2.508,2.841,3.858a37.8,37.8,0,0,1,1.785,3.681c.467.971.881,1.977,1.435,2.9a66.642,66.642,0,0,0,3.753,5.888c1.6,2.121,3.645,3.489,6.58,3.11,2.471-.319,4.731-.948,6.474-2.811a15.025,15.025,0,0,0,1.061-1.647c.187-.264.546-.413.71-.685.323-.534.532-1.134.843-1.677.655-1.146,1.418-2.235,2-3.413a40.137,40.137,0,0,1,2.849-4.422,41.485,41.485,0,0,1,3.2-4.041c.95-1.1,1.914-2.185,2.9-3.247.217-.233.593-.31.843-.521.994-.843,1.946-1.739,2.957-2.56a24.078,24.078,0,0,1,2.283-1.618c1.716-1.087,3.454-2.142,5.187-3.2a1.87,1.87,0,0,1,.421-.137c.243,1.025.085,1.411-.891,1.6a9.8,9.8,0,0,0-3.717,1.92,13.455,13.455,0,0,1-2.714,1.481c-.162.064-.264.268-.408.392-.487.421-.987.829-1.471,1.251-.315.276-.616.568-.921.856-.14.132-.255.325-.421.391-1.2.47-1.769,1.623-2.615,2.465s-1.59,1.824-2.367,2.752c-.146.176-.537.363-.08.633-.119.146-.21.37-.362.425-.47.174-.576.544-.748.962a14.923,14.923,0,0,1-1.136,2.122c-.29.472-.331,1.073-.919,1.418-.257.149-.165.806-.391,1.117-.48.663-.226,1.652-1.011,2.16-.064.042-.051.2-.085.3-.165.476-.341.949-.5,1.428a4.6,4.6,0,0,0-.1.582c-.069.018-.285.073-.325.082-.026.5-.037.883-.072,1.266a8.579,8.579,0,0,1-.162,1.274,12.165,12.165,0,0,1-.472,1.316,11.747,11.747,0,0,0-.687,5.354,2.086,2.086,0,0,0,.129.4l.355-.23c.029.1.084.184.069.255-.165.781-.333,1.563-.514,2.341-.073.32-.118.591.284.746.1.037.15.276.158.425a6,6,0,0,1-.061,1.253,6.089,6.089,0,0,1-1.662-3.3,1.062,1.062,0,0,0-.186-.476,8.151,8.151,0,0,0-6.22-3.264c-.429.016-.86-.321-1.3-.358a5.9,5.9,0,0,0-3.977.991,11,11,0,0,0-3.622,4.333,5.681,5.681,0,0,0-.216,1.385c-.167-.17-.363-.277-.365-.387-.024-1.428.051-2.862-.039-4.284-.093-1.445-.425-2.876-.5-4.322a20.91,20.91,0,0,0-1.3-5.214,22.938,22.938,0,0,0-4-7.529c-.919-1.146-1.739-2.378-2.718-3.471-1.009-1.123-2.211-2.071-3.228-3.189a23.14,23.14,0,0,0-4.14-3.3,26.108,26.108,0,0,0-2.739-1.846c-1.559-.805-3.183-1.483-4.8-2.171a.7.7,0,0,1-.511-.746c-.033-.806-.178-1.609-.233-2.415C72.272,230.629,72.5,230.406,72.633,230.394Zm23.155,38.058c-.141-.05-.3-.106-.287-.1,0-.371-.005-.6,0-.832a3.124,3.124,0,0,1,.046-.7c.09-.338.269-.616-.231-.851-.136-.064-.157-.742,0-.976.191-.276.038-.383.012-.595-.081-.652-.054-1.317-.116-1.972a3.144,3.144,0,0,0-.271-.712c-.088-.235-.256-.49-.223-.712a13.747,13.747,0,0,1,.379-1.512A31.384,31.384,0,0,1,95.788,268.453Zm.037.281q-.045.945-.089,1.891L95.6,270.6a10.686,10.686,0,0,1-.17-1.177,3.055,3.055,0,0,1,.156-.745Zm-4.071-16.972a6.707,6.707,0,0,0-.4-.784,3.79,3.79,0,0,0-.674-.761c-.333-.276-.715-.491-1.074-.733l.286-.3c.159.09.318.182.476.273l.166-.144c-1.172-1.5-2.346-2.991-3.612-4.605,1.036.325,1.413,1.091,1.9,1.763.744,1.032,1.532,2.032,2.271,3.067.557.78,1.1,1.575,1.581,2.4a4.909,4.909,0,0,1,.28,1.287,3.049,3.049,0,0,1-.656-.484A8.559,8.559,0,0,1,91.754,251.762ZM44.315,225.469c-.024-2.077-.005-2.077,2.022-1.878,1.3.128,2.6.216,3.893.395,1.174.162,2.33.44,3.5.634.862.141,1.743.18,2.6.352.992.2,1.973.469,2.946.755,1.954.576,3.907,1.159,5.844,1.789,1.6.52,3.166,1.122,4.754,1.669.605.209.994.469.9,1.238a22.525,22.525,0,0,0-.021,2.529l-.469-.088c-1.895-.357-3.785-.745-5.686-1.062a35.08,35.08,0,0,0-7.621-.259c-1.786.091-3.556.5-5.334.753-.724.1-1.456.15-2.175.277-.372.065-.717.271-1.087.37-.444.119-.911.165-1.353.293-.847.244-1.683.525-2.487.78-.12-1.032-.282-1.969-.321-2.912-.022-.548.223-1.1.222-1.657C44.438,228.12,44.33,226.8,44.315,225.469Zm26.266,9.1c-.61-.2-1.227-.417-1.848-.613a1.926,1.926,0,0,0-.693-.142,9.767,9.767,0,0,1-4.791-.968.957.957,0,0,0-.5-.118c-.838.14-1.666.366-2.509.452a18.451,18.451,0,0,1-1.971-.056,9.138,9.138,0,0,0-1.865.06c-.992.2-1.96.519-2.939.784-.1.027-.273.063-.3.026-.379-.655-.664-.1-1.031.023a6.824,6.824,0,0,1-1.334.142c-.213.026-.416.125-.627.167-.442.085-.813.521-1.359.175-.157-.1-.557.159-.829.286-.358.165-.7.37-1.051.544a10.385,10.385,0,0,1-1.043.474c-.45.165-.913.289-1.387.434-.214-1.5-.2-1.543,1.109-1.87a33.786,33.786,0,0,0,3.841-.928c1.941-.737,3.995-.6,5.975-1,.981-.2,2.031-.078,3.011-.288a14.707,14.707,0,0,1,3.754.14c1.222.046,2.445.138,3.66.271,1.014.11,2.02.3,3.027.465.316.052.623.161.938.218A.923.923,0,0,1,70.581,234.564Zm-2.552,72.243c-1.234.7-2.687.774-3.915,1.475-.311.176-.716.18-1.048.331-.38.172-.9-.055-1.172.54-.1.218-.75.171-1.142.269-1.3.327-2.584.686-3.884.991-.791.184-1.6.3-2.4.435-.7.123-1.4.229-2.092.37-.116.023-.2.192-.32.31-2.011.278-4.1.613-6.2.847-1.979.22-3.967.438-5.955.473-3.565.064-7.142-.162-10.7.02-2.8.144-5.364-.67-8-1.271a4.931,4.931,0,0,1-3.5-3.066,1.447,1.447,0,0,1,.227-1.735,1.631,1.631,0,0,0,.188-1.2c-.183-1.111-.49-2.2-.681-3.309a11.2,11.2,0,0,1-.009-1.5c-.009-.3.033-.719-.139-.872A.962.962,0,0,1,17.1,298.6a1.666,1.666,0,0,0,.024-.77,7.611,7.611,0,0,1-.112-2.208,2.6,2.6,0,0,0-.163-.929c-.024-.124-.094-.273-.052-.374.4-.968-.162-1.84-.111-2.723.112-.426.226-.852.337-1.278a4.476,4.476,0,0,0,.272-1.111c-.013-1.275-.122-2.55-.132-3.825-.008-.9.084-1.794.128-2.691a3.216,3.216,0,0,0,0-.5,17.019,17.019,0,0,1-.256-2.489,19.668,19.668,0,0,0-.276-5.831,10.049,10.049,0,0,1-.072-1.558c-.085-.941-.2-1.878-.316-2.883l.666.05a3.956,3.956,0,0,1,.005-.57,5.085,5.085,0,0,1,.217-1.132,1.706,1.706,0,0,0-.554-2.363.423.423,0,0,1-.163-.251c-.01-.738.022-1.478-.008-2.216-.034-.788-.122-1.576-.188-2.363-.005-.061-.056-.127-.044-.182a24.162,24.162,0,0,0,.074-4.782c.033-2.188.114-4.373.149-6.56.031-2,.025-4,.043-6,.01-.957.107-1.917.042-2.868-.051-.738-.344-1.457-.433-2.2a15.166,15.166,0,0,1-.009-1.9c.009-1.056.01-2.111.042-3.165a2.266,2.266,0,0,1,.183-.83c.257-.591.6-1.147.836-1.743a11.377,11.377,0,0,1,4.494-5.2c.272-.183.717-.086,1.07-.171,4.682-1.119,9.459-.928,14.213-1.049.913-.022,1.827-.037,2.736-.1a2.869,2.869,0,0,0,1.255-.3,1.83,1.83,0,0,1,1.845-.14c0,2.2-.014,4.369.005,6.539.01,1.257.069,2.514.112,3.772a5.667,5.667,0,0,1,.05.958.637.637,0,0,1-.4.4,13.52,13.52,0,0,0-4.678,2.58c-1.317,1.015-2.559,2.133-3.791,3.253a20.918,20.918,0,0,0-2.142,2.216c-.716.876-1.332,1.835-1.969,2.772q-.621.911-1.179,1.866c-.448.767-.842,1.567-1.3,2.326a17.463,17.463,0,0,1-1.232,1.8,17.826,17.826,0,0,0-3.321,5.461c-.254.783-.6,1.541-.795,2.337-.175.71-.826.831-1.278,1.078a4.256,4.256,0,0,0-2.207,4.265c.007.286.133.57.044.813-.1.355-.2.71-.282,1.068-.039.163,0,.363-.082.494a3.563,3.563,0,0,0-.4,2.341c.1,1.025.086,2.06.124,3.091.005.125-.012.288.056.369.608.711,1.239,1.4,1.849,2.109a1.874,1.874,0,0,0,1.453.857c.086,0,.205.3.26.473.494,1.594.9,3.224,1.485,4.783.6,1.594,1.474,3.091,2.052,4.693.362,1,1.073,1.771,1.482,2.757a20.076,20.076,0,0,0,2.554,3.968,22.091,22.091,0,0,0,1.707,1.742c.2.213.226.587.431.783.625.593,1.3,1.14,1.956,1.7a3.937,3.937,0,0,1,.467.348c1.375,1.59,3.289,2.375,5.038,3.41.018.01.044.012.059.026,1.194,1.1,2.806,1.368,4.191,2.088a18.686,18.686,0,0,0,2.625.921,4.567,4.567,0,0,1,.434.165c.195.089.391.289.572.273.985-.084,1.709.647,2.619.792.941.15,1.874.338,2.807.533.267.055.511.235.778.276.945.141,1.894.253,2.842.366.869.1,1.738.21,2.61.273a5.8,5.8,0,0,0,.876-.145c.5-.047,1.078-.545,1.435.253.03.068.2.118.294.1.891-.124,1.779-.265,2.669-.4a6.12,6.12,0,0,1,.768-.1,2.4,2.4,0,0,0,1.674-.3,1.677,1.677,0,0,1,1.2-.05,4.866,4.866,0,0,0,2.748-.251.8.8,0,0,1,.256-.034c.034,0,.068.035.209.115A24.729,24.729,0,0,0,68.029,306.808Zm20.48-20.658c.4.171.464.843.1,1.3a8.4,8.4,0,0,1-.766.8c-.067.061-.206.042-.314.059.035.04.069.082.108.128.013.016.026.033.042.05l.1.115.119.142a4.912,4.912,0,0,1-2.244.221l1.431.447c0,.091,0,.184,0,.276-1.059-.515-1.807-.374-2.016.906.1.135.247.344.426.6-.587.371-.762,1.343-1.83.968.268.5.417.864-.28.979-.165.027-.223.487-.4.68a8.031,8.031,0,0,1-.891.724c-.63-.223-.648-.2-.747.562a1.015,1.015,0,0,1-.285.61c-.6.5-1.24.947-1.854,1.431a3.564,3.564,0,0,0-.422.48c-.6-.243-.855-.055-.835.572-.793.442-1.738.438-2.411,1.171a3.537,3.537,0,0,1-1.363.69c-1.424.542-2.868,1.03-4.288,1.583a24.547,24.547,0,0,1-5.546,1.218,1.883,1.883,0,0,1-.673-.072c-.226-.055-.409-.206-.546.171-.039.11-.672.175-.723.084-.294-.516-.742-.277-1.1-.26-.835.037-1.665.208-2.5.223a9.067,9.067,0,0,1-1.379-.284c-.312-.046-.63.284-.93-.212-.217-.357-2.053-.2-2.245-.02l-1.524-.268a1.626,1.626,0,0,1-.446-.076,11.313,11.313,0,0,0-2.495-.6c-1.215-.321-2.354-.927-3.543-1.36a6.941,6.941,0,0,1-2.659-1.69c-1.345-.05-2-1.256-3.037-1.824-.239-.132-.408-.392-.644-.531-.452-.265-.933-.481-1.4-.725a4.884,4.884,0,0,1-.881-.51c-.37-.31-.663-.712-1.032-1.022a3.889,3.889,0,0,1-1.33-2.224l-.4-.018c-.325-.805-.609-1.511-.937-2.322l-.629.57-.176-.076c.089-.169.169-.342.269-.5.123-.195.264-.38.491-.7l-.749.125c-.056-.678-.112-1.351-.178-2.131l-.348-.12c.074-.192.149-.382.265-.68l-1.021.069c.039-.135.076-.263.132-.452l-1.532-.664c.037-.1.091-.253.169-.464l-1.278.917v-1.223l1.946.267c-.119-.285-.2-.473-.306-.737a2.982,2.982,0,0,0,2.947-.7,8.054,8.054,0,0,1,1.025-.849,7.924,7.924,0,0,0,2.071-2.853,23.482,23.482,0,0,0,1.112-2.419,14.563,14.563,0,0,0,.439-1.933c.324.043.444-.221.392-.638-.058-.459-.167-.886.409-1.2.246-.132.332-.621.422-.966a6.242,6.242,0,0,1,2.628-3.517,2.645,2.645,0,0,1,3.7.694,14.432,14.432,0,0,1,2.571,6.907c.1.908.5,1.781.651,2.688a29.516,29.516,0,0,1,.353,3.181c.15,2.419.538,4.739,2.32,6.581a10.128,10.128,0,0,0,1.2,1.346,5.65,5.65,0,0,0,3.114,1.035c1.75.078,2.939-.891,4.173-1.853a2.366,2.366,0,0,0,.434-.549,30.208,30.208,0,0,0,2.007-3.011,5.522,5.522,0,0,0,.448-2.172c.132-2.12.186-4.245.28-6.367q.12-2.662.264-5.324c.056-1,.118-2.011.23-3.011.131-1.18.361-2.351.472-3.532.116-1.231.1-2.474.22-3.7.071-.755.289-1.495.41-2.248.179-1.113.318-2.235.5-3.349.115-.716.337-1.422.4-2.142.1-1.227.077-2.463.162-3.693a15.653,15.653,0,0,0,.291-2.522c-.133-1.358.559-2.456.9-3.656a2.462,2.462,0,0,1,.857-1.057,9.215,9.215,0,0,1,1.857-1.286c.776-.365,1.461.184,2.144.5a2.846,2.846,0,0,1,1.377,1.724,18.933,18.933,0,0,1,1.059,5.094c.125,1.346.4,2.678.6,4.017a1.8,1.8,0,0,1-.012.324c-.022.6-.005,1.175.771,1.332l-.57-.09c.77,4.031,1.537,8.05,2.313,12.113l-.528.043c.038.162.026.344.111.434.282.3.146.566.025.872a2.394,2.394,0,0,0-.01.694c-.376.291.038.8.088,1.258a18.5,18.5,0,0,0,.434,2.433c.129.521.416,1,.587,1.516a8.213,8.213,0,0,1,.136.873c.044.208.17.4.213.605.2.953.357,1.912.575,2.859.061.269.331.489.406.759a6.059,6.059,0,0,0,1.349,2.738c.254.263.231.77.433,1.108a.732.732,0,0,0,1.3.085c.084.18.153.324.216.472s.115.281.193.472l.387-.3c1.043.668,2.041,1.488,3.423.937a2.451,2.451,0,0,0,.2.229,1.6,1.6,0,0,0,.213.137c.451-.45.827-.382,1.339.175-.391.268-.792.541-1.355.925C88.018,285.918,88.26,286.042,88.509,286.15Zm3.76-24.708c-.042-.182-.091-.438-.167-.686a.278.278,0,0,0-.187-.169,7.941,7.941,0,0,0-1.681,0c-.276.05-.491.427-.691.737.348-.1.843.712,1.038-.21.016-.078.417-.074.639-.11.02.065.038.129.058.193l-1.543.844.864.127.012.088-1.452.286-.012.146,1.695.907c.08.219.1.476-.393.473a4.353,4.353,0,0,0-.951.122c-.1.022-.178.163-.226.321a4.109,4.109,0,0,1,2.407.325c-.035.327-.035.327-1.247.548.158-.11.237-.163.452-.311H89.471l.959.728c-.039.108-.124.35-.216.606l.746.427-.763.291c.008.057.016.114.022.171l1.015-.06c.038.108.124.355.23.663-.6-.041-.924,1.094-1.924.261.46.8.46.8,1.106.532.077,1.061.873,1.362,1.749,1.611a3.418,3.418,0,0,1-2.648.11l-.027.206q.476.212.955.421l-.039.152c-.362.115-.723.231-1.085.348-.014.06-.027.12-.041.18l.984.243c.018-.056.037-.112.054-.169l-.426-.193c0-.05-.007-.1-.01-.148.47,0,.941,0,1.411,0a.427.427,0,0,0,.209-.056c.464-.287.463-.289.565.146-.444.187-.86.353-1.268.537-.086.041-.218.167-.2.217.21.7-.346.708-.89.857l.876.084-.727.865c.71.178,1.466.119,1.769,1l-.917.05-.979.518-.3.886.923.093-.374.2-.414.214c.294.524.3,1.343,1.384.7l-.528,1.022.3.093-.012.141h-.925c.132.5,1.141-.277.84.717l-.651,0c-.15.12-.3.242-.506.405l1.325.674c-.78.57-1.072-.859-1.8-.34L90,281.7l-1.358.1c.213.853-.536.623-.851.716a2.614,2.614,0,0,1-1.469.01,7.877,7.877,0,0,1-1.6-.9c-.5-.308-.975-.663-1.485-.955-.235-.136-.572-.136-.4-.557,0-.01-.277-.136-.423-.208a1.3,1.3,0,0,0-.467-1.691c-.1-.076-.235-.21-.226-.3a1.994,1.994,0,0,0-.661-1.619c-.074-.08-.01-.285-.01-.408-.161-.033-.408-.047-.413-.091-.119-.966-.213-1.935-.307-2.905-.018-.191,0-.387-.022-.576-.1-.736-.23-1.468-.328-2.2a4.27,4.27,0,0,0-.542-1.938c-.1-.14-.022-.391-.033-.591-.042-.817-.712-1.515-.46-2.4.014-.054-.2-.174-.31-.261a4.554,4.554,0,0,0-.2-2.925l.616-.094a10.381,10.381,0,0,1-.31-1.376c-.041-.468.064-.946.046-1.418-.035-.893-.091-1.785-.179-2.672-.1-1.026-.246-2.046-.361-3.071-.009-.078.1-.17.1-.251-.014-.227.013-.585-.11-.655-.511-.285-.325-.531-.086-.881.346-.51.156-.993-.256-1.116-.038-.43-.077-.813-.1-1.2-.009-.144.013-.29.017-.435.01-.333.153-.758,0-.985-.465-.694-.144-1.421-.06-2.054A1.926,1.926,0,0,0,77,244c.217-.834.047-1.234-.482-1.355L75.3,240.347l-.084.023c.025.176.05.353.082.588l-.638-.217c.325-1.645-1.2-1.495-2.032-2.154l-.1.493c-.324-.291-.521-1.048-1.042-.282a1.654,1.654,0,0,0-2.2-.123c-.468.253-.983.426-1.43.71a12.367,12.367,0,0,0-1.56,1.187c-.123.107-.094.408-.1.621a1.185,1.185,0,0,1-.7,1.183l.45.352c-.119.029-.188.048-.259.061-.474.093-.932.195-.708.865.018.055-.065.145-.106.217-.293.519-.724.984-.457,1.681.067.175-.137.439-.166.669-.046.355-.048.716-.08,1.257-.338.226-.265.72-.208,1.282a4.142,4.142,0,0,1-.269,1.445c-.171.606-.308,1.176.231,1.694a.58.58,0,0,1-.035.5c-.447.148-.325.465-.344.793a9,9,0,0,1-.261,1.124,3.059,3.059,0,0,0-.046.757,5.189,5.189,0,0,1-.05,1.888,2.072,2.072,0,0,0-.061,1.021,3.863,3.863,0,0,1-.482,2.606c-.124.265-.29.529.161.472a3.9,3.9,0,0,0-.278.765q-.171,1.209-.272,2.428a6.113,6.113,0,0,0,.08.792,1.5,1.5,0,0,1-.034.595,4.714,4.714,0,0,0-.226,2.133,17.228,17.228,0,0,1,0,3.006,15.748,15.748,0,0,1-.553,1.924c-.043.184.2.421.2.631-.009.814-.048,1.628-.108,2.44-.041.538-.133,1.074-.208,1.61a1.088,1.088,0,0,0,.149.942c.159.221-.163.788-.289,1.2a6.142,6.142,0,0,0-.152.831c-.012.261.082.528.072.789-.029.635-.076,1.271-.142,1.9a6.793,6.793,0,0,1-.285,1.883c-.2.473-.731.8-1.074,1.221a7.154,7.154,0,0,0-.393.751,4.33,4.33,0,0,1-.529.685c-.264.277-.559.525-.84.785.017.1.034.191.052.287-.823-.271-1.661-.5-2.466-.817a4.969,4.969,0,0,1-2.648-2.719,12.146,12.146,0,0,1-.749-1.76,8.517,8.517,0,0,1-.108-1.4c-.071-.648-.169-1.3-.276-1.938,0-.023-.067-.035-.1-.037-.022-.379-.033-.693-.06-1-.024-.277-.065-.551-.106-.883l-.365.067v-3.409h-.527c.024-3.251-1.647-5.678-3.68-8.1l-.451.618-1.019-.553a.732.732,0,0,1-1.043-.26c-.434-.559-1.243-.442-1.875.008a7.9,7.9,0,0,1-1.179.674c-.819.391-.95.678-.711,1.734a4.194,4.194,0,0,0-1.183.425c-.234.175-.288.595-.417.907-.084.2-.162.405-.271.68l.591.183c-.422.1-.829.082-.946.257-.188.278-.358.792-.222,1.017.247.408-.161.514-.187.774a3.54,3.54,0,0,1-.26.818,3.221,3.221,0,0,0-.3.788c-.041.605-.638.976-.578,1.656.033.376-.294.8-.493,1.179a10.017,10.017,0,0,1-4.179,4.218,5.319,5.319,0,0,1-1.675.293v-1.009c-.7.55-1.187.482-2.308-.329l.4-.379-.686-.355c.5-.1.906-.149,1.3-.257a3.882,3.882,0,0,0,.668-.324,5.007,5.007,0,0,0-.46-.84c-.1-.122-.358-.1-.528-.18a4.113,4.113,0,0,1-.487-.314c.027-.05.056-.1.084-.15-.25.048-.5.115-.75.139s-.51.005-.653.133c-.271.37-.533.747-.83,1.1-.024.026-.395-.132-.412-.235a2.188,2.188,0,0,1,.133-.706l-.461-.223c.545-.23,1.258-.3,1.464-.665.423-.745.805-.06,1.174-.093.26-.024.551.31.89.521.046-.446.043-.862.647-.385-.089-.487.788-.88-.187-1.27.02.195.1.379.035.456a1.523,1.523,0,0,1-.442.273,5.579,5.579,0,0,1-.422-1.005c-.089-.419.205-.5.567-.463a2.239,2.239,0,0,0,.5-.057c0-.069-.007-.139-.01-.208l-1.078-.512c.067-.107.145-.382.316-.463a3.13,3.13,0,0,1,.916-.127c-.431-.6-.932-.124-1.479-.3l.657-.477c-.311-.08-.572-.146-.835-.212l-.012-.122,1.46-.089c-.512-.359-.517-.613,0-1.1l-.393-.545c.606-.792.469-1.462-.421-1.867.2-.4.434-.791.6-1.2a2.29,2.29,0,0,0,.065-.7c.01-.2.014-.409.016-.613,0-.361,0-.723,0-1.166l.5-.355-.269-.131a5.531,5.531,0,0,1,.088-.836,7.279,7.279,0,0,1,.315-.783c-.144-.329-.285-.655-.463-1.064l-1.519-.427c-.064.017-.234.119-.325.072-.112-.059-.251-.289-.214-.362a.56.56,0,0,1,.393-.286,2.653,2.653,0,0,1,.678.166c.033-.065.067-.131.1-.2l-1.044-.716c.007-.063.014-.125.021-.188a4.764,4.764,0,0,1,.961.06,7.4,7.4,0,0,1,1.069.485c-.08-.327-.124-.512-.193-.8.242.073.4.174.541.152a1.542,1.542,0,0,0,.617-.254.446.446,0,0,0-.072-.387.8.8,0,0,0-.517-.037.807.807,0,0,1-1.042-.788l.77.4c.182-.474.4-.94,1.065-.484l-.314-.708.925-.263c-.78-.158-1.27-.457-1.332-1.111l-.872.088-.08-.142.558-.648,1.576.9.208-.2c-.256-.406-.511-.813-.748-1.187l.957-.588c-.026-.094-.051-.19-.076-.285-.23,0-.519-.09-.678.016-.518.342-.542.349-.643-.176L31.518,253c-.1-.282-.235-.669-.371-1.059a14.575,14.575,0,0,1-1.454-.81.5.5,0,0,1-.047-.866,4.136,4.136,0,0,0,.406-.442l.652.09c.216.031.43.061.644.09h0c.365-.544.5-1-.278-1.366a.328.328,0,0,1,.082-.63c.506-.135.64-.489.793-.9.125-.344.277-.734.795-.571.026-.7.165-.818.806-.668a2.264,2.264,0,0,1-.094-.566,1.608,1.608,0,0,1,.217-.47c.286.392.525.721.847,1.16-.038-.429.578-.717-.2-1.039.666-.212.819-.49.392-.795.666-.71,1.285-1.439,1.979-2.087.588-.552,1.266-1,1.9-1.511.508-.408,1-.831,1.507-1.247a.925.925,0,0,1,.208-.153c.848-.352,1.7-.7,2.655-1.089v2.148c.559-.267.994-.452,1.4-.685a.592.592,0,0,0,.208-.416,7.585,7.585,0,0,0,0-.912c-.008-.341-.166-.855-.005-.988A5.033,5.033,0,0,1,46,236.5c.724-.277,1.466-.5,2.2-.753.082-.027.157-.082.239-.1,1.623-.374,3.237-.8,4.873-1.1a35.779,35.779,0,0,1,6.066-.442,51.08,51.08,0,0,1,9.489.825c.467.082.929.182,1.4.263a.551.551,0,0,1,.536.6,1.425,1.425,0,0,0,.238.842.744.744,0,0,0,1.268-.306c.174-.461.395-.433.78-.235,1.089.557,2.215,1.039,3.3,1.609a15.617,15.617,0,0,1,1.534,1.057c.958.664,1.895,1.362,2.884,1.973a3.972,3.972,0,0,1,1.541,1.249,3.264,3.264,0,0,0,.608.579c.043-.24.072-.4.128-.717a7.652,7.652,0,0,0,.7,1.4,6.15,6.15,0,0,0,1.462,1.453,6.149,6.149,0,0,1,1.64,1.971.985.985,0,0,0,.553.4l-.09-.452.187-.1,1.427,2.633c-.529.406-.95-.8-1.517-.135a1.732,1.732,0,0,0,1.929.431,4.088,4.088,0,0,0,.163.618,3.311,3.311,0,0,0,.4.717c.268.346.527.667.034,1.136.316-.048.537-.082.817-.127-.024.416-.046.789-.068,1.163h0c-.093.039-.237.074-.243.124-.059.542-.453.418-.788.417-.352,0-.7,0-.974,0-.082.289-.131.464-.188.665.111.033.274.081.478.144-.1.115-.191.214-.251.282.149.563.874-.452.932.286l-.989.366c.014.06.03.12.046.179.7.033,1.423.022,1.588,1l.205-.132c-.043-.2-.086-.4-.144-.673.546.226,1.325-.169,1.568.759.031.119.324.17.54.272-.455.146-.805.259-1.26.406l.438.2-.694.452.173.056-.367,1.049c.344.023.35.286.125.6l2.129.306-.673.635c.041.3.084.612.132.971h.678c0,.039.007.078.009.118Zm18.642,16.9a7.624,7.624,0,0,0-3.416-1.92c-2.184-.631-4.371-.932-6.513.172a12.539,12.539,0,0,0-3.975,3.274c-.436.532-.981.974-1.444,1.486a8.276,8.276,0,0,1-1.1,1.174c.22-.639.425-1.285.66-1.918.389-1.053.844-2.086,1.191-3.152a62.292,62.292,0,0,1,2.348-6.537c.324-.717.585-1.466.941-2.168,1.162-2.3,3.132-3.074,5.594-2.978a8.992,8.992,0,0,1,3.71,1.074,2.444,2.444,0,0,1,.968.933c.451.8.759,1.679,1.192,2.49a22.337,22.337,0,0,1,1.5,5.276c.473,1.87.567,3.843,1.511,5.587a3.513,3.513,0,0,1,.159.493C113.062,280.473,111.973,279.423,110.911,278.346Zm3.9,2.411a10.3,10.3,0,0,1-1-3.313c-.007-.043,0-.112-.018-.125-.732-.41-.217-1.108-.376-1.653-.169-.578-.239-1.183-.372-1.772-.1-.416-.222-.825-.336-1.235a3.7,3.7,0,0,1-.252-.937,6.316,6.316,0,0,0-1.5-3.86,20.847,20.847,0,0,0-1.576-1.79,1.32,1.32,0,0,0-1.3-.574.409.409,0,0,1-.247-.063,7.553,7.553,0,0,0-5.534-.426c-.016,0-.038-.02-.1-.054a1.457,1.457,0,0,1,1.558-.6,9.457,9.457,0,0,0,2.053.1c2.577.068,4.327,1.6,5.728,3.5a11.44,11.44,0,0,1,1.384,3.328c.414,1.283.727,2.6,1.014,3.923.234,1.069.367,2.161.545,3.242a2.288,2.288,0,0,0,.082.447,5.994,5.994,0,0,1,.646,1.779c.048.6.6,1.157.919,1.737.108.2.193.4.289.606C115.463,282.5,115.226,281.577,114.806,280.758Zm3.081-9.532a3.1,3.1,0,0,1,.874-.172c.12.009.214.338.387.638l-1.249-.267Zm-1.639.612c-.122-.329-.191-.519-.3-.806l1.006-.205Zm7.529,13.652.3-.681h-.831c-.008-.046-.014-.093-.022-.14l.591-.14v-.419l-1.551.515c-.01-.03-.021-.06-.033-.09a5.537,5.537,0,0,0,1.008-.737,3.145,3.145,0,0,0,.335-1.015c-.814.388-1.159,1.328-2.173,1.09.447-.244.844-.436,1.21-.674.129-.085.29-.324.251-.418a.829.829,0,0,0-.433-.438,4.535,4.535,0,0,0-.913-.135l1.162-1.455c-.254-.1-.41-.162-.49-.192-.11.261-.193.457-.276.655-.239-.136-.6-.214-.7-.417-.4-.834.6-.549.916-1.028h-1.363c-.031-.082-.064-.163-.1-.244l1.115-.663c-.017-.054-.033-.108-.05-.163l-1.754.661c.055-.516.073-.687.507-.912.033-.018.069-.035.107-.054.21-.1.5-.214.906-.372h0a.656.656,0,0,0-.06-.033h0c-.042-.022-.088-.043-.131-.064-.111-.052-.214-.107-.233-.182-.041-.166.082-.372.146-.6l-.448-.252c.08-.176.161-.353.294-.643H119.2c.529-.673,1.094-.123,1.613-.145l.078-.214-.846-.444c.034-.157.108-.471.169-.787a.834.834,0,0,0,.018-.379c-.142-.463-.31-.919-.467-1.377-.025-.073-.094-.186-.069-.212.337-.361.012-.678-.039-1.017a3.656,3.656,0,0,1,.022-.715c-.166-.178-.3-.444-.5-.51a4.2,4.2,0,0,0-1.01-.093c.03.111.059.222.111.422-.293.278-.285.276-.473-.225a.322.322,0,0,0-.244-.161c-.252,0-.506.072-.755.057a5.975,5.975,0,0,1-.87-.205c.068-.472.125-.983.223-1.486.029-.145.178-.265.271-.4.025.182.054.362.073.545a2.607,2.607,0,0,1-.05.361l1.17-.776.174.186-.608.427,1.448.14c-.118-.233-.189-.376-.235-.468l1.038-.3c-.681-.825-1.279.008-1.967-.115.009-.076.018-.154.029-.233l.027-.233.014,0h0l-.008-.013h-.009a.012.012,0,0,1,0,.007c-.372-.119-.812-.68-1.048.167a.684.684,0,0,1-.282,0q-.106-.8-.17-1.6c0-.033.131-.076.213-.122a.879.879,0,0,1-.15-1.248,1.277,1.277,0,0,0,.133-1.333c-.061-.091-.021-.25-.03-.439l1.028.1-.689-.864a3.915,3.915,0,0,1-.157-.555,6.891,6.891,0,0,1-.154-1.332,11.057,11.057,0,0,1,.223-1.664c.024-.125.235-.205.3-.337.112-.226.3-.521.238-.708a1.706,1.706,0,0,1,.519-1.874,8.068,8.068,0,0,0,.908-2.113c.191-.456.426-.894.609-1.352.2-.512.361-1.043.554-1.56a5.509,5.509,0,0,0,.436-1.069c.144-1.038,1.015-1.6,1.491-2.419.733-1.264,1.636-2.433,2.313-3.724.323-.616.961-.771,1.3-1.29a2.886,2.886,0,0,0,.374-.561c-.127.068-.252.137-.379.206l-.124-.148c.263-.2.529-.4.788-.608a1.7,1.7,0,0,0,.281-.267,17.329,17.329,0,0,1,3.829-3.308c.6-.413,1.359-.614,1.937-1.052a12.957,12.957,0,0,1,3.923-1.63c.779-.264.812-.205.606.6a1.694,1.694,0,0,0,0,.325,7.374,7.374,0,0,0,.78,0,.77.77,0,0,0,.708-1.155c-.15-.387-.038-.648.353-.746a31.3,31.3,0,0,1,3.145-.729q3.183-.449,6.389-.723a1.822,1.822,0,0,0,1.566-.787l.108.129-.132.379a3.425,3.425,0,0,0,2.011.031c.644-.069,1.3-.069,1.947-.078a6.128,6.128,0,0,1,.9.068c1.065.14,2.129.29,3.193.435.063.009.167.029.186,0,.451-.7.87-.145,1.305.02.221.082.46.119.687.187.908.272,1.824.52,2.718.832.514.18.981.468,1.555.2.119-.055.43.013.453.088.287.885,1.119.945,1.794,1.268.784.374,1.538.813,2.288,1.252q1.055.617,2.075,1.3c1.034.686,2.053,1.393,3.161,2.147h-.532c-.034.054-.069.106-.1.158,1.208,1.138,2.432,2.26,3.615,3.424.457.451.815,1,1.231,1.5s.835.968,1.253,1.452a.854.854,0,0,1,.123.153q1.072,2.068,2.141,4.139a.545.545,0,0,1,.021.091l-.417.3c.7-.132.979.319,1.266.822l-.474.32c.082.081.23.221.23.225-.68.737.086.63.456.706l-.9.494.054.171c-.2-.137-.4-.276-.605-.413-.09.135-.182.271-.273.405l-1.191-.363-.6.433.7.412-.378.366,3.866-.235c.259.382.191.5-.352.682a10.847,10.847,0,0,0-1.392.638c-.046.023-.018.192-.03.379l1.078-.257c.017.038.034.076.052.114l-2.066,1.239c.12.03.3.076.546.135l-1.049.661.031.156c.812-.089,1.631-.5,2.411.055.009.054.037.205.069.388l-1.438.434c0,.061.005.123.007.184a4.749,4.749,0,0,0,1.154-.153c.558-.22.781-.1.774.542l-1.384-.073c.243.429.422.729.587,1.038.286.533-.293.617-.576.953l.953.137c-.342.078-.626.133-.9.209a2.4,2.4,0,0,0-.37.167,3.241,3.241,0,0,0,.371.244.959.959,0,0,0,.242.074c.106.243.139.491.248.533a2.088,2.088,0,0,0,.682.021c.074.41.076.422-.446.5-.311.048-.63.054-.946.078l-.024.244,1.7.059c-.012.064-.022.127-.034.191l-1.434.355c.416.285.676.464.975.668l-.7.493.976.359c-.176.136-.331.253-.473.365a.6.6,0,0,1,.163.5.166.166,0,0,1-.017.042c.444.1.4.464.173.609-.192.123-.554-.022-.84-.047a.185.185,0,0,0-.063.016c.182.555.182.555.906.376.047.323.094.644.137.938l-1.316.716c.3.189.614.384,1.008.629l-1.421.255a2.733,2.733,0,0,0,.689.352c.408.051.74.162.716.638-.025.536-.447.405-.779.409a.7.7,0,0,0-.146.047l.63.256-.8.469c.03.094.061.188.091.281.8-.033,1.079.605,1.475,1.184l-1.32-.561c.118.6-.287.553-.634.666l1.325.463c-.018.051-.037.1-.054.153l-1.363.159c0,.038,0,.077,0,.116l.524.068c-.071.044-.1.065-.127.081l-.721.38a2.533,2.533,0,0,0,.518.691c.623.409,1.291.751,1.979,1.142-.238.142-.363.223-.494.293-.257.139-.531.363-.563-.206-.007-.118-.242-.263-.4-.321a5.671,5.671,0,0,0-.851-.163l.49.321c-.018.043-.035.086-.054.129l-1.018-.319-.059.166,2.642.946c-.008.03-.017.06-.025.09l-2.44-.583c-.012.05-.025.1-.038.148l1.375.459-.043.259-1.421-.09.5.584-.217.231-1.16-.631-.18.237,1.269,1.343-1.249-.178.664.54-.623-.031c-.016.039-.031.077-.046.115l.972.434c-.107-.24-.148-.333-.289-.653l1.741.615c-.014.055-.027.111-.042.167l-.98-.054c.156.1.28.186.484.319l-.652.379c-.281.805.494.964.917,1.41-.48.144-.976.2-.932.836l-.592-.325c-.033.042-.064.084-.1.125l.545.52-.71.178a8.536,8.536,0,0,1-.2,1.017c-.027.086-.277.15-.418.141a1.839,1.839,0,0,0-.643-.063c.115.267.229.533.384.893l-.856.093a7.793,7.793,0,0,1-.46.738,5.313,5.313,0,0,1-2.628,1.568c-1.171.417-2.05-.252-2.989-.7-.737-.352-.848-1.1-1.085-1.794a7.434,7.434,0,0,0-.755-1.3,1.743,1.743,0,0,1-.172-.318,3.569,3.569,0,0,1-.094-.473.926.926,0,0,0-.084-1.3.931.931,0,0,1-.188-.333,9,9,0,0,0-.4-1.567,3.1,3.1,0,0,1-.41-2.448,6.475,6.475,0,0,0-.18-1.626,17.213,17.213,0,0,0-.565-2.888,8.147,8.147,0,0,1-.617-1.451c-.005-.037-.2-.043-.3-.064.218-.553-.759-1.816-1.453-1.871.273-.677-.284-.686-.659-.749a12.354,12.354,0,0,0-1.887-.169,3.371,3.371,0,0,0-2.4.894,4.327,4.327,0,0,0-1.63,2.224.328.328,0,0,1-.171.21c-.472.173-.383.5-.153.751.261.289.162.413-.088.614-.293.237-.559.447-.188.934.176.23-.046.783-.129,1.181-.043.208-.291.423-.252.589.178.746-.3,1.235-.574,1.822a3.25,3.25,0,0,0-.024,1.171c-.229.153-.23.459-.163.936.056.4-.361.864-.567,1.3l.311-.093.131.11c-.112.133-.206.355-.342.384a.7.7,0,0,0-.613.714,5.873,5.873,0,0,1-.579,1.528,5,5,0,0,1-1.277,1.934.421.421,0,0,0-.026.349c.186.567-.2.631-.593.733-.267.069-.511.222-.775.312a2.141,2.141,0,0,1-1.5.152c-.484-.146-.946-.386-1.437-.5a1.911,1.911,0,0,0-.728.093,16.137,16.137,0,0,1-1.017-1.38c-.507-.857-1.38-1.584-1.032-2.781a1.258,1.258,0,0,0-.1-.789c-.378-.829.166-1.865-.61-2.614-.1-.091.1-.437.057-.638-.21-.89-.531-1.76-.672-2.659a5.444,5.444,0,0,1,.005-2.046c.085-.387-.193-.846-.268-1.278-.116-.669-.218-1.342-.286-2.016-.033-.325.159-.7-.3-.893-.048-.021-.043-.281.009-.4.443-1-.086-1.984-.061-2.98.017-.694-.3-1.394-.3-2.092a12.055,12.055,0,0,1,.395-1.585,5.3,5.3,0,0,0-.112-1.1c-.03-.435-.027-.873-.048-1.309a1.91,1.91,0,0,0-.084-.77c-.23-.421-.565-.74-.208-1.3.133-.212-.141-.663-.188-1.01-.08-.575-.091-1.159-.2-1.728a4.389,4.389,0,0,0-.387-.933,9.991,9.991,0,0,0-1.634-2.471,5.711,5.711,0,0,0-4.773-1.789,5.116,5.116,0,0,0-3.941,2.284,13.487,13.487,0,0,0-1.123,1.507c-.442.77-1.151,1.449-.966,2.478a1.594,1.594,0,0,1-.084.546c-.052.4-.1.7-.132,1.013-.029.24-.05.481-.08.785l.439.06c-.29.845-.826,1.691-.074,2.695a6.053,6.053,0,0,0-.068,3.426,3.094,3.094,0,0,1-.077.924c-.068.431-.453.967.41,1.038.054.005.106.206.135.323.055.222.091.448.149.74a1.072,1.072,0,0,0-.63,1.6.254.254,0,0,1,.02.183c-.332.655,0,1.015.57,1.243a3.369,3.369,0,0,0-.251.58,3.75,3.75,0,0,0-.009.7c-.212-.2-.333-.311-.55-.511.078.439.137.772.205,1.158l.285.021c-.061.076-.108.189-.167.2-.733.088-.32.621-.378.964-.017.1.044.209.022.3a16.56,16.56,0,0,1-.49,1.934,15.091,15.091,0,0,1-2.76,4.886,7.133,7.133,0,0,1-2.591,2.185A6.374,6.374,0,0,1,123.778,285.49Zm5.568,8.266.94-1.351-.094-.085-1.941,1.7c-.159-1.143,1.183-.953,1.269-1.793l-.859.084c.22-.325.435-.642.738-1.09l-.78.161c.4-.891-.529-1.079-.706-1.653-.595.149-.534,1.147-1.35,1.015l1.164-1.449-.122-.14-.507.213c-.114-.52-.227-1.045-.361-1.661l-.308-.027c.029-.162.056-.323.1-.55l-.925.217a3.238,3.238,0,0,1,.382-.63c.464-.433.947-.847,1.438-1.251a3.227,3.227,0,0,1,.446-.2,4.884,4.884,0,0,0,1.867-2.184c.592-1.19,1.089-2.429,1.571-3.67a7.215,7.215,0,0,0,.268-1.377c.125-.257.323-.469.293-.643-.069-.4-.268-.774.263-1.039.112-.057.135-.344.156-.529.153-1.4.294-2.8.439-4.2.186-1.772.474-3.54.527-5.315.048-1.7-.139-3.4-.244-5.106a6.491,6.491,0,0,1,1.112-4.544,5.058,5.058,0,0,1,3.274-2.1,2.359,2.359,0,0,1,2.414,1.052,16.149,16.149,0,0,1,1.853,2.862,8.844,8.844,0,0,1,.8,3.961c-.031.4.1.808.084,1.209a12.816,12.816,0,0,1-.192,1.4,13.514,13.514,0,0,0,.106,3.862c.2,1.5.38,3.007.6,4.507.3,2.07.642,4.135.945,6.2.082.563.055,1.144.142,1.705.161,1.047.375,2.086.554,3.129a12.759,12.759,0,0,0,.284,1.789c.329,1.014.745,2,1.174,2.981a2.033,2.033,0,0,0,.638.7,7.1,7.1,0,0,0,4.5,1.547,5.267,5.267,0,0,0,3.381-.89,8.266,8.266,0,0,0,3.194-3.821c.52-1.567,1.4-3.012,2-4.556a19.546,19.546,0,0,0,.66-2.722,19.243,19.243,0,0,1,.486-2.372,7.985,7.985,0,0,0,.162-1.891c.178-1.813,1.583-3.736,3.812-2.716a.744.744,0,0,1,.284.272c.171.267.255.639.489.8.643.451.035,1.027.216,1.532.1.273-.188.661-.157.983.059.582.243,1.149.342,1.728a10.445,10.445,0,0,0,.669,2.257,8.132,8.132,0,0,1,.174,2.233,9.758,9.758,0,0,0,.261,1.1c.077.352.145.707.195,1.065a11.3,11.3,0,0,1,.2,1.8c-.021.77.28,1.123.985.876-.063.255-.118.473-.184.745l.4-.046c.217.514.418,1.034.661,1.534a.894.894,0,0,0,.405.393,21.775,21.775,0,0,0,2.32,1.108,5.9,5.9,0,0,1,1.864.533c.23.165.754.013,1.1-.11.67-.235,1.319-.795,1.967-.781,1,.02,1.432-.711,2.171-1.1.233.131.521.3.877.5-.247.369-.467.758-.745,1.1a25.975,25.975,0,0,1-1.914,2.192c-.716.69-1.554,1.253-2.3,1.914a3.293,3.293,0,0,0-.484.885c-.738.021-1.072.869-1.666,1.367a6.16,6.16,0,0,1-1.064.774c-1,.523-2.041.97-3.032,1.509-.271.148-.421.516-.642.8a3.684,3.684,0,0,0-2.7.941c-.37.361-1.168.319-1.779.385-.93.1-1.866.136-2.8.2,0,.065,0,.131.007.195l1.251.067a3.819,3.819,0,0,1-3.46.206,1.32,1.32,0,0,0-.644-.005c-1.207.125-2.412.293-3.622.375a17.156,17.156,0,0,1-1.878-.094c-.227-.01-.457.018-.829.035l.474.342c-.1.038-.159.086-.208.076a7.06,7.06,0,0,1-.863-.218,1.9,1.9,0,0,0-2.024.069.456.456,0,0,1-.409.031,6.618,6.618,0,0,0-3-.642,15.662,15.662,0,0,1-2.033-.342,5.255,5.255,0,0,0-.625-.046c-.127-.007-.288.054-.375,0-2.118-1.381-4.652-1.85-6.827-3.106-.2-.118-.4-.246-.617-.382.342-.1.666-.112.7-.21.157-.565,1.227-.862.51-1.679-.422.146-.58,1.089-1.333.4-.161.251-.331.512-.584.9l.849-.537.123.136-.61.826c-1.384-.314-2.563-1.334-2.516-2.039l-.733-.123c-.323.388-.48.357-.929-.264.268-.358.535-.712.8-1.068-.063-.054-.125-.108-.189-.162l-.557.639c-.557-.514.195-.878.248-1.435-.216.162-.371.277-.668.5l.822-1.313-1.926.809Zm63.6-23.067c-.257.568.061,1.393.094,2.1a4.019,4.019,0,0,1-.1.852,7.212,7.212,0,0,0-.189.874,31.054,31.054,0,0,0,.21,5.9,12.615,12.615,0,0,1-.2,2.186c-.071,1.758-.086,3.519-.145,5.278-.078,2.367-.175,4.732-.268,7.1a21.082,21.082,0,0,1-.191,3.612,43.832,43.832,0,0,1-1.712,5.968,11.979,11.979,0,0,1-1.9,3.012,2.938,2.938,0,0,1-1.457.9,25.166,25.166,0,0,1-3.615.781c-2.97.392-5.953.712-8.932,1.036-.907.1-1.824.091-2.733.182-.338.033-.839.038-.8.562s.507.436.868.436q4.5,0,9,0c.012.114.024.227.037.341-.672.11-1.341.27-2.016.32-3.049.221-6.1.474-9.15.587a40.555,40.555,0,0,1-5-.239c-1.116-.1-2.215-.378-3.328-.531-1.585-.216-3.2-.29-4.761-.608-1.948-.395-3.864-.958-5.784-1.483-1.1-.3-2.18-.67-3.271-1-.8-.242-1.63-.423-2.414-.715-.809-.3-1.584-.689-2.367-1.056q-1.025-.48-2.033-1c-1.566-.809-3.126-1.631-4.641-2.556,1.061.277,2.109.625,3.186.817,2.1.375,4.224.663,6.337.987.106.016.259-.009.312.052.536.609,1.366.287,1.979.635a.154.154,0,0,0,.128.012c.961-.529,1.924.072,2.895-.007,2.3-.186,4.613-.231,6.913-.431,1.458-.125,2.9-.418,4.353-.649,1.04-.166,2.087-.3,3.11-.544,1.423-.332,2.842-.694,4.233-1.14a26.671,26.671,0,0,0,3.816-1.47,18.628,18.628,0,0,0,3.374-2.171,5.885,5.885,0,0,1,1.343-.891,4.174,4.174,0,0,0,.928-.788c-.51-.43-.706-.405-1.255.042-.363.3-.744.567-1.116.851l-.137-.179a10.712,10.712,0,0,0,1.479-1.189,44.873,44.873,0,0,0,2.875-3.522c1.057-1.477,2.035-3.016,2.972-4.573a10.349,10.349,0,0,0,1.509-3.114c.189-.966.823-1.647,1.049-2.513.575-2.193,1.026-4.418,1.6-6.612.088-.335.566-.559.846-.852.21-.22.393-.465.584-.7.025-.031.01-.108.037-.122.558-.269.609-.994,1.044-1.278a1.324,1.324,0,0,0,.582-1.147,15.862,15.862,0,0,1,.156-2.446c.22-.827-.145-1.6.031-2.394.261-1.174.5-2.352.758-3.526.029-.132.154-.242.3-.457a3.3,3.3,0,0,1,.184,1.871c-.137.538.216,1.2.348,1.8a3.7,3.7,0,0,0,.016.977A2.341,2.341,0,0,1,192.949,270.689Zm8.686,11.614c-.187-1.329-.425-2.654-.545-3.99a30.505,30.505,0,0,1-.124-3.7,113.024,113.024,0,0,0-.5-13.552c-.363-4.09-.864-8.168-1.253-12.257-.1-1.01.008-2.039,0-3.058-.026-4.263-.154-8.527-.052-12.786.061-2.578.45-5.151.749-7.719a8.9,8.9,0,0,1,.571-1.742l.268.076c-.061,1.036-.175,2.074-.174,3.11,0,2.236.068,4.471.1,6.707.037,2.717.061,5.432.1,8.149q.1,8.351.209,16.7c.024,1.934.007,3.869.065,5.8.025.843.264,1.681.28,2.522.026,1.43-.115,2.863-.061,4.289.076,2.039.311,4.069.389,6.108C201.718,278.736,201.664,280.516,201.635,282.3Z" transform="translate(18.232 -156.734)"/>
  <path id="Path_1335" data-name="Path 1335" d="M646.394,1349.378a8.237,8.237,0,0,0-.123-1.808,21.733,21.733,0,0,0-.6-2.828c-.242-.776-.138-1.682-.852-2.313a1.053,1.053,0,0,1-.336-.876c.38-1.034-.208-1.705-.761-2.41a.977.977,0,0,0-.3-.226,11.909,11.909,0,0,0-1.63-.856,2.042,2.042,0,0,0-1.268-.061c-.385.135-.545,1.663-.2,1.963a4.821,4.821,0,0,1,1.1,2.186,29.046,29.046,0,0,1,1.236,4.109,34.253,34.253,0,0,1,1,5.861c.084,2.018-.238,4.057-2,5.523a10.406,10.406,0,0,1-2.371,1.906c-.562.242-1.206.684-1.716.576a11.589,11.589,0,0,1-2.649-1.146c-.115-.058-.154-.374-.143-.564a5.33,5.33,0,0,0,.148-1.425,2.6,2.6,0,0,0-2.045-2.142,2.783,2.783,0,0,0-3.04.919,1.991,1.991,0,0,0,.625,3.177c.331.163.4.328.242.638a7.707,7.707,0,0,1-4.29,3.826c-.848.318-1.769.433-2.632.719a6.02,6.02,0,0,1-4.221.136,8.458,8.458,0,0,1-3.828-3.024,3.53,3.53,0,0,1-.5-.9.71.71,0,0,1,.1-.57c.369-.5.844-.927,1.164-1.45.744-1.215,1.445-2.458,2.116-3.717a12.92,12.92,0,0,0,.9-2.105,14.008,14.008,0,0,0,.465-2.18,7.062,7.062,0,0,0,.169-2.2,2.932,2.932,0,0,0-.992-1.367,4.36,4.36,0,0,0-1.3-.762,1.771,1.771,0,0,0-1.126-.187,8.443,8.443,0,0,0-3.206,1.517c-.328.32-.558.738-.866,1.082a2.046,2.046,0,0,0-.642,1.8c.015.083-.093.188-.149.28-.216.346-.6.682-.616,1.038a6.549,6.549,0,0,1-.423,2.052,4.24,4.24,0,0,0-.176,1.692c.033.571.242,1.132.331,1.7.109.691.111,1.4.277,2.081.1.388-.076.534-.318.533a22.177,22.177,0,0,1-2.257.189,6.59,6.59,0,0,1-3.991-2.155,5.942,5.942,0,0,1-.746-1.243c-.657-1.083-1.63-1.977-1.911-3.291-.157-.737-.414-1.45-.6-2.182-.084-.332-.086-.684-.153-1.021-.1-.482-.264-.954-.315-1.439-.1-1.018-.156-2.043-.221-3.065a2.37,2.37,0,0,1,.018-.519c.216-1.408.4-2.824.672-4.222a30.97,30.97,0,0,1,.92-3.727,1.538,1.538,0,0,1,1.206-1.178c.217-.034.383-.4.574-.615-.18-.154-.337-.383-.544-.448a2.255,2.255,0,0,0-2.2.87,22.918,22.918,0,0,0-1.3,2.791,21.723,21.723,0,0,0-.668,2.614c-.378,1.644-1.059,3.228-.762,5,.179,1.072.161,2.174.251,3.262.02.226.167.444.18.669a12.945,12.945,0,0,0,.055,1.861,10.554,10.554,0,0,0,1.6,4.292c.974,1.327,1.5,2.991,2.865,4.013a12.623,12.623,0,0,0,3,1.856,7.314,7.314,0,0,0,5.61.051.5.5,0,0,1,.759.348c.129.631.613.868,1.051,1.209.516.4,1.235.839,1.358,1.376a1.328,1.328,0,0,0,.721.965c.368.218.778.369,1.153.577.186.1.366.415.5.386.686-.146,1.189.34,1.726.544a2.658,2.658,0,0,0,2.054.145,4.544,4.544,0,0,1,1.151-.135,2.4,2.4,0,0,0,.877-.111,10.261,10.261,0,0,1,1.675-.578c.427-.06.568-.81,1.179-.4.145.1.541-.18.89-.311.094.039.334.239.479.184a9.74,9.74,0,0,0,2.01-.92,6.669,6.669,0,0,0,1.1-1.271.843.843,0,0,1,.318-.279.975.975,0,0,0,.669-1,1.392,1.392,0,0,1,.248-.481,2.841,2.841,0,0,0,.2-.334c.077-.2.131-.417.2-.635.611.2.966.794,1.466.715.391.123.691.217.825.257a4.552,4.552,0,0,0,.575.624,1.393,1.393,0,0,0,.643.272c.7.063,1.384.448,2.118.054a13.212,13.212,0,0,1,1.575-.605c.005-.034.029-.195.052-.356l.122.114.831-.617.535.519a10.325,10.325,0,0,1,1.725-1.4c.859-.439.966-1.2,1.2-2l.32.186c.269-.265.434-.432.6-.594.118-.114.287-.2.354-.334a9.7,9.7,0,0,0,.491-1.209c.263-.83.474-1.675.746-2.5a3.88,3.88,0,0,0,.035-3.122A3.541,3.541,0,0,1,646.394,1349.378Z" transform="translate(-868.947 -918.374) rotate(-17)"/>
  <path id="Path_1336" data-name="Path 1336" d="M674.5,2.265q2.376-.045,4.749-.2c.852-.056,1.694-.271,2.545-.323,1.337-.081,2.677-.127,4.016-.111a16.793,16.793,0,0,1,3.7.259,2.277,2.277,0,0,0,.771.01,1.034,1.034,0,0,1,1.3.9c.191,1.036.4,2.073.512,3.118.178,1.681.287,3.369.411,5.055.069.942-.014,1.081-.94,1.113-1.867.067-3.738.068-5.6.1a6.932,6.932,0,0,0-1.167.078.788.788,0,0,0-.643.975c.052.491.395.536.807.523,1.717-.055,3.436-.05,5.15-.144,1.33-.073,2.654-.26,4.1-.408-.179-2.137-.325-4.055-.5-5.97-.133-1.422-.332-2.84-.452-4.263A2.9,2.9,0,0,0,691.023.347c-1.819-.158-3.645-.278-5.47-.34-1.171-.041-2.361.187-3.514.047a7.356,7.356,0,0,0-2.672.284c-.4.093-.832.386-1.167.291a10.253,10.253,0,0,0-3.656.123c-.4.03-.523.338-.482.712C674.1,1.794,673.994,2.275,674.5,2.265Z" transform="matrix(0.998, -0.07, 0.07, 0.998, -566.547, 48.423)"/>
  <path id="Path_1337" data-name="Path 1337" d="M92.862,310.764a2.534,2.534,0,0,0,1.837-2.139c.055-.35.072-.691-.461-.72-.022.178-.037.324-.059.469-.167,1.1-1.153,1.99-2.007,1.811-1.053-.22-1.511-1.113-1.268-2.361a3.428,3.428,0,0,0-.091-.966l-.26-.054c-.169.448-.367.886-.5,1.343a1.826,1.826,0,0,1-2.666,1.111c.1-.187.218-.37.311-.563a1.934,1.934,0,0,0,.038-1.932,1.569,1.569,0,0,0-.976-.7c-.278-.031-.7.316-.9.605a1.781,1.781,0,0,0,.012,2.026c.146.238.3.473.444.708a1.942,1.942,0,0,1-3.223-1.059,2.624,2.624,0,0,1,.486-2.391,6.188,6.188,0,0,0,.355-.639l-.216-.156a4.45,4.45,0,0,0-.631.579,3.323,3.323,0,0,0-.653,2.582,2.5,2.5,0,0,0,3.586,1.925c.565-.291,1.049-.655,1.666-.148.081.067.254.021.383.033a2.3,2.3,0,0,0,2.112-.823c.114.091.157.111.178.145A2.234,2.234,0,0,0,92.862,310.764Z" transform="translate(-51.395 -264.596)"/>
  <path id="Path_1338" data-name="Path 1338" d="M1582.181,497.974c-.062,1.383-.141,2.765-.205,4.148-.008.156-.015.312-.021.469a9.626,9.626,0,0,0,0,.993c.105,1.641.258,3.28.353,4.923.083,1.435.1,2.875.166,4.311.05,1.124.107,2.246.165,3.369q.049.974.1,1.947h0l-.027,0c0,.209-.007.42-.007.629,0,.153,0,.3.015.455,0,.03,0,.06,0,.09.011.1.117.2.208.3a.972.972,0,0,1,.069.08.914.914,0,0,1,.081-.082,1.692,1.692,0,0,0,.145-.145.208.208,0,0,0,.056-.12c.009-.339.02-.678.029-1.017.03-1.031.054-2.063.023-3.094,0-.09-.008-.179-.013-.269-.022-.4-.065-.8-.111-1.2-.063-.542-.13-1.083-.153-1.627v-.008a.088.088,0,0,0,0-.02c-.1-2.328-.146-4.657-.22-6.986-.007-.243-.014-.486-.022-.729-.008-.226-.025-.452-.046-.678-.042-.476-.1-.951-.094-1.427,0-1.483.066-2.968.09-4.451a1.1,1.1,0,0,0-.019-.21,2.488,2.488,0,0,0-.111-.418.3.3,0,0,0-.066-.1c-.05-.051-.114-.1-.164-.149h0c-.1.1-.261.2-.273.308a1.7,1.7,0,0,0,.03.419A1.879,1.879,0,0,1,1582.181,497.974Z" transform="translate(-1355.977 -431.33)"/>
  <path id="Path_1339" data-name="Path 1339" d="M1169.258,364.791a2.366,2.366,0,0,0,2.726.059,3.129,3.129,0,0,0,1.541-2.5c-.186.18-.313.287-.421.413a4.92,4.92,0,0,1-1.869,1.751c-.969.374-1.6-.05-1.521-1.04a4.931,4.931,0,0,0-.126-1.013l-.294-.039a4.305,4.305,0,0,0-.421,1.068,1.5,1.5,0,0,1-2.291,1.323c.418-.674.834-1.3,1.2-1.951.287-.51.464-1.091-.021-1.56a1.227,1.227,0,0,0-1.625-.008,1.9,1.9,0,0,0-.785,1.044,11.975,11.975,0,0,0-.035,2.155,1.411,1.411,0,0,1-1.473-.456,1.613,1.613,0,0,1-.444-1.673c.065-.231.1-.472.144-.708a1.327,1.327,0,0,0-.679,1.705,1.879,1.879,0,0,0,1.377,1.654,11.679,11.679,0,0,1,2.912.553c.392.2,1.115-.243,1.675-.43C1169,365.081,1169.124,364.9,1169.258,364.791Z" transform="translate(-994.61 -313.126)"/>
  <path id="Path_1340" data-name="Path 1340" d="M710.176,40.721l-.247-.141a2.5,2.5,0,0,0-1.051,1.6,2.071,2.071,0,0,0,.779,2.266,2.676,2.676,0,0,0,2.665.216c.261-.1.571-.315.789-.248a3.584,3.584,0,0,0,4.191-1.3,3.475,3.475,0,0,0,.314-.659l-.18-.114c-.187.131-.38.252-.559.392a10.383,10.383,0,0,1-1.224.961c-.792.446-1.648.633-2.2-.08.188-.374.409-.749.571-1.149.15-.369.4-.808-.107-1.091a.948.948,0,0,0-1.228.229,1.834,1.834,0,0,0-.349,1.879c.036.184-.05.55-.152.579a2.93,2.93,0,0,1-1.415.218c-1.4-.369-1.762-1.671-.91-2.942A5.54,5.54,0,0,0,710.176,40.721Z" transform="translate(-595.944 -34.592)"/>
  <path id="Path_1341" data-name="Path 1341" d="M1275.146,466.173c-.044.016-.055.124-.068.229-.006.042-.011.084-.019.119a1.933,1.933,0,0,1,.212.043,1.15,1.15,0,0,0,.66.056,1.382,1.382,0,0,1,.453-.11,7.752,7.752,0,0,1,1.065.081c.136.008.272.017.406.027.9.071,1.79.206,2.687.3a1.344,1.344,0,0,0,.162,0,1.465,1.465,0,0,0,.284-.037c.358-.081.715-.165,1.073-.247q1.058-.243,2.115-.5c.047-.012.085-.061.138-.135l.01-.013c.034-.047.076-.1.129-.166h0c-.123-.018-.223-.041-.311-.057a1.137,1.137,0,0,0-.174-.022.508.508,0,0,0-.078,0c-.2.03-.4.068-.6.107a10.565,10.565,0,0,1-1.063.174c-.978.089-1.96.132-2.942.18-.089,0-.179.007-.269.008a4.731,4.731,0,0,1-.679-.037c-.7-.093-1.388-.267-2.087-.3a1.849,1.849,0,0,0-.718.148C1275.4,466.075,1275.274,466.128,1275.146,466.173Z" transform="translate(-1090.199 -404.199)"/>
  <path id="Path_1342" data-name="Path 1342" d="M724.954,701.457a.352.352,0,0,0,.052.059c.046.042.1.077.15.119.013.012.027.022.039.035.135.145.273.289.411.431a11,11,0,0,1,1.258,1.443c.154.227.267.408.438.41a.374.374,0,0,0,.2-.067c.042-.026.063-.116.065-.227a.989.989,0,0,0-.107-.5,8.111,8.111,0,0,0-1.091-1.282,7.782,7.782,0,0,1-1.988-3.4c-.118-.378-.215-.763-.332-1.141-.03-.1-.059-.193-.092-.29a.242.242,0,0,0-.034-.063.422.422,0,0,0-.046-.054s0,0,0,0l0,0c-.062-.059-.143-.112-.2-.172h0l-.252.306c.122.589.24,1.165.387,1.721A8.4,8.4,0,0,0,724.954,701.457Z" transform="translate(-611.649 -605.012)"/>
  <path id="Path_1343" data-name="Path 1343" d="M546.056,143.92a.583.583,0,0,0,.166.29,1.182,1.182,0,0,0,.3.231c.074.039.35-.188.455-.346a1.45,1.45,0,0,0,.15-.294,1.643,1.643,0,0,0,.1-.465v-.022a3.263,3.263,0,0,0-.012-.5,14.158,14.158,0,0,1-.047-1.415c0-.508.021-1.025.021-1.558-.636.217-.959.532-1.061.988a1.8,1.8,0,0,0-.033.506c.006.093.008.186.008.278s0,.179,0,.269c-.006.269-.022.54-.029.81-.009.344-.058.693-.037,1.032C546.041,143.788,546.046,143.855,546.056,143.92Z" transform="translate(-456.441 -125.88)"/>
  <path id="Path_1344" data-name="Path 1344" d="M1041.548,422.595a1.082,1.082,0,0,0,.622-.5.441.441,0,0,0,.061-.183q0-.112,0-.223c0-.643-.118-1.3-.186-1.986a1.42,1.42,0,0,0-.856.37,1.006,1.006,0,0,0-.131.771c0,.01,0,.02,0,.03a3.216,3.216,0,0,1-.01.635c-.011.11-.022.218-.034.327a1.462,1.462,0,0,0,.005.336C1041.068,422.442,1041.215,422.644,1041.548,422.595Z" transform="translate(-886.739 -364.168)"/>
  <path id="Path_1345" data-name="Path 1345" d="M1187.065,417.522c.5.05.972.106,1.435.129.123.007.244.01.366.012a.886.886,0,0,0,.489-.13.608.608,0,0,0,.274-.575.535.535,0,0,0-.2-.429.771.771,0,0,0-.521-.1l-.081.009a4.686,4.686,0,0,1-.971.076c-.713-.055-.95.355-1.066.985h0Z" transform="translate(-1013.465 -361.318)"/>
  <path id="Path_1346" data-name="Path 1346" d="M1042.938,622.357c.018.46.309.527.655.537.375.012.785.01.877-.468.076-.4.043-.817.114-1.217.177-1-.374-1.969-.106-2.98a9.3,9.3,0,0,0,.044-3.264c-.153-1.731-.025-3.488-.017-5.234,0-.193,0-.385,0-.535l-1.526-.088c-.051.625-.148,1.23-.139,1.833.021,1.5.088,2.994.143,4.49a6.156,6.156,0,0,1,.063,1.711A17.32,17.32,0,0,0,1042.938,622.357Z" transform="translate(-888.282 -531.824)"/>
  <path id="Path_1347" data-name="Path 1347" d="M896.1,832.278c-.186-.119-.349-.226-.586-.379.3-.132.507-.227.62-.278l-1.477-.571-.866.285.443.194c-.658.51-.655.5.018,1.025a1.243,1.243,0,0,1,.231.366h.832C895.025,832.068,895.933,832.651,896.1,832.278Z" transform="translate(-758.71 -721.762)"/>
  <path id="Path_1348" data-name="Path 1348" d="M1354.15,708.441l3.8-.486.012-.206c-.328-.2-.654-.395-.983-.588a.167.167,0,0,0-.126-.01c-.2.074-.393.163-.593.235-.718.252-1.437.5-2.156.75C1354.117,708.237,1354.133,708.339,1354.15,708.441Z" transform="translate(-1158.911 -614.046)"/>
  <path id="Path_1349" data-name="Path 1349" d="M894.389,816.255l-.125-.184-2.053.594c.465.153.974.213.975.844a.253.253,0,0,0,.167.18c.447.042.9.06,1.346.086.025-.067.05-.135.076-.2l-1.07-.618C893.909,816.747,894.149,816.5,894.389,816.255Z" transform="translate(-757.381 -708.739)"/>
  <path id="Path_1350" data-name="Path 1350" d="M1366.752,726.03c-.1-.073-.429.171-.652.268.025.064.05.128.075.193l1.129.06q-.006.094-.012.188l-.666.273c1.128.069,1.281-.069,1.414-1.172C1367.631,726.071,1367.261,726.384,1366.752,726.03Z" transform="translate(-1169.342 -630.301)"/>
  <path id="Path_1351" data-name="Path 1351" d="M1344.513,683.642c.632.124.749.075.757-.5l-1.759.405c.018.081.038.163.056.246A2.827,2.827,0,0,1,1344.513,683.642Z" transform="translate(-1149.705 -593.181)"/>
  <path id="Path_1352" data-name="Path 1352" d="M901.668,800.408c-.685-.131-1.2-.228-1.678-.318C900.287,800.672,900.867,800.865,901.668,800.408Z" transform="translate(-764.144 -694.848)"/>
  <path id="Path_1353" data-name="Path 1353" d="M1370.41,717.9l1.428-.7-1.123-.073C1370.634,717.339,1370.533,717.591,1370.41,717.9Z" transform="translate(-1173.089 -622.728)"/>
  <path id="Path_1354" data-name="Path 1354" d="M330.324,650.424a55.016,55.016,0,0,1-.122-5.537c-.009-.515-.124-1.03-.107-1.541.03-.974.158-1.943.178-2.917.018-.958-.05-1.918-.081-2.949a10.252,10.252,0,0,0-1.089.367.585.585,0,0,0-.32.367c-.1,1.4-.193,2.8-.244,4.2-.022.627.08,1.259.077,1.887,0,1.347-.081,2.695-.047,4.041.047,1.856.246,3.7.114,5.57-.161,2.269-.044,4.556-.063,6.833,0,.591.327.727.83.749.536.022.693-.325.715-.732.06-1.057.111-2.12.091-3.178a15.372,15.372,0,0,1-.218-2.023A20.7,20.7,0,0,0,330.324,650.424Z" transform="translate(-267.369 -550.487)"/>
  <path id="Path_1355" data-name="Path 1355" d="M242.884,692.641a.123.123,0,0,1,0,.021.1.1,0,0,1,0,.02.464.464,0,0,1,0,.056c0,.012,0,.021,0,.028-.316.215-.755.405-.737.523a4.643,4.643,0,0,0,.459,1.215c.038.082.291.159.3.145.291-.448.541-.042.689.039.176-.294.318-.527.365-.606q-.008-.106-.016-.2c-.007-.08-.012-.156-.018-.23,0-.026,0-.052-.005-.077q-.012-.159-.024-.306a.269.269,0,0,0,0-.033c-.006-.081-.012-.161-.018-.239,0-.047-.007-.094-.01-.141l-.992-.231C242.883,692.626,242.884,692.634,242.884,692.641Z" transform="translate(-192.277 -601.422)"/>
  <path id="Path_1356" data-name="Path 1356" d="M255.684,681.251a5.712,5.712,0,0,1-.484-.371,1.35,1.35,0,0,1,.033,1.323,1.256,1.256,0,0,0,0,.437l-.021-.012c0,.006,0,.012,0,.018l.02,0v-.009l.065.039.209.13c.021.012.042.026.064.039l.163.1.054.033.239.148c.017-.333.035-.672.052-1.005,0,0,.125.1.18.064a5.507,5.507,0,0,0,.572-.406c-.169-.061-.341-.111-.5-.187A5.881,5.881,0,0,1,255.684,681.251Z" transform="translate(-203.617 -591.216)"/>
  <path id="Path_1357" data-name="Path 1357" d="M656.928,691.7c.026-.251.047-.459.081-.776-.461.291-.828.585-1.353.158-.277-.226-.6,0-.7.547.269,0,.5,0,.724,0,.144,0,.381-.048.416.015.395.716.87.056,1.3.056Z" transform="translate(-551.135 -599.943)"/>
  <path id="Path_1358" data-name="Path 1358" d="M237.09,708.56l-.054.047c-.111.094-.226.193-.357.306l.776.843.116-.514,1.056.461C238.568,708.951,238.059,708.627,237.09,708.56Z" transform="translate(-187.517 -615.278)"/>
  <path id="Path_1359" data-name="Path 1359" d="M223.222,934.17l-1.362.838c.131.089.316.217.5.345.012.071.024.141.034.212.285-.212.579-.413.842-.648.03-.028-.111-.247-.184-.4.052-.062.14-.166.227-.272Z" transform="translate(-174.634 -811.406)"/>
  <path id="Path_1360" data-name="Path 1360" d="M691.9,757.99a5.193,5.193,0,0,0-.994.135c-.063.02-.009.409-.009.716l1.038-.67C691.924,758.11,691.914,758.05,691.9,757.99Z" transform="translate(-582.359 -658.249)"/>
  <path id="Path_1361" data-name="Path 1361" d="M238.311,723.222l-.01-.015-.01-.008Z" transform="translate(-188.916 -628.006)"/>
  <path id="Path_1362" data-name="Path 1362" d="M234.845,718c-.052-.051-.195-.008-.315-.008l.5.673.73.563c.021-.034.116-.153.1-.17C235.534,718.7,235.2,718.343,234.845,718Z" transform="translate(-185.648 -623.467)"/>
  <path id="Path_1363" data-name="Path 1363" d="M676.337,767.51c-.01-.033-.018-.058-.023-.069a.025.025,0,0,0,0-.008s0,0,0,0c-.289.056-.573.139-.857.217l.074.288.891-.153c-.018-.062-.043-.151-.064-.221C676.346,767.542,676.343,767.525,676.337,767.51Z" transform="translate(-568.948 -666.455)"/>
  <path id="Path_1364" data-name="Path 1364" d="M661.911,995.7c-.132.014-.265.026-.581.055a7.005,7.005,0,0,0,.642.519,2.085,2.085,0,0,0,.456.151c-.037-.267-.075-.532-.11-.772C662.155,995.67,662.033,995.685,661.911,995.7Z" transform="translate(-556.673 -864.852)"/>
  <path id="Path_1365" data-name="Path 1365" d="M669.73,1001.56v0h0s0,0,0,0Z" transform="translate(-563.975 -869.988)"/>
</svg>
