<svg id="illustration_najczęściej_wspierane" data-name="illustration najczęściej wspierane" xmlns="http://www.w3.org/2000/svg" width="299" height="317.594" viewBox="0 0 299 317.594">
  <path id="Path_907" data-name="Path 907" d="M-2638.719,1295.486c-.189,1.181-.439,2.272-.528,3.377-.186,2.321-1.328,3.089-3.547,3.492a44.128,44.128,0,0,0-6.853,2.338c-1.35.488-2.708.96-4.019,1.54-1.092.483-2.124,1.1-3.174,1.677a1.5,1.5,0,0,1-2.224-.967c-.465-1.17-1.154-1.223-2.255-1.407-2.72-.455-4.813.579-6.932,2a1.933,1.933,0,0,1-1.8-.581,31.212,31.212,0,0,1-1.244-4.052c-.335-1.122-.479-2.1.544-3.074,1.052-1,.612-2.266-.792-2.354a15.78,15.78,0,0,0-3.411.4c-1.746.28-3.479.673-5.234.865-.4.044-.873-.532-1.453-.916,1.841-1.652.3-3.106-.1-4.494-.713-2.494-.125-3.585,2.258-4.573a39.239,39.239,0,0,0,5.524-3.306c.632-.4,1.185-.916,1.823-1.3,1.728-1.036,2.208-2.334,1.133-4.022-.651-1.022-.429-1.612.054-2.626,1-2.1.4-4.326-.546-6.3-.637-1.325-.519-1.863.632-2.9,3.237-2.928,7.17-4.523,10.954-6.444.74-.376,1.247-1.19,1.909-1.745.854-.717,1.776-.525,1.687.574-.134,1.649.713,3.636-1.2,4.876a1.027,1.027,0,0,0-.286.479,2.182,2.182,0,0,0-.008.561h12.783c.044.853.149,2.067.158,3.281a1.567,1.567,0,0,0,1.938,1.723c3.669-.365,7.327-.848,11-1.2.32-.03.873.545,1.029.949,1.171,3.049.417,6.1-.107,9.141-.114.665-.124,1.349-.2,2.277-2.237-1.174-3.167,1.232-4.807,2.015-.241.115-.241.85-.258,1.3q-.141,3.977-.232,7.955C-2636.543,1295.536-2637.2,1296.094-2638.719,1295.486Zm1.625-20.789a34.02,34.02,0,0,0-4.127.883c-1.219.424-.97,1.551-.494,2.347.188.315,1.178.427,1.651.242a17.054,17.054,0,0,0,3.105-1.684,1.554,1.554,0,0,0,.678-1.172C-2636.316,1275.013-2636.96,1274.788-2637.094,1274.7Z" transform="translate(2752.487 -1200.015)" fill="#01e5d4"/>
  <path id="Path_893" data-name="Path 893" d="M-2705.52,1044.96c-.745,1.69-1.976,1.269-3.346.814a2.8,2.8,0,0,0-1.979.232c-1.481.791-2.87,1.752-4.716,2.908-.562-2.061-1.157-3.756-1.465-5.5-.384-2.173-.412-2.258-2.656-1.723-2.918.7-5.828,1.44-8.777,1.969-1.072.192-2.246-.27-3.37-.251a2.165,2.165,0,0,0-1.534,1.081,13.075,13.075,0,0,1-2.594-.69,2.764,2.764,0,0,1-1.364-1.456,54.7,54.7,0,0,1-1.226-5.381,5.857,5.857,0,0,1,3.379-6.451,2.872,2.872,0,0,0,2.055-3.611c-.5-2.839-1.048-5.618-2.725-8.106-.648-.961-.641-2.365-.91-3.478,1.71-4.13,4.576-1.253,6.992-1.163,3.393.127,6.782.428,10.174.443,1.537.007,2.3-.807,1.8-2.65-.642-2.4.054-3.48,2.194-4.329a1.542,1.542,0,0,1,.7-.192c2.978.419,5.942,1.089,8.931,1.226,2.144.1,3.585.241,2.557,3.119,2.773,0,5.253.12,7.715-.035,2.282-.144,3.671,1.451,4.937,2.708.813.807.765,2.744.673,4.146-.181,2.753-.651,5.487-1.025,8.226-.182,1.327-.7,2.151-2.327,2.046-.481-.031-1.35.948-1.488,1.584-.371,1.711-.373,3.5-.676,5.232-.1.571-.622,1.471-1.033,1.519-2.738.319-2.717,2.237-2.69,4.234.022,1.567.058,3.135-.017,4.7-.018.375-.444,1.032-.7,1.042-1.048.038-2.112-.262-3.152-.183-1.453.11-1.48-1-1.882-1.842C-2705.106,1045.06-2705.294,1045.047-2705.52,1044.96Z" transform="translate(2921.779 -882.608)" fill="#01e5d4"/>
  <path id="Path_906" data-name="Path 906" d="M-2716.338,1032.7c-.5,1.138-1.331.855-2.253.548a1.884,1.884,0,0,0-1.333.156c-1,.532-1.933,1.18-3.176,1.958-.379-1.388-.779-2.529-.987-3.7-.258-1.464-.278-1.52-1.789-1.16-1.965.468-3.925.97-5.911,1.326a15.228,15.228,0,0,1-2.27-.169,1.457,1.457,0,0,0-1.033.728,8.819,8.819,0,0,1-1.747-.465,1.86,1.86,0,0,1-.918-.981,36.807,36.807,0,0,1-.826-3.623,3.944,3.944,0,0,1,2.275-4.345,1.934,1.934,0,0,0,1.384-2.432,13.549,13.549,0,0,0-1.835-5.459,7.213,7.213,0,0,1-.613-2.342c1.152-2.781,3.082-.844,4.708-.783,2.285.085,4.568.288,6.852.3,1.035,0,1.547-.543,1.216-1.785-.432-1.619.036-2.344,1.478-2.916a1.033,1.033,0,0,1,.468-.13c2.005.282,4,.734,6.015.826,1.444.066,2.414.162,1.721,2.1,1.868,0,3.537.08,5.2-.024,1.536-.1,2.472.977,3.325,1.824.548.544.515,1.848.453,2.792-.122,1.854-.438,3.7-.69,5.54-.122.893-.473,1.448-1.568,1.378-.323-.021-.909.638-1,1.067-.25,1.153-.251,2.357-.455,3.523-.067.384-.419.99-.7,1.023-1.844.214-1.83,1.506-1.811,2.851.014,1.055.039,2.111-.011,3.164-.013.252-.3.7-.472.7-.706.025-1.423-.176-2.123-.124-.979.074-1-.673-1.267-1.24C-2716.059,1032.767-2716.186,1032.758-2716.338,1032.7Z" transform="translate(3004.903 -1007.418)" fill="#01e5d4"/>
  <path id="Path_894" data-name="Path 894" d="M-2959.5,1073.835c-.7-1-.688-2.95-2.429-2.475-.287,1.113-.762,1.248-2.836.765-.174-.958-.346-1.942-.537-2.922a1.4,1.4,0,0,0-.245-.694c-1.289-1.182-1.247-2.865-1.214-4.515.049-2.4.077-2.394-1.949-2.713-.143-.022-.283-.063-.425-.1-.542-.128-1.386-.053-1.566-.426a8.776,8.776,0,0,1-.61-2.791c-.116-1.076.424-1.432,1.273-1.268,1.025.2,2.049.444,3.082.54.269.025.834-.476.813-.664a1.77,1.77,0,0,1,1.293-2.037c3.092-1.156,6.217-2.19,9.318-3.315.911-.331,1.782-.816,2.672-1.229.167-.078.353-.24.5-.2,1.791.42,3.435-.674,5.195-.68.843,0,1.142.3,1.285,1.212a2.067,2.067,0,0,0,2.385,1.925c.3-.078.535-.521,1.025-1.031a9.657,9.657,0,0,1,.518,2.183c0,2-.12,4-.234,5.99a1.237,1.237,0,0,1-.422.811,3.381,3.381,0,0,0-1.15,3.555c.194,1.249.041,2.05-1.12,2.555a44.536,44.536,0,0,0-4.96,2.651,1.942,1.942,0,0,0-.672,1.318c-.082,1.01.077,2.045.019,3.061-.03.523-.249,1.4-.494,1.463a5.417,5.417,0,0,1-2.008-.152c-.145-.023-.326-.387-.391-.35-1.493.856-2.284-.968-3.441-1.206-.739-.152-1.576.375-2.369.6A2.584,2.584,0,0,0-2959.5,1073.835Z" transform="translate(3012.667 -929.69)" fill="#01e5d4"/>
  <path id="Path_1241" data-name="Path 1241" d="M18.029,24.723c.714-1,.707-2.95,2.494-2.475.3,1.113.782,1.248,2.912.765.179-.958.355-1.942.551-2.922a1.386,1.386,0,0,1,.251-.694c1.324-1.182,1.281-2.865,1.247-4.515-.05-2.4-.079-2.394,2-2.713.146-.022.291-.063.436-.1.557-.128,1.424-.053,1.608-.426a8.586,8.586,0,0,0,.626-2.791c.119-1.077-.435-1.432-1.307-1.268-1.053.2-2.1.444-3.165.54-.276.025-.856-.476-.834-.664a1.771,1.771,0,0,0-1.328-2.036c-3.176-1.156-6.385-2.19-9.57-3.315-.936-.331-1.83-.816-2.745-1.229-.172-.078-.363-.24-.518-.2C8.851,1.1,7.162.007,5.355,0c-.866,0-1.172.3-1.32,1.212a2.112,2.112,0,0,1-2.45,1.925c-.309-.078-.549-.521-1.053-1.031A9.447,9.447,0,0,0,0,4.288c0,2,.123,4,.24,5.99a1.229,1.229,0,0,0,.433.81,3.33,3.33,0,0,1,1.181,3.555c-.2,1.249-.042,2.05,1.151,2.555A46.18,46.18,0,0,1,8.1,19.849a1.927,1.927,0,0,1,.691,1.318c.083,1.01-.079,2.045-.02,3.061.031.523.256,1.4.507,1.463a5.71,5.71,0,0,0,2.062-.152c.148-.023.335-.387.4-.35,1.534.856,2.346-.968,3.534-1.206.758-.152,1.619.375,2.433.6A2.7,2.7,0,0,1,18.029,24.723Z" transform="matrix(-0.966, 0.259, -0.259, -0.966, 277.745, 175.539)" fill="#01e5d4"/>
  <g id="Group_416" data-name="Group 416" transform="translate(0 3.65)">
    <path id="Path_912" data-name="Path 912" d="M545.431-1071.831c-.593-.032-.364.715-.473,1.057-.01,1.69,1.35,2.849,2.577,2.2a1.23,1.23,0,0,1,1.094-.1,1.8,1.8,0,0,0,2.192-1.252,1.665,1.665,0,0,0-.974-2.1c-.244-.1-.5-.159-.676.094-.21.308.068.437.266.58.134.1.281.178.413.279a.838.838,0,0,1,.159,1.191,1.242,1.242,0,0,1-1.283.6c-.607-.1-.3-.575-.277-.925a1.343,1.343,0,0,0-.019-.577c-.168-.4-.448-.719-.939-.63a.721.721,0,0,0-.634.9c.037.24.164.466.2.706.037.22.467.365.171.624a.616.616,0,0,1-.834-.106c-.368-.368-.812-.7-.679-1.393C545.794-1071.054,546.129-1071.793,545.431-1071.831Z" transform="translate(-300.87 1090.523)"/>
    <path id="Path_913" data-name="Path 913" d="M485.13-1011.219a2.015,2.015,0,0,0-2-1.485,5.043,5.043,0,0,0-1.71.5l-.176.15a12.082,12.082,0,0,0-2.455,5.863,5.959,5.959,0,0,1-.528,1.824c-.332.526-.389,1.258-1.1,1.536a1.589,1.589,0,0,1-.039-.778,12.737,12.737,0,0,1,1.12-3.351,27.2,27.2,0,0,0,1.566-4,2.792,2.792,0,0,0-.384-2.574,1.324,1.324,0,0,0-1.7-.534h0c-1.138.405-1.568,1.449-2.139,2.367a.372.372,0,0,1-.161-.338h0a6.575,6.575,0,0,1,.095-.651,2.387,2.387,0,0,0-.961-2.544,1.948,1.948,0,0,0-2.173.248,2.822,2.822,0,0,0-.736.77c-.715.953-.883,2.164-1.506,3.216-.081-1.1-.4-1.359-2.06-1.734a3.531,3.531,0,0,0-4.018,1.505l-3.807-.307c-.877,0-.783-.655-.695-1.173a9.547,9.547,0,0,0,.129-1.58,12.084,12.084,0,0,0-.573-3.417c-.335-1.165-.241-2.417-1.14-3.5a12.356,12.356,0,0,1-1-1.927c-.235-.448-.753-.639-.954-1.124a5.939,5.939,0,0,0-1.592-1.872c-.648-.629-1.5-.893-2.156-1.455-1.285-1.1-2.907-1.406-4.423-1.964a9.868,9.868,0,0,0-2.028-.308c-1.494-.221-1.846-.568-1.919-2.065-.075-1.547-.308-3.074-.49-4.609a.523.523,0,0,1-.08-.241l.08.241a61.594,61.594,0,0,0-.56-6.76c-.241-1.623-.234-3.1.93-4.383.219-.279.456-.547.654-.841.942-1.394,1.872-2.795,2.807-4.193a22.031,22.031,0,0,0,2.375-3.031c.9-1.284.873-1.3,2.271-.775a.987.987,0,0,0,.161.033,10.837,10.837,0,0,0,1.679.64c.449.255.88.549,1.35.76a81.713,81.713,0,0,1,10.145,5.583,2.58,2.58,0,0,0-.054,3.1c.6,1.042,1.228,2.152,2.725,2.049a9.066,9.066,0,0,0,.911,4.153,7.369,7.369,0,0,0,6.906,4.353c3.215.11,6.74-1.759,7.6-5.271.655-2.677.5-5.23-1.539-7.348a7.975,7.975,0,0,0-5.561-2.546,7.407,7.407,0,0,0-5.305,1.58c-.379-.262-.752-.559-1.152-.779-.862-.476-1.8-.987-2.739-.442a1.688,1.688,0,0,1-2.125-.187l-.013.008.011-.009c0-.216-.192-.253-.322-.327-1.388-.776-2.754-1.6-4.182-2.3-1.874-.914-3.7-1.936-5.645-2.7a13.535,13.535,0,0,0-2.649-1.216c-.133-.344-.953-.115-.669-.8,1.941-2.511,3.858-5.04,5.829-7.526,1.8-2.269,3.695-4.462,5.476-6.745,1.187-1.52,2.546-2.888,3.735-4.4.2-.252.409-.54.8-.518,0,0-.01-.006-.015-.01l.015.007c.883.324,1.752.745,2.7.2a5.56,5.56,0,0,0,2.842-4.1,3.873,3.873,0,0,1,1.435-2.435,7.309,7.309,0,0,1,2.622-1.359c1.939-.587,3.719-1.4,4.816-3.339a6.828,6.828,0,0,0-3.753-10.114,6.146,6.146,0,0,0-7.713,4.3c-.159.117-.117.3-.138.455a30.734,30.734,0,0,0,.152,4.781,4.78,4.78,0,0,1-2.125,4.208,6.1,6.1,0,0,0-2.656,3.65,3.007,3.007,0,0,0,.628,2.953h0a1.255,1.255,0,0,1-.482.749c-1.422,1.479-2.578,3.178-3.916,4.731-1.982,2.3-3.806,4.734-5.672,7.13-1.12,1.437-2.193,2.911-3.286,4.368h0c-1.2,1.572-2.413,3.138-3.6,4.719a29.821,29.821,0,0,0-2.034,2.787c-1.543,1.834-2.769,3.9-4.167,5.835-.183.066-.456.69-.491-.1-.039-.882-.135-1.762-.213-2.642-.213-2.389-.409-4.779-.651-7.166-.188-1.858-.388-3.712-.466-5.578,2.108-.959,2.831-2.1,2.646-4.246a11.649,11.649,0,0,0-.876-3.167,1.921,1.921,0,0,0-1.3-1.256,15.039,15.039,0,0,1,.633-4.064,21.958,21.958,0,0,0,.888-4.693,14.768,14.768,0,0,0-1.694-7.209,17.633,17.633,0,0,0-4.671-5.686,2.538,2.538,0,0,0-3.522.511,12.1,12.1,0,0,0-1.625,3.227,13.8,13.8,0,0,0-.735,7.942c.54,2.726,2,5.039,3.269,7.441a29.536,29.536,0,0,0,2.012,2.927c.168.244.34.37.594.115.191-.192.134-.31-.026-.541a43.126,43.126,0,0,1-2.749-4.215c-1.7-3.207-3.159-6.427-2.617-10.238a15.492,15.492,0,0,1,2.3-6.167,2.006,2.006,0,0,1,3.043-.3c.646.611,1.245,1.26,1.835,1.92a13.857,13.857,0,0,1,3.455,13.064c-.49,2.081-1.237,4.107-1.212,6.286l-1.3.651a2,2,0,0,1-.219-.076.479.479,0,0,1,.219.076c-.268-.553-.8-1-.829-1.643a16.009,16.009,0,0,0-.826-2.625c-.062-.3-.3-.29-.522-.2-.177.072-.36.159-.24.417.535,1.147.8,2.388,1.261,3.559.2.514.045.562-.373.544-.243-.053-.484-.117-.729-.155-.2-.031-.526.027-.41.226.406.7-.217,1.108-.391,1.625a4.85,4.85,0,0,0,3.676,6.118c0,1.583.409,3.122.531,4.688.208,2.691.493,5.374.769,8.058.284,2.772.494,5.552.744,8.327.135,1.487.282,2.973.425,4.459a1.012,1.012,0,0,0,.029.306q.335,3.323.674,6.647c.018.177.127.527-.1.442-.56-.215-.907.313-1.466.258a4.324,4.324,0,0,0-2.165.257c-.854.375-1.776.618-2.587,1.066a8.141,8.141,0,0,0-2.718,1.812,17.361,17.361,0,0,0-2.047,2.547c-.486.937-1.5,1.8-.977,3.082.1.235-.133.165-.219.225-.6.42-.5,1-.3,1.555.047.136.25.267.043.357-.414.179-.206.455-.233.741a15.622,15.622,0,0,0,.086,1.963,15.874,15.874,0,0,0,1.056,5.723c.079.186.133.362.377.378.178.012.331.065.266.3-.053.194-.208.128-.336.141a4.685,4.685,0,0,0-2.363.935,11.7,11.7,0,0,0-3.448,4.411,5.291,5.291,0,0,0-.438,4.108c.167.484-.159.591-.422.751a12.98,12.98,0,0,0-1.846,1.242,27.945,27.945,0,0,0-4.228,2.728c-4.395,2.862-8.671,5.908-13.272,8.447h0c-1.842.855-3.519,2.056-5.581,2.8a21,21,0,0,0,.228-2.98c.207-2.249-.359-4.478-.055-6.747a20.882,20.882,0,0,0-.083-3.464c-.055-1.476-.007-2.987-.007-4.478,0-.738-.007-1.5.048-2.2a24.117,24.117,0,0,0,.138-3.87c-.117-1.373.083-2.781-.083-4.147-.09-.786.124-.986.759-1.29a6.68,6.68,0,0,0,3.581-3.325,13.953,13.953,0,0,0,.718-7.272v0c.391-.125.787-.237,1.172-.38a2.879,2.879,0,0,0,2.155-3.132h0a4.818,4.818,0,0,0-.51-1.474l0,0h0a4.124,4.124,0,0,0-4.15-1.205l0,0c-.117.062-.255.2-.352.172-1.442-.331-2.753.607-4.188.386-.511-.076-1.09.373-1.442.38-.938.028-1.883.035-2.829.11h0l.005,0q-1.457.024-2.915.048c-.209,0-.477.127-.555-.182a.583.583,0,0,1,.238-.577,1.929,1.929,0,0,1,1.339-.485c1.406-.046,2.812-.1,4.217-.151l4.507-.2h0c1-.038,1.993-.094,2.991-.109a8.169,8.169,0,0,0,3.664-1.047l.33-.365a2.8,2.8,0,0,0,.384-3.571c-.517-1.048-1.182-1.346-2.708-1.216h0c-.1-.213-.455-.053-.506-.342a4.031,4.031,0,0,0,2.2-.807.216.216,0,0,0,.121-.042c1.334-1.17,1.4-2.688.175-4.288h0c-.3-.42-.806-.419-1.24-.6.639-.969.985-1.939.1-2.942a3.108,3.108,0,0,0-1.85-1.136,1.141,1.141,0,0,0-.776-.238,48.007,48.007,0,0,0-5.317-.121,27.576,27.576,0,0,0-6.251.474h0l-.5.2c-1.217-.185-2.307.64-3.528.445a.314.314,0,0,0-.227.09c-.893.877-2.218,1.421-2.278,2.942a1.615,1.615,0,0,0,.017,1.5,3.518,3.518,0,0,0,3.515,2.215h0c.18.236.428.211.68.184a19.387,19.387,0,0,0,3.536-.647l1.463-.073.328-.154a17.271,17.271,0,0,0,3.008-.186l.987-.149a9.6,9.6,0,0,0,3.681,0c.813.253,1.7-.025,2.5.357a.207.207,0,0,0-.15.041,30.045,30.045,0,0,1-4.515.753.432.432,0,0,0-.482-.217c-1.064.091-2.129.172-3.194.256-1.4.03-2.8.184-4.2.284a15.622,15.622,0,0,0-4.817.9,2.551,2.551,0,0,0-1.789,3.135,2.5,2.5,0,0,0,2.713,2.178,53.462,53.462,0,0,0,6.925-.683,10.9,10.9,0,0,0,3.178-.346h0c2.141-.5,4.338-.287,6.5-.489.249-.024.437.016.5.3.064.3-.142.4-.357.466a5.723,5.723,0,0,1-1.557.221,31.753,31.753,0,0,0-4.769.383.218.218,0,0,0-.157-.037,8.329,8.329,0,0,0-3.007.189.224.224,0,0,0-.153.009,30.683,30.683,0,0,0-3.943,0,.834.834,0,0,0-.739.263h0c-.435.159-.945.021-1.318.386h0v0a2.775,2.775,0,0,0-2.153,2.505l0,0,0,0c0,.152-.007.311-.007.469v0a2.23,2.23,0,0,0,1.143,2.328l.008.009a3.244,3.244,0,0,0,1.283.49,45.223,45.223,0,0,0,5.547-.31h.007c.359.2.795-.208,1.135.141a2.626,2.626,0,0,0-1.156.675h0c-.5.387-1.24.546-1.312,1.351l0,0,0,0c-.214.221-.193.641-.649.669a9.654,9.654,0,0,1-1.649.159c-.759-.083-.938.3-1.069.911a8.16,8.16,0,0,0,1.911,7.051,6.431,6.431,0,0,0,4.5,2.856c.711.055.883.317.9.911.007.221.055.442.062.662.11,3.808-.221,7.6-.166,11.418.055,3.388-.379,6.782-.034,10.176.31,3.077-.5,6.127-.193,9.2.034.393-.145.607-.628.407-.849-.366-1.649-.952-2.67-.738-.055.014-.124-.041-.186-.076a8.145,8.145,0,0,0-3.394-.849c-1.325-.165-2.642.186-3.967.042a13.583,13.583,0,0,0-4.346.6,9.173,9.173,0,0,0-3.146,1.242c-1.145.731-2.442,1.207-3.291,2.428a13.3,13.3,0,0,0-1.973,4.112c-.414,1.566.034,3.146.262,4.712.166,1.187.269,2.38.4,3.567-.407-.193-.7-.359-1-.524-.379-.207-.855-.145-1.138-.393-1.021-.89-2.235-1.483-3.291-2.311a.756.756,0,0,1-.352-.9c.469-2.008-.2-3.677-1.856-4.429a27.943,27.943,0,0,1-3.608-2.022,3.653,3.653,0,0,0-1.918-.738c-.393-.007-.324-.276-.373-.5a6.325,6.325,0,0,0,.152-2.8,10.994,10.994,0,0,0-4.595-7.465,12.163,12.163,0,0,0-9.072-2.435,10.861,10.861,0,0,0-8.693,5.271,11.835,11.835,0,0,0-1.621,10.08c1.256,4,3.629,7.079,7.831,8.514a12.355,12.355,0,0,0,4.774.676,12.118,12.118,0,0,0,7.92-3.663,19.474,19.474,0,0,1,3.16,1.435,9.648,9.648,0,0,0,3.712,1.159,3.437,3.437,0,0,0,3.263-1.028c.193-.221.2-.718.614-.628a1.537,1.537,0,0,1,.842.5c1.332,1.628,3.443,2.069,5.03,3.312a1.1,1.1,0,0,1,.559.842c.076.821.173,1.635.262,2.449.124,1.118.517,2.187.676,3.27.179,1.242.524,2.456.635,3.719.2,2.221,1.028,4.353,1.207,6.6a4.536,4.536,0,0,1-.545,2.863c-.5.78-1.056,1.518-1.538,2.3-.248.4-.228.991-.887,1.02h0c-.25-.141-.508-.236-.755-.014a6.257,6.257,0,0,0-1.715,1.9h0a6.082,6.082,0,0,0-1.325,3.767c0,.559.338,1.29.1,1.635-.269.38-1.042.4-1.594.58h0c-.4-.269-.635.054-.834.279a3.314,3.314,0,0,0-.683,1.225,5.145,5.145,0,0,0-.538,3.022c-.317-.083-.662-.069-.835-.234-.635-.593-1.035-.228-1.442.255a3.853,3.853,0,0,0-.676.842c-.386.9-.966.89-1.821.662a107.533,107.533,0,0,0-23.9-3.394c-1.111-.034-2.042-.034-2.346-1.331a.649.649,0,0,0-.117-.214c-1.394-1.669-1.842-3.946-3.532-5.416-.352-1.7-1.67-2.863-2.47-4.319-.393-.732-.821-1.5-1.194-2.215-.58-1.131-1.7-1.966-1.842-3.318-1.014-.552-.924-1.78-1.566-2.58a6,6,0,0,1-1.035-1.69c-.386-1.118-1.359-1.842-1.711-2.925-.193-.593-.69-.911-.98-1.387-1.042-1.711-1.945-3.5-3.146-5.119a.956.956,0,0,1,.028-1.332,6.6,6.6,0,0,0,1.263-5.788,15.239,15.239,0,0,0-2.967-5.8,11.28,11.28,0,0,1-1.67-2.16c-.552-1.187-1.125-1.324-2.215-.593h-.014a.344.344,0,0,1-.366-.483c.145-.407-.069-.635-.3-.876a6.028,6.028,0,0,1-1.746-3.408c-.227-2.187-1.078-4.307-.767-6.549l0-.019c.032-.9.01-1.8.111-2.693.089-.792-.142-1.551-.068-2.352.139-1.509.075-3.035.131-4.554a14.028,14.028,0,0,1,.724-4.2c.637-.637.621-1.548.94-2.318a2.71,2.71,0,0,0,.339-1.428c-.024-.16.01-.357-.206-.4-.239-.046-.207.179-.289.307-.56.873-.558,2.005-1.294,2.795v0l0-.006a9.725,9.725,0,0,1,.283-2.96v-.018a.164.164,0,0,1,0,.019,2.722,2.722,0,0,0,.166-.458c.33-1.852-.17-3.83.911-5.577.241-.391.157-.969.355-1.4a5.538,5.538,0,0,0,.566-2.431,37.262,37.262,0,0,1-.476-4.909,5.709,5.709,0,0,0-.792-2.775,10.867,10.867,0,0,0-1.785-2.258,2.521,2.521,0,0,1-.954-2.447,4.082,4.082,0,0,0-.546-2.764c-.125-.249-.181-.8-.722-.555-.5.227-.49.632-.25,1.034a3.148,3.148,0,0,1,.542,1.454,8.974,8.974,0,0,0,2.154,5.145,5.445,5.445,0,0,1,1.185,3.494,14.063,14.063,0,0,0,.681,4.593c-.317.68-.159,1.5-.642,2.132a25.217,25.217,0,0,0-.628-4.986,30.206,30.206,0,0,0-4.609-10.749,29.593,29.593,0,0,0-7.134-7.555l-.007,0a15.436,15.436,0,0,0-4.337-2.647l0,.009-.006-.008a.2.2,0,0,0-.152-.034,22.831,22.831,0,0,0-7.134-2.5,23.644,23.644,0,0,0-7.762-.028c-.359.048-.731,0-.987.338-.324.048-.683-.076-.959.207v0a8.912,8.912,0,0,0-1.714.558c-.827.46-1.881.547-2.454,1.436h.007l0,0h0l0,0a5.337,5.337,0,0,0-1.54.943,14.321,14.321,0,0,0-2.4,2.778,15.759,15.759,0,0,0-2.71,5.453h0a23.733,23.733,0,0,0-1.235,8.444c-.159.138-.172.276.007.414a29.62,29.62,0,0,0,.752,5.775l.006.009-.009-.006a25.088,25.088,0,0,0,3.973,9.332v-.012l0,.012c.235.186.055.635.455.724.15.593.7.859,1.054,1.284h0a18.955,18.955,0,0,0,4.629,4.519h0a1.519,1.519,0,0,0,.6.549c1.431.98,2.978,1.776,4.415,2.734.646.431,1.483.381,2,.992a3.212,3.212,0,0,0,1.821,1.071,21.191,21.191,0,0,0,2.82,1.513v0h0c.669.386,1.332.772,1.994,1.159a37.234,37.234,0,0,1,5.54,4.139c.262.228.531.462.793.7h0c.336.556.96.791,1.382,1.272,1.011,1.156,2.1,2.246,3.154,3.363v0a20.734,20.734,0,0,0,1.366,1.608c.435.573,1.207.869,1.366,1.635a6.2,6.2,0,0,0,.745,1.745c.662,1.207,1.3,2.428,1.952,3.643.3.559.283.876-.448,1.111-1.359.435-1.338.49-.662,1.807.028.048.048.1.076.145a34.032,34.032,0,0,0,4.836,6.547,9.783,9.783,0,0,0,2.573,2.091,5.924,5.924,0,0,0,5.085.731c.359-.138.455.062.635.317.959,1.373,1.759,2.856,2.629,4.291.945,1.552,1.952,3.07,2.87,4.643,1.884,3.215,3.726,6.465,5.588,9.693.552.959,1.138,1.9,1.78,2.987-1.318-.269-2.463-.607-3.629-.724-1.849-.186-3.684-.476-5.519-.745a25.953,25.953,0,0,0-3.615-.669,32.019,32.019,0,0,1-5.526-.945c-1.787-.31-3.6-.552-5.388-.9-1.214-.235-2.463-.338-3.663-.683a22.1,22.1,0,0,0-3.774-.628c-1.842-.207-3.663-.5-5.485-.779a22.683,22.683,0,0,1-4.16-.7c-.752-.255-1.69-.317-2.442-.559-.6-.186-1.152.1-1.773-.235a8.363,8.363,0,0,0-2.787-.579c-.593-.076-1.187-.269-1.752-.283-1.269-.021-2.442-.9-3.753-.4a.267.267,0,0,1-.345-.1c-.379-.435-.945-.331-1.428-.483-.759-.248-1.635.145-2.332-.338a1.414,1.414,0,0,0-1.09-.255,2.732,2.732,0,0,1-1.518-.228,7.433,7.433,0,0,0-1.752-.442h0c-.226-.068-.474.219-.709-.1-.152-.207-.482-.125-.705-.062-.241.067-.475.44-.615-.1a.238.238,0,0,0-.213-.086c-1.155.437-2.066-.637-3.25-.5a3.553,3.553,0,0,1-2.121-.463c-.845-.609-1.759-.272-2.607-.575-.624-.223-1.247-.126-1.365-.993a2.919,2.919,0,0,0-.393-.815c-.735-2.486-1.809-4.849-2.661-7.293v0a2.669,2.669,0,0,0,1.173-3.312c-.159-.524-.3-1.062-.5-1.58-.152-.365-.159-.607.262-.773a3.236,3.236,0,0,0,1.021-.669c.49-.483,1.18-.642,1.594-1.318.372-.621.3-1.325.573-1.808.773-1.345.173-2.7.214-4,.09-2.428-1.5-4.167-3.229-5.7a11.842,11.842,0,0,0-2.753-1.3,2.842,2.842,0,0,0-1.256-.483,16.609,16.609,0,0,1-2.635-.083c-1.7-.193-2.98.656-4.3,1.338-1.449.745-2.159,2.36-3.394,3.395a.388.388,0,0,0-.117.207c-.386,1.525-1.125,2.939-1.118,4.574a6.783,6.783,0,0,0,1.063,3.939,13.421,13.421,0,0,0,1.269,1.477c.373.407,1.076.234,1.269.917.1.386.711.324,1,.435,1.428.517,2.836,1.276,4.415,1.228.538-.014.7.138.883.641.524,1.421,1.166,2.829,2.918,3.063a1.045,1.045,0,0,1,.9.662h0c-.056.517.353.853.518,1.285.7,1.847,1.457,3.674,2.193,5.51l.342,1.016c-1.326-.259-2.6-.443-3.846-.767a57.6,57.6,0,0,0-6.865-1.281,9.444,9.444,0,0,1-1.857-.264,14.207,14.207,0,0,0-2.106-.523c-1.187-.233-2.427-.243-3.584-.564a35.83,35.83,0,0,0-4.271-.907c-.657-.1-1.325-.2-1.989-.308-1.2-.188-2.375-.531-3.577-.636-.581-.051-.627-.208-.575-.666a3.057,3.057,0,0,0-.859-2.682c-1.765-1.632-3.458-3.416-6.012-3.831a7.67,7.67,0,0,0-3.129-.079c-.413.1-.63.109-.719.584-.161.866-.422,1.713-.642,2.568-.54.233-.8.062-.55-.491.652-1.462.956-3.038,1.533-4.522l.005,0a.6.6,0,0,0,.092-.19,2.78,2.78,0,0,0,.216-1.592,2.1,2.1,0,0,0-1.1-1.883l0,0a2.5,2.5,0,0,0-2.531-.606c-.615.076-.922.595-1.35.938a6,6,0,0,0-1.138,3.2c.135.437-.207.736-.345,1.081-.4,1-.348,2.116-.863,3.085-.147.277-.41.6-.281.924.254.634-.165,1.063-.368,1.563-.229.114-.251.328-.3.55a17.836,17.836,0,0,1-1.085,3.29c-.11.242-.2.643-.516.531s-.275-.526-.2-.817a4.828,4.828,0,0,0,.3-1.539q.348-1.07.7-2.14a14.659,14.659,0,0,0,.928-2.754c.161-.4.569-.762.37-1.277a17.334,17.334,0,0,0,1.283-3.568c.221-.755.828-1.4.693-2.257a2.553,2.553,0,0,0-1.5-2.863,2.911,2.911,0,0,0-3.335.331l-.166.159a5.492,5.492,0,0,0-1.975,4.03h0a.6.6,0,0,0-.151.032c-.04-.244.07-.531-.206-.707a6.272,6.272,0,0,0,.557-4.1,1.331,1.331,0,0,0-.38-.886.2.2,0,0,0-.021-.139,3.016,3.016,0,0,0-3.484-1.385l.005,0h-.008c-.428.014-.655.324-.924.593a4.83,4.83,0,0,0-1.2,1.918c-.552-.173.028-.752-.359-.987l0,0,0,0c.028-.4.153-.817-.146-1.18h0a.6.6,0,0,0-.048-.145l-.005,0a2.536,2.536,0,0,0-2.346-1.633,3.011,3.011,0,0,0-2.612,1.46h0l-.709.792,0,.007a4.369,4.369,0,0,0-.468.662,37.082,37.082,0,0,0-1.94,4.821,25.947,25.947,0,0,0-1.247,4.187l0,.007c-.1.395-.4.742-.3,1.187a.194.194,0,0,0-.027.138v0h0c-.718,1.566-.1,3.1.538,4.409a4.223,4.223,0,0,0,2.622,2.153h0c.137.262.384.279.637.3a3.819,3.819,0,0,0,3.392-1.334h0c.421-.338.931-.517,1.263-1.007a18.353,18.353,0,0,0,1.821-4.657c.78-2.311,1.421-4.678,2.194-6.989a4.545,4.545,0,0,1,.869-1.821l.075-.074.012.027-.084.046a2.788,2.788,0,0,1-.106,1.67c-.212.642-.377,1.3-.564,1.95a11.109,11.109,0,0,0-1.295,3.7h0c-.045.1-.094.2-.133.3-.538,1.406-.671,2.922-1.214,4.335a10.06,10.06,0,0,0-.749,2.7,2.975,2.975,0,0,0,3.2,3.254,3.753,3.753,0,0,0,2.854-2.736c.524-1.727,1.018-3.463,1.524-5.194a3,3,0,0,0,.492-1.5,16.791,16.791,0,0,1,.665-2.44,11.357,11.357,0,0,1,1.354-3.458c.191-.333.435-.705.918-.442.52.284.118.651,0,.915a10.2,10.2,0,0,0-1.1,2.756l-.012,0c-.308.875-.657,1.738-.913,2.627a14.979,14.979,0,0,0-.886,3.225c-.012.107-.023.215-.034.322a6.677,6.677,0,0,0-1.123,4.176v1.143a2.46,2.46,0,0,0,1.839,2.487l.622.166a2.171,2.171,0,0,0,2.524-1.265,2.081,2.081,0,0,0,.565-.879,41.66,41.66,0,0,0,1.73-5.24,6.421,6.421,0,0,1,.452-1.181c.279.312.235.74.557.957.335.642.613,1.353,1.545,1.265.665.053.784.407.595.994a10.769,10.769,0,0,0-.283,1.3c-.278,1.473-.13,1.727,1.342,2.045a20.545,20.545,0,0,0,6.366.512c1.81-.179,3.61-.535,4.476-2.478.152-.34.382-.219.615-.185,3.088.444,6.171.929,9.219,1.6,3.748.821,7.525,1.483,11.3,2.171,4.409.8,8.726,2.052,13.169,2.7,2.353.342,4.651,1.013,7.03,1.206h0c2.166.662,4.436.835,6.685,1.414-1.435,1.049-2.822,2.063-4.208,3.07l0,0c-2,1.228-3.856,2.662-5.766,4.02-4.331,3.08-8.7,6.113-13.05,9.164l0,0c-.51.372-1.02.738-1.517,1.118-.179.145-.359.3-.593.193-1.359-.621-2.318.207-3.3.917a14.283,14.283,0,0,1-1.325.773,3.5,3.5,0,0,0-1.939,2.3c-.511.124-1.014.262-1.525.359-2.746.49-4.533,1.98-5.05,4.809-.062.345-.152.69-.241,1.028-.476,1.87-1.332,3.65-1.4,5.623a1.454,1.454,0,0,0,1.952,1.614,17.434,17.434,0,0,0,6.63-3.767,9.19,9.19,0,0,0,3.008-6.285c1.138-1.014,2.077-2.215,3.1-3.325a3.662,3.662,0,0,0,.614-1.159,12,12,0,0,1,2.263-3.518h0a3.034,3.034,0,0,0,.433-.218c2.7-1.954,5.385-3.924,8.09-5.868,3.15-2.264,6.313-4.507,9.471-6.759h0c1.572-.931,2.994-2.076,4.462-3.145a2.36,2.36,0,0,1,2.09-.573c.559.145,1.131.241,1.7.352,3.118.621,6.285.932,9.376,1.683a45.059,45.059,0,0,0,6.292,1.083c1.87.179,3.719.517,5.575.807a38.075,38.075,0,0,0,4.5.7c-.559.69-1.014,1.235-1.463,1.787h0v0c-1.969,1.835-3.766,3.843-5.76,5.657a29,29,0,0,0-3.568,3.808.129.129,0,0,0-.012.009c-.214.421-.538.345-.924.262a3.723,3.723,0,0,0-3.767,2.428,2.008,2.008,0,0,1-.718,1.152,5.411,5.411,0,0,1-4.609,1.221,6.17,6.17,0,0,0-3.7.248c-1.221.614-2.56,1.1-2.677,2.842a4.687,4.687,0,0,0,.214,2.015,13.116,13.116,0,0,0,1.759,3.932,19.6,19.6,0,0,0,2.629,2.615,8.644,8.644,0,0,0,2.884,1.559c.4.131.8-.069,1.207.1a6.049,6.049,0,0,0,2.8.414c.352-.028.393-.428.807-.462,1.318-.11,2.532-2.008,2.366-3.3-.228-1.821-.683-3.608-.828-5.45a6.026,6.026,0,0,1,.359-2.753c.235-.607.752-.7,1.269-.952a3.381,3.381,0,0,0,1.532-3.436,2.005,2.005,0,0,1,.559-2.27l0-.006c.92-1.009,1.813-2.043,2.765-3.02,1.9-1.948,3.824-3.865,5.739-5.794l.006,0c.586-.656,1.173-1.318,1.773-1.966.179-.193.31-.421.676-.359a68.452,68.452,0,0,1,7.327,1.242c2.78.745,5.637.986,8.445,1.559,2.215.455,4.491.511,6.72.973,1.338.276,2.6.628,3.139,1.89.8,1.849,2.028,3.429,2.946,5.2.193.373.538.718.49,1.228-.145.007-.283.028-.414.021a46.008,46.008,0,0,0-11.259.883,37.639,37.639,0,0,0-15.8,6.616,63.549,63.549,0,0,0-14.626,15.93,59.469,59.469,0,0,0-8.845,20.815c-.359,1.711-.538,3.443-.731,5.243a5.954,5.954,0,0,0-2.642-1.276c-.793-.048-.835-.359-.766-1.021a14.887,14.887,0,0,0-.131-4.919,24.49,24.49,0,0,0-2.663-6.768c-1.663-2.877-3.719-5.25-7.037-6.244a11.128,11.128,0,0,1-1.414-.69,9.32,9.32,0,0,0-4.974-1.007,25.342,25.342,0,0,0-3.47.752,15.931,15.931,0,0,0-2.291.531,16.006,16.006,0,0,0-4.284,3.042,25.29,25.29,0,0,0-4.912,6.134,16.788,16.788,0,0,0-1.442,2.684,23.237,23.237,0,0,0-1.166,6.94,20.309,20.309,0,0,0,.462,3.857,10.788,10.788,0,0,0,4.029,6.7,16.6,16.6,0,0,0,3.657,1.987c.635.3,1.38.441,1.946.787a4.757,4.757,0,0,0,2.38.862c1.5.069,3.008.124,4.512.179l.012,0h-.012a3.263,3.263,0,0,0,4.178-.658h0c.49-.186.98-.366,1.469-.552a1.508,1.508,0,0,1,.228-.083,1.54,1.54,0,0,0,.255-.062s0,0,.006,0a2.645,2.645,0,0,1-.492.146c1.137-.137,2.289-.174,3.165-1.12a1.1,1.1,0,0,1,1.671.012,2.707,2.707,0,0,0,2.132.523,18.251,18.251,0,0,1-2.473-2.066h0c.076-.3-.442-.49-.083-.876.718-.773,1.125-.8,1.89-.076a7.912,7.912,0,0,0,1.111.856c1.352.883,2.7,1.759,3.953,2.766v.014c-.076,0-.159.007-.234.007-.2.007-.455-.172-.58.117s.241.186.331.352c.386.683.959,1.242,1.311,1.959a4.213,4.213,0,0,0,3.85,2.553c.366,1.131.718,2.256,1.1,3.381a84.921,84.921,0,0,0,7.265,15.433v0c-.058.13-.155.153-.252.058a4.12,4.12,0,0,1-1.114-1.421q-.26-.7-.54-1.383c-.068-.168-.212-.29-.389-.2-.155.078-.06.226-.019.36a15.748,15.748,0,0,0,.633,1.61c.564,1.308,1.883,2.012,2.518,3.259a5.321,5.321,0,0,0,1.283,1.75c.04.353.442.308.59.528.875,1.293,1.758,2.581,2.6,3.9a13.6,13.6,0,0,1,1.071,1.44,6.641,6.641,0,0,0,2.068,2.479c.946.71,2.144,1,3.037,1.8l2.07,1.694a2.2,2.2,0,0,0,.115-.342c.026-.187.439-.262.179-.512s-.36.1-.52.2c-.08.048-.123.078-.159-.02a.573.573,0,0,1-.012-.163c.226-.221.285-.368,0-.665-.771-.816-1.721-1.409-2.537-2.164a48.448,48.448,0,0,1-4.512-4.828l-2.483-3.342h0c-.13-.213-.261-.426-.392-.633-4.333-6.858-8.12-13.978-10.307-21.857a.428.428,0,0,1,.007-.1s-.007-.014,0-.014a.013.013,0,0,1,0-.021c.034-.3.3-.338.573-.407a7.778,7.778,0,0,0,2.836-1.145,8.3,8.3,0,0,0,2.139-1.966c.379.048.262-.366.455-.5,1.463,1.118,2.987,2.146,4.519,3.167,1.994,1.325,3.657,3.084,5.616,4.45a39.286,39.286,0,0,0,4.567,3.339c2.573,2.221,5.278,4.284,8,6.326.7.531,1.476.973,2.118,1.566a21.175,21.175,0,0,0,2.484,2.022c4.015,2.7,8.286,5.029,11.8,8.458,2,1.959,4.45,3.436,6.361,5.526a1.227,1.227,0,0,1,.442.973c-.069,1.628.172,3.256-.028,4.885a.778.778,0,0,0,.248.745c.7.566.041,1.131-.048,1.656-.076.435-.621.207-.945.186-4.043-.228-7.851.414-11.142,2.987a.57.57,0,0,1-.607.166h0c.127-.139.244-.289.383-.416s.566,0,.378-.341c-.133-.239-.442-.081-.66.05-.317.19-.51.593-.956.564l.008,0-.011-.005a48.606,48.606,0,0,1-8.472-3.029l0,0v0c-1.389-.729-2.728-1.554-4.186-2.148h0l-.326-.164-4.208-3a3.1,3.1,0,0,0,1.686,2.195c-.211.308-.506-.231-.717.073a3.557,3.557,0,0,0,3.054,1.748c.637.558,1.037,1.371,1.928,1.658a8.7,8.7,0,0,1,4.34,2.774,2.465,2.465,0,0,0,2.016,1c1.279-.141,2.706.466,3.831-.629.037-.036.129-.015.208-.008a.219.219,0,0,0,.035.006c.221.062.442.117.669.179h0c-.359.737-.869,1.441-.52,2.334v0c-.262.669-.855,1.194-.842,1.973v.006l0,0a11.131,11.131,0,0,0-.98.947,10.435,10.435,0,0,0-1.99,6.367,2.745,2.745,0,0,0-.01,1.278,12.9,12.9,0,0,0,1.879,3.075,12.421,12.421,0,0,0,3,3.186c.539.329.559.574.315,1.025h0v0a24.2,24.2,0,0,0-1.9,2.3c-2.829,4.208-1.345,10.176,3.146,12.08a24.251,24.251,0,0,0,7.982,2.021l3.622.207a92.817,92.817,0,0,0,12.77-.331h.1l3.953.055a5.388,5.388,0,0,0,3.093-.694,22.655,22.655,0,0,0,2.771-2.466,3.282,3.282,0,0,0,1.257-3.04l0,.007v-.008c0-.386.352-.759.035-1.152l-.014,0h.012c-.163-.238-.494-.262-.629-.572a3.784,3.784,0,0,0-2.6-2.253c-.186-.05-.29-.134-.268-.333l0,0a9.15,9.15,0,0,0,2.518-3.146l.005-.006a2.581,2.581,0,0,0,1.444-2.03,21.3,21.3,0,0,0,.626-3.492,4.741,4.741,0,0,0-1.267-4.156c-.267-.491-.467-.936.39-1.024.285-.029.268-.306.207-.535a.509.509,0,0,0-.535-.414c-1.316-.064-1.4-.136-1.76-1.36h0a11.392,11.392,0,0,0,.862-2.67,15.941,15.941,0,0,0,1.67-4.119,2.236,2.236,0,0,0-.138-1.828,8.777,8.777,0,0,1-.476-1.18,50.037,50.037,0,0,0,12.4-7.2,73.391,73.391,0,0,0,17.351-20.656,38.908,38.908,0,0,0,4.795-12.15,4.085,4.085,0,0,1,1.69-2.994c1.8-1.228,1.787-1.711.524-3.512a.125.125,0,0,1,0-.016.58.58,0,0,1,.179-.426,2.424,2.424,0,0,0,.159-2.865,7.5,7.5,0,0,0-1.62-2.061h0a2.138,2.138,0,0,1-.221-2.153c.441,1.311,1.607,2.1,2.318,3.215a17.6,17.6,0,0,0,3.236,3.946h0a2.179,2.179,0,0,0,2.007.864c1.377.011,1.986-.8,1.686-2.16a.141.141,0,0,0-.006-.05c0-.826-.707-1.378-.875-2.141l.01.008,0-.009c.593.091.535.945,1.16,1l0,0,0,0a2.875,2.875,0,0,0,1.02,1.172,1.8,1.8,0,0,0,1.543.4,2.256,2.256,0,0,0,1.65-2.012,4.277,4.277,0,0,0-1.351-3.425v0c-1.242-1.159-2.187-2.58-3.36-3.8-.579-.911-1.518-1.525-2.021-2.491l0,0c-.188-.456-.377-.911-.562-1.368-.073-.181-.158-.4-.019-.551.2-.222.392.055.591.091h0v0a4.9,4.9,0,0,0,.442.779c.814,1,1.607,2.021,2.4,3.036l0,0c.851,1.18,1.776,2.309,2.657,3.461a2.574,2.574,0,0,0,2.268.892,1.172,1.172,0,0,0,.592-.272,3.139,3.139,0,0,0,1.026-3.614q-.2-.562-.4-1.125a24.122,24.122,0,0,0-2.107-3.878l-.484-.669a4.514,4.514,0,0,0-2.353-1.912c-1.493-.386-2.393.3-2.335,1.787l-.066.317-.392-.31a2.646,2.646,0,0,0-3-.407,2.6,2.6,0,0,0-.662,3.029c.131.38.3.745.5,1.242-.8-.352-1.249-.98-1.959-1.242a1.927,1.927,0,0,0-2.153.276,1.724,1.724,0,0,0-.379,2.194,20.389,20.389,0,0,0,3.284,4.961,9.525,9.525,0,0,0,1.78,1.945h.005l-.005,0a5.676,5.676,0,0,0,1.163,1.5l.154.17h0a5.746,5.746,0,0,1,.488,1.584c-.531-.441-.918-.759-1.3-1.083v-.014h0l-.811-.846v0c-1.159-1.525-2.3-3.063-3.477-4.574-.531-.7-.724-1.663-1.539-2.118a1.542,1.542,0,0,1-.842-1.628,16.02,16.02,0,0,0-.145-2.221,29.567,29.567,0,0,0-.945-6.816c-.014-.055-.021-.11-.034-.166a58.638,58.638,0,0,0-2.635-9.852,40.013,40.013,0,0,0-12.867-18.793c-.29-.234-.359-.414-.186-.752a3.069,3.069,0,0,0,.359-1.525c0-.009.005-.015.008-.024.1-.4.419-.442.772-.538a4.3,4.3,0,0,0,3.356-3.138l0,0c.166-.448.331-.89.5-1.339a1.36,1.36,0,0,0,.386-1.069c-.007-.076-.007-.152-.021-.228a.2.2,0,0,0-.014-.089,2.212,2.212,0,0,0-.159.2,3.026,3.026,0,0,1-.117-1.035,1.124,1.124,0,0,1,.849-.787c.566-.152.511.373.745.579l-.138.1a.132.132,0,0,0,.069.034c.014.014.035.014.055.021.593-.38,1.332-.5,1.8-1.076a5.369,5.369,0,0,0,.462-3.16.765.765,0,0,1,.373-.835,19.88,19.88,0,0,1,4.409-2.546,41.433,41.433,0,0,1,5.581-2.084c1.773-.448,3.581-.738,5.374-1.111.628-.131,1.042-.055,1.207.7a4.371,4.371,0,0,0,.607,1.2c.31.517.952.766,1.1,1.3.255.917.993,1.483,1.4,2.256s1.076,1.5.373,2.5c-.269.379-.683.656-.821,1.111a3,3,0,0,0,2.96,3.863,5.821,5.821,0,0,0,.041,1.987c.428,2.925,1.7,5.319,4.429,6.72.586.3,1.228.476,1.808.786,2.38,1.262,4.733,2.58,7.127,3.815a1.952,1.952,0,0,0,2.063-.035,1.819,1.819,0,0,0,.511-1.89,18.9,18.9,0,0,0-1.311-4.5c-1.042-2.511-1.939-5.112-3.822-7.154a8.459,8.459,0,0,0-5.644-3.084c.469-2.125-1.249-2.808-2.553-3.65a3.029,3.029,0,0,0-3.684.372q-1.035-1.676-2.077-3.353v0c.279-.348.665-.2,1.009-.2,2.273,0,4.547.017,6.82.02,2.513,0,5.03-.088,7.539.015,4.259.172,8.517.075,12.775.146l0,0a9.331,9.331,0,0,0,1.642.007,1.087,1.087,0,0,1,1.338.766,3.744,3.744,0,0,0,3.332,2.222c.324.028.683-.021.9.324,1.939,4.071,7.81,6.789,12.494,3.6a8.937,8.937,0,0,0,1.863-12.991,7.772,7.772,0,0,0-7.506-2.87,7.734,7.734,0,0,0-5.54,3.774c-.124.248-.242.352-.573.214-1.739-.731-4.664.814-4.967,2.422-.338,1.787-1.442,1.58-2.635,1.545a1.329,1.329,0,0,0-.166.014l-.008,0q-4.643-.017-9.287-.033c-3.539-.007-7.079.029-10.618-.019-2.82-.039-5.637-.2-8.459-.11-.284-.01-.59.106-.849-.052,0,0,0,0,0,0-.048-.035-.09-.076-.138-.117a6.276,6.276,0,0,1-.724-1.442c-.276-.607.186-.518.442-.607.166-.062.386.041.566-.007q4.295-1.232,8.583-2.491a.557.557,0,0,0,.145-.069,30.222,30.222,0,0,0,3.953-2.656,11.545,11.545,0,0,0,3.056-4.788,14.936,14.936,0,0,0,.918-3.594,14.07,14.07,0,0,0-.635-5.9,29.97,29.97,0,0,0-2.525-4.905c-.255-.442-.614-1.131-1.414-.918-.048-.214.035-.428-.172-.655-.655-.718-1.207-1.539-1.9-2.221a17.9,17.9,0,0,0-1.973-2.063,25.046,25.046,0,0,1-2.056-2.049,33.663,33.663,0,0,0-3.767-3.029,39.178,39.178,0,0,0-5.271-3.27,31.358,31.358,0,0,0-6.333-2.608c-.4-.1-1.187-.076-1.221-.766-.055-.945.048-1.9.062-2.856a.477.477,0,0,1,.352-.531,31.06,31.06,0,0,0,4.918-2.607v0a14.782,14.782,0,0,0,3.353-1.743c5.075-3.215,10.107-6.5,15.155-9.753a.181.181,0,0,0,.148-.037l1.168-.8c.535-.511.957-.5,1.62-.025a5.617,5.617,0,0,0,5.585.836c2.594-1.065,4.316-3.149,5.824-5.4a1.441,1.441,0,0,0-.58-2.02c-.515-.366-1.056-.7-1.585-1.042.612-.394,1.026-1.056,1.808-1.227,1.715-.377,3.314-1.177,5.072-1.4.308-.039.468-.187.393-.493-.07-.288-.248-.386-.562-.284-2.517.823-5.227,1.153-7.383,2.9l-.844-.989h0c2.573-2.159,5.27-4.188,7.188-7.016.09-.131.269-.207.379-.324.207-.221.407-.186.669-.076.31.124.283.331.283.593-.007,1.338.31,2.015,1.056,2.187.241.055.586.234.738-.055s-.235-.407-.393-.51a1.284,1.284,0,0,1-.593-1.5c.172-.593.759-.248,1.131-.283.7-.062.9-.414.89-1.028a1.116,1.116,0,0,0-.676-1.138c-.49-.173-.849.179-1.242.469-.29.207-.366,1.028-.869.58-.386-.359.221-.711.462-1.007a6.846,6.846,0,0,0,1.587-2.691,1.9,1.9,0,0,0-1.918-2.442,3.1,3.1,0,0,0-2.76,2.3,3.361,3.361,0,0,0,.876,3.629c.345.324.372.524.055.835-1.221,1.2-2.29,2.539-3.525,3.726a37.852,37.852,0,0,1-3.828,3.076h0a32.146,32.146,0,0,0-1.864-3.366c-.369-.693-.246-1.462-.529-2.152a9.121,9.121,0,0,1-.474-4.52c.329-3.023,2.032-5.365,3.91-7.6a2.9,2.9,0,0,1,1.031-.669c1.86-.839,3.847-1.317,5.768-1.984a3.555,3.555,0,0,1,1.147-.141,22.59,22.59,0,0,1,3.21.569c4.9.661,8.156,3.415,10.182,7.854a14.59,14.59,0,0,1,1.164,5.719,10.709,10.709,0,0,1-.749,4.281,41.268,41.268,0,0,1-1.934,4.06,3.584,3.584,0,0,1-2.159,1.974,5.424,5.424,0,0,0-1.446.678,5.9,5.9,0,0,1-2.292.962,28.056,28.056,0,0,1-4.117.49,5.467,5.467,0,0,1-2.548-.755c-.45-.239-1.025-1.141-1.654-.105-.15.247-.384-.032-.564-.137-.5-.292-.392-.971-.829-1.3a1.086,1.086,0,0,0,.1,1.631,6.864,6.864,0,0,0,2.951,1.543c.571.065,1.136.186,1.7.273a12.985,12.985,0,0,0,4.334.024c1.054-.2,1.909-1.012,3.016-1.191a2.38,2.38,0,0,0,1.251-.569c1.076-1.072,2.426-1.794,3.5-2.857a11.442,11.442,0,0,0,2.2-3.266,5.711,5.711,0,0,1,.849-1.783,43.388,43.388,0,0,1,4.5.521,3.369,3.369,0,0,0,1.4,2.09.9.9,0,0,1,.41.505c.1.461.464.595.84.7,1.5.431,2.188.149,2.927-1.236a.633.633,0,0,1,.643-.4,1.419,1.419,0,0,0,1.42-1.064q.672-1.687,1.343-3.373c.148-.375.39-.81.791-.662.246.09.2.593.068.965a15.535,15.535,0,0,1-.868,2.432,14.374,14.374,0,0,0-2.409,5.018,2.766,2.766,0,0,0,.036,1.636,1.8,1.8,0,0,0,3.04.616,10.532,10.532,0,0,0,2.378-4.387,8.325,8.325,0,0,0,.671-1.75,13.984,13.984,0,0,1,1.059-2.844c.081-.142.195-.393.434-.276.192.095.047.288.042.444-.033,1-.678,1.8-.911,2.729-.182.765-.733,1.388-.844,2.181-.331.13-.394.454-.479.731-.221.725-.432,1.457-.591,2.2-.326,1.522-.075,2.229.958,2.865h0c1.329.545,2.218-.233,3.056-1.06.269.18.046.467.232.626a.789.789,0,0,0,.17.986c.013.358.269.524.541.668a2.087,2.087,0,0,0,2.616-.96,16.863,16.863,0,0,0,1.508-3.733c.014-.34.276-.628.206-.986.415-.477.293-1.1.418-1.652A6.551,6.551,0,0,0,485.13-1011.219Zm-15.594-33.506c.124-.221.248-.255.462-.117a19.651,19.651,0,0,1,3.118,2.318,1.476,1.476,0,0,1,.462,1.573,2.333,2.333,0,0,0,.193,1.856,1.613,1.613,0,0,0,1.849.787,1.483,1.483,0,0,0,.966-1.649,2.239,2.239,0,0,0-.566-1.359c-.152-.159-.366-.324-.269-.621.324.09.421.345.586.517a4.332,4.332,0,0,0,.628.552c.676.462,1.242.455,1.628-.035a1.309,1.309,0,0,0-.29-1.842,9.088,9.088,0,0,0-.911-.517c.228.131.483.214.7.359a.638.638,0,0,0,.952-.117.731.731,0,0,0-.083-1.049,2.069,2.069,0,0,0-1.842-.78,2.75,2.75,0,0,1-1.614-.255,11.934,11.934,0,0,0-1.187-.38c-.352-.124-.7-.131-.862.235-.186.414.228.566.49.738a6.273,6.273,0,0,0,1.318.483c.172.069.407.1.359.373-.062.345-1.173.738-1.394.469a9.329,9.329,0,0,0-3.084-2.339c-.738-.366-.773-.7-.317-1.394a3.146,3.146,0,0,0,.648-2.09.634.634,0,0,0,.517-.11,7.472,7.472,0,0,1,7.244-.138c2.884,1.366,3.891,4.057,3.456,6.982a6.314,6.314,0,0,1-6.354,5.568,6.8,6.8,0,0,1-7.217-5.443c-.117-.642-.165-1.3-.324-1.939A1.147,1.147,0,0,0,469.536-1044.724Zm-4.313-4.772v0Zm4.624-35.512c.214-.29.442-.573.628-.883a3.945,3.945,0,0,0,.745-2.746,17.943,17.943,0,0,1-.09-2.111,1.1,1.1,0,0,0-.048-.262l-.041-.207a2.513,2.513,0,0,0,.09-1.318,4.474,4.474,0,0,1,.938-3.029,4.758,4.758,0,0,1,4.429-2.153,5.444,5.444,0,0,1,4.657,7.368,5.292,5.292,0,0,1-4.346,3.988,4.554,4.554,0,0,0-1.352.386c-.573.3-1.3.428-1.518,1.173h-.152c-.683.152-1,.752-1.449,1.193-.311.311-.6.193-.9,0-.324-.207-.2-.455-.062-.724a44.883,44.883,0,0,0,2.339-5.147c.131-.345.338-.566.752-.5.379.062.7.193.731.655a2.778,2.778,0,0,0,.028.414c.221,1.007,1.007,1.455,1.849,1.877a1.217,1.217,0,0,0,1.6-.435c.09-.1.241-.145.345-.227.262-.2.642-.414.407-.787-.214-.352-.552-.09-.807.055a1.782,1.782,0,0,1-1.677.048.957.957,0,0,1-.559-.869c-.021-.366.29-.428.545-.531a2.094,2.094,0,0,0,.448-.221,1.217,1.217,0,0,0,.538-1.3,1.359,1.359,0,0,0-.911-1.09c-.566-.207-.9.117-1.2.5a4.02,4.02,0,0,1-.269.317c-.145.131-.3.283-.511.179s-.207-.311-.2-.5a10.452,10.452,0,0,1,.255-1.138.924.924,0,0,0-.414-1.014.862.862,0,0,0-1.069.152,2.355,2.355,0,0,0-.8,2.532,1.132,1.132,0,0,1,.062.807c-.793,1.98-1.2,4.112-2.456,5.9-.138.193-.2.414-.483.221A.355.355,0,0,1,469.846-1085.009Zm-71.41,47.094a.111.111,0,0,1-.13.072C398.349-1037.869,398.392-1037.891,398.436-1037.915Zm10.645-3.147c-.01,0-.021,0-.032,0l.021-.017C409.075-1041.075,409.077-1041.068,409.081-1041.062Zm-13.346-4.293,0,0h0v-.005h0l0,.005h0c.012-.013.017-.024.028-.037l.018.038h-.042Zm-.992,2.1-.021,0A.111.111,0,0,1,394.743-1043.251Zm9.486-.432h.065l.009.023Zm.766,11.4c-.054-.011-.108-.018-.163-.026C404.9-1032.331,404.959-1032.33,404.995-1032.278Zm-5.419-.629c0,.05,0,.1.008.164a.152.152,0,0,1-.057-.074A.467.467,0,0,1,399.576-1032.907Zm-6.5,1.041h0v.007h0v-.005l0,0v-.006h0Zm-.007,0-.006,0v0h0l0,0v-.012h0ZM362.1-976.7a6.717,6.717,0,0,0-.283.869c-.648,1.656-.918,3.477-2.1,4.912a.912.912,0,0,0-.235.994l.041.021a.021.021,0,0,0,.014.007c-.007.007-.007.007-.014.007-.331-.055-.5.186-.711.359a11.818,11.818,0,0,1-6.72,3.188,10.178,10.178,0,0,1-5.526-.849,11.328,11.328,0,0,1-6.582-8.065,11.575,11.575,0,0,1,3.677-11.377,10.081,10.081,0,0,1,6.561-2.5,10.385,10.385,0,0,1,4.981.711,12.159,12.159,0,0,1,5.761,4.995,7.427,7.427,0,0,1,1.3,5.05c-.076.5-.359,1.049-.076,1.58C362.164-976.768,362.13-976.733,362.1-976.7Zm-51.64,2.5c-.628-1.18-1.249-2.353-1.877-3.526v-.007c-.014-.117-.028-.228-.041-.345a1.413,1.413,0,0,0-.3-.669c-1.573-2.346-2.994-4.795-5.154-6.692-.083-.041-.159-.09-.235-.131h-.007a13.1,13.1,0,0,0-2.284-2.3v-.007c-.028-.076-.055-.145-.083-.228a2.158,2.158,0,0,0-1.035-1.007c-.007,0-.007-.007-.014-.007-.028-.324-.366-.435-.58-.621a59.965,59.965,0,0,0-8.451-5.747c-.373-.207-.731-.531-1.221-.414-.007.007-.007.014-.014.021-.393-.4-.773-.842-1.435-.683-.014-.38-.359-.442-.6-.586-1.69-.98-3.5-1.725-5.168-2.78a26.451,26.451,0,0,1-6.464-5.644,9.72,9.72,0,0,0-1.49-1.863.293.293,0,0,0-.131-.014c.062-.3-.159-.524-.3-.766a36.128,36.128,0,0,1-2.159-4.091,23.046,23.046,0,0,1-1.532-5.492c-.062-.386-.034-.841-.435-1.118a.2.2,0,0,1-.062.014v-.007c.138-1.235-.207-2.456-.041-3.691.014-.11-.069-.193-.159-.262a.559.559,0,0,0,.145-.166c.145-1.69.435-3.374.6-5.064a3.43,3.43,0,0,1,.11-.835c.359-.945.6-1.932.911-2.9.055-.042.11-.083.172-.124a16.126,16.126,0,0,0,1.5-2.387,13.048,13.048,0,0,1,9.7-6.016,40.042,40.042,0,0,1,4.974-.172c.124-.041.255-.083.379-.11l1.677.248a.675.675,0,0,1,.11.09.794.794,0,0,0,.179.062,1.7,1.7,0,0,0,1.718.428c0,.007,0,.007.007.014a1.449,1.449,0,0,0,.8.414,12.452,12.452,0,0,1,2.787,1.049,26.29,26.29,0,0,1,10,8.286c.242.345.421.794.924.876.007-.007.014-.014.021-.014.048.048.09.09.138.145.428.7.9,1.38,1.29,2.1.752,1.4,1.47,2.822,2.2,4.236.055.11.11.207.172.317a.263.263,0,0,0-.11.117,1.245,1.245,0,0,0,.028.807c.345,1.125.69,2.256.952,3.4a.756.756,0,0,0,.352.538.175.175,0,0,0,.083-.014c.007.007.007.007.014,0a.025.025,0,0,0-.007.021c.083.331-.1.7.138,1.007.014.262.028.518.041.78a3.016,3.016,0,0,0,.09,1.566l.1,1.718v.007a3.065,3.065,0,0,1-.186.552,1.617,1.617,0,0,0-.062.407,121.087,121.087,0,0,1-1.38,13.315c-.366,2.739-.283,5.478-.448,8.2a15.694,15.694,0,0,0,1.076,7.265,1.031,1.031,0,0,0,.138.214,1.6,1.6,0,0,0,.455,1.608.349.349,0,0,0,.083.014c.517,1.028,1.021,2.07,1.573,3.077a9.84,9.84,0,0,0,.869,1.2c-.014.269.166.338.338.414a23.367,23.367,0,0,1-3.312,1.939C310.5-974.208,310.483-974.2,310.462-974.194Zm-19.421-66.253c-.048,0-.1.007-.145.007,0-.007.007-.014.007-.021a.082.082,0,0,0,.007-.055C290.951-1040.5,290.992-1040.467,291.041-1040.447Zm-20.924,7.567h0c-.007,0-.007,0-.007.014-.04.073-.079.152-.119.226,0-.01-.01-.015-.012-.028A.845.845,0,0,1,270.116-1032.88Zm3.545,28.3a.552.552,0,0,1-.1.03A.16.16,0,0,1,273.662-1004.581Zm-77.146,44.157c-.166.062-.338.131-.5.193a1.06,1.06,0,0,1-1.263-.531c-.283-.442-.8-.938-.566-1.518a4.288,4.288,0,0,0,.345-1.421c.207-.3.048-.821.49-.959a1.563,1.563,0,0,0,1.773,1.083,1.614,1.614,0,0,0,.331-.152c1.007.035,1.111-.117,1.373-1.3a5.824,5.824,0,0,1,.5-1.256c-.083.283-.214.566-.021.855-.014.007-.035.007-.048.014-.248.228-.49.462-.31.849h.041a.042.042,0,0,0,.028.007c-.007,0-.021.007-.028.007a.938.938,0,0,0-.159.987.183.183,0,0,1-.041-.035.958.958,0,0,0-.593.835,4.4,4.4,0,0,1-1.269,2.187C196.57-960.527,196.543-960.479,196.515-960.423Zm1.094-11.893c-.011.05-.022.092-.033.139-.011.011-.019.021-.03.032,0-.017.011-.034.015-.05C197.451-972.2,197.6-972.277,197.609-972.317Zm14.652,5.2a1.968,1.968,0,0,0-.184-.433c.1.022.2.041.295.054C212.328-967.365,212.294-967.242,212.261-967.115Zm43.29-.366c-.159.435-2.1.925-2.532.766a20.865,20.865,0,0,0-1.752-3.905c-.1-.214-.331-.455-.021-.635.366-.207.359-.883.966-.766,1.366.255,1.373.255,1.794,1.656.138.448.214.911.345,1.366a1.666,1.666,0,0,0,.786,1.083,6.084,6.084,0,0,0,.048-.621,12.919,12.919,0,0,0-.711-2.967c-.076-.283-.179-.5.048-.759a3.232,3.232,0,0,0,.669-2.573c-.034-.517.014-1.173-.717-1.173a1.175,1.175,0,0,0-1.276,1.145,4.473,4.473,0,0,0,.131,1.959c.159.483-.034.621-.483.5-.421-.117-.724-.235-.642-.842a2.973,2.973,0,0,0-.566-2.339c-.2-.248-.4-.448-.759-.373a.9.9,0,0,0-.669.669,1.4,1.4,0,0,0,.055.973,7.017,7.017,0,0,0,.9,1.58c.3.393-.014.662-.269.89-.31.276-.421-.069-.566-.242-.448-.559-.9-1.118-1.332-1.69a1.117,1.117,0,0,0-1.29-.483,1.214,1.214,0,0,0-.876,1.1,2.394,2.394,0,0,0,3.049,2.635c.511-.117.718,0,.9.4.469,1.021.938,2.049,1.407,3.07.345.932.186,1.276-.924,1.221a9.084,9.084,0,0,1-3.408-.628c-1.373-.621-2.118-1.8-3.077-2.808-1.221-1.29-1.028-2.746-.662-4.257a.962.962,0,0,0,.076-.324c-.338-2.3,1.3-3.684,2.608-5.085a5.677,5.677,0,0,1,5.9-1.628,17.016,17.016,0,0,1,2.153.49,8.108,8.108,0,0,1,3.5,3.243c.421.614.814,1.242,1.249,1.842a2.046,2.046,0,0,1,.29,2.277,1.077,1.077,0,0,0-.083.642,3.225,3.225,0,0,1-.9,2.546,3.408,3.408,0,0,1-1.842,1.449c-.193.048-.373.021-.538.062C256.172-967.923,255.758-968.019,255.551-967.481Zm-5.644-3.753a.313.313,0,0,1-.393.152,1.951,1.951,0,0,1-2.035-1.332.9.9,0,0,1,.359-1.083c.407-.214.648.166.855.455.324.442.648.883.938,1.345C249.728-971.545,250-971.448,249.908-971.234Zm-1.262,48.122c.048,2.325-1.173,4.022-2.7,5.6a15.768,15.768,0,0,1-5.443,3.3c-1.159.5-1.67.048-1.476-1.228.035-.221.09-.435.145-.649a48.451,48.451,0,0,1,1.939-6.368,4.053,4.053,0,0,1,3.477-2.725,3.139,3.139,0,0,0,1.711-.538,2.244,2.244,0,0,1,.959.573,15.286,15.286,0,0,0,1.476,1.58A.9.9,0,0,0,248.645-923.113ZM294.1-925.12c-.938,1.628-.345,3.5-.179,5.278.083.876.414,1.7.462,2.594a2.97,2.97,0,0,1-2.794,3.332,6.73,6.73,0,0,1-.745.007,8.525,8.525,0,0,1-6.258-2.774c-.435-.5-.89-.98-1.332-1.47a9.365,9.365,0,0,1-1.925-4.822,2.287,2.287,0,0,1,1.221-2.408,4.605,4.605,0,0,1,3.608-.711c2.015.435,3.953.331,5.568-1.18a1.12,1.12,0,0,1,1.787.034C294.2-926.61,294.773-926.273,294.1-925.12Zm-35.241,45.99A1.107,1.107,0,0,1,257.7-880c-.124-.628.455-.773.876-.911a8.221,8.221,0,0,1,4.595-.49A4.605,4.605,0,0,1,258.863-879.13Zm4.691-6.72a6.748,6.748,0,0,1-3.2-1.587c-.276-.255-.752-.538-.359-1.021a1.051,1.051,0,0,1,1.463-.3A4.976,4.976,0,0,1,263.554-885.85Zm3.353-8.348a.8.8,0,0,1,.035-.476c.034-.09.172-.035.283.028,1.007.573,2.525,3.7,2.373,5.009A9.089,9.089,0,0,1,266.907-894.2Zm11.632,18.1a.635.635,0,0,0-.373-.635,10.534,10.534,0,0,1-1.332-.807,29.233,29.233,0,0,0-6.237-3.015,22.227,22.227,0,0,0-5.837-1.421c-.262-.028-.5-.069-.352-.455a4.45,4.45,0,0,0,.1-2.29c-.062-.442.055-.49.448-.518a5.566,5.566,0,0,0,4.691-2.511c.186-.3.366-.428.69-.11.931.9,1.883,1.773,2.842,2.642q3.384,3.084,6.789,6.161A5,5,0,0,1,278.539-876.095Zm3.608-6.306a3.132,3.132,0,0,0-1.552,2.159c-.193.635-.435.352-.724.166-.393-.393-.759-.807-1.166-1.166-2.725-2.415-5.45-4.823-8.093-7.327a1.068,1.068,0,0,1-.366-.931c.1-2.166-1.056-3.822-2.325-5.409a1.063,1.063,0,0,0-1.318-.435c-.538.262-.517.793-.4,1.311a8.042,8.042,0,0,0,2.2,4.091c1.138,1.09,1.131,1.739-.1,2.753A5.618,5.618,0,0,1,265.879-886c-1.283.29-1.47.228-2.042-.931a4.709,4.709,0,0,0-2.153-2.428,1.667,1.667,0,0,0-2.153.428,1.366,1.366,0,0,0,.324,1.918A7.5,7.5,0,0,0,263.2-885.3c.207.055.455.007.6.221a3.952,3.952,0,0,1-.069,2.67c-.076.1-.228.255-.31.234a13.749,13.749,0,0,0-1.925.014,7.264,7.264,0,0,0-3.843.89,1.234,1.234,0,0,0-.462,1.787,2.479,2.479,0,0,0,2.132.987,5.247,5.247,0,0,0,4.243-2.38.892.892,0,0,1,.242-.241,2.3,2.3,0,0,1,.435-.145h.021a.041.041,0,0,1,.028-.007,1.809,1.809,0,0,1,.186.014,24.443,24.443,0,0,1,5.63,1.249,38.812,38.812,0,0,1,7.417,3.8c.29.193.6.525.993.152-.041.524-.573.793-.849.931-1.911.931-3.45,2.415-5.305,3.415a9.512,9.512,0,0,1-3.753,1.221,17.832,17.832,0,0,1-2.911.248,1.131,1.131,0,0,0-1.111-.676c-.428.041-.345.49-.317.849.021.276-.29.09-.414.186a21.711,21.711,0,0,0-3.691-.676,5.464,5.464,0,0,1-2.649-1.194c-.931-.738-1.856-1.49-2.732-2.3a7.944,7.944,0,0,1-2.463-3.588c-.207-.718-.8-1.325-.849-2.146-.062-1.173-.331-2.325-.476-3.491-.214-1.69.331-3.187.586-4.774.228-1.366,1-2.456,1.318-3.753a5.413,5.413,0,0,1,1.18-1.683c.393-.531.793-1.083,1.132-1.628a16.238,16.238,0,0,1,3.325-3.443,18.357,18.357,0,0,1,2.622-1.8,2.017,2.017,0,0,1,1.159-.373,6.314,6.314,0,0,0,2.5-.7,2.28,2.28,0,0,1,1.069-.062c1.573.193,3.208-.076,4.733.552a27.966,27.966,0,0,1,3.788,1.614,11.588,11.588,0,0,1,2.967,2.422c.083.1.159.241.4.138.29-.131.559.179.566.386a1.517,1.517,0,0,0,1.159,1.525c.069.021.172,0,.172.124-.048.918.649,1.5,1,2.242a15.1,15.1,0,0,1,1.235,6.223c.014.662-.021,1.332-.028,1.994,0,.11-.041.3-.007.317.731.3-.083,1.035.4,1.387C282.237-882.511,282.2-882.428,282.148-882.4Zm119.71,10.857,0,0a.235.235,0,0,0,.041-.083h0c.045.044.087.087.134.132A1.22,1.22,0,0,0,401.857-871.543Zm10.3-.329a1.193,1.193,0,0,1-.6-.414,29.726,29.726,0,0,1-4.057-5.733c-.014-.021-.048-.083-.028-.069a.252.252,0,0,0,.248.034h.007c.317.386.635.766.959,1.152-.11.655.421.987.759,1.387.607.711,1.359,1.29,1.973,2.008A2.444,2.444,0,0,1,412.156-871.873Zm-8.679-8.01a4.321,4.321,0,0,1,.835.9c1.062,1.483,1.8,3.167,2.87,4.629a61.13,61.13,0,0,1-4.222-5.471C403.1-879.972,403.235-880.069,403.476-879.882Zm6.6,8.81h0l0,0Zm6.237-53.42a.59.59,0,0,0,.883.345c.386-.172.359-.517.241-.855a.863.863,0,0,0-.186-.373c-.5-.455-.152-.642.235-.883.586-.359,1.318-.552,1.656-1.249a2.021,2.021,0,0,0,1.021.3,8.454,8.454,0,0,1,5.126,3.167,19.511,19.511,0,0,1,1.987,3.457,24.957,24.957,0,0,1,2.429,6.623c.117.538.428,1.214-.179,1.621-.566.379-1.131-.041-1.628-.317-2.911-1.615-5.933-3.036-8.824-4.685a6.789,6.789,0,0,1-3.284-5.133,7.1,7.1,0,0,0-.366-2.214C415.812-925.21,416.1-925.155,416.309-924.493Zm33.151-15.647a6.765,6.765,0,0,1,4.836-2.815,6.961,6.961,0,0,1,7.382,4.153,7.822,7.822,0,0,1-2.5,9.942c-3.629,2.642-8.134,1.359-10.783-2.139a.814.814,0,0,1-.145-.676c.007-.007.014,0,.021,0a1.249,1.249,0,0,0,1.166-1.29,5.8,5.8,0,0,0-.034-1.828c-.152-.648.083-.835.717-.973,1.532-.338,3.174-.076,4.622-.828a.571.571,0,0,1,.414-.014c.221.055.386.207.255.414a9.553,9.553,0,0,1-1.325,2.008c-.414.366-1.014.1-1.532.1-.248,0-.5-.021-.745-.034-.373-.028-.821-.048-.883.407-.062.5.407.614.793.662.655.076,1.325.09,1.987.179,1.014.138,1.194.055,1.614-.883.435-.973.973-1.628,2.208-1.3.6.159,1.069-.386,1.069-1.042-.007-.58-.4-.911-1.056-.9-.255.007-.538.193-.786-.076.179-.365.566-.524.786-.842a1.229,1.229,0,0,0-.041-1.532,1.059,1.059,0,0,0-1.38-.076,1.524,1.524,0,0,0-.738.869,1.475,1.475,0,0,1-1.083.924c-1.428.511-2.96.359-4.415.731-.262.069-.552,0-.552-.331.007-.78-.386-1.476-.448-2.235C449.2-939.6,449.294-939.926,449.459-940.14ZM399-872.832a1.163,1.163,0,0,1-.1.683,1.229,1.229,0,0,0-.09.1h-.393a.428.428,0,0,0-.035-.083c-.345-.145-.648.042-.952.152a13.46,13.46,0,0,0-4.174,2.691c-1.683,1.477-2.7,3.236-1.946,5.588a.651.651,0,0,1-.31.787c-.69.469-1.276,1.076-1.994,1.5-3.1,1.815-6.044,3.919-9.272,5.54a1.335,1.335,0,0,1-1.18.172.352.352,0,0,0-.076-.014c-.145-.235-.421-.352-.593-.559-.379-.442-.952-.78-.869-1.49.49-1.552-.283-2.629-1.352-3.608-.359-.324-.566-.186-.759.159-.324-.1-.062-.262-.014-.359a4.167,4.167,0,0,0-.876-4.905,5.651,5.651,0,0,0-3.1-1.311,4.9,4.9,0,0,0-5.643,4.291,5.357,5.357,0,0,0,5.85,5.823,11.021,11.021,0,0,1,1.752-.373,2.835,2.835,0,0,0,3.664,1.449c.573.366.814,1.014,1.262,1.483-.007.076-.007.159-.007.235a1.758,1.758,0,0,1-.483.448,41.721,41.721,0,0,1-4.105,2.525c-2.787,1.766-5.754,3.229-8.458,5.133a70.6,70.6,0,0,1-8.6,5.05,22.592,22.592,0,0,0-2.463,1.531c-.407.283-.635.249-.642-.345-.021-2.084.3-4.153.283-6.23-.021-1.594.476-3.118.552-4.691a11.95,11.95,0,0,1,.048-2.484,15.541,15.541,0,0,0,.262-4.622,16.781,16.781,0,0,1,.172-2.891c.069-.586.359-1.125.379-1.7.055-1.752.786-3.4.759-5.168-.014-.628.366-.945,1.042-1.062a13.237,13.237,0,0,0,5.319-2.029,12.018,12.018,0,0,0,4.436-6.444c.352-1.021-.076-2.118.4-3.1a.858.858,0,0,1,.035-.221c.179-.179.235-.462.428-.635.352-.31.448-.918,1.062-.918a1.846,1.846,0,0,0,2.422.048,4.944,4.944,0,0,0,1.414-1.366c1.49.669,2.932.145,4.353-.248a5.974,5.974,0,0,0,2.884-9.3c-2.1-2.6-5.043-2.815-7.824-1.5a3.915,3.915,0,0,0-2.394,2.29,6.392,6.392,0,0,0-.2,4.271c-.041.483-.511.6-.78.883a3.242,3.242,0,0,0-.545,4.264c-.511.559-1.028,1.118-1.545,1.683,0,.007-.007.007-.014.014a.325.325,0,0,1-.152.062.616.616,0,0,1-.159,0,.9.9,0,0,1-.359-.214,3.741,3.741,0,0,0-2.842-.973,3.6,3.6,0,0,0-2.635,1.283,14.842,14.842,0,0,0-2.58,3.843,47.172,47.172,0,0,0-2.277,5.54c-.124.379-.338.669-.78.579-1.207-.235-2.484-.124-3.629-.766a.878.878,0,0,1-.552-1.118c.152-.676.455-1.311.545-2.008a31.675,31.675,0,0,1,.911-4.484,1.917,1.917,0,0,0,.055-.186v-.007q.166-.559.352-1.118c.614-1.849.7-3.8,1.338-5.609.379-1.076.159-2.256.731-3.27a.99.99,0,0,0,.041-.248,41.605,41.605,0,0,1,2.435-9.052,5.085,5.085,0,0,1,1.911-2.539,28.369,28.369,0,0,0,4.926-4.567c1.842-1.89,3.4-4.029,5.319-5.85a30.936,30.936,0,0,0,2.615-2.677.206.206,0,0,1,.034-.048,7.071,7.071,0,0,0,2.035.711c.373.09.89.186,1-.4.1-.566-.31-.621-.738-.745-.538-.159-1.228.041-1.607-.538a.972.972,0,0,0,.055-.214c-.014-.262-.186-.373-.421-.414a.687.687,0,0,0-.241.007,9.658,9.658,0,0,1-2.546-2.477c-.248-.31-.648-.538-.814-.918a9.333,9.333,0,0,0,2.035,1.828c1.78,1.062,3.56,2.125,5.326,3.222a5.331,5.331,0,0,0,7.147-1.511l.062-.124c.166.055.283.235.455.29a.241.241,0,0,0,.11.055c.117.124.235.248.359.365a15.207,15.207,0,0,1,3.5,4.071,37.5,37.5,0,0,0,2.649,4.65,27.52,27.52,0,0,1,2.3,4.064c.007,0,.007,0,0,.007a.98.98,0,0,0-.028.324c.221,1.193,1,2.173,1.332,3.3.662,2.242,1.973,4.208,2.635,6.451.166.545.338,1.1.538,1.656a31.273,31.273,0,0,1,1.614,6.085c.276,1.925.359,3.864.745,5.768a2.34,2.34,0,0,0,.117.228.849.849,0,0,1-.393.711c-1.7,1.021-1.883,2.256-.607,3.788-.083.331.3.393.366.642a2.822,2.822,0,0,0,.455,1.987c.29-.262-.124-.531.138-.711.055.041.11.076.159.11C398.992-872.852,399-872.839,399-872.832Zm-58.188,37.594c-.448-.386-.766-.731-1.138-1.014-1.8-1.387-3.546-2.856-5.209-4.395a86.53,86.53,0,0,0-7.389-5.506c-2.1-1.566-4.574-2.622-6.423-4.554a2.748,2.748,0,0,0-.649-.517c-1.835-1.035-3.36-2.491-5.085-3.684a16.06,16.06,0,0,1-3.615-2.884,1.915,1.915,0,0,0-1.359-.669c.028-.117-.1-.193-.179-.241a5.95,5.95,0,0,1-1.573-1.3c-1.249-1.283-2.808-2.118-4.133-3.284a27.1,27.1,0,0,0-4.622-3.477c-1.159-.642-2.035-1.718-3.312-2.166-.014,0-.021-.007-.034-.007.014-.338-.345-.621-.207-1a15.378,15.378,0,0,0,.407-2.532,3.987,3.987,0,0,0-1.38-3.7c-.186-.172-.421-.462-.7-.2-.255.235-.076.511.076.745a3,3,0,0,0,.262.324,2.937,2.937,0,0,1,.648,2.787,4.221,4.221,0,0,0-.152,1.366c-.035-.193.014-.407-.11-.517v-.007a6.222,6.222,0,0,0-.931-2.9,12.221,12.221,0,0,0-3.684-3.9c-.642-.435-1.283-.869-1.911-1.331a1.492,1.492,0,0,1-.621-1.532c.173-1.069.269-2.146.455-3.208,1.325-7.52,4.56-14.247,8.645-20.6a60.7,60.7,0,0,1,10.645-12.515,39.469,39.469,0,0,1,11.494-7.4c6.223-2.511,12.75-3.312,19.4-3.436a1.206,1.206,0,0,1,1.194.711c.752,1.394,1.47,2.808,2.27,4.167,2.077,3.5,4.277,6.94,6.168,10.563a10.607,10.607,0,0,0,.849,1.235c.131.179.248.248.366.248a.244.244,0,0,0,.069-.014.725.725,0,0,0,.324-.29c.269-.352.083-.607-.131-.883a4.358,4.358,0,0,1-1.014-1.7,2.974,2.974,0,0,0-.78-1.449,12.052,12.052,0,0,1-1.9-3.36,38.933,38.933,0,0,0-2.063-3.415c-.883-1.5-1.711-3.029-2.532-4.56a3.028,3.028,0,0,1-.545-1.145,1.272,1.272,0,0,1,.711-.1,104.738,104.738,0,0,1,12.122.635,78.7,78.7,0,0,1,10.983,1.856c-.131,1.3.5,2.442.862,3.629a12.315,12.315,0,0,0,2.7,3.974c.759.828,1.483,1.69,2.222,2.539-.007.014-.021.021-.028.028-2.815,2.711-5.381,5.664-8.038,8.527a31.884,31.884,0,0,1-3.9,3.815,6.1,6.1,0,0,0-1.87,1.573,1.185,1.185,0,0,1-.573.573,2.944,2.944,0,0,0-.3-1.214c-.966-1.338-1.38-3.015-2.594-4.209a.93.93,0,0,1-.193-.365c-.448-1.442-1.483-2.58-2.084-3.947a1.339,1.339,0,0,0-.511-.545.561.561,0,0,0-.69-.027c-.193.159-.131.407-.048.621a4.471,4.471,0,0,0,.255.435c1.449,2.684,3.036,5.285,4.6,7.906a2.639,2.639,0,0,1,.4,1.5,35.934,35.934,0,0,1-1.242,6.775c-.407,1.573-.883,3.139-1.242,4.726-.317,1.4-.635,2.808-.966,4.2-.524,2.208-1.256,4.36-1.677,6.582-.345,1.815-.752,3.622-.98,5.464-.021.145.069.379-.166.4a.5.5,0,0,1-.5-.235,1.415,1.415,0,0,1-.034-1.269,25.178,25.178,0,0,0,1.739-6.568,5.137,5.137,0,0,0-1.214-3.781,3.235,3.235,0,0,0-4.1-.448,5.9,5.9,0,0,0-2.325,4.657,9.14,9.14,0,0,0,1.069,4.491,19.73,19.73,0,0,0,1.683,2.56c.2.29.407.545.131.883-.566.69-.987,1.476-1.539,2.173-.317.393-.455.366-.676-.083-.476-.952-.642-2.008-1.062-2.967-.731-1.7-1.759-3.236-2.38-5-.5-1.428-1.394-2.718-1.9-4.139-.711-1.987-1.677-3.85-2.539-5.761a.877.877,0,0,1,.131-1.138,2.7,2.7,0,0,0,.731-2.532,22.231,22.231,0,0,0-1.6-3.47.755.755,0,0,0-.511-.373c-.076-.345-.517-.152-.69-.366.131-.29.462-.331.662-.531a4.567,4.567,0,0,0,1.614-1.69,1.514,1.514,0,0,0-.262-1.773,1.44,1.44,0,0,0-1.649-.345,17.13,17.13,0,0,0-4.664,2.042,11.846,11.846,0,0,1-3.974,2.132c-.172-.214-.1-.372.11-.5a12.331,12.331,0,0,1,4.346-3.029,12.487,12.487,0,0,0,3.256-2.09,1.976,1.976,0,0,0,.669-2.3,2.153,2.153,0,0,0-2.215-1.124,7.585,7.585,0,0,0-2.718.883,2.064,2.064,0,0,0-1.007.49,21.084,21.084,0,0,1-4.312,2.56c-.483.235-.586.09-.5-.372l1.159-.994c.559-.276,1.111-.559,1.67-.835a4.895,4.895,0,0,0,2.311-1.193,3.463,3.463,0,0,0,1.283-1.132,2.425,2.425,0,0,0,.331-2.387,1.536,1.536,0,0,0-1.683-.952,5.347,5.347,0,0,0-1.732.448,18.341,18.341,0,0,0-5.823,4.146.841.841,0,0,0-.248.855c.159.759.676.945,1.359.9a5.26,5.26,0,0,0-.379.828,1.9,1.9,0,0,0,2.042,2.491,6.712,6.712,0,0,0,1.849-.724,5.612,5.612,0,0,0,1.918-1.083,12.932,12.932,0,0,1,4.271-2.132c.207-.048.476-.186.6.027.138.242-.145.386-.311.511a14.15,14.15,0,0,1-2.877,1.725,9.716,9.716,0,0,0-2.753,1.5,5.462,5.462,0,0,0-2.118,2.111,2.462,2.462,0,0,0-.083,2.5,2.077,2.077,0,0,0,2.387.566,5.155,5.155,0,0,0,1.152-.345c.269-.069.462-.524.821-.187a.636.636,0,0,0-.193.035.9.9,0,0,0-.3.214,2.36,2.36,0,0,0-.228.29,2.517,2.517,0,0,0-.883,1.221c-.435,1.2.7,2.083,2.215,1.656.324-.09.524-.1.662.021a.892.892,0,0,1,.034.421,4.279,4.279,0,0,0,3.836,2.836,1.5,1.5,0,0,1,1.456,1.1c.593,1.4,1.18,2.8,1.8,4.188,1.283,2.843,2.2,5.857,3.843,8.548.959,1.573,1.166,3.456,2.09,5.05a.687.687,0,0,1-.1.911,9.532,9.532,0,0,1-3.829,2.056c-.579.207-.869.021-1.1-.6a31.751,31.751,0,0,0-2.9-6.251,6.181,6.181,0,0,0-4.36-3.167,3.833,3.833,0,0,0-4.333,2.87.94.94,0,0,1-.773.842,1.1,1.1,0,0,1-.2.117,6.946,6.946,0,0,0-1.884.138,7.648,7.648,0,0,0-.952-1.5,1.246,1.246,0,0,0-2.07-.324c-.269.166-.283-.228-.538-.228a4.007,4.007,0,0,1-2.6-1.111,16.3,16.3,0,0,0-2.525-1.877,3.773,3.773,0,0,0-3.615-.359,5.733,5.733,0,0,0-3.146,6.561,4.255,4.255,0,0,0,6.044,2.932,32.833,32.833,0,0,1,3.739-1.911c.573-.207,1.166-.524,1.8-.166a.471.471,0,0,0,.31.448,2.864,2.864,0,0,0,3.567-1.939c.711.048,1.414.228,2.132.221a.411.411,0,0,1,.1.014c.083.028.152.062.235.09.317.138.379.448.476.738a6.218,6.218,0,0,0,.524,1.4,11.411,11.411,0,0,0,8.838,5.367,1.275,1.275,0,0,1,1.269.918c.793,2.022.835,4.291,1.987,6.2.428.711.124,1.463.193,2.194.138,1.469.883,2.76,1.207,4.174.09.393-.221.518-.1.849a30.672,30.672,0,0,1,.883,4.243c.262,1.338.262,2.7.5,4.036.276,1.607.145,3.263.324,4.892A9.9,9.9,0,0,1,340.811-835.238Zm-51.806-30.957c-.324-1.159-.29-1.18,1-1.145a6.19,6.19,0,0,0,2.684-.455,9.336,9.336,0,0,1-3.643,1.587A.1.1,0,0,0,289.005-866.195Zm71.724-13.474a2.8,2.8,0,0,1,2.228-1.069c.766.007,1.138.655,1.242,1.366.2,1.352-.676,2.29-1.049,3.415a3.121,3.121,0,0,1-.9,1.042,16.836,16.836,0,0,1-3.567,2.87,1.825,1.825,0,0,1-.386.138c-.269.062-.7-.255-.724.366-.007.152-.255.159-.421.062a1.21,1.21,0,0,0-.876-.152c-.2.048-.469-.1-.276-.31.593-.648.531-1.559,1.007-2.27.717-1.056,1.242-2.228,1.939-3.3A21.141,21.141,0,0,1,360.729-879.669Zm8.928-9.859c-.228-1.966.173-3.67,2.084-4.671a5.3,5.3,0,0,1,5.105-.331,4.643,4.643,0,0,1,2.656,4.546,6.8,6.8,0,0,0,.021.752,3.11,3.11,0,0,1-.973,2.47,6.522,6.522,0,0,1-5.906,1.87c.262-.359.366-.759-.09-1.021-.586-.338-.3-.607.021-.855.524-.407.993-.87,1.5-1.3.3-.255.614-.566.269-.987s-.731-.179-1,.083c-.69.669-1.49,1.214-2.187,1.876a.053.053,0,0,1-.035-.014,2.025,2.025,0,0,1,.373-.476c.386-.428.959-.773,1.152-1.269.517-1.359,1.608-1.125,2.684-1.214h.048c-.007.014-.007.027-.014.034-.069.207-.11.352-.166.49-.1.262-.269.566.069.724.366.173.552-.117.676-.421a1.391,1.391,0,0,0,0-1.345c-.317-.476-.849-.29-1.359-.179a.026.026,0,0,1-.021.007c.007-.007.007-.014.014-.021a1.613,1.613,0,0,0,.1-.179c.248-.448.435-.911.062-1.373a.747.747,0,0,0-.973-.221c-.552.262-.407.779-.379,1.235a.956.956,0,0,1-.31.89,25.069,25.069,0,0,0-2.346,2.642,1.068,1.068,0,0,0-1.056-.994A1.636,1.636,0,0,0,369.657-889.527Zm-41.167-18.159a.524.524,0,0,0,.09.041.554.554,0,0,1-.11.055A.243.243,0,0,0,328.489-907.686Zm-.221,38.608a5.241,5.241,0,0,1-1.242-3.967,1.852,1.852,0,0,1,2.532-1.877,3.849,3.849,0,0,1,2.408,1.532c.738,1.145,1.311,2.38,2.035,3.512.669,1.049.338,2.325,1.118,3.284.172.207-.028.366-.324.386a3.8,3.8,0,0,1-1.739-.373c-.876-.379-1.814-.607-2.677-1.021A6.933,6.933,0,0,1,328.269-869.078Zm-.89-.228c.034.042,0,.145-.007.228-.1-.021-.235-.014-.283-.069-1.076-1.518-1.821-3.091-1.256-5.05a3.313,3.313,0,0,1,3.436-2,13.92,13.92,0,0,1,1.746.476,1,1,0,0,1,.738.766,1.556,1.556,0,0,1-1.511-.435c-.614-.759-1.345-.276-1.9-.241-1.042.069-1.925,1.407-1.966,2.511C326.323-871.748,326.316-870.389,327.379-869.306Zm-8.914-4.091a.6.6,0,0,0-.11.159.618.618,0,0,1-.159.007,13.308,13.308,0,0,0-4.436.207c-.655.179-1.1-.317-.966-1.069.055-.338-.069-.78.442-1.055.359-.2.124-.593-.255-.725-.856-.29-1.18.124-1.021,1.27-.738-.11-.987-.021-1.083.379-.124.51.228.8.938.731.193-.021.386-.152.448.138.09.379-.214.29-.414.324a6.868,6.868,0,0,0-.731.145.922.922,0,0,0-.676,1.145c.138.518.614.718,1.207.545a1.781,1.781,0,0,0,1.049-.766c.124-.186.186-.359.469-.386a21.025,21.025,0,0,1,4.926-.11.4.4,0,0,1,.145.042c.021.159.048.317.062.476a4.171,4.171,0,0,0-2.684.552,20.925,20.925,0,0,1-3.767,1.945,3.008,3.008,0,0,1-3.719-1.414,4.376,4.376,0,0,1,.186-4.878c1.311-2.222,3.4-2.539,5.423-.918.89.71,1.842,1.332,2.753,2.015a2.993,2.993,0,0,0,2.166.573A1.83,1.83,0,0,0,318.465-873.4Zm25.513-6.6c-.338-1.573.552-2.5,1.173-3.615a1.443,1.443,0,0,1,1.3-.614c.5.028.738.345.959.759a5.447,5.447,0,0,1,.393,3.091,40.651,40.651,0,0,1-1.187,4.988c-.041.193-.11.462-.379.469-.235.014-.366-.179-.5-.373A11.981,11.981,0,0,1,343.978-879.993Zm30.95,18.8a.448.448,0,0,1,.11.3.951.951,0,0,0-.117-.3Zm-2.256,1.6a.268.268,0,0,0-.007.476,4.481,4.481,0,0,1-5.236-.752,4.277,4.277,0,0,1-.876-5.05,4.381,4.381,0,0,1,6.2-1.318,2.823,2.823,0,0,1,1.566,2.911,12.831,12.831,0,0,0-.179,1.539v.007c-.014.124-.028.248-.034.373,0,0-.007,0,0,.007a4.516,4.516,0,0,1-.317,1.269C373.306-860.206,373-859.84,372.672-859.592Zm23.043-97.6c.041-.635.476-.345.759-.531-.041.545-.062,1.007-.117,1.47a6.185,6.185,0,0,0,2.152,5.857c.379.317.393.49.048.821a20.779,20.779,0,0,0-2.166,2.173c-.745.828-1.5,1.649-2.235,2.484a3.082,3.082,0,0,0-1.1,2.063.442.442,0,0,0-.062.055c-.242-.235-.448-.262-.766.083-.717.793-1.318,1.677-1.973,2.511-.235.1-.241.366-.386.524-.607.69-.793,1.676-1.566,2.249a7.161,7.161,0,0,0-1.628-1.131A13.73,13.73,0,0,1,384.1-940.2a33.052,33.052,0,0,0,2.47-4.091,8.274,8.274,0,0,0,1.249-2.856,58.085,58.085,0,0,0,3.877-9.279c.207-.607.407-.683.931-.462a3.08,3.08,0,0,0,1.883.1C394.935-956.891,395.708-957.036,395.715-957.195Zm-3.9-1.814c.5.255.145.538-.007.69-.214.221-.524.124-.752-.076a4.558,4.558,0,0,1-1.828-3.284,16.92,16.92,0,0,1,.483-5.492c.379-1.394.752-1.828,1.7-1.739a2.236,2.236,0,0,1,1.98,2.18c.014.193.007.386.007.51a14.263,14.263,0,0,1-.642,3.222c-.214,1.193-.586,2.36-.89,3.532C391.824-959.306,391.665-959.085,391.817-959.009Zm9.231,8.589c.614-.559,1.09-1.042,1.621-1.463a27.677,27.677,0,0,1,5.616-4.036c.338-.152.683-.469,1.062-.11.407.379.235.842.041,1.228a5.2,5.2,0,0,1-1.3,1.476,18.806,18.806,0,0,1-3.732,2.38A5.563,5.563,0,0,1,401.048-950.42Zm.2-10.094a.378.378,0,0,0-.11.069c-.248-.11-.442.1-.662.186a21.991,21.991,0,0,1-2.553,1.269,2.862,2.862,0,0,1,.124-.876,37.212,37.212,0,0,1,2.284-5.312,9.4,9.4,0,0,1,1.5-1.877,1.5,1.5,0,0,1,2.449-.021,2.363,2.363,0,0,1,.214,2.842,8.93,8.93,0,0,1-2.4,2.732C401.752-961.238,401.317-961.01,401.248-960.513ZM287.37-866.429a2.841,2.841,0,0,1-2.3-1.4,9.652,9.652,0,0,0-1.256-1.58,17.573,17.573,0,0,0,2.525,1.263,1.265,1.265,0,0,1,.869,1.09A2.908,2.908,0,0,0,287.37-866.429Zm54.048,23.312c-.041-.642-.331-1.407-.379-2.029-.1-1.2-.31-2.394-.379-3.594a20.043,20.043,0,0,0-.469-2.525c-.669-3.47-1.311-6.941-2.008-10.4a18.351,18.351,0,0,0-.821-2.691c-.159-.435-.062-.552.345-.662a14.567,14.567,0,0,0,8.458-6.561c.393-.607.683-.483,1.1-.228.442.276.849.607,1.29.883a11.577,11.577,0,0,0,4.733,1.345c.994.131,1.125.338.711,1.2a8.29,8.29,0,0,0-.58,2.842c-.138,1.269-.2,2.553-.29,3.822-.1,1.421-.414,2.849-.559,4.284a30.652,30.652,0,0,1-.635,5.264.592.592,0,0,0-.007.407c.559,1.083.124,2.18.034,3.256-.1,1.187-.014,2.38-.145,3.553a4.633,4.633,0,0,1-.338,2.049c-.29.511-.076,1.145-.048,1.725.069,1.428-.5,2.78-.511,4.208a19.9,19.9,0,0,1-.124,2.208c-.062.442-.124,1.3.738,1.49.3.062.152.317.159.483a24.16,24.16,0,0,1-.207,4.3,19.547,19.547,0,0,0-.248,2.767c-1.677-.131-3.353-.179-5.016-.407-1.332-.18-2.7.11-4.008-.283.028-2.263-.193-4.546-.055-6.768C342.377-836.556,341.6-839.805,341.418-843.117Zm22.9,22.353c.821,1.1.373,2.125-.09,3.146a8.941,8.941,0,0,0-.745-2.07c-.435-.862-.441-.862.428-1.207.09-.034.193-.076.283-.117A.839.839,0,0,0,364.317-820.763Zm-4.66,34.221a.031.031,0,0,0,.012-.028c0-.084.039-.016.015.029Zm-2.562.49,0,.011c-.01,0-.016-.008-.025-.01Zm7.132-36.525a16.39,16.39,0,0,0-6.057-2.132c-2.146-.179-4.277-.483-6.409-.731.559-1.311.338-2.739.573-4.1a51.794,51.794,0,0,0,.138-5.292c.083-1.18.255-2.353.3-3.546.007-.393.483-.4.745-.559,2.366-1.435,4.85-2.656,7.23-4.05a50.554,50.554,0,0,0,5.5-3.429,17.962,17.962,0,0,1,3.091-1.883,23.272,23.272,0,0,0,3.629-2.215c.842-.642,1.78-1.131,2.629-1.738.676-.476,1.421-.883,2.111-1.407a7.553,7.553,0,0,1,1.856-.938,2.53,2.53,0,0,0,1.311-.931c.241-.366.635-.159.952-.352,1.435-.9,2.884-1.732,4.277-2.711a23.181,23.181,0,0,1,3.1-1.973,10.451,10.451,0,0,0,2.18-1.628c.462-.4.814-.531,1.373-.069a4.021,4.021,0,0,0,4.464.345c.2.11.138.248.076.414a27.113,27.113,0,0,1-1.477,2.76,8.341,8.341,0,0,0-1.062,2.187c-.062.152-.131.3-.179.462a21.959,21.959,0,0,1-3.125,6.534,27.989,27.989,0,0,0-2.456,4.16,45.113,45.113,0,0,0-2.1,4.664,4.623,4.623,0,0,1-.448.58c-.683.648-.938,1.683-1.877,2.09a16.918,16.918,0,0,0-3.256,1.587,13.438,13.438,0,0,0-1.883,1.345c-.3.221-.373.462-.117.759.193.241.4.359.7.124.352-.269.738-.49,1.09-.759a29.962,29.962,0,0,1,3.291-1.9A54.708,54.708,0,0,1,364.227-822.578Zm34.6-39.712a31.992,31.992,0,0,1-3.291,9.328,70.135,70.135,0,0,1-6.32,10.2c.58-1.5,1.559-2.787,2.27-4.222a36.424,36.424,0,0,1,2.194-3.325,21.976,21.976,0,0,0,2.118-5.2,1.205,1.205,0,0,0-.007-1.076v-.007a11.758,11.758,0,0,0,1.9-3.636c.159-.359.5-.738.345-1.166-.193-.518.062-.835.359-1.173C398.716-862.745,398.93-862.89,398.826-862.29Zm23.533-100.873a1.789,1.789,0,0,0,.462-.3c-.662.731-.614.738.193,1.331a1.623,1.623,0,0,1,.807,1.2,2.729,2.729,0,0,0,1.028,1.835c.1.1.29.1.248.359a3.243,3.243,0,0,0,.648,1.959c.2.386.373.641.055,1.021a.972.972,0,0,0-.152.876c.179.628.669,1.214.145,1.9-.145.2.338.338.11.538-.29.248-.207.5-.041.731.29.407.124.766-.041,1.166a10.493,10.493,0,0,0-.973,2.194c-.117.669-.918,1.131-.711,1.877v.007a1,1,0,0,0,.117.269c-.021.014-.09-.007-.124.028l-.117.117c-.849.863-1.863,1.545-2.656,2.47a1.631,1.631,0,0,1-.676.483c-1.194.428-2.5.635-3.381,1.69-.1.11-.269.027-.4.055-.731.166-1.387.642-2.2.5-.117-.021-.255.11-.345.214-.31.331-.7.3-1.118.366-.034.007-.062.007-.1.014h-.007a1.179,1.179,0,0,1-.152.028,21.355,21.355,0,0,1-2.249.283c-.862.034-1.463.669-2.339.711a2.719,2.719,0,0,0-1.511.31,1.641,1.641,0,0,1-1.545.324,1.289,1.289,0,0,0-.821.027c-1.407.607-3.043.462-4.374,1.346a1.732,1.732,0,0,1-.455.207,1.718,1.718,0,0,1-.29.062.951.951,0,0,1-.179.021c-1.069.014-1.794.773-2.691,1.125a14.293,14.293,0,0,1-1.849.883,4.345,4.345,0,0,0-1.739,1.028c-.807.7-1.007.676-1.545-.255a5.888,5.888,0,0,0-2.318-2.622c.172-.718.9-1.083,1.166-1.752a9.35,9.35,0,0,0,.766-.98c.649-1.09,1.884-1.808,2.063-3.2.483.042.69-.331.952-.628.89-1.028,1.752-2.084,2.739-3.029.911-.89,1.821-1.773,2.718-2.684a1.471,1.471,0,0,1,1.373-.531,7.447,7.447,0,0,0,3.5-.455,17.319,17.319,0,0,0,1.725-.938,10.373,10.373,0,0,0,3.884-3.1,2.312,2.312,0,0,0,.179-2.491c-.517-.614-1.345-.662-2.359-.131a38.2,38.2,0,0,0-7.506,5.561c-.455.4-.738.414-1.187.069-.331-.255-.945-.324-1.083-.635A11.525,11.525,0,0,1,397-955.932a1.918,1.918,0,0,1,1.2-2.028,18.05,18.05,0,0,0,3.146-1.808,1.093,1.093,0,0,0,.172-.242c-.221.028-.366.042-.531.055.09-.152.166-.29.241-.421.359-.29.655.373,1.042.041a12.958,12.958,0,0,0,3.208-3.532c.193-.345-.248-.69.083-.925.476-.338.366-.8.338-1.242a2.978,2.978,0,0,0-1.973-2.553A2.392,2.392,0,0,0,401.4-968a11.176,11.176,0,0,0-2.67,3.85,25.786,25.786,0,0,0-1.925,5.285,1.4,1.4,0,0,1-.676.883,5.184,5.184,0,0,1-3.491.359c-.379-.055-.442-.338-.352-.7.441-1.656.883-3.3,1.3-4.967a9.323,9.323,0,0,0,.324-4.422,2.91,2.91,0,0,0-2.753-1.994,2.337,2.337,0,0,0-2.042,1.945,35.852,35.852,0,0,0-.621,3.822,6.58,6.58,0,0,0,2.29,6.313.551.551,0,0,1,.228.69c-.221.683-.448,1.366-.683,2.042a79.5,79.5,0,0,1-3.174,7.4h-.007a.125.125,0,0,0-.048.014,4,4,0,0,0-.828,1.235c-.869,1.649-1.863,3.222-2.815,4.816-.131.228-.228.6-.593.435a9.626,9.626,0,0,0-3.118-.9.518.518,0,0,1,.159-.414c1.2-1.111,1.2-2.725,1.539-4.133a10.306,10.306,0,0,0-.172-2.877,6.057,6.057,0,0,0-.145-1.311,29.86,29.86,0,0,1-.98-4.271,10.109,10.109,0,0,0-.655-2.863.907.907,0,0,1,.041-.573c.1-.441.193-.862-.276-1.187-.186-.131-.152-.414-.172-.628-.131-1.539-.435-3.049-.58-4.581-.117-1.221-.559-2.373-.566-3.643,0-1.7-.821-3.381-.166-5.119a.115.115,0,0,0,.014-.034.1.1,0,0,1-.007-.048,3.856,3.856,0,0,1,1.414-3.056,13.473,13.473,0,0,1,4.064-2.546,6.544,6.544,0,0,1,2.159-.725c1.145-.1,2.235-.807,3.429-.241a.451.451,0,0,0,.483-.034c.524-.442,1.09-.235,1.663-.166a5.026,5.026,0,0,0,1.062.166,6.74,6.74,0,0,1,4.284.869.336.336,0,0,0,.241.035,2.22,2.22,0,0,1,1.711.5.888.888,0,0,0,.531.2c.924-.083,1.6,1.076,2.615.524a.08.08,0,0,1,.076.028c.3.524,1.007.545,1.29.917.524.69,1.042.414,1.621.3a.434.434,0,0,0,.3.38.291.291,0,0,0-.028.069c.3.579.925.531,1.421.7.959.324,1.566,1.256,2.587,1.428a1.764,1.764,0,0,1,1.166.842c.179.248.476.448.7.352.448-.193.166.138.166.207.028.373.117.545.573.414.655-.186,1.332-.262,1.483.7a.386.386,0,0,0,.193.269c.849.462,1.449,1.283,2.408,1.607a1.493,1.493,0,0,1,1.09,1.311c.028.345.241.366.469.469.821.373,1.7.724,2.035,1.656a8.54,8.54,0,0,0,1.359,1.87c.2.283.628.166.786.635.228.655.586.918,1.028.814A.6.6,0,0,0,422.359-963.162Zm18.807-55.324a2.689,2.689,0,0,1,1.311-2.5,1.412,1.412,0,0,1,1.821-.069,1.582,1.582,0,0,1,.311,1.835c-.386,1.063-1.3,1.759-1.863,2.7-.193.324-.511.207-.793,0A2.227,2.227,0,0,1,441.167-1018.487Zm31.881,13.745a.543.543,0,0,1-.128.035s0,.009,0,.013l-.008-.012s0,0,.008,0l.018-.043C472.975-1004.746,473.011-1004.744,473.048-1004.742Zm5.595-6.1c0,.035-.011.068-.016.1C478.506-1010.813,478.535-1010.825,478.642-1010.845Z" transform="translate(-191.165 1098.8)"/>
    <path id="Path_914" data-name="Path 914" d="M599.554-962.417h0Z" transform="translate(-317.799 1056.51)"/>
    <path id="Path_915" data-name="Path 915" d="M466.08-832.836c-.186.117-.366.241-.559.345a5.05,5.05,0,0,1-2.18.552c-.586.041-.669.545-.552,1,.145.538.435.11.676.042.159-.042.331.007.49-.028,1.083-.255,2.221-.4,2.836-1.532a1.226,1.226,0,0,1,.7-.51c.262-.055.3-.221.083-.393A1.1,1.1,0,0,0,466.08-832.836Z" transform="translate(-275.377 1016.534)"/>
    <path id="Path_916" data-name="Path 916" d="M350.767-945.36a26.97,26.97,0,0,0-1.959-3.595c-1.152-1.594-2.27-3.215-3.381-4.843-1.828-2.677-3.346-5.568-5.54-8a5.267,5.267,0,0,1-.655-1.235,19.662,19.662,0,0,0-2.856-4.892,12.131,12.131,0,0,1-1.663-2.166,16.81,16.81,0,0,0-.987-1.8c-2.056-2.711-4.374-5.223-6.333-8.017-.579-.834-1.242-1.607-1.835-2.435-.193-.269-.559-.614.041-.9a4.938,4.938,0,0,0,1.994-1.863,32.831,32.831,0,0,1,2.263-2.725c.428-.525,1.076-.925,1.518-1.552.269.131.359.476.7.462,1.283-.055,2.546.524,3.884-.007.441-.179.759-.586.724-.69-.276-.766.4-.869.738-1.207.662-.669,1.608-1.042,1.973-2.049.152-.421-.083-.407-.221-.345-.248.124-.711.089-.7.462,0,.455-.3.531-.58.7a3.8,3.8,0,0,0-.69.524,4.107,4.107,0,0,1-1.739,1.035,9.817,9.817,0,0,1-3.181.214c-.366-.048-.476-.193-.476-.593.007-.855.366-1.725-.035-2.553-.248-.5-.414-1.159-1.1-1.242s-1.062.317-1.5.883a1.611,1.611,0,0,0-.241,1.587c.2.559-.041,1.325.593,1.677.469.262.421.552.255.952a5.4,5.4,0,0,1-.655,1.249,17.254,17.254,0,0,1-3.677,3c-1.345,1.007-1.359.924-2.532-.352A5.07,5.07,0,0,0,319.6-987.6c-1.5-.131-2.815,1.056-2.366,2.291.483,1.332,2.553,3.132,4.388,2.918a3.206,3.206,0,0,1,3.574,2.049,9.343,9.343,0,0,0,1.29,1.759,12.713,12.713,0,0,1,1.656,1.87,23.625,23.625,0,0,0,2.946,3.843c1.076,1.29,1.78,2.774,2.739,4.105.235.331.648.414.78.773.621,1.787,1.877,3.194,2.808,4.8a9.509,9.509,0,0,0,1.773,2.753,19.5,19.5,0,0,1,1.442,1.932c.807.876,1.207,2.111,2.346,2.732.186.1.379.228.248.511a.38.38,0,0,0,.048.441c.455.614,1.138,1,1.5,1.732.331.649.98,1.125,1.373,1.745.7,1.111,1.228,2.325,1.966,3.394s.766,2.587,2.187,3.146c-.221.7.78.614.8,1.242.014.276.462.276.711.1.283-.193,0-.441-.09-.559A8.851,8.851,0,0,1,350.767-945.36Z" transform="translate(-230.228 1066.516)"/>
    <path id="Path_917" data-name="Path 917" d="M426.877-925.274a1.61,1.61,0,0,1-1.946.448,8.5,8.5,0,0,1-3.781-2.725.581.581,0,0,1-.1-.586c.09-.538.469-1.049.124-1.621a12.1,12.1,0,0,0-.78-1.366c-.448-.586-.8-.483-1.221.138-.648.938-.173,1.711.248,2.518.145.276.738.4.414.821a1.587,1.587,0,0,1-1.29.78c-.338-.014-.518-.048-.518-.511a3.137,3.137,0,0,0-.421-1.421c-.152-.283-.524-.649-.787-.642a1.205,1.205,0,0,0-1.187.7c-.138.462-.669.952.173,1.463.338.207.517.779,1.083.855.159.021.1.235.069.366-.062.269-.131.538-.207.862a5.444,5.444,0,0,0-3.588-.366,1.049,1.049,0,0,0-.8,1.021,1.479,1.479,0,0,0,.642,1.207,2.815,2.815,0,0,0,3.857-.393c.1-.09.1-.373.352-.2.7.476,1.573.711,2.042,1.511a2.182,2.182,0,0,0,.5.545c.235.186.421.1.635-.117.248-.262.055-.345-.083-.517a5.137,5.137,0,0,0-1.808-1.649c-.9-.38-.945-.911-.731-1.683.09-.331.221-.483.573-.352a1.32,1.32,0,0,0,1.621-.614c.393-.669.628-.29.911-.007a9.51,9.51,0,0,0,3.049,2.3c1.442.579,2.463.842,3.408-.338.193-.248.18-.386.007-.545S427.029-925.467,426.877-925.274Z" transform="translate(-259.755 1046.927)"/>
    <path id="Path_918" data-name="Path 918" d="M520.437-841.352c.207.048.476.172.559-.124.076-.255.09-.524-.324-.607-.793-.165-.952-.828-1.056-1.621a1.488,1.488,0,0,1,.759-1.166c.311-.145.573-.283.511.3a1.681,1.681,0,0,0,.442,1.214.958.958,0,0,0,1.29.331.891.891,0,0,0,.345-1.283,2.848,2.848,0,0,0-.745-.869c-.269-.255-.276-.4.028-.642.973-.8,2.132-.435,2.7.862.117.269.193.662.6.5.317-.131.228-.455.159-.731a2.457,2.457,0,0,0-1.787-1.67,1.943,1.943,0,0,0-2.132.5,2.534,2.534,0,0,1-1.407.835,1.9,1.9,0,0,0-1.525,1.973A2.555,2.555,0,0,0,520.437-841.352Z" transform="translate(-292.774 1020.717)"/>
    <path id="Path_919" data-name="Path 919" d="M335.066-848.012c-.159-.076-.262.041-.352.131-.131.138-.235.3-.352.442-.124.021-.269-.035-.352.131a8.008,8.008,0,0,1-1.345,1.7,10.754,10.754,0,0,0-1.38,1.035c-.186.124-.2.524-.552.366-.49-.221-.372-.759-.573-1.131-.159-.3.131-.352.31-.462a13.041,13.041,0,0,0,3.208-2.146c.3-.276.6-.545.89-.835.186-.186.31-.421,0-.6-.193-.11-.393-.276-.621.034a11.458,11.458,0,0,1-.883.952c-.559.4-1.1.828-1.677,1.193-.89.559-1.718,1.5-2.891.324a.846.846,0,0,0-1.3.372,1.023,1.023,0,0,0,.711,1.359,1.987,1.987,0,0,0,1.152.014.287.287,0,0,1,.379.18c.11.2.007.3-.145.4a2.953,2.953,0,0,0-.483.324,1.159,1.159,0,0,0-.393,1.256.885.885,0,0,0,.931.69c.745-.145.711.269.683.745a.617.617,0,0,0,.324.7.866.866,0,0,0,.931-.1,1.739,1.739,0,0,0,.462-2.09.52.52,0,0,1,.159-.7c.476-.407.952-.814,1.428-1.228.51-.538,1.021-1.083,1.532-1.628a1.265,1.265,0,0,0,.324-1.056C335.183-847.777,335.218-847.936,335.066-848.012Z" transform="translate(-233.32 1021.505)"/>
    <path id="Path_920" data-name="Path 920" d="M267.163-844.84c-.428.159-1.083.152-1.125.959-.014.255-.124.511.248.58.317.055.455-.09.469-.4.014-.214.124-.4.345-.4s.366.193.49.386c.235.345-.145.331-.248.469a11.1,11.1,0,0,1-.718.9c-.207.241-.3.476-.028.711s.462.117.738-.041a2.247,2.247,0,0,0,.924-1.007c.076-.159.117-.338.331-.262a.392.392,0,0,1,.29.455,1.374,1.374,0,0,1-.462.849,3.711,3.711,0,0,1-1.035.669.425.425,0,0,0-.29.531.372.372,0,0,0,.442.283,3.046,3.046,0,0,0,2.077-2.422A5.7,5.7,0,0,0,267.163-844.84Z" transform="translate(-214.374 1020.051)"/>
    <path id="Path_921" data-name="Path 921" d="M451.519-759.624c-.524.1-.248.552-.159.883a1.132,1.132,0,0,1-.035.331c-.531-.3-.531-.3-1.221.166-.028.021-.09,0-.131-.014a.507.507,0,0,0-.759.386.862.862,0,0,0,.414.925c.214.172.559.214.269.6s-.421.076-.621-.1c-.214-.2-.545-.29-.731-.048-.145.193.021.483.214.662a1.291,1.291,0,0,0,1.125.421,1.107,1.107,0,0,0,.89-.89,2.441,2.441,0,0,1,.994-1.532,1,1,0,0,0,.428-.931C452.126-759.155,452.036-759.714,451.519-759.624Z" transform="translate(-270.957 993.63)"/>
  </g>
</svg>
