<svg xmlns="http://www.w3.org/2000/svg" width="186" height="554"><defs><clipPath id="a"><path transform="translate(1380 1176.014)" fill="#fff" stroke="#707070" d="M0 0h186v554H0z"/></clipPath></defs><g transform="translate(-1380 -1176.014)" clip-path="url(#a)"><path d="M1953.256 1299.096l-21.413 24.407-15.86-18.57c-9.486 7.853-19.156 15.86-29.411 24.353 4.03 3.996 4.826 5.019 4.998 4.924 28.46-15.375 37.505 16.808 51.307 35.605 6.881 9.38 11.838 20.484 17.197 31.026 8.397 16.528 4.24 29.867-9.816 35.095a27.147 27.147 0 00-10.652 7.987c-5.784 6.762-9.55 16.395-16.554 21.02-19.135 12.625-23.145 29.936-8.137 53.617-36.116 34.953-71.29 69.103-106.588 103.092-9.77 9.403-18.122 23.165-30.297 26.325-16.309 4.237-34.17 5.494-51.022 8.2-29.335 4.719-55.98 16.24-85.583 20.132-24.19 3.177-50.346 5.957-65.93 29.238-8.45 12.625-19.993 10.586-33.833-1.92-12.054-10.89-29.34-13.18-36.672-32.224-.45-1.164-2.928-2.186-2.952-2.981-.632-21.253-16.365-30.96-29.306-42.862-10.362-9.528-20.572-18.963-14.913-34.601.658-1.824-3.304-7.357-5.905-10.289-3.316-3.728-7.641-6.275-11.166-9.82-11.035-11.113-27.07-21.409-31.21-34.01-3.325-10.16 8.446-22.854 12.167-35.187 1.272-4.198.094-12.545-2.81-15.868-8.384-9.593-18.226-17.586-29.549-28.12 3.998-10.905 6.488-24.392 13.123-33.912 6.382-9.156 17.055-14.212 25.43-20.754-3.05-5.282-3.565-7.088-4.512-7.685-38.094-23.94-40.458-36.686-15.165-66.44 13.403-15.761 22.283-36.564 36.201-51.636 12.757-13.806 30.55-21.663 44.351-34.416 40.334-37.264 89.298-60.287 135.81-87.411 2.767-1.61 3.754-6.099 6.268-8.32 8.435-7.461 16.664-13.032 29.867.02 4.54 4.49 15.21 7.008 19.415 4.379a201.075 201.075 0 0036.501-29.58c12.372-12.57 19.158-11.722 30.687 8.226q23.189 40.164 45.57 80.786c8.24 14.923 16.923 19.498 30.322 14.555 19.733-7.285 40.469-12.394 61.122-17.48 9.251-2.278 17.474.466 24.332 13.295 13.916 26.031 29.292 51.311 44.588 77.804z" fill="#f1fdfc"/></g></svg>