<svg xmlns="http://www.w3.org/2000/svg" width="217" height="687"><defs><clipPath id="a"><path transform="translate(-7 360)" fill="#fff" stroke="#707070" d="M0 0h217v687H0z"/></clipPath></defs><g transform="translate(7 -360)" clip-path="url(#a)"><path d="M-228.233 286.041l26.215 33.874-28.04 15.865a385322.75 385322.75 0 0024.134 44.217c6.189-4.213 7.715-4.983 7.635-5.233-12.746-40.726 31.206-44.34 59.021-57.48 13.88-6.55 29.507-10.174 44.508-14.46 23.519-6.71 39.747 2.027 42.978 21.547.937 5.66 3.988 11.187 7.663 15.804 7.3 9.192 18.828 16.493 23.058 26.727 11.53 27.958 32.94 37.508 67.385 24.034 36.164 55.575 71.528 109.718 106.664 163.983 9.72 15.018 25.438 29.298 26.463 45.86 1.382 22.188-1.485 45.634-2.225 68.137-1.273 39.177 6.94 76.581 4.529 115.897-1.975 32.125-4.956 66.695 21.267 92.737 14.222 14.123 8.676 28.557-11.003 43.33-17.136 12.87-24.452 34.679-50.96 39.38-1.621.287-3.569 3.237-4.605 3.072-27.685-4.534-44.211 13.4-62.883 27.161-14.946 11.025-29.736 21.867-48.562 10.602-2.196-1.312-10.36 2.427-14.81 5.057-5.663 3.355-10.05 8.316-15.528 11.988-17.162 11.494-34.53 29.67-51.894 31.855-13.993 1.751-27.467-16.69-42.503-24.614-5.123-2.706-16.222-3.28-21.256-.353-14.534 8.442-27.362 19.176-43.853 31.187-13.117-7.921-29.956-14.54-40.614-25.53-10.25-10.57-14.11-25.663-20.472-38.152-7.605 2.619-10.075 2.835-11.088 3.91-40.59 43.304-57.693 43.157-89.858 2.913-17.036-21.324-41.74-38.06-57.754-59.878-14.668-19.995-20.364-45.013-33.405-66.097-38.105-61.613-55.59-130.822-79.01-197.882-1.387-3.982-6.952-6.39-9.195-10.21-7.54-12.802-12.685-24.862 7.542-38.672 6.958-4.748 12.903-17.934 10.562-24.041a265.262 265.262 0 00-29.116-54.714c-13.163-19.184-10.358-27.761 18.376-37.669q57.846-19.923 116.089-38.677c21.4-6.915 29.51-17.006 26.48-35.603-4.468-27.387-5.861-55.528-7.25-83.552-.622-12.554 5.002-22.507 23.34-28.163 37.208-11.473 73.82-25.019 111.975-38.157z" fill="#faf7fd"/></g></svg>