<svg xmlns="http://www.w3.org/2000/svg" width="339" height="1552"><defs><clipPath id="a"><path transform="translate(0 2972)" fill="#fff" stroke="#707070" d="M0 0h339v1552H0z"/></clipPath></defs><g transform="translate(0 -2972)" clip-path="url(#a)"><path d="M-243.452 2902.5l28.205 83.139-64.927 12.036c5.564 32.833 11.24 66.3 17.264 101.8 14.8-4.036 18.277-4.516 18.288-5.045 2.475-87.433 90.067-65.1 152.74-72.01 31.27-3.432 63.972-.028 95.9 1.677 50.057 2.69 75.668 30.449 68.9 70.432-1.961 11.6.265 24.341 4.3 35.742 8.015 22.685 25.484 44.527 26.841 67.184 3.693 61.877 38.809 94.671 114.553 91.543 33.022 131.829 65.425 260.367 97.308 388.976 8.809 35.59 29.747 73.755 20.682 106.538-12.128 43.919-33.329 87.443-49.781 130.565-28.608 75.072-37.652 153.049-68.561 227.626-25.265 60.941-54.116 125.947-20.669 193.914 18.139 36.861-2.24 61.132-50.238 76.632-41.8 13.505-70.529 50.889-125.039 42.309-3.333-.523-9.076 3.9-10.974 2.881-50.624-27.254-94.621-3.534-139.988 10.677-36.323 11.383-72.22 22.533-101.187-11.86-3.383-4.007-21.7-2.21-32.077-.081-13.214 2.722-25.026 9.41-38.092 12.87-40.924 10.817-86.712 34.455-121.822 27.101-28.287-5.942-42.094-50.674-65.944-76.064-8.124-8.661-29.251-17.181-40.961-14.868-33.8 6.663-65.823 18.9-105.8 31.177-20.134-24.1-48.35-48.17-61.672-76.579-12.811-27.325-10.222-59.151-14.217-87.6-16.485 0-21.418-1.236-24.1.177-107.56 56.839-140.61 45.141-176.087-54.314-18.786-52.693-55.493-101.612-71.97-154.581-15.083-48.538-9.427-100.825-20.632-150.387-32.719-144.843-20.433-290.629-21.065-436.217-.03-8.643-9.208-17.025-11.007-25.923-6.071-29.842-7.992-56.648 40.422-69.913 16.653-4.558 36.974-26.145 36.512-39.545-1.434-41.977-8.567-84.34-19.917-125.463-12.706-45.96-1.548-60.712 60.751-60.74q125.4-.011 250.788 2.51c46.087.879 68.538-13.265 75.077-51.327 9.618-56.058 25.7-111.523 41.7-166.762 7.171-24.744 24.715-40.279 64.027-39 79.765 2.602 159.757.773 242.469.773z" fill="#faf7fd"/></g></svg>