<svg xmlns="http://www.w3.org/2000/svg" width="372" height="1176"><defs><clipPath id="a"><path transform="translate(-7 360)" fill="#fff" stroke="#707070" d="M0 0h372v1176H0z"/></clipPath></defs><g transform="translate(7 -360)" clip-path="url(#a)"><path d="M-385.674 233.409l44.875 57.978-47.994 27.157c13.32 24.41 26.9 49.292 41.307 75.683 10.593-7.211 13.204-8.534 13.069-8.955-21.817-69.71 53.415-75.893 101.024-98.387 23.758-11.211 50.505-17.414 76.18-24.75 40.255-11.484 68.026 3.47 73.556 36.879 1.604 9.688 6.827 19.147 13.112 27.053 12.496 15.733 32.228 28.23 39.459 45.746 19.739 47.853 56.382 64.2 115.34 41.137 61.917 95.117 122.45 187.803 182.592 280.684 16.632 25.706 43.541 50.148 45.296 78.499 2.364 37.976-2.543 78.107-3.81 116.628-2.178 67.054 11.881 131.083 7.752 198.374-3.382 54.989-8.488 114.16 36.401 158.734 24.345 24.174 14.852 48.879-18.831 74.172-29.327 22.026-41.854 59.36-87.228 67.403-2.774.494-6.105 5.548-7.881 5.258-47.383-7.756-75.674 22.935-107.629 46.49-25.585 18.863-50.898 37.427-83.12 18.149-3.76-2.245-17.732 4.154-25.349 8.657-9.694 5.742-17.203 14.234-26.578 20.518-29.384 19.667-59.11 50.78-88.833 54.52-23.95 2.999-47.014-28.567-72.75-42.13-8.77-4.63-27.767-5.614-36.384-.604-24.876 14.45-46.834 32.822-75.06 53.382-22.452-13.56-51.274-24.89-69.515-43.7-17.546-18.092-24.154-43.93-35.041-65.303-13.017 4.483-17.248 4.848-18.98 6.691-69.476 74.124-98.752 73.875-153.805 4.99-29.159-36.496-71.444-65.146-98.854-102.491-25.11-34.224-34.857-77.05-57.178-113.136-65.224-105.471-95.16-223.924-135.241-338.709-2.374-6.816-11.9-10.94-15.74-17.476-12.906-21.912-21.71-42.556 12.91-66.193 11.91-8.127 22.086-30.697 18.078-41.151-12.547-32.755-29.696-64.266-49.838-93.65-22.527-32.836-17.728-47.517 31.455-64.478q99.013-34.102 198.706-66.198c36.629-11.837 50.51-29.11 45.329-60.941-7.647-46.879-10.032-95.045-12.412-143.014-1.064-21.487 8.564-38.524 39.951-48.206 63.686-19.63 126.35-42.822 191.66-65.31z" fill="#faf7fd"/></g></svg>