<svg xmlns="http://www.w3.org/2000/svg" width="888" height="967"><defs><clipPath id="a"><path transform="translate(912 5318)" fill="#fff" stroke="#707070" d="M0 0h888v967H0z"/></clipPath></defs><g transform="translate(-912 -5318)" clip-path="url(#a)"><path d="M3852.817 6811.793l-151.52 51.4-21.936-118.328a912464.571 912464.571 0 00-185.52 31.463c7.355 26.981 8.23 33.31 9.2 33.329 159.344 4.511 118.651 164.144 131.237 278.365 6.255 56.989.051 116.588-3.057 174.781-4.9 91.229-55.493 137.9-128.36 125.577-21.132-3.574-44.361.483-65.139 7.834-41.344 14.607-81.148 46.443-122.44 48.917-112.769 6.731-172.535 70.728-166.834 208.77-240.255 60.181-474.512 119.236-708.9 177.342-64.862 16.055-134.416 54.213-194.162 37.692-80.042-22.1-159.363-60.741-237.951-90.724-136.816-52.137-278.928-68.62-414.843-124.95-111.064-46.044-229.534-98.625-353.4-37.669-67.179 33.059-111.411-4.083-139.66-91.557-24.613-76.175-92.744-128.538-77.108-227.881.952-6.075-7.11-16.541-5.251-20 49.67-92.261 6.441-172.445-19.459-255.125-20.746-66.2-41.067-131.62 21.614-184.411 7.3-6.164 4.028-39.542.148-58.46-4.961-24.082-17.149-45.61-23.455-69.421-19.723-74.595-62.8-158.041-49.4-222.028 10.83-51.552 92.352-76.715 138.624-120.182 15.784-14.806 31.312-53.309 27.1-74.65-12.142-61.6-34.452-119.96-56.819-192.811 43.93-36.694 87.789-88.117 139.564-112.4 49.8-23.349 107.8-18.629 159.646-25.91 0-30.044 2.252-39.033-.322-43.917-103.595-196.018-82.276-256.25 98.978-320.903 96.032-34.24 185.185-101.139 281.72-131.167 88.459-27.489 183.751-17.181 274.076-37.6 263.973-59.641 529.665-37.251 795-38.4 15.752-.055 31.028-16.782 47.244-20.06 54.382-11.073 103.235-14.573 127.41 73.664 8.307 30.35 47.649 67.385 72.069 66.542 76.5-2.613 153.707-15.614 228.653-36.3 83.761-23.155 110.646-2.822 110.7 110.716q.019 228.539-4.575 457.055c-1.6 83.993 24.175 124.908 93.542 136.826 102.165 17.528 203.249 46.829 303.92 76 45.095 13.069 73.408 45.043 71.085 116.688-4.752 145.37-1.419 291.152-1.419 441.893z" fill="#f1fdfc"/></g></svg>