<svg xmlns="http://www.w3.org/2000/svg" width="717" height="570"><defs><clipPath id="a"><path transform="translate(0 5715)" fill="#fff" stroke="#707070" d="M0 0h717v570H0z"/></clipPath></defs><g transform="translate(0 -5715)" clip-path="url(#a)"><path d="M-819.802 8509.885c-3.247-49.816-6.635-101.768-10.409-159.681l119.987 9.457c5.701-60.43 11.505-122.023 17.656-187.362-27.969.117-34.309-.677-34.579.255-45.627 152.758-189.293 72.104-302.89 54.679-56.672-8.718-112.638-30.147-168.047-48.222-86.858-28.361-118.839-89.322-88.062-156.52 8.925-19.488 11.023-42.978 9.303-64.953-3.402-43.722-23.847-90.418-15.542-130.947 22.705-110.678-23.637-184.987-158.462-215.233 4.092-247.673 7.717-489.26 12.293-730.729 1.29-66.815-17.556-143.887 13.878-197.322 42.079-71.597 99.95-138.213 149.268-206.363 85.8-118.661 138.53-251.672 228.146-368.377 73.244-95.362 154.721-196.186 127.92-331.628-14.537-73.457 32.799-106.565 124.615-111.198 79.96-4.047 148.189-56.3 240.104-15.465 5.622 2.493 17.82-2.585 20.68.107 76.26 71.877 164.914 50.885 251.49 47.28 69.323-2.895 137.782-5.581 172.544 68.642 4.064 8.648 37.154 14.132 56.434 15.284 24.548 1.445 48.5-4.753 73.135-4.678 77.167.268 168.933-19.732 227.274 9.785 46.994 23.814 50.188 109.081 80.192 165.038 10.215 19.082 43.387 44.055 65.093 45.513 62.65 4.225 124.805-2.21 200.972-4.949 24.068 51.94 62.383 107.626 72.431 163.93 9.657 54.155-9.925 108.96-16.32 160.93 29.023 7.78 37.123 12.284 42.508 11.063 216.185-49.305 268.847-13.11 284.357 178.726 8.204 101.635 49.737 205.084 53.742 306.114 3.643 92.571-30.995 181.953-34.664 274.496-10.756 270.445-101.199 521.304-168.81 777.915-4.027 15.231 8.174 34.32 7.14 50.834-3.387 55.4-12.66 103.499-104.158 103.999-31.47.164-77.435 28.576-82.945 52.384-17.29 74.576-24.727 152.525-24.155 230.28.673 86.91-25.932 107.615-135.623 78.261q-220.774-59.173-440.33-122.796c-80.723-23.3-126.923-8.999-156.402 54.923-43.393 94.152-97.878 184.21-152.131 273.903-24.304 40.177-62.524 59.246-131.132 38.446-139.196-42.241-280.885-76.78-426.5-115.821z" fill="#faf7fd"/></g></svg>