<svg xmlns="http://www.w3.org/2000/svg" width="420" height="1251"><defs><clipPath id="a"><path transform="translate(1380 1176)" fill="#fff" stroke="#707070" d="M0 0h420v1251H0z"/></clipPath></defs><g transform="translate(-1380 -1176)" clip-path="url(#a)"><path d="M2674.45 1453.958l-48.35 55.113-35.816-41.931a458143.234 458143.234 0 00-66.412 54.99c9.1 9.022 10.898 11.333 11.285 11.12 64.266-34.718 84.691 37.953 115.855 80.395 15.54 21.182 26.732 46.254 38.832 70.058 18.954 37.323 9.574 67.438-22.166 79.241-9.205 3.423-17.493 10.355-24.054 18.033-13.06 15.269-21.562 37.022-37.377 47.462-43.208 28.508-52.262 67.597-18.373 121.07-81.555 78.93-160.988 156.036-240.687 232.795-22.06 21.232-40.919 52.31-68.414 59.442-36.827 9.567-77.157 12.408-115.212 18.514-66.238 10.656-126.408 36.675-193.25 45.461-54.624 7.173-113.682 13.451-148.872 66.02-19.085 28.51-45.147 23.905-76.402-4.332-27.217-24.586-66.256-29.76-82.809-72.765-1.014-2.629-6.61-4.934-6.665-6.733-1.428-47.992-36.954-69.907-66.172-96.78-23.399-21.516-46.452-42.822-33.676-78.13 1.486-4.12-7.461-16.614-13.335-23.232-7.486-8.42-17.255-14.17-25.212-22.174-24.913-25.091-61.127-48.336-70.469-76.798-7.514-22.938 19.072-51.601 27.475-79.452 2.872-9.492.212-28.328-6.35-35.831-18.931-21.662-41.155-39.71-66.723-63.496 9.026-24.626 14.649-55.08 29.633-76.575 14.412-20.676 38.514-32.093 57.416-46.858-6.883-11.923-8.049-16.006-10.189-17.355-86.018-54.056-91.36-82.841-34.245-150.027 30.262-35.586 50.317-82.562 81.746-116.593 28.803-31.18 68.982-48.919 100.146-77.716 91.089-84.15 201.653-136.138 306.681-197.385 6.239-3.63 8.468-13.768 14.152-18.784 19.047-16.851 37.631-29.433 67.44.041 10.25 10.14 34.347 15.824 43.845 9.894 29.758-18.566 57.418-41.412 82.42-66.79 27.933-28.38 43.26-26.47 69.294 18.573q52.369 90.687 102.898 182.424c18.607 33.698 38.211 44.029 68.47 32.868 44.558-16.45 91.385-27.983 138.018-39.472 20.89-5.145 39.45 1.056 54.943 30.019 31.422 58.77 66.144 115.857 100.681 175.676z" fill="#f1fdfc"/></g></svg>