<?xml version="1.0" standalone="no"?>
<!DOCTYPE svg PUBLIC "-//W3C//DTD SVG 1.1//EN" "http://www.w3.org/Graphics/SVG/1.1/DTD/svg11.dtd" >
<svg xmlns="http://www.w3.org/2000/svg">
<metadata>Generated by IcoMoon</metadata>
<defs>
<font id="icomoon" horiz-adv-x="1024">
<font-face units-per-em="1024" ascent="960" descent="-64" />
<missing-glyph horiz-adv-x="1024" />
<glyph unicode="&#x20;" horiz-adv-x="512" d="" />
<glyph unicode="&#xe900;" glyph-name="facebook, brand, social" d="M608 768h160v192h-160c-123.514 0-224-100.486-224-224v-96h-128v-192h128v-512h192v512h160l32 192h-192v96c0 17.346 14.654 32 32 32z" />
<glyph unicode="&#xe901;" glyph-name="comment, chat, talk, bubble" d="M512 64.992c-20.768 0-51.168 23.36-71.328 25.504-57.504-48.224-117.408-106.272-198.848-136.448-35.552-15.072-66.080-23.808-74.016-14.304-10.656 12.384-26.752 29.568-29.6 34.176 0.16 6.848 8.448 1.44 17.472 11.168 49.152 20.672 80.896 74.016 102.24 139.232-153.952 77.152-257.92 221.888-257.92 388.096 0 247.072 229.248 447.392 512 447.392s512-200.288 512-447.392-229.248-447.424-512-447.424z" />
<glyph unicode="&#xe902;" glyph-name="instagram" horiz-adv-x="878" d="M585.143 438.857c0 80.571-65.714 146.286-146.286 146.286s-146.286-65.714-146.286-146.286 65.714-146.286 146.286-146.286 146.286 65.714 146.286 146.286zM664 438.857c0-124.571-100.571-225.143-225.143-225.143s-225.143 100.571-225.143 225.143 100.571 225.143 225.143 225.143 225.143-100.571 225.143-225.143zM725.714 673.143c0-29.143-23.429-52.571-52.571-52.571s-52.571 23.429-52.571 52.571 23.429 52.571 52.571 52.571 52.571-23.429 52.571-52.571zM438.857 798.857c-64 0-201.143 5.143-258.857-17.714-20-8-34.857-17.714-50.286-33.143s-25.143-30.286-33.143-50.286c-22.857-57.714-17.714-194.857-17.714-258.857s-5.143-201.143 17.714-258.857c8-20 17.714-34.857 33.143-50.286s30.286-25.143 50.286-33.143c57.714-22.857 194.857-17.714 258.857-17.714s201.143-5.143 258.857 17.714c20 8 34.857 17.714 50.286 33.143s25.143 30.286 33.143 50.286c22.857 57.714 17.714 194.857 17.714 258.857s5.143 201.143-17.714 258.857c-8 20-17.714 34.857-33.143 50.286s-30.286 25.143-50.286 33.143c-57.714 22.857-194.857 17.714-258.857 17.714zM877.714 438.857c0-60.571 0.571-120.571-2.857-181.143-3.429-70.286-19.429-132.571-70.857-184s-113.714-67.429-184-70.857c-60.571-3.429-120.571-2.857-181.143-2.857s-120.571-0.571-181.143 2.857c-70.286 3.429-132.571 19.429-184 70.857s-67.429 113.714-70.857 184c-3.429 60.571-2.857 120.571-2.857 181.143s-0.571 120.571 2.857 181.143c3.429 70.286 19.429 132.571 70.857 184s113.714 67.429 184 70.857c60.571 3.429 120.571 2.857 181.143 2.857s120.571 0.571 181.143-2.857c70.286-3.429 132.571-19.429 184-70.857s67.429-113.714 70.857-184c3.429-60.571 2.857-120.571 2.857-181.143z" />
<glyph unicode="&#xe903;" glyph-name="youtube" horiz-adv-x="878" d="M554.857 240v-120.571c0-25.714-7.429-38.286-22.286-38.286-8.571 0-17.143 4-25.714 12.571v172c8.571 8.571 17.143 12.571 25.714 12.571 14.857 0 22.286-13.143 22.286-38.286zM748 239.428v-26.286h-51.429v26.286c0 25.714 8.571 38.857 25.714 38.857s25.714-13.143 25.714-38.857zM196 364h61.143v53.714h-178.286v-53.714h60v-325.143h57.143v325.143zM360.571 38.857h50.857v282.286h-50.857v-216c-11.429-16-22.286-24-32.571-24-6.857 0-10.857 4-12 12-0.571 1.714-0.571 8-0.571 20v208h-50.857v-223.429c0-20 1.714-33.143 4.571-41.714 4.571-14.286 16.571-21.143 33.143-21.143 18.286 0 37.714 11.429 58.286 34.857v-30.857zM605.714 123.428v112.571c0 26.286-1.143 45.143-5.143 56.571-6.286 21.143-20.571 32-40.571 32-18.857 0-36.571-10.286-53.143-30.857v124h-50.857v-378.857h50.857v27.429c17.143-21.143 34.857-31.429 53.143-31.429 20 0 34.286 10.857 40.571 31.429 4 12 5.143 30.857 5.143 57.143zM798.857 129.143v7.429h-52c0-20.571-0.571-32-1.143-34.857-2.857-13.714-10.286-20.571-22.857-20.571-17.714 0-26.286 13.143-26.286 39.429v49.714h102.286v58.857c0 30.286-5.143 52-15.429 66.286-14.857 19.429-34.857 29.143-60.571 29.143-26.286 0-46.286-9.714-61.143-29.143-10.857-14.286-16-36-16-66.286v-98.857c0-30.286 5.714-52.571 16.571-66.286 14.857-19.429 34.857-29.143 61.714-29.143s48 10.286 61.714 30.286c6.286 9.143 10.857 19.429 12 30.857 1.143 5.143 1.143 16.571 1.143 33.143zM451.429 650.857v120c0 26.286-7.429 39.429-24.571 39.429-16.571 0-24.571-13.143-24.571-39.429v-120c0-26.286 8-40 24.571-40 17.143 0 24.571 13.714 24.571 40zM862.286 221.714c0-65.714-0.571-136-14.857-200-10.857-45.143-47.429-78.286-91.429-82.857-105.143-12-211.429-12-317.143-12s-212 0-317.143 12c-44 4.571-81.143 37.714-91.429 82.857-14.857 64-14.857 134.286-14.857 200v0c0 66.286 0.571 136 14.857 200 10.857 45.143 47.429 78.286 92 83.429 104.571 11.429 210.857 11.429 316.571 11.429s212 0 317.143-11.429c44-5.143 81.143-38.286 91.429-83.429 14.857-64 14.857-133.714 14.857-200zM292 950.857h58.286l-69.143-228v-154.857h-57.143v154.857c-5.143 28-16.571 68-34.857 121.143-12.571 35.429-25.143 71.429-37.143 106.857h60.571l40.571-150.286zM503.429 760.571v-100c0-30.286-5.143-53.143-16-67.429-14.286-19.429-34.286-29.143-60.571-29.143-25.714 0-45.714 9.714-60 29.143-10.857 14.857-16 37.143-16 67.429v100c0 30.286 5.143 52.571 16 66.857 14.286 19.429 34.286 29.143 60 29.143 26.286 0 46.286-9.714 60.571-29.143 10.857-14.286 16-36.571 16-66.857zM694.857 853.143v-285.143h-52v31.429c-20.571-24-40-35.429-58.857-35.429-16.571 0-28.571 6.857-33.714 21.143-2.857 8.571-4.571 22.286-4.571 42.857v225.143h52v-209.714c0-12 0-18.857 0.571-20 1.143-8 5.143-12.571 12-12.571 10.286 0 21.143 8 32.571 24.571v217.714h52z" />
<glyph unicode="&#xe904;" glyph-name="truck" horiz-adv-x="1061" d="M365.714 146.286c0 40-33.143 73.143-73.143 73.143s-73.143-33.143-73.143-73.143 33.143-73.143 73.143-73.143 73.143 33.143 73.143 73.143zM146.286 438.857h219.429v146.286h-90.286c-2.286 0-10.857-3.429-12.571-5.143l-111.429-111.429c-1.714-1.714-5.143-10.286-5.143-12.571v-17.143zM877.714 146.286c0 40-33.143 73.143-73.143 73.143s-73.143-33.143-73.143-73.143 33.143-73.143 73.143-73.143 73.143 33.143 73.143 73.143zM1024 768v-585.143c0-42.286-44.571-36.571-73.143-36.571 0-80.571-65.714-146.286-146.286-146.286s-146.286 65.714-146.286 146.286h-219.429c0-80.571-65.714-146.286-146.286-146.286s-146.286 65.714-146.286 146.286h-36.571c-28.571 0-73.143-5.714-73.143 36.571 0 20 16.571 36.571 36.571 36.571v182.857c0 40.571-5.714 85.714 25.714 117.143l113.143 113.143c14.286 14.286 41.714 25.714 62.286 25.714h91.429v109.714c0 20 16.571 36.571 36.571 36.571h585.143c20 0 36.571-16.571 36.571-36.571z" />
<glyph unicode="&#xe905;" glyph-name="badge" horiz-adv-x="1056" d="M1037 120l-187 346q30 68 30 142 0 96-47.5 177t-128.5 128-176 47q-58 0-111.5-18t-96.5-50.5-76-75.5-50.5-97-17.5-111q0-26 3.5-51t10.5-48 17-46l-188-343q-10-18 2.5-34.5t32.5-11.5l161 36 55-153q7-19 28-21h2q19 0 28 17l164 305q18-2 36-2 5 0 10.5 0.5t11 0.5 11.5 1l167-305q9-17 28-17h3q20 2 27 21l55 153 161-36q9-3 18 0.5t14 10.5q13 17 3 35zM306 47l-40 112q-3 7-9 12.5t-13.5 7.5-15.5 0l-119-27 136 247q70-94 181-128zM240 608q0 119 84.5 203.5t203.5 84.5q78 0 144-38.5t104.5-105 38.5-144.5q0-39-10-76.5t-28.5-69-45.5-58-58.5-45-68.5-29-76-10.5q-78 0-144.5 39t-105 105-38.5 144zM828 179q-12 3-22.5-3t-15.5-17l-40-113-123 224q56 17 103.5 50.5t81.5 80.5l135-249z" />
<glyph unicode="&#xe906;" glyph-name="bell" horiz-adv-x="896" d="M842 248l-20 25-19.5 26-19 29.5-15 30-11.5 33-4 31.5v209q0 67-24 127.5t-64.5 104-97.5 69.5-121 26q-84 0-154.5-44t-110.5-119-40-164v-209q0-18-5-36.5t-18-40-20-32-26-35.5-22-28l-18-25.5-14-22-10.5-22-2.5-19.5 5-21q17-33 83-33h183q0-71 50-121t121-50 121 50 50 121h187q66 0 81 33 4 7 4.5 14.5t0 13.5-4.5 14.5-7 14.5-10.5 16-12.5 16-14 18zM447 4q-21 0-40 8.5t-33 22-22.5 33-8.5 40.5h208q0-43-30.5-73.5t-73.5-30.5zM805 176h-724q6 10 24 34 1 2 20 27t25 33 21 32.5 20.5 39.5 11.5 38 6 43v209q0 108 68.5 183.5t168.5 75.5q29 0 56-7t50.5-19.5 44-30.5 37-40.5 28-47.5 17.5-54 6-60v-209q0-31 9-62.5t27.5-61.5 32-48.5 35.5-45.5l4.5-6 4.5-5.5 5-6 4.5-5.5 4.5-6h-7z" />
<glyph unicode="&#xe907;" glyph-name="chevron-up-solid" d="M545.942 698.952l388.686-388.686c18.746-18.746 18.746-49.138 0-67.882l-45.334-45.334c-18.714-18.714-49.044-18.75-67.802-0.080l-309.492 308.040-309.49-308.042c-18.758-18.67-49.088-18.634-67.802 0.080l-45.334 45.334c-18.746 18.746-18.746 49.138 0 67.882l388.686 388.686c18.744 18.746 49.136 18.746 67.882 0.002z" />
<glyph unicode="&#xe908;" glyph-name="clock" d="M512 944c-274 0-496-222-496-496s222-496 496-496 496 222 496 496-222 496-496 496zM512 48c-221 0-400 179-400 400s179 400 400 400 400-179 400-400-179-400-400-400zM635.6 256.8l-169.8 123.4c-6.2 4.6-9.8 11.8-9.8 19.4v328.4c0 13.2 10.8 24 24 24h64c13.2 0 24-10.8 24-24v-283.4l133.6-97.2c10.8-7.8 13-22.8 5.2-33.6l-37.6-51.8c-7.8-10.6-22.8-13-33.6-5.2z" />
<glyph unicode="&#xe909;" glyph-name="clock2" d="M512 960q-139 0-257-68.5t-186.5-186.5-68.5-257 68.5-257 186.5-186.5 257-68.5 257 68.5 186.5 186.5 68.5 257-68.5 257-186.5 186.5-257 68.5zM512-1q-73 0-141.5 22.5t-123.5 64.5-96.5 97-64 123.5-22.5 141.5q0 91 35.5 174t95.5 143 143 95.5 174 35.5 174-35.5 143-95.5 95.5-143 35.5-174-35.5-174-95.5-143.5-143-96-174-35.5zM544 461v307q0 13-9.5 22.5t-22.5 9.5-22.5-9.5-9.5-22.5v-320q0-14 10-23l1-2 159-158q9-10 22.5-10t22.5 9.5 9 23-9 22.5z" />
<glyph unicode="&#xe90a;" glyph-name="comment1" d="M512 896c-282.8 0-512-186.2-512-416 0-95.2 39.8-182.4 105.8-252.6-29.8-78.8-91.8-145.6-92.8-146.4-13.2-14-16.8-34.4-9.2-52s25-29 44.2-29c123 0 220 51.4 278.2 92.6 57.8-18.2 120.2-28.6 185.8-28.6 282.8 0 512 186.2 512 416s-229.2 416-512 416zM512 160c-53.4 0-106.2 8.2-156.8 24.2l-45.4 14.4-39-27.6c-28.6-20.2-67.8-42.8-115-58 14.6 24.2 28.8 51.4 39.8 80.4l21.2 56.2-41.2 43.6c-36.2 38.6-79.6 102.4-79.6 186.8 0 176.4 186.6 320 416 320s416-143.6 416-320-186.6-320-416-320z" />
<glyph unicode="&#xe90b;" glyph-name="quote" d="M415.095 815.141h-385.124c-16.484 0-29.971-13.487-29.971-29.971v-385.124c0-16.484 13.487-29.971 29.971-29.971h162.591v-258.997c0-16.484 13.487-29.971 29.971-29.971h96.406c12.987 0 24.226 8.242 28.472 20.48l96.156 288.968c0.999 2.997 1.499 6.244 1.499 9.491v385.124c0 16.484-13.237 29.971-29.971 29.971v0zM385.124 404.792l-87.914-263.742h-44.706v258.997c0 16.484-13.487 29.971-29.971 29.971h-162.591v325.182h325.182v-350.408zM993.030 815.141h-385.124c-16.484 0-29.971-13.487-29.971-29.971v-385.124c0-16.484 13.487-29.971 29.971-29.971h162.591v-258.997c0-16.484 13.487-29.971 29.971-29.971h96.156c12.987 0 24.476 8.242 28.472 20.48l96.406 288.968c0.999 2.997 1.499 6.244 1.499 9.491v385.124c0 16.484-13.487 29.971-29.971 29.971v0zM963.060 404.792l-87.914-263.742h-44.706v258.997c0 16.484-13.487 29.971-29.971 29.971h-162.591v325.182h325.182v-350.408z" />
<glyph unicode="&#xe90c;" glyph-name="right-arrow" d="M669.538 790.646c-11.815 15.754-35.446 15.754-51.2 0-11.815-11.815-11.815-35.446 0-51.2l252.062-252.062h-834.954c-19.692 0-35.446-15.754-35.446-35.446s15.754-35.446 35.446-35.446h834.954l-252.062-252.062c-11.815-15.754-11.815-35.446 0-51.2 15.754-15.754 35.446-15.754 51.2 0l315.077 315.077c15.754 11.815 15.754 35.446 0 51.2l-315.077 311.138z" />
<glyph unicode="&#xe90d;" glyph-name="shopping-bag" d="M921.862 74.279l-58.664 660.755c-1.309 14.666-13.618 25.665-28.023 25.665h-120.732c-1.571 110.257-91.662 199.3-202.181 199.3s-200.61-89.043-202.443-199.3h-120.732c-14.666 0-26.713-10.999-28.023-25.665l-58.664-660.755c0-0.786-0.262-1.571-0.262-2.619 0-75.163 68.878-136.446 153.731-136.446h512.524c84.853 0 153.731 61.283 153.731 136.446 0 1.048 0 1.833-0.262 2.619v0zM512.262 903.431c79.353 0 144.041-63.64 145.874-142.731h-291.748c1.571 79.092 66.259 142.731 145.874 142.731v0zM768.393-7.955h-512.524c-53.164 0-96.376 35.094-97.162 78.568l56.045 633.256h94.805v-85.901c0-15.714 12.571-28.284 28.284-28.284s28.284 12.571 28.284 28.284v85.901h291.748v-85.901c0-15.714 12.571-28.284 28.284-28.284s28.284 12.571 28.284 28.284v85.901h94.805l56.307-633.256c-0.786-43.474-44.26-78.568-97.162-78.568v0z" />
<glyph unicode="&#xe90e;" glyph-name="speech" d="M512.166 960c-281.26 0-509.515-227.924-509.515-509.184 0-126.882 46.38-242.831 122.907-331.947-23.19-66.257-65.594-123.238-120.919-164.317 35.116-11.926 72.551-18.552 111.974-18.552 66.919 0 129.532 19.214 182.538 52.012 64.932-29.816 136.82-46.38 212.685-46.38 281.26 0 509.184 227.924 509.184 509.184 0.331 281.26-227.592 509.184-508.853 509.184z" />
<glyph unicode="&#xe90f;" glyph-name="star-solid" d="M460.978 871.467l-116.089-235.378-259.733-37.867c-46.578-6.756-65.244-64.178-31.467-97.067l187.911-183.111-44.444-258.667c-8-46.756 41.244-81.778 82.489-59.911l232.356 122.133 232.356-122.133c41.244-21.689 90.489 13.156 82.489 59.911l-44.444 258.667 187.911 183.111c33.778 32.889 15.111 90.311-31.467 97.067l-259.733 37.867-116.089 235.378c-20.8 41.956-81.067 42.489-102.044 0z" />
<glyph unicode="&#xe910;" glyph-name="truck-solid" d="M998.4 294.4h-25.6v172.96c0 20.32-8.16 39.84-22.56 54.24l-159.84 159.84c-14.4 14.4-33.92 22.56-54.24 22.56h-70.56v76.8c0 42.4-34.4 76.8-76.8 76.8h-512c-42.4 0-76.8-34.4-76.8-76.8v-512c0-42.4 34.4-76.8 76.8-76.8h25.6c0-84.8 68.8-153.6 153.6-153.6s153.6 68.8 153.6 153.6h204.8c0-84.8 68.8-153.6 153.6-153.6s153.6 68.8 153.6 153.6h76.8c14.080 0 25.6 11.52 25.6 25.6v51.2c0 14.080-11.52 25.6-25.6 25.6zM256 115.2c-42.4 0-76.8 34.4-76.8 76.8s34.4 76.8 76.8 76.8 76.8-34.4 76.8-76.8-34.4-76.8-76.8-76.8zM768 115.2c-42.4 0-76.8 34.4-76.8 76.8s34.4 76.8 76.8 76.8 76.8-34.4 76.8-76.8-34.4-76.8-76.8-76.8zM896 448h-230.4v179.2h70.56l159.84-159.84v-19.36z" />
<glyph unicode="&#xe911;" glyph-name="wallet" d="M1024 670q0 11-2.5 22.5t-9.5 27-24 28.5-42 20l-723 144q-26 0-48-13t-35-35-13-48v-128h-32q-39-1-67-29t-28-67v-512q0-40 28-68t68-28h832q40 0 68 28t28 68v590zM191 816q0 13 8.5 22t21.5 10l706-143-2.5-4.5-10-9-18.5-3.5h-705v128zM960 80q0-13-9.5-22.5t-22.5-9.5h-832q-13 0-22.5 9.5t-9.5 22.5v512q0 13 9.5 22.5t22.5 9.5h800q26 0 45 8.5t19 23.5v-576zM191.5 400q-26.5 0-45-19t-18.5-45.5 18.5-45 45-18.5 45.5 18.5 19 45-19 45.5-45.5 19z" />
<glyph unicode="&#xe912;" glyph-name="star-o" horiz-adv-x="1059" d="M539.874 950.857c2.934 0 8.802 0 11.736-2.934s5.868-2.934 8.802-2.934 5.868-2.934 8.802-5.868 5.868-2.934 8.802-5.868 5.868-5.868 8.802-8.802 5.868-5.868 5.868-8.802c2.934-2.934 2.934-5.868 5.868-8.802l120.298-249.398 275.805-41.077c14.67-2.934 26.407-8.802 38.143-17.605s17.605-20.539 23.473-35.209c8.802-29.341 2.934-52.814-17.605-76.287l-202.453-202.453 44.011-272.871c2.934-14.67 0-26.407-5.868-41.077-5.868-11.736-14.67-23.473-26.407-32.275s-26.407-14.67-44.011-14.67c-5.868 0-11.736 0-17.605 2.934-5.868 0-11.736 2.934-17.605 5.868l-240.596 132.034-240.596-129.1c-11.736-5.868-23.473-8.802-35.209-8.802-2.934 0-5.868 0-8.802 0s-5.868 0-8.802 0c-2.934 0-5.868 0-5.868 2.934-2.934 0-5.868 2.934-5.868 2.934-2.934 0-5.868 2.934-5.868 2.934-2.934 0-5.868 2.934-5.868 2.934-11.736 8.802-20.539 17.605-26.407 32.275-8.802 14.67-8.802 29.341-5.868 41.077l46.946 278.739-202.453 202.453c-23.473 23.473-29.341 46.946-20.539 76.287 5.868 14.67 11.736 26.407 23.473 35.209s23.473 14.67 38.143 17.605l275.805 41.077 120.298 249.398c5.868 11.736 14.67 23.473 26.407 32.275s26.407 5.868 41.077 5.868c5.868 0 8.802 0 11.736 0zM407.84 636.909l-20.539-44.011-322.751-46.946 231.794-231.794-5.868-46.946-46.946-278.739 284.607 152.573 284.607-152.573-46.946 278.739-5.868 46.946 231.794 231.794-322.751 46.946-140.837 296.344-120.298-252.332z" />
<glyph unicode="&#xe913;" glyph-name="gift" horiz-adv-x="1091" d="M1090.651 438.857h-66.651v-445.349c0-18.178-6.059-33.325-21.207-48.473-12.118-12.118-30.296-21.207-48.473-21.207h-817.988c-18.178 0-36.355 6.059-48.473 21.207-12.118 12.118-18.178 30.296-18.178 48.473v445.349h-69.68v202.982c0 18.178 6.059 36.355 21.207 48.473 12.118 12.118 30.296 21.207 48.473 21.207h118.154c-36.355 30.296-51.503 69.68-51.503 115.124 0 21.207 3.030 39.385 12.118 57.562s21.207 33.325 42.414 45.444c18.178 15.148 45.444 21.207 75.74 21.207s57.562-6.059 87.858-21.207c30.296-15.148 57.562-33.325 81.799-54.533 24.237-24.237 45.444-45.444 63.621-66.651s33.325-42.414 48.473-66.651c6.059 9.089 9.089 18.178 15.148 24.237 6.059 9.089 12.118 15.148 18.178 27.266s15.148 18.178 24.237 27.266c9.089 9.089 15.148 18.178 24.237 27.266s18.178 18.178 27.266 27.266c9.089 9.089 18.178 15.148 30.296 24.237 9.089 9.089 21.207 15.148 33.325 21.207s21.207 12.118 33.325 15.148c12.118 6.059 24.237 9.089 36.355 12.118s24.237 3.030 36.355 3.030c30.296 0 54.533-6.059 75.74-18.178s33.325-27.266 42.414-45.444c9.089-18.178 12.118-36.355 12.118-57.562 0-45.444-15.148-84.828-48.473-115.124h115.124c6.059 0 9.089 0 15.148-3.030s9.089-3.030 12.118-3.030c3.030-3.030 9.089-3.030 12.118-6.059s6.059-6.059 9.089-9.089 6.059-6.059 9.089-9.089 3.030-6.059 6.059-12.118c0-3.030 3.030-9.089 3.030-12.118 0-9.089 0-12.118 0-18.178v-202.982zM66.651 505.508h442.32v136.331h-442.32v-136.331zM136.331-6.492h372.639v445.349h-372.639v-445.349zM257.515 881.177c-36.355 0-54.533-18.178-54.533-51.503 0-36.355 18.178-63.621 51.503-84.828s72.71-33.325 115.124-33.325h115.124c-30.296 45.444-66.651 84.828-106.036 118.154-36.355 36.355-75.74 54.533-112.095 54.533-3.030 0-6.059-3.030-9.089-3.030zM1020.97 641.839h-442.32v-136.331h442.32v136.331zM954.32 438.857h-375.669v-445.349h375.669v445.349zM763.456 866.029c-21.207-12.118-42.414-24.237-60.592-42.414s-36.355-36.355-51.503-54.533c-15.148-18.178-30.296-36.355-42.414-57.562h115.124c27.266 0 54.533 3.030 78.769 12.118s45.444 21.207 60.592 39.385c15.148 18.178 24.237 39.385 24.237 63.621 0 36.355-21.207 54.533-60.592 54.533-21.207 3.030-42.414-3.030-63.621-15.148z" />
<glyph unicode="&#xe914;" glyph-name="lifebuoy" d="M955.733 694.857c45.511-79.644 68.267-164.978 68.267-256s-22.756-179.2-68.267-256c-45.511-79.644-108.089-142.222-187.733-187.733s-164.978-68.267-256-68.267c-93.867 0-179.2 22.756-256 68.267s-142.222 108.089-187.733 187.733c-45.511 76.8-68.267 162.133-68.267 256s22.756 179.2 68.267 256c45.511 79.644 108.089 142.222 187.733 187.733 76.8 45.511 162.133 68.267 256 68.267s179.2-22.756 256-68.267c79.644-45.511 142.222-108.089 187.733-187.733zM68.267 376.279h196.267c-5.689 19.911-8.533 42.667-8.533 62.578s2.844 42.667 8.533 62.578h-196.267c0-5.689 0-11.378-2.844-17.067 0-5.689 0-11.378-2.844-17.067 0-5.689 0-11.378 0-17.067s0-11.378 0-17.067c0-14.222 2.844-36.978 5.689-56.889zM258.844 805.79c-88.178-56.889-145.067-139.378-176.356-238.933h207.644c11.378 19.911 25.6 36.978 39.822 51.2 17.067 17.067 34.133 28.444 51.2 39.822v210.489c-42.667-14.222-82.489-34.133-122.311-62.578zM384 216.99c-39.822 22.756-71.111 54.044-93.867 93.867h-207.644c19.911-71.111 59.733-133.689 113.778-187.733s116.622-91.022 187.733-113.778v207.644zM676.978 535.568c-17.067 28.444-39.822 54.044-71.111 71.111s-62.578 25.6-96.711 25.6c-54.044 0-96.711-19.911-136.533-56.889-36.978-36.978-56.889-82.489-56.889-136.533 0-34.133 8.533-65.422 25.6-96.711 17.067-28.444 39.822-54.044 71.111-71.111 28.444-17.067 62.578-25.6 96.711-25.6 54.044 0 96.711 19.911 136.533 56.889s56.889 82.489 56.889 136.533c0 34.133-8.533 65.422-25.6 96.711zM446.578 686.324c22.756 5.689 45.511 8.533 65.422 8.533s42.667-2.844 62.578-8.533v196.267c-22.756 2.844-42.667 5.689-62.578 5.689-22.756 0-42.667-2.844-62.578-5.689v-196.267zM574.578 191.39c-19.911-5.689-39.822-8.533-62.578-8.533-19.911 0-42.667 2.844-65.422 8.533v-196.267c22.756-2.844 42.667-5.689 62.578-5.689s42.667 2.844 62.578 5.689v196.267zM640 660.724c39.822-22.756 71.111-54.044 93.867-93.867h207.644c-11.378 36.978-25.6 71.111-45.511 102.4s-42.667 59.733-68.267 85.333c-25.6 25.6-54.044 48.356-85.333 68.267s-65.422 34.133-102.4 45.511v-207.644zM773.689 74.768c39.822 28.444 73.956 62.578 102.4 105.244 28.444 39.822 51.2 85.333 65.422 133.689h-207.644c-22.756-39.822-54.044-71.111-93.867-93.867v-207.644c48.356 11.378 91.022 34.133 133.689 62.578zM955.733 376.279c2.844 22.756 5.689 42.667 5.689 62.578s-2.844 42.667-5.689 62.578h-196.267c5.689-22.756 8.533-42.667 8.533-62.578 0-11.378 0-22.756-2.844-31.289 0-11.378-2.844-22.756-5.689-31.289h196.267z" />
<glyph unicode="&#xe915;" glyph-name="heart" horiz-adv-x="1137" d="M318.228 950.857c72.468 0 157.538-47.262 248.911-138.634 37.809 40.96 78.769 72.468 122.88 97.674 44.111 28.357 85.071 40.96 126.031 40.96 44.111 0 85.071-9.452 119.729-25.206s69.317-37.809 103.975-72.468c66.166-63.015 97.674-141.785 97.674-233.157s-31.508-170.142-97.674-236.308c-3.151-3.151-135.483-144.935-396.997-428.505-22.055-22.055-44.111-31.508-75.618-31.508s-53.563 9.452-72.468 31.508c-50.412 53.563-94.523 100.825-129.182 141.785s-75.618 85.071-113.428 126.031-69.317 78.769-100.825 110.277c-28.357 31.508-47.262 53.563-53.563 59.865-31.508 31.508-56.714 69.317-72.468 110.277s-25.206 81.92-25.206 126.031c0 40.96 9.452 81.92 25.206 126.031 15.754 40.96 40.96 78.769 72.468 110.277s63.015 53.563 100.825 66.166c37.809 12.603 75.618 18.905 119.729 18.905zM223.705 862.635c-28.357-9.452-53.563-25.206-75.618-50.412-50.412-50.412-78.769-110.277-78.769-182.745 0-9.452 0-15.754 0-25.206s3.151-18.905 3.151-25.206c3.151-9.452 3.151-15.754 6.302-25.206s6.302-15.754 9.452-25.206c3.151-6.302 6.302-15.754 12.603-22.055 3.151-6.302 9.452-15.754 12.603-22.055 6.302-6.302 12.603-12.603 15.754-22.055 6.302-6.302 12.603-12.603 15.754-18.905 25.206-25.206 157.538-170.142 396.997-437.957 6.302-6.302 15.754-9.452 22.055-9.452 3.151 0 6.302 0 12.603 3.151s9.452 3.151 12.603 6.302c261.514 283.569 393.846 425.354 396.997 428.505 50.412 50.412 75.618 113.428 75.618 185.895s-25.206 132.332-75.618 182.745c-47.262 53.563-103.975 78.769-170.142 78.769-9.452 0-15.754 0-28.357-3.151s-18.905-6.302-31.508-9.452c-9.452-6.302-22.055-9.452-31.508-15.754-12.603-6.302-22.055-15.754-34.658-22.055-12.603-9.452-25.206-18.905-34.658-28.357s-25.206-28.357-34.658-37.809l-50.412-50.412-50.412 47.262c-78.769 78.769-144.935 116.578-198.498 116.578-37.809 3.151-69.317-3.151-97.674-15.754z" />
</font>
</defs>
</svg>
