<svg xmlns="http://www.w3.org/2000/svg" xmlns:xlink="http://www.w3.org/1999/xlink" width="186" height="554" viewBox="0 0 186 554"><defs><style>.a{fill:#fff;stroke:#707070;}.b{clip-path:url(#a);}.c{fill:#f1fdfc;}</style><clipPath id="a"><rect class="a" width="186" height="554" transform="translate(1380 1176.014)"/></clipPath></defs><g class="b" transform="translate(-1380 -1176.014)"><path class="c" d="M590.26,293.991l-30.747,10.431-4.451-24.012c-12.142,2.058-24.519,4.157-37.647,6.385,1.492,5.475,1.67,6.759,1.866,6.763,32.335.915,24.077,33.309,26.631,56.488,1.269,11.565.01,23.659-.62,35.468C544.3,404.026,534.031,413.5,519.244,411a27.147,27.147,0,0,0-13.219,1.59c-8.39,2.964-16.467,9.424-24.846,9.927-22.884,1.366-35.012,14.353-33.855,42.365-48.754,12.212-96.291,24.2-143.854,35.987-13.162,3.258-27.277,11-39.4,7.649-16.243-4.485-32.339-12.326-48.287-18.41-27.764-10.58-56.6-13.925-84.183-25.356-22.538-9.344-46.579-20.014-71.715-7.644-13.632,6.708-22.608-.829-28.341-18.579-4.995-15.458-18.82-26.084-15.647-46.243.193-1.233-1.443-3.357-1.066-4.058,10.079-18.722,1.307-34.994-3.949-51.772-4.21-13.433-8.334-26.709,4.386-37.422,1.482-1.251.817-8.024.03-11.863-1.007-4.887-3.48-9.255-4.76-14.087C6.538,257.942-2.2,241.008.515,228.024c2.2-10.461,18.741-15.568,28.13-24.388,3.2-3,6.354-10.818,5.5-15.148-2.464-12.5-6.991-24.343-11.53-39.126,8.915-7.446,17.815-17.881,28.321-22.808,10.105-4.738,21.876-3.78,32.4-5.258,0-6.1.457-7.921-.065-8.912-21.02-39.779-16.694-52,20.087-65.122,19.488-6.947,37.579-20.523,57.169-26.616,17.951-5.578,37.288-3.486,55.617-7.63C269.706.911,323.622,5.455,377.465,5.221c3.2-.011,6.3-3.405,9.587-4.071C398.088-1.095,408-1.805,412.908,16.1c1.686,6.159,9.669,13.674,14.625,13.5a201.075,201.075,0,0,0,46.4-7.366c17-4.7,22.453-.573,22.463,22.467q0,46.377-.928,92.748c-.325,17.044,4.906,25.347,18.982,27.766,20.732,3.557,41.244,9.5,61.673,15.423,9.151,2.652,14.9,9.14,14.425,23.679C589.584,233.819,590.26,263.4,590.26,293.991Z" transform="translate(1295.08 1339.622) rotate(-30)"/></g></svg>