<svg xmlns="http://www.w3.org/2000/svg" xmlns:xlink="http://www.w3.org/1999/xlink" width="217" height="687" viewBox="0 0 217 687"><defs><style>.a{fill:#fff;stroke:#707070;}.b{clip-path:url(#a);}.c{fill:#faf7fd;}</style><clipPath id="a"><rect class="a" width="217" height="687" transform="translate(-7 360)"/></clipPath></defs><g class="b" transform="translate(7 -360)"><path class="c" d="M778.688,387.841,738.125,401.6l-5.872-31.677c-16.019,2.715-32.346,5.484-49.665,8.423,1.969,7.223,2.2,8.917,2.462,8.922,42.657,1.208,31.764,43.942,35.133,74.52,1.674,15.256.014,31.211-.818,46.79C718.052,533,704.508,545.5,685,542.2c-5.657-.957-11.876.129-17.438,2.1-11.068,3.91-21.724,12.433-32.778,13.1-30.189,1.8-46.189,18.934-44.663,55.889C525.8,629.39,463.093,645.2,400.346,660.755c-17.364,4.3-35.984,14.513-51.978,10.09-21.428-5.917-42.663-16.261-63.7-24.287C248.04,632.6,210,628.188,173.611,613.108c-29.732-12.326-61.448-26.4-94.608-10.084-17.984,8.85-29.826-1.093-37.388-24.51-6.589-20.392-24.828-34.41-20.642-61.005.255-1.626-1.9-4.428-1.406-5.354,13.3-24.7,1.724-46.165-5.209-68.3C8.8,426.134,3.364,408.62,20.144,394.488c1.955-1.65,1.078-10.586.04-15.65-1.328-6.447-4.591-12.21-6.279-18.585C8.624,340.284-2.908,317.945.68,300.815c2.9-13.8,24.723-20.537,37.111-32.173,4.226-3.964,8.382-14.271,7.254-19.984-3.251-16.49-9.223-32.114-15.211-51.617,11.76-9.823,23.5-23.59,37.362-30.089,13.331-6.251,28.859-4.987,42.738-6.936,0-8.043.6-10.449-.086-11.757-27.731-52.477-22.024-68.6,26.5-85.911,25.708-9.165,49.575-27.075,75.418-35.113,23.681-7.359,49.191-4.6,73.372-10.066C355.8,1.2,426.931,7.2,497.962,6.888c4.217-.015,8.306-4.493,12.647-5.37,14.56-2.962,27.638-3.9,34.11,19.721,2.224,8.125,12.756,18.039,19.293,17.814a265.262,265.262,0,0,0,61.212-9.717c22.424-6.2,29.621-.755,29.634,29.639q.005,61.181-1.225,122.356c-.429,22.485,6.472,33.439,25.042,36.629,27.35,4.692,54.411,12.536,81.361,20.346,12.072,3.5,19.652,12.058,19.03,31.238C777.8,308.46,778.688,347.487,778.688,387.841Z" transform="translate(-341.428 1148.574) rotate(-109)"/></g></svg>