<svg xmlns="http://www.w3.org/2000/svg" xmlns:xlink="http://www.w3.org/1999/xlink" width="372" height="1176" viewBox="0 0 372 1176"><defs><style>.a{fill:#fff;stroke:#707070;}.b{clip-path:url(#a);}.c{fill:#faf7fd;}</style><clipPath id="a"><rect class="a" width="372" height="1176" transform="translate(-7 360)"/></clipPath></defs><g class="b" transform="translate(7 -360)"><path class="c" d="M1332.846,663.851l-69.429,23.554-10.052-54.221c-27.418,4.647-55.365,9.387-85.009,14.417,3.37,12.363,3.771,15.263,4.213,15.272,73.015,2.067,54.368,75.214,60.136,127.552,2.866,26.114.023,53.423-1.4,80.088-2.247,41.8-25.428,63.19-58.817,57.542-9.683-1.638-20.327.221-29.848,3.59-18.944,6.693-37.184,21.281-56.1,22.415-51.673,3.084-79.059,32.409-76.447,95.663C900,1077.3,792.656,1104.36,685.255,1130.986c-29.721,7.357-61.592,24.842-88.969,17.271-36.677-10.128-73.024-27.833-109.034-41.572-62.692-23.891-127.81-31.443-190.09-57.255-50.892-21.1-105.177-45.192-161.937-17.261-30.783,15.148-51.051-1.871-64-41.953-11.278-34.9-42.5-58.9-35.332-104.42.436-2.784-3.258-7.579-2.406-9.164,22.76-42.276,2.951-79.018-8.916-116.9-9.506-30.333-18.818-60.311,9.9-84.5,3.347-2.825,1.846-18.119.068-26.787-2.273-11.035-7.858-20.9-10.747-31.81C14.762,582.449-4.978,544.212,1.163,514.892c4.962-23.622,42.317-35.152,63.52-55.07,7.233-6.785,14.348-24.427,12.416-34.206-5.564-28.225-15.786-54.968-26.036-88.35,20.13-16.814,40.227-40.377,63.951-51.5,22.819-10.7,49.4-8.536,73.153-11.872,0-13.767,1.032-17.886-.147-20.124-47.466-89.823-37.7-117.423,45.357-147.05,44-15.688,84.856-46.342,129.09-60.1,40.534-12.6,84.2-7.873,125.587-17.23C609.014,2.058,730.76,12.317,852.34,11.79c7.218-.025,14.218-7.69,21.648-9.192,24.921-5.07,47.306-6.674,58.384,33.756,3.807,13.907,21.834,30.877,33.024,30.491,35.055-1.2,70.432-7.155,104.773-16.633,38.381-10.61,50.7-1.293,50.724,50.733q.009,104.721-2.1,209.432c-.734,38.487,11.078,57.236,42.863,62.7,46.814,8.032,93.133,21.458,139.263,34.825,20.663,5.989,33.637,20.64,32.573,53.469C1331.319,527.978,1332.846,594.778,1332.846,663.851Z" transform="translate(-579.425 1709.768) rotate(-109)"/></g></svg>