<svg xmlns="http://www.w3.org/2000/svg" xmlns:xlink="http://www.w3.org/1999/xlink" width="444" height="1421" viewBox="0 0 444 1421"><defs><style>.a{fill:#fff;stroke:#707070;}.b{clip-path:url(#a);}.c{fill:#f1fdfc;}</style><clipPath id="a"><rect class="a" width="444" height="1421" transform="translate(1356 3736)"/></clipPath></defs><g class="b" transform="translate(-1356 -3736)"><path class="c" d="M1745.627,869.445l-90.932,30.849-13.164-71.013c-35.91,6.086-72.511,12.294-111.337,18.882,4.414,16.192,4.939,19.99,5.518,20,95.627,2.707,71.206,98.508,78.76,167.055,3.754,34.2.031,69.968-1.834,104.892-2.943,54.749-33.3,82.76-77.033,75.363-12.682-2.145-26.623.29-39.092,4.7-24.812,8.766-48.7,27.872-73.48,29.356-67.676,4.04-103.544,42.446-100.122,125.289-144.184,36.117-284.77,71.557-425.432,106.428-38.926,9.635-80.667,32.535-116.523,22.62-48.036-13.265-95.639-36.453-142.8-54.446-82.107-31.289-167.393-41.181-248.96-74.986-66.653-27.632-137.751-59.188-212.088-22.606-40.316,19.84-66.862-2.45-83.814-54.946-14.771-45.715-55.659-77.139-46.275-136.758.572-3.646-4.267-9.927-3.151-12,29.808-55.369,3.866-103.49-11.678-153.109C19.736,955.288,7.54,916.026,45.157,884.345c4.383-3.7,2.417-23.73.089-35.084C42.269,834.809,34.955,821.89,31.17,807.6,19.334,762.833-6.52,712.754,1.524,674.353c6.5-30.938,55.423-46.039,83.193-72.125,9.473-8.886,18.791-31.992,16.262-44.8-7.287-36.966-20.676-71.992-34.1-115.712,26.364-22.021,52.685-52.882,83.756-67.452,29.886-14.012,64.7-11.18,95.809-15.549,0-18.03,1.352-23.425-.193-26.356-62.166-117.641-49.372-153.788,59.4-192.591,57.632-20.546,111.136-60.694,169.069-78.715C527.812,44.556,585,50.743,639.207,38.487,797.625,2.7,957.075,16.132,1116.308,15.441c9.453-.033,18.621-10.071,28.353-12.039,32.639-6.64,61.957-8.741,76.466,44.211,4.985,18.214,28.6,40.44,43.251,39.934,45.912-1.568,92.245-9.37,137.222-21.784,50.268-13.9,66.4-1.693,66.433,66.444q.012,137.153-2.746,274.293c-.961,50.407,14.508,74.961,56.138,82.113,61.312,10.519,121.976,28.1,182.392,45.611,27.063,7.843,44.054,27.032,42.66,70.028C1743.626,691.492,1745.627,778.98,1745.627,869.445Z" transform="translate(1389.444 3697.941)"/></g></svg>