<svg xmlns="http://www.w3.org/2000/svg" xmlns:xlink="http://www.w3.org/1999/xlink" width="339" height="1552" viewBox="0 0 339 1552"><defs><style>.a{fill:#fff;stroke:#707070;}.b{clip-path:url(#a);}.c{fill:#faf7fd;}</style><clipPath id="a"><rect class="a" width="339" height="1552" transform="translate(0 2972)"/></clipPath></defs><g class="b" transform="translate(0 -2972)"><path class="c" d="M1596.039,794.94,1512.9,823.145l-12.036-64.927c-32.833,5.564-66.3,11.24-101.8,17.264,4.036,14.8,4.516,18.277,5.045,18.288,87.433,2.475,65.1,90.067,72.01,152.74,3.432,31.27.028,63.972-1.677,95.9-2.69,50.057-30.449,75.668-70.432,68.9-11.6-1.961-24.341.265-35.742,4.3-22.685,8.015-44.527,25.484-67.184,26.841-61.877,3.693-94.671,38.809-91.543,114.553-131.829,33.022-260.367,65.425-388.976,97.308-35.59,8.809-73.755,29.747-106.538,20.682-43.919-12.128-87.443-33.329-130.565-49.781-75.072-28.608-153.049-37.652-227.626-68.561-60.941-25.265-125.947-54.116-193.914-20.669-36.861,18.139-61.132-2.24-76.632-50.238-13.505-41.8-50.889-70.529-42.309-125.039.523-3.333-3.9-9.076-2.881-10.974,27.254-50.624,3.534-94.621-10.677-139.988-11.383-36.323-22.533-72.22,11.86-101.187,4.007-3.383,2.21-21.7.081-32.077-2.722-13.214-9.41-25.026-12.87-38.092C17.677,697.464-5.961,651.676,1.393,616.566c5.942-28.287,50.674-42.094,76.064-65.944,8.661-8.124,17.181-29.251,14.868-40.961-6.663-33.8-18.9-65.823-31.177-105.8,24.1-20.134,48.17-48.35,76.579-61.672,27.325-12.811,59.151-10.222,87.6-14.217,0-16.485,1.236-21.418-.177-24.1-56.839-107.56-45.141-140.61,54.314-176.087,52.693-18.786,101.612-55.493,154.581-71.97,48.538-15.083,100.825-9.427,150.387-20.632C729.275,2.464,875.061,14.75,1020.649,14.118c8.643-.03,17.025-9.208,25.923-11.007,29.842-6.071,56.648-7.992,69.913,40.422,4.558,16.653,26.145,36.974,39.545,36.512,41.977-1.434,84.34-8.567,125.463-19.917,45.96-12.706,60.712-1.548,60.74,60.751q.011,125.4-2.51,250.788c-.879,46.087,13.265,68.538,51.327,75.077,56.058,9.618,111.523,25.7,166.762,41.7,24.744,7.171,40.279,24.715,39,64.027C1594.21,632.236,1596.039,712.228,1596.039,794.94Z" transform="translate(-1038.392 4498.539) rotate(-90)"/></g></svg>