<svg xmlns="http://www.w3.org/2000/svg" width="80.219" height="20.912" viewBox="0 0 80.219 20.912"><defs><style>.a{fill:#01e5d4;}</style></defs><path class="a" d="M-2920.551,1069.194c-2.249-.808-2.224-2.4-7.848-2.01-.93.9-2.462,1.014-9.163.621-.563-.778-1.119-1.578-1.734-2.373a1.238,1.238,0,0,0-.791-.564c-4.167-.96-4.031-2.327-3.923-3.667.158-1.946.248-1.945,2-6.025-.453-1.005,1.813-1.432,4.179-1.654,9.992-.939,20.09-1.779,30.11-2.693,2.944-.269,5.759-.663,8.636-1a10.4,10.4,0,0,1,1.629-.166c5.785.341,11.1-.547,16.784-.553,2.725,0,3.691.247,4.153.984.674,1.076,4.192,1.793,7.708,1.564a20.1,20.1,0,0,0,3.314-.838c.615.617,1.674,1.195,1.674,1.773a22.055,22.055,0,0,1-.756,4.865c-.053.232-.69.536-1.363.658-3.785.688-4.43,1.734-3.717,2.888.626,1.014.132,1.665-3.62,2.075-5.493.6-10.793,1.37-16.03,2.154-1.086.163-2.049.687-2.173,1.071-.263.82.249,1.661.063,2.486a1.946,1.946,0,0,1-1.6,1.188c-2.058.122-4.323-.038-6.489-.123-.467-.018-1.054-.315-1.262-.285-4.826.7-7.381-.786-11.121-.979a66.351,66.351,0,0,0-7.653.489C-2919.868,1069.1-2920.174,1069.151-2920.551,1069.194Z" transform="translate(2944.047 -1049.112)"/></svg>