<svg xmlns="http://www.w3.org/2000/svg" width="108.667" height="22.254" viewBox="0 0 108.667 22.254"><defs><style>.a{fill:#01e5d4;}</style></defs><path class="a" d="M-2703.758,1027.552c1.665.906,4.42.681,7.482.436a24.787,24.787,0,0,1,4.427.125c3.312.424,6.42.939,10.547,1.559a25.286,25.286,0,0,0,3.277-2.95c.857-1.166.92-1.211,5.94-.924,6.526.373,13.037.772,19.632,1.056,2.4.1,5.023-.145,7.538-.135a11.143,11.143,0,0,1,3.43.579c1.95-.116,4.037-.164,5.8-.37a8.508,8.508,0,0,0,3.051-.781,17.112,17.112,0,0,0,2.743-2.885c1.116-1.409-4.9-1.072-4.022-11.609-3.824-2.215-10.234-.672-15.638-.624-7.588.068-15.17.229-22.757.238-3.438,0-7.5.751-6.4-.238,1.436-1.289,2.245-3.05-2.544-3.505a12.762,12.762,0,0,0-1.555-.1c-6.66.225-7.851,3.535-14.537,3.608-4.795.053-13.459-2.821-11.158-1.278-6.2,0-11.749.064-17.257-.019a39.089,39.089,0,0,0-11.042,1.452c-1.819.433-1.711,1.471-1.5,2.223.406,1.476.667,4.04,1.5,5.509.406.711.33,4.526,3.965,4.47,1.075-.017,3.965-1.156,4.273-.815.83.918,1.919-.928,2.6,0a4.015,4.015,0,0,0,2.311.815c6.124.171,6.078,1.2,6.016,2.271a9.782,9.782,0,0,0,.038,2.52c.041.2.993.554,1.568.559,2.343.02,4.726-.141,7.051-.1,3.25.059,3.311-.536,4.208-.988A8.168,8.168,0,0,1-2703.758,1027.552Z" transform="translate(2738.415 -1007.419)"/></svg>