<?xml version="1.0" encoding="utf-8"?>
<!-- Generator: Adobe Illustrator 23.0.6, SVG Export Plug-In . SVG Version: 6.00 Build 0)  -->
<svg version="1.1" id="Warstwa_1" xmlns="http://www.w3.org/2000/svg" xmlns:xlink="http://www.w3.org/1999/xlink" x="0px" y="0px"
	 viewBox="0 0 26.5 26.5" style="enable-background:new 0 0 26.5 26.5;" xml:space="preserve">
<title>automotive</title>
<desc>Created with Sketch.</desc>
<g id="Design">
	<g id="Desktop-Home" transform="translate(-825.000000, -3429.000000)">
		<g id="Group-7" transform="translate(375.000000, 3415.000000)">
			<g id="Group-14" transform="translate(436.000000, 0.000000)">
				<g id="Group-30">
					<g id="automotive" transform="translate(15.000000, 15.000000)">
						<g id="Combined-Shape">
							<path d="M12.3-0.7c7.2,0,13,5.8,13,13s-5.8,13-13,13s-13-5.8-13-13S5.1-0.7,12.3-0.7z M12.2,2.5c-5.4,0-9.7,4.4-9.7,9.7
								S6.9,22,12.2,22s9.7-4.4,9.7-9.7S17.6,2.5,12.2,2.5z"/>
						</g>
						<g id="Shape">
							<path d="M12.3-0.7c-7.2,0-13,5.8-13,13s5.8,13,13,13s13-5.8,13-13S19.4-0.7,12.3-0.7z M12.3,24.4C5.6,24.4,0.1,19,0.1,12.3
								S5.6,0.1,12.3,0.1s12.2,5.5,12.2,12.2S19,24.4,12.3,24.4z"/>
							<path d="M12.3,25.5C5,25.5-1,19.6-1,12.3S5-1,12.3-1s13.3,6,13.3,13.3S19.6,25.5,12.3,25.5z M12.3-0.5
								c-7,0-12.7,5.7-12.7,12.7c0,7,5.7,12.7,12.7,12.7c7,0,12.7-5.7,12.7-12.7C25,5.3,19.3-0.5,12.3-0.5z M12.3,24.7
								c-6.9,0-12.4-5.6-12.4-12.4c0-6.9,5.6-12.4,12.4-12.4c6.9,0,12.4,5.6,12.4,12.4C24.7,19.1,19.1,24.7,12.3,24.7z M12.3,0.4
								C5.7,0.4,0.4,5.7,0.4,12.3c0,6.6,5.3,11.9,11.9,11.9c6.6,0,11.9-5.3,11.9-11.9C24.2,5.7,18.8,0.4,12.3,0.4z"/>
						</g>
						<g id="Path">
							<path d="M12.3,1.8C6.5,1.8,1.8,6.5,1.8,12.3s4.7,10.5,10.5,10.5c2.6,0,5-0.9,6.9-2.6l-0.6-0.6c-1.8,1.6-4,2.4-6.4,2.4
								c-5.3,0-9.6-4.3-9.6-9.6S7,2.6,12.3,2.6s9.6,4.3,9.6,9.6c0,2.4-0.9,4.7-2.5,6.4l0.6,0.6c1.7-1.9,2.7-4.4,2.7-7
								C22.8,6.5,18.1,1.8,12.3,1.8z"/>
							<path d="M12.3,23C6.3,23,1.5,18.2,1.5,12.3c0-5.9,4.8-10.8,10.8-10.8C18.2,1.5,23,6.3,23,12.3c0,2.7-1,5.2-2.7,7.2l-0.2,0.2
								l-1-0.9l0.2-0.2c1.5-1.7,2.4-3.9,2.4-6.2c0-5.2-4.2-9.4-9.4-9.4s-9.4,4.2-9.4,9.4s4.2,9.4,9.4,9.4c2.3,0,4.5-0.8,6.2-2.3
								l0.2-0.2l0.9,1l-0.2,0.2C17.4,22.1,14.9,23,12.3,23z M12.3,2.1C6.6,2.1,2.1,6.6,2.1,12.3c0,5.6,4.6,10.2,10.2,10.2
								c2.4,0,4.7-0.8,6.5-2.4l-0.2-0.2c-1.8,1.5-4,2.3-6.4,2.3c-5.5,0-9.9-4.4-9.9-9.9s4.4-9.9,9.9-9.9s9.9,4.4,9.9,9.9
								c0,2.4-0.8,4.6-2.3,6.4l0.2,0.2c1.6-1.8,2.4-4.2,2.4-6.6C22.5,6.6,17.9,2.1,12.3,2.1z"/>
						</g>
						<g>
							<path d="M19,12.3h0.8c0-1.2-0.3-2.4-0.8-3.4l1.1-0.6l-0.4-0.7l-1.1,0.6C18,7.3,17.3,6.6,16.4,6L17,4.9l-0.7-0.4l-0.6,1.1
								c-0.9-0.5-1.9-0.7-3-0.8V3.5h-0.8v1.3C11,4.8,10.1,5,9.3,5.4L8.6,4.3L7.2,5.1l0.6,1.2C7,6.8,6.4,7.5,6,8.2L4.9,7.6L4.4,8.3
								l1.1,0.6c-0.5,1-0.8,2.2-0.8,3.4h0.8c0-2.1,1-4,2.6-5.3l2.2,4.5c0,0.1-0.1,0.2-0.1,0.2c-0.1,0.5-0.1,1.1,0.2,1.6
								c0.3,0.5,0.7,0.8,1.3,1l1.6,3.2l3-1.7l-2-3c0.1-0.5,0.1-1.1-0.2-1.6c-0.3-0.5-0.7-0.8-1.3-1c-0.1,0-0.2,0-0.3,0L9.8,6.1
								c0.8-0.3,1.6-0.5,2.5-0.5C16,5.6,19,8.6,19,12.3z M13.8,13.7l1.2,1.8l-1.4,0.8l-1-2c0.2,0,0.4-0.1,0.6-0.2
								C13.5,14,13.7,13.9,13.8,13.7z M12.3,11.1c0.4,0,0.9,0.2,1.1,0.6c0.2,0.3,0.2,0.6,0.1,1c-0.1,0.3-0.3,0.6-0.6,0.8
								c-0.6,0.3-1.4,0.1-1.7-0.5c-0.2-0.3-0.2-0.6-0.1-1c0.1-0.3,0.3-0.6,0.6-0.8C11.8,11.1,12.1,11.1,12.3,11.1z M11.6,10.3
								c-0.1,0-0.3,0.1-0.4,0.2c-0.1,0.1-0.2,0.2-0.3,0.2L8.3,5.4l0,0L11.6,10.3z"/>
						</g>
					</g>
				</g>
			</g>
		</g>
	</g>
</g>
</svg>
