<?xml version="1.0" encoding="utf-8"?>
<!-- Generator: Adobe Illustrator 22.1.0, SVG Export Plug-In . SVG Version: 6.00 Build 0)  -->
<svg version="1.1" id="Warstwa_1" xmlns="http://www.w3.org/2000/svg" xmlns:xlink="http://www.w3.org/1999/xlink" x="0px" y="0px"
	 viewBox="0 0 17 16" style="enable-background:new 0 0 17 16;" xml:space="preserve">
<title>Comment</title>
<desc>Created with Sketch.</desc>
<g id="Design">
	<g id="Desktop-Home" transform="translate(-1500.000000, -1865.000000)">
		<g id="featured" transform="translate(376.000000, 1419.000000)">
			<g id="Group-9" transform="translate(409.000000, 86.000000)">
				<g id="data-czas-kom" transform="translate(408.000000, 357.000000)">
					<g id="Group-6">
						<g id="Comment-2" transform="translate(308.000000, 4.000000)">
							<g id="Comment">
								<path d="M11.5,15c-0.2,0-0.4-0.1-0.6-0.3l-3.4-2.7H1.1C0,12.1-1,11.1-1,9.9V1.1C-1,0,0-1,1.1-1h12.8C15-1,16,0,16,1.1v8.8
									c0,1.1-1,2.1-2.1,2.1h-1.6v2.2c0,0.3-0.2,0.6-0.5,0.7l-0.1,0L11.5,15z M1.1,0.5c-0.3,0-0.6,0.3-0.6,0.6v8.8
									c0,0.3,0.3,0.6,0.6,0.6l6.6,0c0.3,0,0.7,0.1,0.9,0.3l2.1,1.7v-1.2c0-0.4,0.3-0.8,0.8-0.8h2.4c0.3,0,0.6-0.3,0.6-0.6V1.1
									c0-0.3-0.3-0.6-0.6-0.6H1.1z"/>
							</g>
						</g>
					</g>
				</g>
			</g>
		</g>
	</g>
</g>
</svg>
