<?xml version="1.0" encoding="utf-8"?>
<!-- Generator: Adobe Illustrator 23.0.6, SVG Export Plug-In . SVG Version: 6.00 Build 0)  -->
<svg version="1.1" id="Warstwa_1" xmlns="http://www.w3.org/2000/svg" xmlns:xlink="http://www.w3.org/1999/xlink" x="0px" y="0px"
	 viewBox="0 0 27.1 25" style="enable-background:new 0 0 27.1 25;" xml:space="preserve">
<style type="text/css">
	.st0{fill-rule:evenodd;clip-rule:evenodd;}
</style>
<title>finances</title>
<desc>Created with Sketch.</desc>
<g id="Design">
	<g id="Desktop-Home" transform="translate(-1272.000000, -3430.000000)">
		<g id="Group-7" transform="translate(375.000000, 3415.000000)">
			<g id="Group-10">
				<g id="Group-14" transform="translate(882.000000, 0.000000)">
					<g id="Group-30">
						<g id="finances" transform="translate(16.000000, 16.000000)">
							<g id="Stroke-336">
								<path d="M21.8,21H20v-1.1h1.8V21z M18.3,21h-1.8v-1.1h1.8V21z M14.7,21h-1.8v-1.1h1.8V21z M11.2,21H9.4v-1.1h1.8V21z
									 M7.6,21H5.8v-1.1h1.8V21z M4,21H2.2v-1.1H4V21z M21.8,7.1H20V6h1.8V7.1z M18.3,7.1h-1.8V6h1.8V7.1z M14.7,7.1h-1.8V6h1.8
									V7.1z M11.2,7.1H9.4V6h1.8V7.1z M7.6,7.1H5.8V6h1.8V7.1z M4,7.1H2.2V6H4V7.1z"/>
							</g>
							<g id="Stroke-338">
								<path d="M22.2,24H-1V2.9h23.2c1.6,0,2.8,1.3,2.8,2.8v6.2h-1.5V5.7c0-0.7-0.6-1.3-1.3-1.3H0.5v18.1h21.7
									c0.7,0,1.3-0.6,1.3-1.3v-4.1h1.5v4.1C25.1,22.8,23.8,24,22.2,24z"/>
							</g>
							<g id="Stroke-339">
								<path d="M24.9,16.1H17v-5.3h7.9c0.6,0,1.2,0.5,1.2,1.2v2.9C26.1,15.6,25.6,16.1,24.9,16.1z M18.1,15h6.9c0,0,0.1,0,0.1-0.1
									V12c0,0,0-0.1-0.1-0.1h-6.9V15z"/>
							</g>
							<g id="Fill-337">
								<path class="st0" d="M21.2,13.5c0,0.4-0.4,0.8-0.8,0.8c-0.4,0-0.8-0.4-0.8-0.8c0-0.4,0.4-0.8,0.8-0.8
									C20.8,12.7,21.2,13,21.2,13.5"/>
							</g>
							<g id="Stroke-340">
								<path d="M0.3,4.2h-1.1V1.4C-0.8,0.1,0.3-1,1.6-1h21.4v3.1h-1.1V0.1H1.6c-0.7,0-1.3,0.6-1.3,1.3V4.2z M20.5,2.1H1.7V1.1h18.8
									V2.1z"/>
							</g>
						</g>
					</g>
				</g>
			</g>
		</g>
	</g>
</g>
</svg>
