<?xml version="1.0" encoding="utf-8"?>
<!-- Generator: Adobe Illustrator 22.1.0, SVG Export Plug-In . SVG Version: 6.00 Build 0)  -->
<svg version="1.1" id="Warstwa_1" xmlns="http://www.w3.org/2000/svg" xmlns:xlink="http://www.w3.org/1999/xlink" x="0px" y="0px"
	 viewBox="0 0 16 16" style="enable-background:new 0 0 16 16;" xml:space="preserve">
<title>Shape</title>
<desc>Created with Sketch.</desc>
<g id="Design">
	<g id="Desktop-Home" transform="translate(-831.000000, -72.000000)">
		<g id="Group-11" transform="translate(635.000000, 68.000000)">
			<g id="Group">
				<path id="Shape" d="M207.4,14.1h-0.7l-0.3-0.3c0.9-1,1.5-2.4,1.5-3.8c0-3.3-2.7-5.9-5.9-5.9S196,6.7,196,9.9s2.7,5.9,5.9,5.9
					c1.5,0,2.8-0.5,3.8-1.5l0.3,0.3v0.7l4.6,4.6l1.4-1.4L207.4,14.1L207.4,14.1z M201.9,14.1c-2.3,0-4.1-1.8-4.1-4.1
					s1.8-4.1,4.1-4.1c2.3,0,4.1,1.8,4.1,4.1S204.2,14.1,201.9,14.1L201.9,14.1z"/>
			</g>
		</g>
	</g>
</g>
</svg>
