<?xml version="1.0" encoding="utf-8"?>
<!-- Generator: Adobe Illustrator 23.0.6, SVG Export Plug-In . SVG Version: 6.00 Build 0)  -->
<svg version="1.1" id="Warstwa_1" xmlns="http://www.w3.org/2000/svg" xmlns:xlink="http://www.w3.org/1999/xlink" x="0px" y="0px"
	 viewBox="0 0 26.5 26.5" style="enable-background:new 0 0 26.5 26.5;" xml:space="preserve">
<title>photography</title>
<desc>Created with Sketch.</desc>
<g id="Design">
	<g id="Desktop-Home" transform="translate(-389.000000, -3429.000000)">
		<g id="Group-7" transform="translate(375.000000, 3415.000000)">
			<g id="Group-10">
				<g id="Group-14">
					<g id="Group-30">
						<g id="Group-13" transform="translate(15.000000, 15.000000)">
							<g id="photography">
								<path d="M24,6.6C22,2.6,18-0.3,13.3-0.7c0,0-0.1,0-0.1,0c-0.3,0-0.6,0-1,0C7.9-0.8,4,1.4,1.6,4.8c0,0-0.1,0.1-0.1,0.1
									C0.1,7-0.8,9.5-0.8,12.2c0,2,0.4,3.8,1.2,5.5c0,0,0,0.1,0,0.1c1.9,4.1,6,7,10.7,7.3c0,0,0,0,0.1,0c0,0,0,0,0,0
									c0.3,0,0.6,0,1,0c4.4,0,8.3-2.2,10.6-5.6c0,0,0.1-0.1,0.1-0.1c1.4-2.1,2.3-4.6,2.3-7.3C25.2,10.3,24.8,8.4,24,6.6
									C24,6.7,24,6.7,24,6.6z M13.5,0.4c3.9,0.4,7.2,2.7,9.1,6h-7.3h-0.8h-4.4L13.5,0.4z M17.8,12.2L15,17.1h-5H9.5l-2.8-4.8
									l2.8-4.8h5H15L17.8,12.2z M12.2,0.3c0,0,0.1,0,0.1,0L8.7,6.6h0l-2.6,4.6l-3.5-6C4.8,2.2,8.3,0.3,12.2,0.3z M0.3,12.2
									C0.3,10,0.9,8,2,6.2l3.6,6.3l2.6,4.6H1.3C0.7,15.6,0.3,14,0.3,12.2z M11,24.1c-3.9-0.4-7.2-2.7-9.1-6h7.3H10h4.4L11,24.1z
									 M12.2,24.2c0,0-0.1,0-0.1,0l4.1-7c0,0,0,0,0,0l2.2-3.8l3.5,6C19.7,22.3,16.2,24.2,12.2,24.2z M22.5,18.3l-4.1-7
									c0,0,0,0,0,0l-2.2-3.8h6.9c0.7,1.5,1,3.1,1,4.8C24.2,14.5,23.6,16.5,22.5,18.3z"/>
								<path d="M12.2,25.5c-0.3,0-0.6,0-1,0l0,0c0,0-0.1,0-0.1,0C6.5,25.1,2.3,22.2,0.3,18c0,0,0-0.1,0-0.1
									C-0.6,16.1-1,14.2-1,12.2C-1,9.6-0.2,7,1.3,4.8c0,0,0.1-0.1,0.1-0.2C3.9,1.1,7.9-1,12.2-1c0.3,0,0.7,0,1,0c0,0,0.1,0,0.2,0
									c4.6,0.4,8.8,3.3,10.8,7.5c0,0,0,0.1,0,0.1c0.8,1.8,1.3,3.6,1.3,5.6c0,2.7-0.8,5.2-2.3,7.4c0,0-0.1,0.1-0.1,0.2
									C20.6,23.4,16.6,25.5,12.2,25.5z M11.2,24.9L11.2,24.9c0.4,0,0.7,0.1,1,0.1c4.1,0,8-2,10.4-5.4c0-0.1,0.1-0.1,0.1-0.1
									c1.5-2.2,2.2-4.6,2.2-7.2c0-1.9-0.4-3.7-1.2-5.4l0-0.1c-2-4.1-5.9-6.8-10.4-7.2c-0.1,0-0.1,0-0.1,0c-0.3,0-0.7,0-1,0
									c-4.1,0-8,2-10.4,5.4C1.8,5,1.7,5,1.7,5c-1.5,2.2-2.2,4.6-2.2,7.2c0,1.9,0.4,3.7,1.2,5.4l-0.2,0.2l0.2-0.1
									C2.7,21.8,6.7,24.6,11.2,24.9L11.2,24.9z M12.2,24.4l-0.5,0l0.2-0.4l6.5-11.3l3.8,6.5l-0.1,0.1
									C19.8,22.6,16.1,24.4,12.2,24.4z M18.4,13.8l-5.8,10.1c3.5-0.1,6.9-1.8,9-4.7L18.4,13.8z M11.1,24.4l-0.2,0
									c-3.9-0.4-7.3-2.7-9.3-6.1l-0.2-0.4h13.4L11.1,24.4z M2.3,18.4c1.9,3,5,5,8.5,5.5l3.2-5.5H2.3z M22.5,18.8L15.8,7.2h7.5
									l0.1,0.1c0.7,1.6,1,3.2,1,4.9c0,2.2-0.6,4.3-1.7,6.2L22.5,18.8z M16.7,7.7l5.8,10.1c0.9-1.7,1.4-3.6,1.4-5.5
									c0-1.6-0.3-3.1-0.9-4.6H16.7z M15.2,17.3H9.3l-2.9-5.1l2.9-5.1h5.9l2.9,5.1L15.2,17.3z M9.6,16.8h5.3l2.6-4.6l-2.6-4.6H9.6
									L7,12.2L9.6,16.8z M8.7,17.3H1.2l-0.1-0.1c-0.7-1.6-1-3.2-1-4.9c0-2.2,0.6-4.3,1.7-6.2L2,5.7L8.7,17.3z M1.5,16.8h6.3L2,6.7
									C1,8.4,0.6,10.3,0.6,12.2C0.6,13.8,0.9,15.4,1.5,16.8z M6.1,11.7L2.3,5.2l0.1-0.1c2.3-3.1,6-5,9.8-5l0.5,0l-0.2,0.4
									L6.1,11.7z M2.9,5.2l3.2,5.5l5.8-10.1C8.4,0.7,5.1,2.4,2.9,5.2z M23.1,6.6H9.6l3.8-6.5l0.2,0c3.9,0.4,7.3,2.7,9.3,6.1
									L23.1,6.6z M10.5,6.1h11.7c-1.9-3-5-5-8.5-5.5L10.5,6.1z"/>
							</g>
						</g>
					</g>
				</g>
			</g>
		</g>
	</g>
</g>
</svg>
