<svg data-name="illustration dla biznesu" xmlns="http://www.w3.org/2000/svg" width="270.495" height="352.844"><path data-name="Path 1243" d="M206.469 280.217l.485.702-.43.284.477.908a.879.879 0 00.114-.095c-.279-.823.425-.843.851-1.072a3.518 3.518 0 01.694-.234.555.555 0 01.734.478.936.936 0 00.152.322 3.361 3.361 0 01.416.56c.237.568.604.781 1.133.556.685 1.144 1.355 2.26 2.02 3.378a2.942 2.942 0 01.511.942c.062.441.059.903.088 1.351.05.776.25 1.528.282 2.305a2.84 2.84 0 00.51 1.864c.257.29.193.57-.099.839-.253.236-.332.66-.749.72-.03.006-.056.062-.073.056-.456-.12-.69.215-.968.467-.221.2-.441.398-.765.153-.038-.029-.164.036-.23.084-.085.06-.148.154-.23.22-.257.208-.505.548-.782.57-.223.019-.473-.36-.729-.539a.381.381 0 00-.347-.032 7.074 7.074 0 00-.652.567 4.013 4.013 0 01-.703-.554 3.778 3.778 0 01-.403-.779c-.118.043-.157.044-.172.063-.579.812-.855.789-1.448-.048-.31-.442-.74-.803-1.038-1.256-.274-.417-.41-.916-.659-1.35a25.649 25.649 0 01-1.634-4.02c-.03-.08-.124-.134-.167-.213-.146-.266-.25-.508.053-.759a.521.521 0 00.127-.464 6.921 6.921 0 00-.57-1.119c-.25-.395-.216-.56.231-.722q.9-.328 1.807-.632c.334-.111.447-.302.364-.675-.122-.548-.19-1.11-.268-1.666a.431.431 0 01.327-.531c.579-.188 1.147-.414 1.74-.63z" fill="#01e5d4"/><path data-name="Path 1312" d="M254.577 295.717l.502.298-.779.353.402.442c.175-.087.217-.105.217-.107-.132-.458.99-.738 1.751-1.054.38-.158.79-.287 1.187-.422.623-.21.99-.185.977.052a.193.193 0 00.119.163c.14.08.397.113.456.222.161.3.655.309 1.58-.043.654.524 1.292 1.035 1.925 1.549.175.141.504.242.453.45a6.944 6.944 0 01-.369.885c-.213.512-.18.95-.422 1.47-.199.425-.434.886.105 1.082.292.107.087.322-.478.617a6.454 6.454 0 01-1.464.778c-.041.015-.105.06-.13.064a5 5 0 00-1.704.682 2.374 2.374 0 01-1.271.395 1.729 1.729 0 00-.396.144c-.158.073-.291.16-.446.236a9.426 9.426 0 01-1.451.684c-.36.097-.614-.07-.955-.092a1.5 1.5 0 00-.536.111c-.404.184-.777.39-1.251.634a4.478 4.478 0 01-.904-.114c-.208-.081-.235-.255-.338-.383-.204.074-.267.09-.297.108-1.222.774-1.652.862-2.276.51-.33-.185-.874-.27-1.175-.467-.279-.18-.304-.472-.535-.675a4.6 4.6 0 01-1.064-2.127c-.016-.044-.145-.045-.185-.083-.13-.125-.2-.255.37-.539.196-.098.407-.3.377-.366a1.462 1.462 0 00-.478-.55c-.243-.178-.132-.304.638-.584q1.548-.563 3.1-1.114c.57-.206.822-.375.832-.599a5.05 5.05 0 01.205-1.039c.042-.158.23-.317.718-.487.983-.343 1.97-.712 2.99-1.084z" fill="#01e5d4"/><path data-name="Path 1313" d="M225.81 335.551l.028-.583.677.522.201-.563c-.158-.113-.195-.142-.196-.14-.342.33-1.116-.529-1.752-1.052-.319-.26-.625-.562-.93-.85-.479-.45-.629-.787-.413-.886a.193.193 0 00.088-.182c.004-.162-.087-.404-.018-.507.188-.283-.035-.724-.78-1.376.156-.822.307-1.625.464-2.425.043-.221-.023-.56.185-.612a6.944 6.944 0 01.954-.09c.553-.052.923-.287 1.497-.317.468-.024.986-.033.906-.601-.043-.308.243-.228.769.132a6.454 6.454 0 011.374.928c.032.03.102.064.117.084a5 5 0 001.403 1.185 2.374 2.374 0 01.945.937 1.729 1.729 0 00.313.282c.139.105.278.182.418.282a9.426 9.426 0 011.285.961c.254.272.227.574.367.886a1.5 1.5 0 00.35.421c.352.27.709.504 1.147.807a4.478 4.478 0 01.324.851c.026.223-.115.329-.18.48.161.145.204.193.235.21 1.257.717 1.537 1.055 1.518 1.771-.008.378.173.898.14 1.257-.028.33-.274.49-.345.788a4.6 4.6 0 01-1.378 1.94c-.032.034.028.149.013.201-.049.174-.132.296-.649-.073-.18-.128-.456-.22-.5-.161a1.462 1.462 0 00-.262.68c-.043.298-.206.259-.815-.29q-1.224-1.102-2.439-2.214c-.45-.405-.717-.549-.92-.453a5.05 5.05 0 01-1.013.307c-.16.037-.388-.055-.767-.405-.764-.707-1.554-1.405-2.36-2.132z" fill="#01e5d4"/><path data-name="Path 1127" d="M204.416 124.98c.005-.081.081-.157.125-.238a14.144 14.144 0 00.994-1.843c.46-1.227.8-2.492 1.233-3.729.637-1.827 1.384-3.616 1.951-5.464a34.784 34.784 0 00.843-4.037c.568-3.189 1.07-6.388 1.676-9.566a61.578 61.578 0 00.654-10.5c.032-2.016-.227-4.037-.33-6.059-.027-.551-.189-1.3.611-1.394 2.924-.357 5.859-.643 8.788-.957a20.651 20.651 0 016.7.254 21.63 21.63 0 013.345 1.1c.27.108.47.584.546.93.238 1.081.438 2.178.589 3.281.086.605.054 1.232.081 1.849.022.557.043 1.113.076 1.67.076 1.562.157 3.119.238 4.756-.491.038-.957.108-1.416.1a9.581 9.581 0 00-4.394.87 4.912 4.912 0 00-1.395 1.151c-.13.151.114.584.043.859-.059.254-.276.638-.465.665-.714.1-.876.584-.886 1.13-.038 2.13-.07 4.264-.038 6.394a12.36 12.36 0 00.314 2.519c.978 4.486 3.816 6 9.026 5.761 2.67-.124 5.356-.022 8.042-.022.13 1.173.33 2.367.373 3.567.092 2.567 1.249 3.973 3.465 3.859 1.692-.087 3.313-1.135 2.708-3.292a.7.7 0 010-.432 3.282 3.282 0 00-.249-2.789c-.119-.27-.205-.551-.308-.822 1.589-.535 3.07-1.032 4.545-1.535 3.821-1.308 5.961-4.334 5.378-8.275a38.2 38.2 0 01-.567-4.189c-.124-3.643-1.713-5.351-5.345-5.481-.649-.021-.833-.254-.892-.881-.2-2.032-.481-4.054-.719-6.08-.405-3.356-.816-6.718-1.205-10.08a18.34 18.34 0 00-2.481-7.81c-.416-.659-.8-1.3-1.692-.849a2.3 2.3 0 01-.173-.2.559.559 0 01-.1-.26c.011-1.3-.908-1.865-1.865-2.4a1.178 1.178 0 01-.232-.162c-1.8-1.848-4.21-2.535-6.524-3.373a10.468 10.468 0 00-3.124-.632 90.31 90.31 0 00-11.155-.232c-4.281.34-8.583.465-12.869.724a.835.835 0 01-1.021-.692 13.425 13.425 0 00-.622-2.405c-.94-1.962-2-3.864-3.016-5.794-.935-1.773-1.838-3.562-2.816-5.307-.357-.627-.951-1.108-1.346-1.719-.481-.746-.87-1.551-1.405-2.519.827-.454 1.811-1 2.805-1.551 2.384 5.145 4.021 7.534 5.21 7.848-.2-1.183-.416-2.437-.633-3.7.108-.027.216-.049.324-.076a34.544 34.544 0 001.67 5.972c.1-.032.2-.07.3-.1-.081-.227-.157-.454-.248-.708.632.168 1.194.362 1.773.47a2.114 2.114 0 002.637-2.627 4.115 4.115 0 00-.416-1.243c-1.292-2.292-2.546-4.61-3.951-6.832-.784-1.238-1.892-2.259-2.74-3.459a2.894 2.894 0 01-.33-1.659c.005-.151.665-.308 1.038-.405.622-.162 1.254-.276 1.881-.411-.006-.06-.016-.114-.022-.168l-1.578-.405c.022-.1.043-.2.07-.3a6.637 6.637 0 00.9.178c.989.054 2.124.4 2.935.038a17.21 17.21 0 003.67-2.557 2.092 2.092 0 00.632-1.437 3.317 3.317 0 00-3.967-3.221 19.255 19.255 0 00-8.129 3.616c.135.265.254.492.286.562-1.2-.373-2.464-.767-3.859-1.205a25.491 25.491 0 00-4.832-9.15c-.205.276-.346.459-.524.692-.341-.994-.232-2.178-1.513-2.5-.421-.108-.843-.243-1.27-.319a3.692 3.692 0 00-2.47 1.119 3.28 3.28 0 00-.3 2.637 33.033 33.033 0 001.746 3.827 18.144 18.144 0 004.918 5.691c-1.086.816-1.822 2.059-3.329 2.259-.859-.9-1.7-1.816-2.594-2.686-.319-.308-.811-.449-1.129-.757-1.054-1.016-2.011-2.135-3.1-3.1-1.021-.908-2.189-1.659-3.264-2.513-1.805-1.438-3.535-2.973-5.41-4.318a41.981 41.981 0 00-3.789-2.075 7.434 7.434 0 01-1.578-.849c-1.259-1.616-3.178-2.178-4.794-3.167-2.335-1.432-4.854-2.556-7.3-3.8-.276-.14-.589-.205-.876-.33a40.71 40.71 0 01-1.778-.805c-.616-.3-1.195-.681-1.822-.94a240.847 240.847 0 00-5.3-2.124c-1.405-.551-2.832-1.043-4.232-1.605-2.01-.816-4.221-.648-6.264-1.654a25.281 25.281 0 00-6.573-1.773c-3.61-.676-7.248-1.227-10.885-1.719a66.969 66.969 0 00-7.837-.692c-1.913-.027-3.762-.649-5.745-.243-1.567.319-3.264-.076-4.9-.005-2.962.119-5.929.292-8.88.546-1.692.146-3.367.513-5.053.757-1.373.195-2.772.259-4.124.568-2.621.589-5.227 1.27-7.821 1.989-2.384.659-4.745 1.405-7.1 2.146q-2.538.794-5.032 1.681a15.984 15.984 0 00-1.411.8c-1.94.913-3.918 1.735-5.821 2.724-2.232 1.157-4.41 2.416-6.583 3.686-1.238.719-2.422 1.529-3.611 2.324-.411.27-.751.632-1.162.9-1.113.74-2.308 1.373-3.362 2.189-1.395 1.081-2.7 2.275-4.01 3.459-2.086 1.886-4.194 3.756-6.2 5.724-1.546 1.508-2.984 3.135-4.416 4.756-.989 1.119-1.875 2.329-2.832 3.481-1.448 1.751-3.059 3.389-4.351 5.253-1.616 2.329-2.994 4.832-4.453 7.269a39.812 39.812 0 00-2.156 3.826c-1.373 3.032-2.659 6.1-3.94 9.177-.935 2.248-1.946 4.481-2.659 6.8a84.936 84.936 0 00-2.108 8.507 68.591 68.591 0 00-1.481 12.2c-.054 3.313-.178 6.631-.038 9.939a73.619 73.619 0 00.892 7.837c.313 2.1.757 4.178 1.248 6.242.459 1.94 1.032 3.854 1.611 5.767.238.795.67 1.535.935 2.33a10.169 10.169 0 00.605 2.232c.789 1.254.805 2.821 1.935 3.983.713.735.849 2.027 1.254 3.059.5 1.265.962 2.546 1.546 3.773.551 1.167 1.238 2.275 1.87 3.405a1.341 1.341 0 00.3.3c.178.146.443.243.546.427.724 1.34 1.313 2.773 2.146 4.037 1.6 2.427 3.307 4.783 5.026 7.129.789 1.081 1.708 2.065 2.562 3.1 1.741 2.092 3.459 4.2 5.238 6.259.378.432 1.021.621 1.475 1.005.9.746 1.767 1.535 2.616 2.335a8.83 8.83 0 01.8 1.027 18.415 18.415 0 001.773 2.238c1.546 1.443 3.173 2.8 4.794 4.162a32.234 32.234 0 002.746 2.119c.47.313 1.194.286 1.616.638 1.049.881 1.7 2.227 3.135 2.676.06.016.146.076.146.108-.124.865.687.919 1.13 1.243.849.611 2.07.665 2.6 1.762.043.081.205.108.416.216l-.249-.659a2.892 2.892 0 01.443.265 12.534 12.534 0 001.773 1.778c.978.654 2.113 1.059 3.119 1.676.838.508 1.546 1.221 2.383 1.735 1.194.746 2.465 1.367 3.675 2.092.724.427 1.362 1.011 2.1 1.411 1.692.924 3.437 1.751 5.135 2.675 1.416.773 2.762 1.686 4.194 2.438 1.875.994 3.8 1.9 5.713 2.832q3.332 1.629 6.675 3.248c3.719 1.805 7.561 3.394 11.117 5.47a15.791 15.791 0 017.588 11.377c.189 1.032.465 2.048.676 3.075.173.832.638 1.778.405 2.486a10.783 10.783 0 00-.346 4.627c.205 1.892.005 2.416-1.627 3.351-.805.459-.859.946-.195 1.557.346.319.67.665 1 1a8.87 8.87 0 004.772 2.627 17.633 17.633 0 012.621.935 3.766 3.766 0 01-.076.254c-.7-.475-1.411-.827-2.194-.211a.412.412 0 01-.357.076 19.547 19.547 0 01-3.448-1.513 32.977 32.977 0 01-3.373-2.983 4842.228 4842.228 0 01-3.616 3.962 2.13 2.13 0 00-.2.319 7.07 7.07 0 00-.2 7.107 10.344 10.344 0 002.816 3.891c.708.53 1.151 1.416 2.07 1.767.162.059.232.357.346.546-.054.076-.1.146-.151.222a4.914 4.914 0 01-1.5-.443 8.247 8.247 0 01-1.275-1.562c-.27.422-.448.757-.676 1.049a7.458 7.458 0 00-1.081 7.734c2.156 5.448 6.313 8.507 11.982 9.637a1.993 1.993 0 01.876.281c1.594 1.33 3.529 2.162 5.043 3.627a1.768 1.768 0 002.935-.167c.157-.26.254-.605.481-.757.968-.659 2-1.211 2.946-1.9.535-.395.849-1.108 1.405-1.459 1.362-.854 2.8-1.605 4.227-2.357 1-.524 2.043-.967 3.059-1.459a1.842 1.842 0 00.589-.443c.508-.616.983-1.254 1.47-1.881.194-.249.394-.487.686-.843h-1.395c1.643-1.665 2.962-3.432 5.118-4.464.368.346.789.757 1.232 1.146s.946.7 1.357 1.119c.994 1 .913 1.789-.281 2.513-.762.454-1.6.795-2.383 1.216-1.1.589-2.216 1.146-3.254 1.821-1.448.946-2.827 2-4.248 2.983a29.531 29.531 0 00-2.594 1.713c-1.816 1.567-3.6 3.173-5.3 4.87-1.113 1.113-2.038 2.422-3.064 3.637a5.245 5.245 0 01-.849.849c-.492.368-.768.319-1.108-.346a16.871 16.871 0 00-2.335-3.692c-2.908-3.216-6.783-5.2-10.372-7.5-3.367-2.151-6.659-4.4-9.966-6.632-.665-.448-1.319-.913-2.156-1.492.881-.93 1.67-1.784 2.48-2.616.411-.422.876-.795 1.27-1.232a.6.6 0 00.054-.573.563.563 0 00-.551-.1c-1.962 1.281-3.891 2.6-4.956 5 1.508 1.173 3.054 2.373 4.6 3.578a18.584 18.584 0 00-1.043 3.016c-.356 2.146-.54 4.318-.773 6.486-.038.351.146.73.092 1.076-.211 1.378-.53 2.74-.713 4.118-.422 3.21-.8 6.432-1.173 9.653-.173 1.486-.276 2.978-.443 4.464-.3 2.675-.659 5.345-.935 8.021-.232 2.265-.47 4.529-.524 6.8-.043 1.794.173 3.6.3 5.394.081 1.14.805 2.838 2.221 2.924a27.357 27.357 0 003.189.146 5.905 5.905 0 002.827-.492 5.848 5.848 0 011.351-.395 3.733 3.733 0 01.124.681c.032 1.265-.054 2.54.081 3.789.271 2.513.654 5.01 1.006 7.507.038.292.232.573.243.865a28.523 28.523 0 00.173 4.416 16 16 0 001.594 4.254 6.659 6.659 0 001.962 1.984 8.787 8.787 0 002.827 1.7 32.541 32.541 0 005.729.924 25.857 25.857 0 004.615-.135 6.2 6.2 0 002.265-.735c.875-.481 1.589-1.481 2.708-.465a.78.78 0 00.449.108c1.837.108 3.675.265 5.513.3a18.56 18.56 0 007.945-1.427 5.9 5.9 0 003.556-3.243c.043-.114.092-.27.178-.313 1.324-.605 1.313-1.951 1.384-3.016.151-2.167-.016-4.356-.054-6.529-.005-.427.362-1.027-.346-1.135-.152-.022-.406.686-.616 1.054a1.9 1.9 0 01-.119.195l-.195-.016v-14.42c.146.346.232.535.313.73.779 1.859.552 4.151 2.41 5.556.195.146.2.519.341.762.416.708.757 1.513 1.805 1.427a5.473 5.473 0 01.73 0 3.049 3.049 0 002.275-2.081 6.966 6.966 0 01-2.178 1.027c-.7.054-1.719.081-2-.924 1.427-.189 2.832-.254 4.178-.573 2.1-.5 3.681-2.481 3.427-4.351-.243-1.784-.74-3.535-1.146-5.291-.227-.994-.589-1.967-.74-2.973-.292-1.919-.443-3.859-.719-5.778-.352-2.405-.7-4.821-1.173-7.2-.459-2.292-1.059-4.545-1.621-6.815q-1.159-4.678-2.357-9.35c-.313-1.205-.676-2.4-1.016-3.594-.5-1.762-.935-3.546-1.519-5.28-.794-2.362-.849-2.351 1.075-3.891.313-.249.627-.5.962-.73.454-.313.546-.7.178-1.1-1.94-2.108-3.475-4.7-6.518-5.524.432-.67.848-1.324 1.275-1.967.443-.676 1.216-1.1.648-2.243a7.568 7.568 0 01-.211-2.956 4.67 4.67 0 00-1.719-3.427 20.45 20.45 0 00-2.141-1.5 10.378 10.378 0 001.124-.589c.254-.184.616-.443.632-.692.054-.805.443-1.232 1.016-1.308-.049-1.422-.07-2.762-.151-4.1-.043-.757-.578-.908-1.443-.319a2.789 2.789 0 00-1.729-2.486 17.488 17.488 0 00-2.34-.962c-.562-.173-.832-.362-.832-1.016 0-1.011-.141-2.027-.227-3.043-.07-.865-.119-1.73-.227-2.589-.076-.584-.238-1.151-.362-1.729.092-.022.178-.043.27-.07.06.135.179.27.179.4a6.759 6.759 0 001.124 3.583 2.261 2.261 0 00.535.465 2.6 2.6 0 00.281-.778 1.461 1.461 0 00-.227-.708 9.388 9.388 0 01-.789-5.124c-1.21-.124-.637 1.189-1.3 1.562a36.368 36.368 0 01.038-4.14c.162-1.465.6-2.9.892-4.356a36.482 36.482 0 013.881-10.609 45.26 45.26 0 013.681-5.34 59 59 0 018.961-8.88c2.816-2.394 5.81-4.589 8.74-6.853 1.87-1.448 3.816-2.8 5.626-4.318 1.621-1.351 3.1-2.865 4.653-4.3a3.772 3.772 0 01.546-.357 13 13 0 001.691-1.129c1.043-.968 2.021-2.011 3.027-3.027a78.93 78.93 0 001.367-1.4c1.308-1.378 2.643-2.74 3.908-4.162.681-.762 1.211-1.665 1.875-2.443 1.7-1.994 3.513-3.9 5.151-5.951 1.622-2.021 3.092-4.156 4.6-6.264.746-1.043 1.448-2.119 2.157-3.189.692-1.048 1.34-2.119 2.048-3.156.676-.989 1.016-2.146 1.708-3.151a23.471 23.471 0 001.9-3.94c.47-1.065.848-2.173 1.308-3.238.758-1.768 1.974-3.341 2.131-5.341zm40.033-7.313c-.152-.054-.254-.54-.189-.778.189-.73.476-1.432.757-2.259.07.038.319.086.368.211a23.937 23.937 0 01.795 2.34 1.183 1.183 0 01-.2.762 5.033 5.033 0 01-1.531-.275zm4.032-12.852c.319.022.643.038 1 .065-.022.054.011 0 .022-.059.07-.335.135-.67.2-1.005.092.27.211.541.276.822a1.8 1.8 0 01.081.822.609.609 0 01-.535.27 7.682 7.682 0 01-1.06-.681l.015-.236zm-.854-28.456c.692.822.3 1.584-.135 2.616l-.557-2.432c.237-.059.464-.124.691-.184zm-4.4 28.677c.162-.049.313-.589.259-.859-.146-.681-.038-.962.633-.746-.038.514-.07.968-.114 1.524.7-.07 1.292-.124 1.816-.173a15.051 15.051 0 01.346-2.254c.032-.119.789-.016 1.259.173-.319.087-.638.173-1.243.341.643.2 1.048.33 1.665.524a5.79 5.79 0 01-.265 1.827c-.476.967-.989.9-1.53-.157-.767 0-1.578-.027-2.384.011-.4.016-.929-.081-.951.616-.006.086-.308.254-.444.227a45.033 45.033 0 01-2.507-.605c-.087-.021-.141-.173-.281-.362.443-.108.794-.189 1.135-.27-.26-.367-.535-.74-.8-1.108.962-.243 1.194-.049 1.395 1.157.076-.005.151-.016.221-.027-.043-.395-.092-.789-.146-1.243.638-.216 1.216-.254 1.221.714.002.523.229.826.71.691zm-.87-13.09c.049.935.1 1.875.162 2.924-.87-.038-1.573-.07-2.384-.108-.038-.74-.076-1.443-.114-2.14 1.573-.605.659-2.086 1.1-3.075h.378c-.049.849-.119 1.692-.135 2.535a3.436 3.436 0 00.33.908c.227-.562.33-.816.438-1.065.068.006.144.011.219.022zm-1.183-9.1c.081-.016.3.362.34.584.232 1.092.373 2.21.649 3.292.249.962-.4 1.221-1.113 1.594a6.683 6.683 0 00-.3-.621c-.13-.216.081-.843-.552-.486a1.933 1.933 0 01-.205-.459 26.48 26.48 0 01-.281-1.951c-.043-.384-.3-.821.3-1.113.135-.07.065-.73-.032-1.086-.319-1.162-.692-2.3-1.048-3.454l.308-.113c.357.946.74 1.881 1.06 2.843.159.467-.002 1.12.868.969zm-2.129-7.026c.4.578.886 1.286 1.373 1.994a5.657 5.657 0 01-.265.222c-.232-.195-.47-.389-.714-.589-.394.146-.794.286-1.194.427.1.173.206.351.308.535-.124-.173-.249-.341-.373-.514.022-.005.043-.016.065-.022-.043-.07-.081-.141-.119-.205s-.076-.135-.114-.195c-.07-.124-.135-.238-.195-.335.395-.433.735-.795 1.222-1.319zm-4.07 29.737a15.041 15.041 0 01-1.984-.611h2.854c.032.108.065.222.092.335-.325.096-.671.323-.968.275zm-3.216-32.877c-.454-.162-.908-.324-1.416-.5l.384-.951a11.4 11.4 0 011.87.735c.281.168.373.649.578 1.049-.049.016-.227.065-.643.178.541.249.914.422 1.584.735-.195-.708-.313-1.135-.454-1.632a6.388 6.388 0 013.032 1.319c.1.076.178.341.125.405-.681.876 0 1.481.384 1.994a3.5 3.5 0 01-1.167-.027 6.022 6.022 0 01-1.405-.843 9.637 9.637 0 00-4.7-1.9 2.148 2.148 0 01-.946-.367c.898-.607 1.795-.002 2.768-.196zm-25.981-28.521l.314 2.016c-.649-.125-.801-.941-.32-2.017zm-5.588-11.685c.189.924.373 1.843.562 2.767-.1.022-.2.038-.3.06-.652-.871-1.214-1.747-.268-2.828zm-96.112 255.66v-5.221c.14.005.281.005.422.011a14.269 14.269 0 01-.428 5.209zm.643 10.193c.578-.151 1.07-.578 1.8.151.481.476 1.5.4 2.27.594a9.1 9.1 0 001.156.346 5.562 5.562 0 003.243-.746c.632-.335.984-.222 1.2.567.27.995.773 1.919 1.1 2.9a1.842 1.842 0 01.1 1.34c-.216.627.2 1.47.33 2.221.032.194 0 .4.016.6.038.34.1.686.173 1.221-3.3 1.427-6.788 2.935-10.512 4.551-.304-4.709-.59-9.195-.882-13.746zm20.906 33.839c-.119.005-.238.016-.357.027a3.8 3.8 0 01-1.027-2.681c-.011-.319.524-.67.811-1.005.189.276.524.546.546.832.059.94.02 1.88.02 2.826zm18.954-8.329a.04.04 0 01.027.005v7.145c-.135 0-.27.005-.405.005q.188-3.579.372-7.156zm.281-58.906a13.64 13.64 0 01.351 1.454c.092.541.265 1.178-.578 1.308-.779.124-1.562.205-2.454.324-.27.562-.492 1.21-.054 1.535a23.06 23.06 0 013.119-.054c.324.038.757.573.848.951.9 3.773 1.746 7.556 2.611 11.334.583 2.567 1.178 5.129 1.762 7.7a6.346 6.346 0 01.076.654c-.579-.324-1.086-.611-1.53-.865-.341 1.011-.654 1.838-.886 2.686a.968.968 0 00.221.757 4.42 4.42 0 00.9.659c1.2-.632.292-2.048 1.216-2.924.292 1.519.589 2.9.811 4.3.465 2.962.859 5.94 1.341 8.9.146.886.513 1.729.73 2.605a18.122 18.122 0 01.6 2.9 3.248 3.248 0 01-3.032 3.416 14.06 14.06 0 01-2.232.065 1.321 1.321 0 01-1.281-1.205c-.341-1.578-.865-3.113-1.319-4.67a8.522 8.522 0 01-.54-1.967 1.81 1.81 0 01.676-1.2 24.309 24.309 0 012.129-1.465c.065.076.124.151.184.222a1.4 1.4 0 00.135-.53c-.076-.443-.205-.87-.313-1.308a5.624 5.624 0 00-1.611.449 14.488 14.488 0 00-1.8 1.659 35.414 35.414 0 01-.519-3.551c-.1-2.227-.032-4.459-.125-6.68-.108-2.773-.3-5.534-.47-8.442a15.415 15.415 0 001.611.395c.275.043.7.027.838-.14a1.444 1.444 0 00.405-1.07c-.081-.265-.594-.47-.951-.573a3.757 3.757 0 00-1.3-.135c-.886.059-1.07-.524-1.249-1.194-.189-.714-.416-1.422-.665-2.119s-.838-.778-1.476-.7c-.681.092-1.373.27-1.486 1.059a11.009 11.009 0 00-.167 3.054c.551 3.583 1.249 7.145 1.865 10.718.422 2.432.935 4.864 1.146 7.318.189 2.184.005 4.4.011 6.6.016 3.74.081 7.475.07 11.21-.011 2.237-.135 4.475-.195 6.707a7.889 7.889 0 01-.054 2.405c-.238.649-.978 1.113-1.513 1.638a4.457 4.457 0 01-.735.454c.227.519.454 1.049.67 1.551.513-.616.918-1.1 1.324-1.584.1.1.189.195.286.286.184 2.8-1.524 3.789-3.967 4.291a51.905 51.905 0 01-7.156.822 6.982 6.982 0 01-4.221-.822c.26-.805.573-1.551.74-2.329.314-1.443.519-2.875-.421-4.232a2.515 2.515 0 00-3.173-1.021 2.986 2.986 0 00-1.935 3.2 7 7 0 001.616 4.161 4.892 4.892 0 01.454.784 10.224 10.224 0 01-5.21 1.021c-1.583-.178-3.189-.184-4.767-.373a7.018 7.018 0 01-4.016-1.524v-.022a.069.069 0 00-.032-.005 7.681 7.681 0 01-3.14-5.7c-.492-4.859-.913-9.729-1.373-14.652a22.52 22.52 0 003.075-.816c1.794-.751 3.832-.838 5.443-2.119a6.621 6.621 0 012.156-.87 3.419 3.419 0 001.957-2.135.9.9 0 00-.022-.627 8.5 8.5 0 01-.427-4.437 1.354 1.354 0 00-.011-.643 94.004 94.004 0 00-1.113-3.178c-.227-.605.032-.919.513-1.227.227-.146.546-.594.481-.692-.173-.27-.557-.648-.789-.605-1.6.281-3.173.692-4.772.984a5.917 5.917 0 01-2.448.146c-1.124-.286-2.475-.173-3.27-1.356-.065-.1-.448.016-.681.027-.578.032-.773-.157-.632-.784a52.069 52.069 0 001.281-6.394c.135-1.356.4-2.708.443-4.064a8.637 8.637 0 00-.573-3.281 2.287 2.287 0 00-3.4-.973c-.757.476-.751 1.259-.8 1.951a97.91 97.91 0 00-.259 5.783c-.027 1.783.043 3.567.081 5.345.005.465.043.93.07 1.411-.908-.092-1.724-.157-2.535-.265a.788.788 0 01-.557-.259c-.211-.416-.476-.643-.859-.3a2.437 2.437 0 00-.73 1.022c-.173.611.395.535.773.654 1.108.357 2.205.757 3.4 1.173l.443-1.184a6.433 6.433 0 01.373 3.394c-.162 1.929-.292 3.864-.335 5.8a19.378 19.378 0 00.292 3.054c.227 1.594-.465 2.448-2.076 2.454-.94.005-1.881.011-2.821-.016a1.39 1.39 0 01-1.395-1.394c.038-2.865-.016-5.729.151-8.577.151-2.557.541-5.1.838-7.653.21-1.789.438-3.578.681-5.551.362.6.638 1.054 1.075 1.783.9-.989 1.692-1.865 2.573-2.838-.157-.519-.238-1.265-.9-1.319-.881.859-1.605 1.562-2.33 2.265-.119-.07-.232-.135-.351-.2 1.005-8.345 2.01-16.69 3.037-25.24.822.6 1.567 1.189 2.351 1.713 1.8 1.211 3.637 2.373 5.442 3.578 2.135 1.422 4.281 2.832 6.383 4.307a16.583 16.583 0 015.162 6.745 12.4 12.4 0 001.416 1.865 7.427 7.427 0 00.086 1.173 4.9 4.9 0 00.5 1.616c.578.951-.47 1.654-.265 2.513.211.913-.362 1.929.367 2.773a.225.225 0 01.022.211c-.411.649-.87 1.281-.038 1.957.038.032-.016.173-.027.265-.324 2.124-.676 4.243-.951 6.372a12.724 12.724 0 00.081 2.07c-.324-.211-.611-.405-.9-.589-.6-.378-.892-.227-1.011.5a15.461 15.461 0 01-.54 1.859l-.341.065c.384.443.773.886 1.216 1.4.552-1.07.984-1.9 1.416-2.735.086.011.178.027.27.038.065 1.162.086 2.324.205 3.481q.187 1.8.535 3.578c.34 1.7.735 3.383 1.146 5.064.054.216.33.373.508.557.189-.2.546-.395.546-.594a33.1 33.1 0 00-.157-3.513c-.119-1.162-.395-2.3-.53-3.454-.108-.892-.092-1.794-.146-2.686-.059-1.119-.205-2.232-.184-3.346a40.291 40.291 0 01.3-4.189c.157-1.259.573-2.5.638-3.756.06-1.178-.243-2.373-.281-3.562a7.622 7.622 0 01.227-2.405c.395-1.335-.021-2.546-.216-3.821-.259-1.7-.373-3.383 1.071-4.816 1.81-1.805 3.3-3.945 5.215-5.621a72.772 72.772 0 016.859-4.978c1.416-.967 2.913-1.821 4.394-2.692.746-.432 1.541-.784 2.389-1.216.327 1.176.661 2.349.989 3.527zm-3.005 20.387c-.065.011-.13.016-.194.022-.146-1.216-.3-2.438-.443-3.659.1 0 .194 0 .292-.005.106 1.214.225 2.43.339 3.637zm76.888-212.454l.049.319a4.374 4.374 0 01-3.729.373 11.142 11.142 0 00-2.967.011c-.4.016-.794.076-1.189.114-.011-.108-.016-.216-.021-.324q3.915-.254 7.85-.494zm-8.107 15.809c.141-.005.281-.005.422-.011a21.707 21.707 0 01-.422 5.286zm-15-56.55a4.229 4.229 0 012.486 2.389l-2.7-2.14a2.74 2.74 0 01.209-.25zm-8.891.524c.951.886 1.9 1.773 2.848 2.659-1.486-.281-2.1-1.573-3.059-2.454.066-.071.136-.139.206-.206zm-3.4-3.108c.114.059.222.119.33.178a1.3 1.3 0 01.189.113 1.906 1.906 0 01.189.124c.07.049.141.1.205.157a.97.97 0 01.162.141.741.741 0 01.092.092 1.926 1.926 0 01.141.157 2.7 2.7 0 01.173.243 2.566 2.566 0 01.173.319c.216.476.8.778 1.221 1.157-.076.086-.157.173-.238.259-1.1-1.092-2.211-2.184-3.313-3.275.213.109.445.221.666.334zm-6.837-5.324a35.107 35.107 0 013.081 2.054c.519.427 1.011.9 1.492 1.378.119.119.243.238.362.362.357.362.713.73 1.075 1.081.033.016.06.038.092.054l.054.054c-.027-.011-.048-.027-.076-.038a.907.907 0 01-.07-.07c-.108-.065-.216-.124-.324-.184-.184-.1-.362-.205-.541-.314-.1-.07-.2-.135-.3-.211-1.843-1.443-3.665-2.908-5.5-4.367-.606-.481-1.211-.951-1.822-1.427l2.467 1.626zm-5.189-3.589a3.266 3.266 0 01.341.157c.065.032.13.065.189.1a6.135 6.135 0 01.643.411c.038.027.081.054.119.086s.076.059.114.092c.087.07.178.141.265.216a5.248 5.248 0 01.416.367c.146.13.287.265.432.405h.027c.032.027.07.054.1.081a1.265 1.265 0 01-.114-.07h-.006l-.01-.011c-.076-.005-.162 0-.243 0a.4.4 0 01-.249-.054 30.318 30.318 0 01-2.367-1.9 3.179 3.179 0 01.334.12zM139.53 6.071c.011.011.027.022.038.032a.005.005 0 01.005.005c.005 0 .011.005.016.011.33.1.659.195.989.286 1.075.319 2.151.632 3.2 1 2.195.768 4.367 1.611 6.551 2.405a10.23 10.23 0 012.075.892 8.635 8.635 0 01-1.135-.249c-2.643-.957-5.275-1.946-7.918-2.908-1.108-.405-2.238-.751-3.351-1.14a1.635 1.635 0 01-.416-.286c-.027-.011-.06-.016-.086-.027l-.092-.032a.889.889 0 01.115.011zm-.135-.016h.005a.005.005 0 01-.005.005zm-3.232-.892l3.21.892c-.405-.043-.805-.065-1.2-.141-.7-.146-1.389-.34-2.081-.514.019-.08.041-.161.067-.237zm-6.372-1.627l5.113 1.3a3.49 3.49 0 00-.06.249l-5.108-1.329c.013-.074.03-.15.046-.22zM33.679 28.527l.227.211q-1.638 1.719-3.275 3.432a5.706 5.706 0 01-.195-.189zm-3.74 3.978c.065.054.125.114.189.168-.989 1.108-1.973 2.221-2.962 3.335-.07-.054-.146-.108-.216-.162q1.482-1.671 2.98-3.34zM19.41 45.379q1.549-2.173 3.129-4.329c.081-.108.254-.146.389-.216q1.192-1.613 2.384-3.216l.308.249c-.892.994-1.789 1.983-2.681 2.978-.973 1.373-1.956 2.746-2.924 4.129-.611.87-1.2 1.751-1.8 2.627-.07-.043-.135-.087-.205-.13.456-.697.905-1.405 1.391-2.091zM4.358 83.585c.5-3.783 4.524-18.846 7.518-23.916-.514 1.357-1.043 2.713-1.535 4.08-.568 1.578-1.168 3.151-1.638 4.762-.724 2.465-1.427 4.945-1.989 7.453-.692 3.113-1.4 6.237-1.8 9.393a42.473 42.473 0 00-.578 10.08c.141 1.222-.13 2.492-.06 3.729.13 2.21.384 4.416.562 6.621.065.805.065 1.611.076 2.416 0 .076-.151.151-.384.373a94.191 94.191 0 01-.181-24.99zm2.135 32.7c-.086.027-.167.049-.249.076-.162-.551-.346-1.092-.481-1.643a129.282 129.282 0 01-.746-3.189c-.081-.357-.124-.719-.194-1.135.629.291 1.845 4.798 1.661 5.89zm.7 3.292a7.322 7.322 0 01-.362-.022c-.1-.654-.189-1.313-.286-1.967.1-.011.189-.027.286-.038a2.751 2.751 0 01.355 2.026zm7.432 17.2c-.838-1.481-1.681-2.956-2.654-4.664.351.151.659.178.746.33.757 1.367 1.47 2.756 2.2 4.14zm4.248 7.561c-.341-.584-.681-1.173-1.021-1.757l.4-.194c.319.589.632 1.178.946 1.767-.116.067-.224.127-.332.186zm4.978 6.815a23.284 23.284 0 01-3.973-5.713c.07-.038.146-.076.222-.108q1.986 2.829 3.983 5.659c-.083.056-.164.11-.239.164zm96.609 88.762c-.465.416-.713.659-.989.87a.655.655 0 01-.438.141 468.641 468.641 0 01-5.588-.735c-.076-.011-.14-.114-.335-.276zm2.265 27.089c-.476.341-1.07 1.027-1.416.919a11.974 11.974 0 01-2.508-1.459c2.065-.3 3.9-.557 5.81-.832-.661.481-1.272.936-1.893 1.374zm12.269-11.431c-.2.189-.362.459-.6.562a22.849 22.849 0 01-2.805 1.076 6.675 6.675 0 01-1.837.108c-1.156-.005-2.313-.076-3.47-.054-2.249.032-4.5.146-6.745.168a11.65 11.65 0 01-6.643-1.681 7.657 7.657 0 01-.686-.5 2.737 2.737 0 01-.287-.367c.8-.519 1.421-.092 2.049.059.567-.054 1.135-.157 1.7-.157.713.005 1.421.086 2.135.151 2.211.2 4.427.378 6.632.648.454.06.865.481 1.3.74.032-.049.07-.092.1-.141-.1-.13-.2-.259-.46-.589l4.654.67c-.06-.189-.113-.346-.243-.735.611.276 1.043.476 1.3.594 1.324-.335 2.513-.632 3.7-.93.064.131.134.255.199.38zm65.965-124.8a6.287 6.287 0 01-1.286 2.4c-.081.114-.162.362-.108.411.632.605-.152.865-.319 1.27.027-.243.049-.492.076-.751-.141 0-.238-.022-.249 0-1.114 2.021-2.151 4.086-3.346 6.064-1.384 2.292-2.9 4.513-4.367 6.756-1.162 1.778-2.324 3.556-3.513 5.313a20.416 20.416 0 01-1.308 1.589c-.8.946-1.583 1.9-2.394 2.832-1.07 1.216-2.162 2.416-3.238 3.627-.794.9-1.529 1.854-2.383 2.686-1.281 1.249-2.648 2.411-3.962 3.621-.475.443-.875.967-1.362 1.394-1.713 1.5-3.54 2.892-5.14 4.5-1.135 1.141-2.832 1.481-3.757 2.827-.681 1-1.875 1.481-2.562 2.276-1.378 1.6-3.384 2.254-4.767 3.789a31.488 31.488 0 01-2.945 2.216c-2.173 1.886-4.292 3.837-6.415 5.778a43.142 43.142 0 00-4.318 4.108c-1.735 2.086-3.227 4.372-4.789 6.6a23.824 23.824 0 00-1.859 2.994 39.427 39.427 0 00-1.9 4.362 30.509 30.509 0 00-1.719 8.512c-.049.805-.216 1.594-.324 2.394-.016.092-.076.216-.038.276.595.919.141 1.978.405 2.924.1.351.438.627.654.951a1.216 1.216 0 01.232.5c.216 2.016.422 4.037.649 6.226-5.886-.195-11.815-.384-17.841-.578-1.146-9.469-2.3-19.046-3.459-28.618l-.357-.049a3.322 3.322 0 00-.346 1.178q1.508 13.279 3.086 26.559c.038.341.108.67.189 1.157-2.308.276-4.562.551-6.972.843.156-1.773.362-3.34.427-4.918.2-4.756.027-9.48-2.2-13.831a15.857 15.857 0 00-6.3-6.7c-2.437-1.394-4.891-2.767-7.421-3.978-3.178-1.519-6.458-2.827-9.658-4.3-2.378-1.1-4.718-2.286-7.048-3.481-2.573-1.313-5.113-2.691-7.669-4.026-1.1-.578-2.227-1.1-3.3-1.708-.427-.238-.7-.746-1.119-.989-1.346-.762-2.735-1.454-4.1-2.178a4.659 4.659 0 01-.535-.384c-1.335-.978-2.621-2.032-4.015-2.924a119.49 119.49 0 01-14.4-11.047 118.267 118.267 0 01-12.285-12.561 131.636 131.636 0 01-10.026-13.5 97.635 97.635 0 01-5.14-9.172c-1.811-3.637-3.524-7.34-5.01-11.123a63.751 63.751 0 01-3.632-14.463 70.6 70.6 0 01-.622-8.815c-.059-3.843-.022-7.7.238-11.528a52.936 52.936 0 011.259-7.54c.919-4.21 1.854-8.426 3.005-12.577a75.142 75.142 0 012.746-7.286 79.3 79.3 0 016.464-12.5c1.113-1.811 2.421-3.508 3.691-5.216 1.3-1.756 2.6-3.524 4.027-5.183 1.838-2.135 3.778-4.189 5.7-6.248A91.675 91.675 0 0145.09 19.957c2.119-1.54 4.405-2.854 6.615-4.27a81.919 81.919 0 0112.566-6.248 88.364 88.364 0 018.469-3.065c2.924-.9 5.918-1.616 8.9-2.319a60.245 60.245 0 0110.588-1.632c4.562-.243 9.118-.622 13.685-.816a45.739 45.739 0 015.14.33c1.719.124 3.443.205 5.156.395 2.113.232 4.237.459 6.318.865 4.113.8 8.226 1.622 12.3 2.632 3.508.87 6.967 1.935 10.4 3.054a83.327 83.327 0 018.172 3.054c3.183 1.416 6.264 3.059 9.361 4.664q2.878 1.492 5.654 3.162c1.362.822 2.664 1.751 3.951 2.692 2.432 1.767 4.886 3.513 7.231 5.394 2.119 1.708 4.1 3.578 6.135 5.383.719.643 1.416 1.308 2.113 1.956-.87.605-1.654 1.162-2.605 1.827 0-.74.043-1.411-.016-2.075a6.746 6.746 0 00-.432-1.313 2.467 2.467 0 00-.789 2.324c.054.308.157.605.195.913a7.106 7.106 0 01-.043 3.248 2.094 2.094 0 001.632 2.74c1.973.1 3.092 1.33 4.2 2.654.368.438.724.735 1.286.481a3.118 3.118 0 00-.308-.951c-.421-.567-.929-1.065-1.405-1.594l.173-.27a7 7 0 01.757.373c1.092.724 2.156 1.486 3.253 2.189a2.659 2.659 0 002.74.265c.487.751.962 1.486 1.465 2.265.2-.189.373-.357.524-.5-.2-.941-1.281-1.454-1.308-2.416.157-.081.314-.162.476-.243 2.275 3.956 4.556 7.918 6.858 11.917-1.1.395-1.1.368-1.611-.827-.676-1.562-1.362-3.124-2.124-4.648-.524-1.054-1.189-2.043-1.843-3.135-.162.259-.3.476-.416.67a.756.756 0 00.043.205c.962 1.74 1.951 3.464 2.881 5.215.513.962.946 1.967 1.367 2.973a.823.823 0 01-.076.724c-2.864 3.21-3.216 7.172-3.345 11.182a53.986 53.986 0 00.087 5.383 11.264 11.264 0 00.735 2.3c.287.946.508 1.913.811 2.854a15.9 15.9 0 003.178 5.767c1.362 1.508 2.989 2.848 5.286 2.783.141-.005.411.368.416.567.054 2.156.151 4.318.065 6.47-.081 1.924-.367 3.843-.562 5.761-.195 1.859-.357 3.718-.6 5.567a34.426 34.426 0 01-.708 3.789c-.654 2.637-1.3 5.286-2.1 7.88-.686 2.221-1.594 4.383-2.421 6.561-.5 1.313-.989 2.621-1.557 3.9-.284.65-.922 1.173-1.052 1.817z"/><path data-name="Path 1128" d="M263.932 296.705c-3.1-.351-6.037-.767-8.977-.232-3.794.686-6.756 2.448-7.907 6.437a.975.975 0 01-.638.508 26.538 26.538 0 00-10.512 4.81 7.726 7.726 0 00-2.983 4.789c-.114.519-.216 1.038-.373 1.8a33.007 33.007 0 00-9.263-11.46c-2.729-2.216-5.615-4.227-8.42-6.345-1.065-.811-2.1-1.675-3.14-2.508 1.795-3.41 1.119-6.464-1.1-9.2a34.458 34.458 0 00-3.605-3.437c-.427-.395-.908-.73-1.389-1.113.3-.195.519-.346.762-.513-.849-.584-1.259-.481-1.989.492.286.049.546.086.827.13a21.919 21.919 0 00-.135 2.681c.33 4.751 2.692 8.529 6.113 11.588a71.831 71.831 0 007.491 5.518 39.667 39.667 0 019.1 8.129c2.47 3.189 4.713 6.513 5.177 10.691a3.219 3.219 0 00.373 1.259c.994 1.638.832 3.5 1.086 5.28.395 2.778-1.081 5.243-1.249 7.94-3.956-6.907-9.642-9.842-13.825-7.075 2.405 2.746 2.405 2.746 3.227 6.583a6.437 6.437 0 006.848 5.453 20.7 20.7 0 003.259-.713c-.152 2.713-.7 5.567.751 8.248a2.414 2.414 0 00.362-1.146 43.315 43.315 0 012.173-11.566 22.269 22.269 0 00.454-4.87c.011-.173-.238-.362-.357-.557a2.563 2.563 0 01-.481-.843c-.243-1.9-.448-3.794-.643-5.7-.173-1.67-.357-3.346-.438-5.026a2.037 2.037 0 01.465-1.535c1.324-.989 1.254-2.47 1.157-3.708a2.711 2.711 0 01.789-2.216 11 11 0 011.9-1.681 24.565 24.565 0 019.2-3.648 1.975 1.975 0 011.059.211 15.549 15.549 0 007.821 1.167c3.708-.5 7.042-3.308 7.74-6.74a13.65 13.65 0 00.027-2.7c-.086-.011-.167-.016-.254-.027a8.129 8.129 0 01-5.486 8.291c-3.027 1.211-6.037.708-9.118-.557 5.155-1.592 10.527-2.257 14.121-6.889zm-55.6-9.7c.746 1.773 1.5 3.535 2.227 5.3a4.259 4.259 0 01.167.876c-2.437-1.762-5.615-7.8-4.653-11.107 2.854 2.173 5.61 4.345 6.053 8.237a4.029 4.029 0 01-.8 3.156 10.6 10.6 0 00-2.993-6.463zm17.9 45.292a12.806 12.806 0 005.7 4.307c.2.076.395.168.676.286a4.528 4.528 0 01-3.216 1.227c-3.1.07-5.513-2.027-6.269-5.416a18.056 18.056 0 00-.551-2.373c-.416-1.1-.968-2.14-1.492-3.27a4.088 4.088 0 013.086-.005 14.713 14.713 0 013.173 1.573 5.329 5.329 0 011.135 1.524c.124.178.189.4.313.578 1.249 1.724 2.5 3.443 3.832 5.28-.319-.092-.562-.135-.789-.227a12.163 12.163 0 01-5.367-4.124 9.656 9.656 0 00-1.783-1.908 2.608 2.608 0 00-1.708-.3c1.673.322 2.376 1.69 3.257 2.846zm21.754-29.613a6.015 6.015 0 011.919-3.016c2.178-1.984 4.864-2.508 7.675-2.567 1.492-.027 2.989.1 4.648.162-1.804 2.631-11.873 6.403-14.249 5.42z"/><path data-name="Path 1129" d="M198.803 348.029a43.541 43.541 0 01-6.286 1.032c-4.383.108-8.772-.049-13.15-.178-3.313-.1-6.621-.481-9.923-.454a81.02 81.02 0 00-8.464.735c-1.324.157-2.605.616-3.929.822-2.308.357-4.637.627-6.956.924-2.475.319-4.918.994-7.448.805-2.135-.157-4.275-.33-6.4-.605a21.834 21.834 0 01-2.946-.767 9.234 9.234 0 012.827-.762 37.958 37.958 0 006.934-.9c.692-.168 1.038-.335 1.1-1.081.135-1.746-1.54-4.918-3.048-5.643a1.1 1.1 0 00-.27-.065c-1.357-.195-2.589-1.027-4.07-.632-1.167.319-2.405.378-3.583.665a2.542 2.542 0 00-1.1.816c-.7.778-1.362 1.594-1.989 2.427a7.862 7.862 0 00-.627 1.2c-.476.578-.973 1.146-1.4 1.756-.092.13.049.53.206.681a1.706 1.706 0 00.621.27 6.381 6.381 0 00-.719.805.894.894 0 00.433.459c3.389.7 6.621 2.065 10.128 2.232 2.373.113 4.719.53 7.1.049 1.746-.357 3.529-.53 5.291-.789 2.508-.373 5.016-.74 7.518-1.135 2.227-.346 4.443-.794 6.675-1.076a63.124 63.124 0 0112.458.124c3.032.227 6.069.427 9.1.405 2.686-.016 5.378-.292 8.053-.573a10.571 10.571 0 004.735-1.546 2.246 2.246 0 00-.871-.001zm-67.186.984c-1.913-.032-2.616-.881-2.129-2.643.411.13.795.184.627.859-.146.6.789 1.043 1.794.919a2.025 2.025 0 00.292-.087c.229.611.207.962-.587.952z"/><path data-name="Path 1130" d="M122.264 344.418a1.787 1.787 0 00-.654-.459 34.1 34.1 0 00-3.615-.924c-1.67-.265-3.394-.638-4.756.935-.719.832-1.611 1.519-2.357 2.335a17.9 17.9 0 00-1.313 1.854c.265.135.627.3.962.5.26.146.616.276.719.508a2.474 2.474 0 001.858 1.38c2.756.681 5.551.405 8.318.308a7.624 7.624 0 003.075-1.167c.805-.427.849-2.394.227-2.946-.843-.752-1.637-1.557-2.464-2.324zm-7.983 5.448c-1.368.146-2.216-.33-3.01-2.005.487.146.805.146.962.3.962 1.011 1.152 1.076 2.611.67.307.626.194.948-.563 1.035z"/><path data-name="Path 1131" d="M245.992 351.472c-2.587-.186-5.173-.41-7.764-.519-1.958-.083-3.926.071-5.882-.031a11.988 11.988 0 01-6.3-2.42c-1.426-1-2.948-1.41-4.548-.4-1.214.766-2.393 1.589-3.585 2.391a8.559 8.559 0 01-5.931 1.221c-2.107-.228-4.208-.551-6.321-.677a4.968 4.968 0 00-3.789 1.179 19.9 19.9 0 013.305-.357c2.057.134 4.1.524 6.154.663a23.074 23.074 0 004.473-.1c2.273-.293 3.869-1.969 5.7-3.139a3.406 3.406 0 014.156.125 16.808 16.808 0 002.537 1.474 14.794 14.794 0 006.748 1.316c1.111-.007 2.232-.31 3.33-.227 2.883.218 5.754.585 8.633.862a2.279 2.279 0 001.052-.211c.193-.081.305-.35.454-.534a2.27 2.27 0 00-.658-.4 14.257 14.257 0 00-1.764-.216z"/><path data-name="Path 1132" d="M233.791 129.364a2.705 2.705 0 00.778 1.8 4.43 4.43 0 004.356 1.081 2.585 2.585 0 001.356-3.362 4.863 4.863 0 01-.492-1.1c-.173-.541-.286-1.1-.432-1.659l-.73-2.74c-.076-.276-.151-.789-.238-.789a2.4 2.4 0 00-1.281.211 28.486 28.486 0 00-2.264 1.746c-.027.286.114.919-.14 1.184-1 1.066-.93 2.374-.913 3.628zm5.929.438c-.124 1.416-.589 1.729-2.286 1.811.653-.519 1.426-1.133 2.286-1.811zm-3.178-2.632c-.184-.351-.357-.67-.568-1.076.286-.573.573-1.146.886-1.767.773.881.816 1.567.086 2.005.216.346.438.692.654 1.038a2.523 2.523 0 01.324.557c.314 1.119.3 1.124 1.238 1.54a7.549 7.549 0 01-1.61 1.324c-.481.211-1.93-.805-2.016-1.27a2.05 2.05 0 011.006-2.351z"/><path data-name="Path 1133" d="M98.909 349.3c-1.883-.01-3.768-.1-5.646-.03-3.039.117-6.073.479-9.11.488-4.89.014-9.78-.208-14.67-.263-1.638-.018-3.279.166-4.919.258l-.006.439c.29.032.579.088.869.094 2.9.07 5.807.12 8.71.2 2.171.06 4.342.2 6.514.22 1.878.019 3.757-.091 5.637-.119 1.692-.024 3.386.008 5.077-.029.813-.018 1.623-.206 2.433-.2 1.909.015 3.817.117 5.728.141a1.836 1.836 0 001.056-.318c.226-.178.247-.549.359-.834-.319-.034-.637-.09-.957-.1-.358-.002-.717.055-1.075.053z"/><path data-name="Path 1134" d="M270.444 344.553a14.9 14.9 0 01-1.519.316c-2.722.289-5.444.582-8.171.815a55.907 55.907 0 01-5.983.343c-4.127-.091-8.25-.349-12.376-.516a10.5 10.5 0 00-1.511.152c0 .117-.007.235-.01.352.9.121 1.789.286 2.689.356 2.589.2 5.179.385 7.771.523 1.74.092 3.484.12 5.227.121.794 0 1.587-.152 2.384-.2 1.117-.072 2.24-.078 3.354-.18.979-.089 1.946-.32 2.926-.4 1.427-.116 2.863-.136 4.293-.228.845-.058 1.1-.467.926-1.454z"/><path data-name="Path 1135" d="M256.049 96.294l.03-.013v-.009h-.007l-.019.025z"/><path data-name="Path 1136" d="M257.908 103.149c-.113 2.084-.288 4.166-.438 6.248-.048.665.027 1.216 1.1 1.069.072-.916.083-1.871.231-2.8a16.775 16.775 0 00-1.489-10.887c-.308-.578-.646-.786-1.229-.494a3.4 3.4 0 00.214.832 11.21 11.21 0 011.611 6.032z"/><path data-name="Path 1137" d="M238.584 195.578a5.759 5.759 0 00.319-2.05 19.837 19.837 0 01-.258-5.035c.033-.2-.175-.6-.321-.63-.354-.065-.892-.1-1.076.1-.316.35-.682.98-.564 1.34.614 1.863.247 3.73.143 5.584-.053.953-.026 1.18 1.134 1.174.131-.09.55-.232.623-.483z"/><path data-name="Path 1138" d="M95.105 279.238a.814.814 0 00.51-.59c.064-1.754.1-3.511.087-5.266a30.271 30.271 0 01.672-7.8c.041-.159-.129-.371-.2-.559-.17.092-.411.142-.5.285a2.881 2.881 0 00-.437 1.031c-.234 1.7-.524 3.4-.6 5.105-.1 2.382-.025 4.771-.025 7.157l-.38.4c.298.09.61.282.873.237z"/><path data-name="Path 1139" d="M248.129 223.881c-.259 0-.89-.181-1.107.042a1.777 1.777 0 00-.527 1.454c.76 1.831.326 3.719.469 5.572.026.34.128.894.325.959.521.174 1.224.222 1.454-.446a4.406 4.406 0 00.217-1.88c-.211-1.833-.524-3.654-.831-5.701z"/><path data-name="Path 1140" d="M10.705 137.485c-.871-1.347-1.685-2.732-2.519-4.1-.242-.4-.118-1.329-.882-.991-.7.31-.079.966.039 1.465.013.058.07.1.1.158.663 1.18 1.288 2.386 2 3.536.621 1 1.347 1.942 2.019 2.915.774 1.121 1.53 2.254 2.319 3.364a1.132 1.132 0 00.573.346c.05.016.191-.256.267-.362a6.354 6.354 0 00-.449-1.113c-1.142-1.751-2.336-3.466-3.467-5.218z"/><path data-name="Path 1141" d="M248.618 283.1c-.353 0-.843.032-1.029.253a2.117 2.117 0 00-.379 1.214c-.061 1.626.031 3.263-.118 4.878-.08.86-.016 1.163 1.089 1.156.1-.065.527-.183.572-.384a14.656 14.656 0 00.351-2.521c.055-1.241-.018-2.488.032-3.73.018-.461.064-.863-.518-.866z"/><path data-name="Path 1142" d="M246.496 170.602c-.378-.166-.987-.428-1.181-.265a1.944 1.944 0 00-.738 1.365c.183 1.794.627 3.563.782 5.358.078.9.481.906 1.078.77.8-.183.9-.765.9-1.526a11.257 11.257 0 01-.479-1.531c-.195-1.157-.736-2.288-.288-3.508.068-.197.031-.617-.074-.663z"/><path data-name="Path 1143" d="M247.592 147.614c-.1-.347-.135-.873-.36-.98a1.116 1.116 0 00-1.06.181 1.809 1.809 0 00-.336 1.324c.37 1.592.86 3.156 1.305 4.731-.219.506-.408 1.042.37 1.061.61.015 1.274-.1 1.292-.772a10.26 10.26 0 00-.386-2.507c-.236-1.022-.541-2.028-.825-3.038z"/><path data-name="Path 1144" d="M245.391 130.054c-.066-.263-.237-.706-.365-.708a1.822 1.822 0 00-1.145.288c-.588.507-.251 1.034-.045 1.7a47.417 47.417 0 011.03 5.146c.946.275 1.7.114 1.695-.531a13.423 13.423 0 00-.381-2.522 88.09 88.09 0 00-.789-3.373z"/><path data-name="Path 1145" d="M236.382 255.312c-.049-.222-.176-.6-.28-.606-.406-.016-1.01-.052-1.181.182a2 2 0 00-.281 1.4c.294 1.6.8 3.176 1 4.789.084.672.186.907.817.877.785.037 1.222-.33 1.107-1.121-.112-.771-.348-1.524-.512-2.289-.229-1.073-.435-2.156-.67-3.232z"/><path data-name="Path 1146" d="M242.316 195.232a1.265 1.265 0 00-.638.985c.173 1.745.44 3.482.735 5.212a.85.85 0 00.679.463c1.081-.089 1.558-1.037 1.038-2.234a5.871 5.871 0 01-.3-4.467 4.308 4.308 0 00-1.514.041z"/><path data-name="Path 1147" d="M240.069 149.29c1.152-.263 1.361-1.268.535-2.513a5.039 5.039 0 01-.845-3.748c.01.015-.085-.276-.244-.318-.358-.093-.86-.218-1.1-.046-.328.238-.724.8-.644 1.113.45 1.752 1.019 3.476 1.6 5.192a.8.8 0 00.698.32z"/><path data-name="Path 1148" d="M252.977 160.747a.859.859 0 00.449.656c1.037.418 1.849-.421 1.744-1.75-.123-1.557-.238-3.113-.371-4.865a2.628 2.628 0 00-1.158.032c-.674.3-.8.876-.363 1.542a1.106 1.106 0 01.059.646c-.119 1.247-.279 2.49-.36 3.739z"/><path data-name="Path 1149" d="M227.119 59.557c1.342.254 2.7.442 4.046.651l.028-.255c1.9-.109 3.791-.212 5.686-.337.155-.01.415-.152.428-.257.021-.182-.06-.492-.19-.553a2.27 2.27 0 00-1.058-.271c-1.249.082-2.49.307-3.739.342-1.662.047-3.328-.038-4.993-.049a3.825 3.825 0 00-.741.14c.172.204.322.55.533.589z"/><path data-name="Path 1150" d="M92.255 296.317c-.722 1.555-.959 3.071-1.491 4.5a6.506 6.506 0 00.757 5.2c.084.161.292.256.442.382l.259-.086a4.6 4.6 0 00-.17-1.192 6.849 6.849 0 01-.141-4.582c.23-.864.635-1.68.912-2.533a1.425 1.425 0 00-.568-1.689z"/><path data-name="Path 1151" d="M3.21 111.852a10.514 10.514 0 00-2.341-4.165c-.131-.162-.417-.2-.631-.292l-.238.228c.316.554.623 1.114.95 1.661a9.039 9.039 0 011.338 4.369c.033.825-.108 1.785.684 2.422a3.083 3.083 0 00.566.294 1.962 1.962 0 00.1-.57c-.036-.313-.182-.616-.208-.93a21.934 21.934 0 00-.22-3.017z"/><path data-name="Path 1152" d="M206.109 292.454c-.627.575-.521.957.449 1.526l4.06 2.379c.3-.618-.035-1.265-.931-1.781-1.2-.685-2.381-1.407-3.578-2.124z"/><path data-name="Path 1153" d="M202.635 285.106c-.043.2.249.468.39.706a2.151 2.151 0 00.6-.421c.219-.315.317-.712.529-1.033.519-.781-.118-2.476-.969-2.617a21.1 21.1 0 01-.026 2.325c-.044.36-.445.671-.524 1.04z"/><path data-name="Path 1154" d="M92.322 313.093c.2-.345.534-.664.486-.906-.211-1.073-.533-2.125-.85-3.311a3.556 3.556 0 00.364 4.217z"/><path data-name="Path 1155" d="M.334 104.9a5.865 5.865 0 00.6-3.72c-.39.258-.844.41-.856.592-.07 1.032-.034 2.07-.034 3.106z"/><path data-name="Path 1156" d="M157.582 314.691a22.606 22.606 0 00-2.316.468 2.606 2.606 0 003.088.081c-.284-.213-.55-.573-.772-.549z"/><path data-name="Path 1157" d="M237.734 310.004l.012.344 2.692-.24a1.661 1.661 0 00-2.704-.104z"/><path data-name="Path 1158" d="M255.839 95.337a1.89 1.89 0 00-.76-.018l-.062.356 1.05.593c.361-.406.172-.735-.228-.931z"/><path data-name="Path 1159" d="M191.276 46.017c.027.011.059.016.086.027-.005-.027-.016-.049-.021-.076z"/><path data-name="Path 1160" d="M191.649 46.849c.043.065.443-.1.681-.157l.016-.368c-.33-.092-.654-.189-.984-.281a3.012 3.012 0 00.287.806z"/><path data-name="Path 1161" d="M197.655 77.083a23.93 23.93 0 01-.2-9.42c.059-.281-.281-.643-.438-.962-.184.27-.5.535-.535.821a40.793 40.793 0 00-.286 4.367 28.124 28.124 0 00.367 5 30.035 30.035 0 001.589 5.453 17.031 17.031 0 002.032 3.037c.843-.659.908-.708.432-1.319a15.752 15.752 0 01-2.961-6.977z"/><path data-name="Path 1162" d="M127.923 160.128c-.1-.021-.211-.038-.313-.059a96.571 96.571 0 00-.357 20.981c.146.005.3.011.449.011.227-6.707.459-13.414.692-20.2-.3.119-.427.167-.616.243l.145-.976z"/><path data-name="Path 1163" d="M129.182 145.448c-.205 1.643-.238 3.308-.416 4.956-.157 1.384-.535 2.746-.611 4.129-.108 1.908-.027 3.832-.027 5.745l.292.032c.281-2.448.546-4.891.837-7.34.3-2.486.4-4.994.827-7.469.427-2.448.687-4.918 1.021-7.377a4.314 4.314 0 00-1.216 3.189c-.069 1.384-.536 2.746-.707 4.135z"/><path data-name="Path 1164" d="M198.238 126.25a3.908 3.908 0 00-.724.962c-.422.881-.784 1.789-1.173 2.686-.913 2.1-1.837 4.189-2.724 6.3-.081.2.092.514.151.773.108.005.216.016.324.027a4.075 4.075 0 00.686-.822c.546-1.173 1.049-2.367 1.557-3.556.827-1.951 1.654-3.9 2.459-5.864a.523.523 0 00-.065-.486.5.5 0 00-.491-.02z"/><path data-name="Path 1165" d="M206.988 91.022c.713.151.892.513.876 1.162-.027 1.081-.005 2.167-.005 3.248l.211.151c.173-.227.454-.438.492-.686.14-.854.173-1.724.292-2.584.194-1.4-.162-1.854-1.524-2.335a3.933 3.933 0 01-2.648-1.843c-.178-.378-.448-.714-.957-.351-.481.346-.276.665-.032 1.032a5.067 5.067 0 003.295 2.206z"/><path data-name="Path 1166" d="M161.853 17.902c-1.47-.562-2.924-1.151-4.394-1.708a1.73 1.73 0 00-.557-.032c.043.211.022.53.151.627a10.8 10.8 0 002.1 1.313c1.908.757 3.854 1.416 5.8 2.07.238.081.557-.092.832-.151.011-.108.016-.216.027-.324a3.5 3.5 0 00-.757-.622c-1.057-.422-2.143-.773-3.202-1.173z"/><path data-name="Path 1167" d="M183.931 147.777c-.367.3-.632.795-1.043.973-1.946.859-2.74 2.573-3.394 4.4-.065.184.054.438.086.659.086.027.173.059.259.087a6.944 6.944 0 00.757-1.211 6.788 6.788 0 012.767-3.026 6.668 6.668 0 001.405-1.405c.113-.146-.081-.524-.13-.8a3.273 3.273 0 00-.707.323z"/><path data-name="Path 1168" d="M180.537 30.587l.016-.3a7.421 7.421 0 00-1.184-.438 4.349 4.349 0 01-2.675-1.946 4.351 4.351 0 00-1.233-1.021c-.135-.081-.454.151-.692.238a2.232 2.232 0 00.308.611c.254.259.714.411.827.708.659 1.7 2.135 2.037 3.659 2.3a3.147 3.147 0 00.974-.152z"/><path data-name="Path 1169" d="M174.424 155.258c.243.184.519.541.686.492.844-.227 1.654-.557 2.67-.919a3.229 3.229 0 00-3.356.427z"/><path data-name="Path 1170" d="M181.083 32.084c.206 1.108.362 1.978.541 2.951.999-.681.745-2.13-.541-2.951z"/><path data-name="Path 1171" d="M111.87 193.804c.184 1.216.362 2.438.546 3.654.13-.027.265-.049.395-.076-.205-1.211-.416-2.422-.621-3.637-.109.022-.212.04-.32.059z"/><path data-name="Path 1172" d="M132.538 128.947c.1.016.195.038.292.054.276-1.313.557-2.627.832-3.94-.108-.022-.216-.049-.33-.07z"/><path data-name="Path 1173" d="M197.088 66.388c.125.049.427-.049.459-.146.178-.5.487-1.065-.33-1.454a9.378 9.378 0 00-.351 1.167.49.49 0 00.222.433z"/><path data-name="Path 1174" d="M131.165 134.304c.1.022.2.043.3.059l.438-2.054c-.129-.022-.253-.049-.383-.076-.117.693-.236 1.385-.355 2.071z"/><path data-name="Path 1175" d="M111.919 279.398c-.611 1.438-1.21 2.881-1.9 4.281-.221.454-.2.659.206.908 1.005.616 1.9.038 2.151-1.373a4.8 4.8 0 011.751-3.394 7.625 7.625 0 00-.681-.854 1.077 1.077 0 00-1.527.432z"/><path data-name="Path 1176" d="M102.92 267.165c-.189.27-.027.762-.178 1.076-.524 1.049-1.129 2.054-1.659 3.1a.728.728 0 00.1.692c.373.232 1.027.595 1.2.454a4.54 4.54 0 001.157-1.573c.492-1.076.87-2.2 1.3-3.308.049-.113.1-.227.205-.476-.362-.238-.735-.665-1.113-.676a1.554 1.554 0 00-1.012.711z"/><path data-name="Path 1177" d="M113.227 273.821c-.07-.087-.227-.449-.47-.519a8.656 8.656 0 00-1.794-.3c-.9-.076-1.8-.1-2.708-.135-.254-.011-.7-.065-.73.016a2.464 2.464 0 00-.205 1.27c.054.243.513.524.816.557 1.308.13 2.632.113 3.935.276.805.1 1.129-.062 1.156-1.165z"/><path data-name="Path 1178" d="M127.993 318.767c-1.038-.243-2.108-.378-3.162-.535-.157-.027-.443.054-.476.146a3.315 3.315 0 00-.265 1.346c.021.195.54.335.832.5.049-.1.092-.189.135-.286 1.032.308 2.053.632 3.091.9a.811.811 0 00.719-.178c.206-.357.487-.935.335-1.178a2.059 2.059 0 00-1.209-.715z"/><path data-name="Path 1179" d="M120.393 285.525c-.1-.4-.227-1.081-.438-1.119a2.975 2.975 0 00-1.54.259 22.623 22.623 0 00-2.405 1.194c-.194.108-.465.427-.421.557a8.739 8.739 0 00.562 1.2c1.459-.573 2.541-1.081 3.67-1.4.472-.137.686-.245.572-.691z"/><path data-name="Path 1180" d="M118.88 311.856c.049.07.092.135.141.2a924.67 924.67 0 00-2.054 3.335 4.534 4.534 0 001.184.913c.206.076.751-.378.951-.7a25.258 25.258 0 001.33-2.578.7.7 0 00-.076-.584c-.339-.528-.789-.886-1.476-.586z"/><path data-name="Path 1181" d="M136.619 315.767c-.081-.157-.33-.384-.433-.351a5.969 5.969 0 00-1.292.568c-.065.038.027.422.119.616.481 1.005.989 2.005 1.611 3.27.378-.135 1.119-.168 1.389-.546.367-.5-.049-1.092-.443-1.621a13.661 13.661 0 01-.951-1.936z"/><path data-name="Path 1182" d="M103.942 276.913a20.737 20.737 0 00-2.41-.751c-.168-.049-.487-.016-.557.1a12.328 12.328 0 00-.649 1.248l3.362 1.351c.157.059.432.189.47.146.319-.405.767-.822.822-1.276.026-.235-.627-.651-1.038-.818z"/><path data-name="Path 1183" d="M132.889 292.312c.427-.822.773-1.686 1.119-2.546a.6.6 0 00-.07-.5c-.368-.5-.784-.914-1.173-.746-.654 1.195-1.141 2.059-1.6 2.946-.135.254-.335.692-.238.805a2.444 2.444 0 001.157.816c.205.048.632-.446.805-.775z"/><path data-name="Path 1184" d="M134.224 282.955a.992.992 0 00.876.449c1.075-.443 2.1-1.005 3.383-1.643-.081-.3-.07-1.022-.422-1.319-.5-.416-1.119-.13-1.648.346a2.714 2.714 0 01-1.508.832c-1.232.023-.827.795-.681 1.335z"/><path data-name="Path 1185" d="M131.792 308.752c-.135-.27-.962-.384-1.405-.276a16.189 16.189 0 00-2.529.978.612.612 0 00-.243.524 15.414 15.414 0 00.665 1.54c.935-1.351 2.075-1.151 3.454-1.146.042-.55.269-1.193.058-1.62z"/><path data-name="Path 1186" d="M129.436 284.155c.53-.357.47-1.065.205-1.762a14.871 14.871 0 01-.5-2.583c-.589.081-1.205.173-1.546.222.135 1.411.249 2.556.384 4.01.381.043 1.105.351 1.457.113z"/><path data-name="Path 1187" d="M137.186 290.922a2.706 2.706 0 00-.848.319c-.325.238-.66.53-.168 1.032.735.746 1.373 1.589 2.151 2.513a4.469 4.469 0 00.675-.173c.849-.324.94-1.043.271-1.654s-1.324-1.291-2.081-2.037z"/><path data-name="Path 1188" d="M111.605 319.399c-.632-.443-1.335-.805-2.173-1.3-.438.27-1.265.422-1.1 1.021 1.054.832 1.811 1.459 2.6 2.032.194.141.589.254.746.151.351-.222.9-.665.837-.876a2.189 2.189 0 00-.91-1.028z"/><path data-name="Path 1189" d="M133.225 325.713c-.638 1.254-1.157 2.275-1.719 3.367a1.069 1.069 0 00.254.368c.341.238.811.676 1.049.578.335-.141.54-.659.74-1.049a17.945 17.945 0 00.8-1.843c.076-.211.1-.584-.016-.692a8.568 8.568 0 00-1.108-.729z"/><path data-name="Path 1190" d="M98.77 303.769c.459-.119 1.032-.157 1.324-.459.151-.157-.184-.805-.324-1.216-.232-.681-.492-1.357-.789-2.173-.5-.216-1.173-.481-1.584.216.373 1.243.7 2.351 1.059 3.578.071.01.201.086.314.054z"/><path data-name="Path 1191" d="M117.745 323.242c-.135-.157-.411-.362-.551-.319a5.025 5.025 0 00-1.178.595 2.4 2.4 0 00.3.622c.551.8 1.119 1.589 1.751 2.486a.593.593 0 00.286-.038c.411-.238.811-.5 1.216-.762-.254-.378-.5-.762-.768-1.135-.348-.492-.683-.984-1.056-1.449z"/><path data-name="Path 1192" d="M137.181 269.27c.2 1.076.811 1.3 1.665.67-.167-1.021-.286-1.9-.475-2.762-.054-.27-.249-.665-.449-.713a1.647 1.647 0 00-1.211.076c-.2.124-.189.724-.108 1.07.129.567.466 1.091.578 1.659z"/><path data-name="Path 1193" d="M138.872 303.59a3.693 3.693 0 01-.876 1.059c-.854.811-.7 1.508.249 1.811.865-.762 1.648-1.448 2.508-2.205a.827.827 0 00-.059-.405c-.2-.362-.395-.892-.708-.989-.492-.163-.874.188-1.114.729z"/><path data-name="Path 1194" d="M134.305 274.572a8.445 8.445 0 01-.021-.389l-3.53-1.113c-.227.4-.529.93-.762 1.335 1.216.492 2.194.886 3.286 1.324.297-.335.664-.746 1.027-1.157z"/><path data-name="Path 1195" d="M110.297 292.555c-.313-.227-.5-.708-.957-.313a8.625 8.625 0 00-.838.94c1.049.735 1.886 1.324 2.816 1.978.389-.3.827-.621 1.459-1.092a10.672 10.672 0 00-1.14-.876 13.3 13.3 0 01-1.34-.637z"/><path data-name="Path 1196" d="M150.839 310.461a18.813 18.813 0 002.281-.762c-.119-.524-.238-1.065-.324-1.465a7.993 7.993 0 01-2.275.476.851.851 0 00-1.076.692 2.24 2.24 0 00-.065.919 3.477 3.477 0 001.459.14z"/><path data-name="Path 1197" d="M98.59 307.671a4.285 4.285 0 00-.367.616 10.2 10.2 0 00.681 1.032c.06.076.373.049.475-.038a39.239 39.239 0 002-1.773c.157-.151.324-.508.249-.649a3.507 3.507 0 00-.822-1.065c-.076-.059-.519.227-.73.416a33.02 33.02 0 00-1.486 1.461z"/><path data-name="Path 1198" d="M129.717 300.813a8.04 8.04 0 01.778 2.3c.005.681.4.724.762.816.319.081.919.07.989-.081a1.715 1.715 0 00.027-1.194c-.287-.757-.7-1.47-1.124-2.324-.529.175-1.072.365-1.432.483z"/><path data-name="Path 1199" d="M127.814 295.651c.243-.092.622-.351.6-.5a4.2 4.2 0 00-.454-1.351 2.853 2.853 0 00-.865.276c-.448.216-.848.616-1.308.681-.432.059-.833-.043-.843.541-.005.432.054.859.087 1.308 1.156-.388 1.983-.647 2.783-.955z"/><path data-name="Path 1200" d="M140.44 274.162c-.762.708-.724 1.232.119 1.805.762-.589 1.459-1.086 2.1-1.654a.867.867 0 00.205-.746 1.886 1.886 0 00-.594-.967c-.119-.092-.605.173-.827.384-.371.351-.621.827-1.003 1.178z"/><path data-name="Path 1201" d="M113.124 331.495c-.162-.243-.271-.432-.4-.605-.7-.892-.87-.865-1.422.151-.2.373-.432.87-.773 1-.562.222-.47.557-.422.957.038.265.06.524.092.789.254.022.508.054.713.081.753-.806 1.477-1.584 2.212-2.373z"/></svg>