<svg data-name="illustration o mnie" xmlns="http://www.w3.org/2000/svg" width="307.924" height="303.401"><path data-name="Path 1244" d="M160.727 154.481l1.689 1.717-2.046 1.082 1.49 2.312a6.213 6.213 0 00.562-.346c-.705-2.19 2.403-2.7 4.424-3.632a28.354 28.354 0 013.199-1.118c1.686-.538 2.785-.162 2.922.912a1.484 1.484 0 00.465.833c.471.467 1.247.795 1.496 1.34.68 1.487 2.142 1.875 4.627.882 2.284 2.866 4.518 5.657 6.736 8.456.613.775 1.652 1.468 1.647 2.388a34.213 34.213 0 01-.476 3.835c-.273 2.204.13 4.244-.223 6.466-.29 1.814-.662 3.773 1.061 5.052.935.693.477 1.54-.977 2.504-1.265.84-1.882 2.112-3.77 2.559-.115.027-.267.203-.338.204-1.926-.063-3.172 1.055-4.55 1.955-1.104.72-2.195 1.43-3.466.928a2.6 2.6 0 00-1.065.388c-.414.227-.746.535-1.149.779-1.261.762-2.567 1.9-3.796 2.141-.994.195-1.854-.746-2.873-1.082a2.456 2.456 0 00-1.509.128c-1.061.574-2.013 1.265-3.23 2.05a11.952 11.952 0 01-2.738-1.15 6.047 6.047 0 01-1.26-1.998 4.95 4.95 0 00-.799.291c-3.058 2.71-4.26 2.817-6.334.783-1.1-1.078-2.758-1.846-3.782-2.958-.938-1.02-1.222-2.383-2.04-3.475-2.39-3.189-3.296-6.947-4.63-10.549-.077-.214-.458-.31-.599-.509-.47-.665-.775-1.306.712-2.219.512-.314.992-1.094.856-1.42a11.03 11.03 0 00-1.788-2.867c-.837-.985-.6-1.485 1.469-2.238q4.163-1.515 8.347-2.968c1.538-.535 2.156-1.157 2.03-2.178a32.462 32.462 0 01-.12-4.633c.016-.7.458-1.296 1.775-1.74 2.667-.894 5.306-1.905 8.05-2.905z" fill="#01e5d4"/><path data-name="Path 1202" d="M306.198 195.318a7.256 7.256 0 01-.509-1.441c-.177-.848-.2-1.732-.43-2.563-.2-.734-.595-1.409.313-1.946a.5.5 0 00.147-.446 4.388 4.388 0 00-.677-1.68 40.168 40.168 0 01-2.707-3.535 47.413 47.413 0 00-4.582-5.4c-2.061-1.944-4.864-2.621-7.464-3.6a9.109 9.109 0 00-1.138-.243c1.779-1.024 3.549-.994 5.238-1.237 1.619-.233 3.27-.248 4.9-.406a6.193 6.193 0 001.255-.394l-.418-.676-.512.118-.038-.134 1.689-.507-.392.7a1.288 1.288 0 001.511-.951l-.695.184c.235-.218.455-.456.708-.649.438-.334 1.156-.556 1.291-.975a1.352 1.352 0 011.342-1.008 1.352 1.352 0 001.278-1.585 3.975 3.975 0 01.566-2.34 10.719 10.719 0 001.047-3.535 20.02 20.02 0 00-.735-4.591 1.268 1.268 0 01.195-1.24 1.591 1.591 0 00.272-1.319 1.491 1.491 0 00-1.15-.69c-.648 0-.74-.431-.934-.807-.133-.259-.163-.569-.271-.843-.776-1.958-1.561-3.912-2.349-5.883-.77-.132-.776-.142-2.13.646a18.708 18.708 0 00-3.434 2.116 26.394 26.394 0 00-3.5 4.116c-1.071 1.513-1.907 3.19-2.882 4.773a4.829 4.829 0 01-1.339 1.7 1.5 1.5 0 00-.82.867 25.368 25.368 0 01-.832 3.008c-1.327 3.066-2.75 6.091-4.181 9.234-.328-.284-.6-.493-.84-.734-.611-.61-1.175-1.271-1.815-1.847-1.772-1.591-3.543-3.187-5.376-4.7a17.153 17.153 0 00-2.965-1.973 8.718 8.718 0 01-1.569-.855 14.173 14.173 0 00-2.3-1.113 3.121 3.121 0 00-2.5-.574c-.042.015-.125-.076-.186-.122a11.89 11.89 0 00-1.252-.921c-.423-.237-.957-.291-1.357-.553-.526-.344-1.346-.361-1.351-1.361a2.9 2.9 0 00-.665-1.7 14.037 14.037 0 00-2.072-1.867 8.524 8.524 0 00-2.826-.981 21.705 21.705 0 00-5.459-1.379c-.518-.038-.709-.183-.493-.778a10.8 10.8 0 00.746-2.832c.221-3.092 0-6.06-2.56-8.361a5.151 5.151 0 00-4.275-1.345 9.633 9.633 0 00-4.62 1.9c-1.469 1.131-2.86 2.361-4.147 3.432a28.627 28.627 0 00-2.336-2.542 3.739 3.739 0 00-4.278-.683 7.656 7.656 0 00-2.66 2.174 7.447 7.447 0 00-1.873 4.708 30.749 30.749 0 00.311 4c-.557.084-1.251.17-1.937.3a37.8 37.8 0 00-4.7.948 39.214 39.214 0 00-4.754 2.068 3.877 3.877 0 00-2.02 5.554 10.611 10.611 0 00.614.9 2.4 2.4 0 01-.406.292c-.993.42-2.025.759-2.979 1.252a134.536 134.536 0 00-6.062 3.309 7.818 7.818 0 00-3.056 2.732c-.095.164-.293.388-.439.384-.676-.018-.779.458-.938.934-.046.139-.236.226-.346.348-.614.677-1.487 1.267-1.764 2.063a3.144 3.144 0 01-1.42 1.6 13.351 13.351 0 00-1.05 1.139.782.782 0 01-.66.182c-.572-.239-1.094-.592-1.658-.854a3.081 3.081 0 00-2.976.467 3.266 3.266 0 00-.732 3.318 1.265 1.265 0 01-.258 1.11 2.239 2.239 0 00-.843 2.066 1.238 1.238 0 01-.045.524c-.49.9-.429 1.225.4 1.881a.624.624 0 01.2.264 2.206 2.206 0 003.616.866c1.894.132 2.776-1.18 3.634-2.5a7.335 7.335 0 01.76.527c1.934 1.781 3.814 3.623 5.8 5.342 1.9 1.648 3.9 3.193 5.891 4.733a1.868 1.868 0 01.894 1.268 1.189 1.189 0 00.531.737c.123.074.447-.187.7-.3a70.1 70.1 0 008.525 4.643 24.419 24.419 0 005.859 1.932c1.18.188 2.4.214 3.547.5a17.425 17.425 0 005.4.56 23.517 23.517 0 012.811.165 65.92 65.92 0 00-14.564 24.182c-.95-.42-1.969-.829-2.952-1.312-1.937-.953-3.857-1.941-5.778-2.925-1.5-.766-3.909.056-4.362 1.649a9.235 9.235 0 00-.312 3.331c.21 2.23 1.772 3.627 3.454 4.87.314.232.786.259 1.076.508a3.5 3.5 0 002.449.828 3.474 3.474 0 011.27.1 12.9 12.9 0 011.682.957c-.193 1.091.745 1.818 1.453 2.616.85.958 2.181.664 3.268 1.027.484.161 1.151-.183 1.724-.338a3.792 3.792 0 001.7-2.21 2.859 2.859 0 01.265-.721c.269-.672.515-1.356.824-2.011a6.491 6.491 0 01.717-1.11 7.384 7.384 0 001.157-1.471c.978-2.483 1.684-5.078 3.193-7.332a10.366 10.366 0 00.553-1.063c.968-1.89 2.832-3.148 3.452-5.356.323-1.149 1.524-2.052 2.429-3.193a11.2 11.2 0 01.627 1.357 17.243 17.243 0 001.723 4.18 9.847 9.847 0 011.287 2.644 7.619 7.619 0 001.418 3.137c.6.751 1.145 1.551 1.688 2.347.6.886 1.141 1.822 1.778 2.683.773 1.045.8 1.021-.366 1.773a2.589 2.589 0 00-.255.2c-1.158.973-2.322 1.941-3.473 2.923a5.819 5.819 0 00-2.284 4.324 3.323 3.323 0 003.8 3.428c2.171-.157 4.323-.491 5.993-2.277a5.267 5.267 0 001.532-2.706c.047-.254.11-.644.275-.715.862-.367.821-1.122.89-1.824a1.182 1.182 0 00.317-.02c.428-.152.862-.478 1.274-.449a2.205 2.205 0 002.617-1.7c.043-.124.043-.3.129-.367.9-.689.577-1.693.573-2.546-.008-1.551-1.337-2.365-2.329-3.208a13.069 13.069 0 01-2.438-2.771c-.128-.193-.447-.464-.406-.531.366-.59-.122-.923-.343-1.333-.478-.885-1-1.749-1.433-2.653-.479-.989-.876-2.017-1.323-3.021a13.775 13.775 0 00-1.226-2.561 7.222 7.222 0 01-1.19-2.328 32.527 32.527 0 01-.406-1.664c-.341-1.531-.716-3.057-.993-4.6-.167-.927-.175-1.883-.262-2.914a1.113 1.113 0 01.436-.163 18.623 18.623 0 004.655-1.116c.782-.249 1.551-.561 2.349-.729 1.262-.265 2.554-.388 3.811-.669.387-.087 1.08-.041.908-.924-.1-.526.812-.892 1.1-.682a19.216 19.216 0 001.829-.641c.8-.375 1.58-.815 2.356-1.249.483-.27.932-.6 1.414-.868a11.535 11.535 0 001.7-.9c1.088-.883 2.078-1.887 3.152-2.789.75-.629 1.587-1.153 2.362-1.756a13.246 13.246 0 011.387-1.2 23.949 23.949 0 005.007-3.309 2.831 2.831 0 00.758-1.128 2.843 2.843 0 012.641-2.272 5.373 5.373 0 00.931-.288l-.908-.689 2.109-2.775c.085.536.158.937.21 1.34a20.061 20.061 0 003.378 9.259c.487.687.979 1.375 1.527 2.012.724.843 1.5 1.646 2.265 2.449.8.832 1.69 1.587 2.407 2.483a3.621 3.621 0 002.165 1.342 43.62 43.62 0 012.488.64q1.014.285 2.008.637a5.021 5.021 0 011.385.6 4.225 4.225 0 002.977.933 2.443 2.443 0 00.986-.467 8.758 8.758 0 011.092-.779c.863-.368 1.216-.9.922-1.777-.184-.5-.532-.948-.753-1.444zm-.275-33.052c-.769.084-1.467.136-2.155.25-.212.035-.544.215-.568.369-.215 1.38-1.416 1.616-2.442 2.179l-.223-.547c-.552.431-1.722.027-1.427 1.541l-.982-.525-1 .223a4.171 4.171 0 012.882-2.428c1.518-.4 3.023-.855 4.533-1.285l1.566-.447zm-.475-5.549c.2.685.365 1.222.535 1.789-.742.135-1.427.258-2.112.386a.923.923 0 00-.853.831 1.565 1.565 0 01-.7.9c-.814.493-1.721.836-2.524 1.345-.937.593-1.8 1.3-2.7 1.955l-.974.715c1.977-4.091 5.791-5.729 9.328-7.921zm-2.785-1.579l.3.271a9.6 9.6 0 01-.821 1.032c-1.688 1.627-3.414 3.214-5.088 4.854-.961.943-1.848 1.963-2.768 2.948l-.111-.158c.495-.957.98-1.919 1.488-2.869a2.624 2.624 0 01.563-.8c2.133-1.77 4.288-3.521 6.437-5.277zm-9.951 8.335c-.45-.862.366-.9.539-1.276a5.554 5.554 0 01.794-1.207c.315-.382.7-.708 1.048-1.059l.2.157zm8.94-11.5c-.1.083-.2.173-.3.249-.132.1-.325.149-.4.275a8.918 8.918 0 00-.613 1.189c-.149.359-.13.837-.365 1.1-.576.649-1.256 1.2-1.9 1.8-.1-.042-.386-.237-.467-.174a15.731 15.731 0 00-1.172 1.1l.469.39c-.484.551-.642.57-1.161.153l-.973.64-.181-.21c2.17-2.363 3.723-5.356 7.064-6.512zm-3.141-2.105c-.072 1.2-.072 1.2-1.169 2.566l-.309-.388-.227-.007a2.954 2.954 0 01-.073 1.108 8.329 8.329 0 01-1.088 1.593c-.3.362-.739.609-1.045.967a1.975 1.975 0 00-.24.762c-.055.209-.03.512-.161.609-.152.112-.437.045-.677.057l-1.144 1.015c.209-1.431 4.826-7.595 6.134-8.282zm-5.444 20.271c1.193-.469 2.414-.878 3.573-1.419a14.27 14.27 0 001.931-1.291c.2-.138.374-.362.593-.423 1.513-.419 3.036-.8 4.6-1.214.063 1.062-.656 1.291-1.316 1.5-1.8.558-3.552 1.253-5.4 1.689a32.067 32.067 0 00-3.824 1.422 1.327 1.327 0 01-.89.059c.247-.111.487-.226.734-.324zm-68.991 53.211a1.469 1.469 0 01-.484 1.956c-.276.207-.306.762-.416 1.168a5.687 5.687 0 00-.095.791c-.577-.642-.35-1.489.996-3.916zm.292 9.266c-.331.832-.592 1.692-.912 2.528a2.04 2.04 0 01-2.674.987 12.332 12.332 0 01-1.3-.7l1.844-2.257c-1.252-.6-2.511-1.191-3.767-1.794-.829-.4-1.675-.77-2.472-1.226-.381-.218-.668-.291-.989.007a2.7 2.7 0 00.47.741 10.14 10.14 0 001.248.746 5.121 5.121 0 01-4.42-1.2 5.031 5.031 0 01-2.407-4.8c.174-1.575 1.085-2.285 2.554-1.668 1.335.56 2.6 1.288 3.922 1.874 1.3.576 2.653 1.045 3.964 1.6a5.785 5.785 0 011.364.811c1.093.886 2.146 1.822 3.22 2.732a1.272 1.272 0 01.356 1.618zm.289-11.122l-.141-.116.781-1.312.341 1.073zm1.729 8.761a1.023 1.023 0 01-.851-.332l.648-.275.4-1.643c.421.401.151 2.147-.196 2.249zm1.665-4.932a2.849 2.849 0 01-.948 1.243c-.142.131-.505.021-.768.021l.091-.226c1.542-.154.582-1.6 1.074-2.409.229.523.633 1 .552 1.371zm3.081-5.415l-.641-1.109.836-.447zm28.478-63.344c.832.223.81.416-.167 1.5.061-.569.115-1.03.168-1.502zm-2.237.743c.454-.309.946-.563 1.511-.884a4.06 4.06 0 00-.527 1.242 2.124 2.124 0 01-2.048 1.97l1.071-2.036c-.013-.02-.076-.247-.006-.291zm-1.093-2.383c.073-.073.42.13.687.22l-2.023 1.794.112.232-.524-.315c.612-.693 1.155-1.335 1.749-1.93zm-3.481 2.255a1.831 1.831 0 01.095.62c-.032.2-.178.48-.332.525a7.093 7.093 0 01-1.212.156l-.031-.27zm-3.207-10.921a3.053 3.053 0 01-1.734 2.312l1.033-2.312zm-.989 10.058c-.405.458-.708.825-1.037 1.166-.314.327-.655.628-.984.941l-.252-.326c.931-.319 1.074-1.635 2.274-1.78zm-2.928.531l-.24-.126c.521-.56 0-1.655 1.037-1.949l.232.146zm-.9-17.027c.548.154 1.106.283 1.643.47a6.587 6.587 0 011.495.74c-1.318.44-2.057-.779-3.152-.97zm3.211 3.349l-1.349.2.292-1.524.211-.008zm-3.072-.086c.77 1.223.769 1.242-.165 1.81.055-.622.11-1.171.168-1.809zm1.565 1.923a1.289 1.289 0 01.944-.669c.062-.005.109-.187.163-.287l.318.009v.907a1.531 1.531 0 01-.049.429 2.42 2.42 0 01-.355.907c-.925.982-2.348 1.487-2.787 2.94-.019.063-.186.081-.493.2.799-1.591 1.484-3.041 2.262-4.435zm-3.856-2.711c.072-.035.424.34.526.576.074.173-.049.431-.073.578l-2.04 1.2-.6-1.135c.659-.376 1.407-.831 2.19-1.218zm1.027 2.586a3.217 3.217 0 01-.347.637 4.133 4.133 0 00-1.042 2.175 5.709 5.709 0 01-1.051 1.659c-.828-.982.917-4.097 2.442-4.47zm-11.431-2.133a.553.553 0 01.406-.135c.05 0 .151.223.13.324-.144.726-.461.959-1.409 1.024.315-.44.577-.84.875-1.212zm-1.169 3.612l-1.062.623.343-1.5zm-.909-3.457l-2.14 3.141-.262-.162c.065-1.295 1.359-2.911 2.404-2.978zm-1.967 8.178c2.032.3 4.062.617 6.094.915a22.881 22.881 0 003.152.382c.941.006 1.88-.3 2.826-.364.779-.053 1.57-.238 2.3-.254a5.218 5.218 0 002.261-.454 4.1 4.1 0 012.358-.412 7.655 7.655 0 001.164-.111c-.076 1.433-1.252 1.775-2.359 2.027-1.42.324-2.916.337-4.318.712-2.587.692-5.171.188-7.746.123a20.665 20.665 0 01-4-.9 2.356 2.356 0 00-.644-.056c-1.074.053-1.665-.533-2.043-1.609a6.953 6.953 0 01.957.002zm14.824 5.574c.262.028.5.273.934.526a12.472 12.472 0 01-1.143.771c-.039.021-.385-.312-.356-.42.091-.34-.085-.945.571-.875zm-.746-.532a1.034 1.034 0 011.163-1.219zm-4.037 1.581c-.087.024-.158.063-.177.047-.473-.436-.624-.9-.063-1.421l1.053.455-1 .289c.076.249.13.44.189.632zm-3.1-.824l-.755 1.242-.139-1.751zm-5.432-.775c-.573.492-.649 1.424-1.64 1.425-.111 0-.222.43-.333.661l-.2-.066.2-1.194.808.3c.392-1.109.508-1.231 1.165-1.125zm-4.1-.327c.272.007.534.387.712.528l-2.567 1.875c-.032-1.145 1.04-2.419 1.854-2.401zm.285 2.535v.944l-1.292.2zm-1.739-5.373l.036.261-3.76 1.2-.538-.594zm-.839 6.685l-2.149.32 1.154-1.241zm-4.676-2c-.3 1.939-1.182 1.944-3.094 2.093zm-.172-2.006c-1.81 1-3.107 2.76-5.167 3.513-.043-1.164 3.582-3.621 5.166-3.51zm-2.241 38.455a1.753 1.753 0 00-2.169-1.248 8.081 8.081 0 00-1.208.543l-1.485-.894c.711-.549 1.326-.982 1.89-1.475a3.053 3.053 0 00.812-1c.413-.945.729-1.932 1.1-2.9.4-1.045.816-2.084 1.226-3.125a1.92 1.92 0 00.208-.525c.169-2.719.407-5.437.442-8.158a13.579 13.579 0 00-.607-3.8 11.535 11.535 0 00-1.513-3.786c-.89-1.222-1.8-2.46-3.434-2.76-.2-.038-.445.131-.669.2.12.236.179.555.369.7a7.585 7.585 0 013.164 4.524c.3 1.346.7 2.673.927 4.03a9.874 9.874 0 01-.1 2.063c-.061 1.249-.1 2.5-.17 3.747-.054.98-.128 1.958-.212 2.936a.442.442 0 01-.211.312c-.574.256-.41.752-.439 1.2a1.759 1.759 0 01-.175.736 10.237 10.237 0 00-1.338 3.251c-.077.432-.667.785-1.048 1.148a15.127 15.127 0 01-1.517 1.339 1.149 1.149 0 01-.864.1 7.464 7.464 0 00-.939-.411l.213.715-.154.087c-.208-.393-.393-.8-.637-1.172a.726.726 0 00-.506-.338c-.177.015-.336.251-.641.374l.4-.721-5.307-4.041-.573.685-.558-.406c0-1.132-.134-1.362-1.053-1.581l.662.936a152.78 152.78 0 00-6.9-5.622 8.647 8.647 0 01-1.349 2.531 6.48 6.48 0 01-2.611 1.08c-.208.055-.7-.464-.854-.811a2.717 2.717 0 01.892-2.489 12.516 12.516 0 011.3-.461 4.055 4.055 0 00.7-.495 5.519 5.519 0 00-.528-.655c-.331-.306-.791-.515-1.02-.877a2.035 2.035 0 01-.221-1.2c.063-.7.722-.565 1.157-.623a1.339 1.339 0 011.551 1.212 2.39 2.39 0 001.439 1.621c.367-.522.667-1.007 1.024-1.445a9.141 9.141 0 011.62-1.8 5.583 5.583 0 001.57-1.965 8.39 8.39 0 012.95-3.211.987.987 0 00.272-.3 11.693 11.693 0 014.842-3.791c.732-.341 1.432-.753 2.144-1.137q1.631-.88 3.26-1.765a12.732 12.732 0 001.349-.744 1.605 1.605 0 012.184-.04c-.181.16-.418.281-.509.472a1.14 1.14 0 00-.13.806.923.923 0 00.672.479c.221.007.5-.251.667-.462.224-.285.108-.949.716-.779a3.5 3.5 0 011.689.793 1.824 1.824 0 01-.877 2.688 1.6 1.6 0 00-.775.809c-.06.142.318.654.539.683a1.341 1.341 0 001.072-.3 1.011 1.011 0 011.293-.291 3.565 3.565 0 011.952 4.577.889.889 0 01-.507.3 10.374 10.374 0 00-1.1.275c-.764.333-1.012.851-.737 1.388a1.332 1.332 0 001.791.664 7.234 7.234 0 001.011-.789 4.3 4.3 0 01.87 5.661 2.071 2.071 0 01-.507.384c-.178.121-.474.192-.527.349a7.012 7.012 0 00-.2 1.193 6.969 6.969 0 001.246-.167c.191-.059.31-.351.494-.577a3.464 3.464 0 011.674 3.286c-.087 1.76-1.258 2.751-2.714 3.513-.478-.513-.786-1.33-1.629-1a1.412 1.412 0 00-.794 1.573c.1.9.9.792 1.5.9a4.723 4.723 0 01-3.345 6.155c-.989.307-1.289.093-1.489-.878zm9.131-18.4c.135.221.006.6-.163.911l.35 2.087-.582-.218-1.281 1.461-.171-.107a5.821 5.821 0 00-.368-6.392l.9-.182.048.183-.213.2c.524.724 1.052 1.364 1.479 2.064zm.57 23.01a2.848 2.848 0 01-1.889-.455 18.6 18.6 0 00-2.4-.951c-.55-.222-1.084-.481-1.747-.777.523-.736.949-1.432 1.469-2.05a5.863 5.863 0 001.219-4.931.869.869 0 01.572-1.117c.29-.142.953-.119.62-.763 1.088-.131 1.495-1.025 1.96-1.776a2.213 2.213 0 00.193-1.311c-.13-1.228-.341-2.447-.524-3.7-1.486.279-.543-.665-.784-1.018.51-.243 1.1-.213 1.038-1.089-.041-.569.446-1.177.492-1.75a2.667 2.667 0 01-.171-.621 4.337 4.337 0 00-.141-1.64 5.748 5.748 0 00-2.277-2.537c-.488-.331-.838-.6-.623-.928a5.187 5.187 0 01-.592-1.5c-.012-1.584-1.052-2.5-2.108-3.384a4.444 4.444 0 00-1.325-.491c.2-1.257.318-2.546-1.143-3.481l7.594-1.35c.041.593-.135.828-.664.868a2.915 2.915 0 00-1.25.325c-.237.142-.495.641-.41.833a1.084 1.084 0 00.84.556 1.822 1.822 0 001.138-.546c.458-.515.906-.388 1.4-.188a1.389 1.389 0 011.033 1.244c.029.65.02 1.207-.833 1.418-.589.146-1.258.5-1.125 1.287a1.232 1.232 0 00.737.835c.735.165 1.15-.418 1.42-.995a.9.9 0 011.038-.567 8.736 8.736 0 01.971.137c.776.177 1.569.474 1.657 1.358.091.911.2 1.909-.866 2.507a1.083 1.083 0 00-.347 1.465c.227.561.856.583 1.2-.052.445-.826 1.024-.7 1.711-.506 1.94.559 2.779 1.673 2.418 3.642a12.481 12.481 0 01-1.2 2.918.835.835 0 01-.657.285c-.463-.006-.844.127-.7.612.087.3.594.755.759.7.656-.226.844.182 1.063.59a2.394 2.394 0 01-1.818 3.582 1.761 1.761 0 01-.611-.135c-.286-.073-.621-.281-.845-.2a4.963 4.963 0 00-1.049.727c.319.254.641.724.954.718.775-.014.969.445 1.157 1 .544 1.615.835 3.192-.544 4.587-.394.4-.706.623-1.331.321-1.076-.521-1.84-.029-1.958 1.126-.076.746.289 1.258 1.04 1.252.556 0 .766.24.768.7a4.531 4.531 0 01-.144 1.688 5.447 5.447 0 01-4.383 3.535zm8.776 7.555l.262.156-1.948 2.957a4.542 4.542 0 011.684-3.106zm-.365 8.281c-.265-1.16.79-.939 1.111-1.49l.184.192zm5.688-1.318l-.306-.908 1.292-.143zm.734-18.091a1.608 1.608 0 00-1.925.039 2 2 0 00-.915 1.977c.111.845.6 1.2 2.1 1.45-.333.3-.551.646-.834.711a32.136 32.136 0 00-3.458.681c-1.031.36-1.886-.145-2.822-.159-.274 0-.552.266-.85.42a3.312 3.312 0 00-.927-.608 4.037 4.037 0 00-1.264.094l2.444-2.59.435.222c.039-.1.09-.169.074-.189-.487-.608.036-1.177.047-1.762.021-1.173-.073-2.348-.123-3.608a1.051 1.051 0 00.943-1c.012-.156.385-.285.646-.464l-.324-.759.613.208v-2.923l.2-.015-1.083-1.272.51-.312-.778-.577 1.5-.467-.057-.2-.707-.257 1.605-.168.349-.709-.489-.211.025-.1.776.16c.659-.632-.035-.986-.375-1.484 1.075.027.345-.6.362-.9a1.953 1.953 0 00-.324-1.127 7.094 7.094 0 00-1.053-1.029 6.568 6.568 0 001.414-5.307c-.51-2.173-2.319-2.789-4.273-3.168.077-1.2.532-2.451-.5-3.477a4.569 4.569 0 00-3.5-1.073 2.467 2.467 0 00-2.2-3.157l.11-.812c1.435-.189 2.8-.37 4.175-.55.577-.075 1.153-.179 1.732-.212a12.542 12.542 0 012.025.009 1.728 1.728 0 011.008.463c.563.6 1.015.646 1.565.024a3.873 3.873 0 012.652-.64 5.164 5.164 0 011.273.537 3.828 3.828 0 01.7 4.779 1.013 1.013 0 01-.52.325c-.571.177-.631.58-.445 1.034.207.5.567.594 1.056.291a.85.85 0 01.66-.049 3.945 3.945 0 012.12 5.835c-.13.23-.539.3-.809.453-.329.191-.863.349-.921.609a1.6 1.6 0 00.316 1.241c.148.171.721-.02 1.1-.061.285-.031.669-.225.835-.105 2.235 1.606 3.412 4.274.621 6.71-.365.319-.673.492-1.11.053-.308-.309-.867-.577-1.063.006-.11.328.221 1.148.462 1.2 1.282.252 1.532 1.284 1.721 2.226a2.982 2.982 0 01-1.206 2.887 5.7 5.7 0 01-.538.357c-.2-.192-.352-.347-.515-.488a1.237 1.237 0 00-2.175.572c-.282.792.094 1.49.918 1.4 1.132-.129 1.3.542 1.491 1.344a2.854 2.854 0 01-1.331 3.6.864.864 0 01-1.17.078zm1.383 10.31v-1.879h.267q.048.934.1 1.867zm1.7 16.777c.611-.489.986-.407 1.239.24l-.827.353zm5.1.506l1.755 2.456a1.934 1.934 0 01-1.753-2.451zm-.849 9.043c.2-.14.563-.036.851-.05s.682.078.842-.074a6.675 6.675 0 012.465-1.284 11.7 11.7 0 002.3-1.6 7.592 7.592 0 01.944 1.478 1.585 1.585 0 01-1.655 2.218 26.475 26.475 0 01-1.461-.1 2.021 2.021 0 00-2.152 1.768c-.391 2.113-1.9 3.253-3.669 4.138-.5.249-1.068.362-1.542.643-.22.131-.29.516-.326.884a8.011 8.011 0 004.813-2.391 3.24 3.24 0 01-2.125 2.389 6.87 6.87 0 01-4.077.8c-1.581-.3-1.748-1.581-1.284-2.667a4.726 4.726 0 011.761-2.264 22.424 22.424 0 002.789-2.561 15.362 15.362 0 011.528-1.322zm-2.28-7.705a14.765 14.765 0 001.56 2l-.3 1.037-2.4-3.148c.539-.398.797-.527 1.142.116zm9.935-35.427c-.308.375-.559.568-1.085.314a1.46 1.46 0 00-1.754.2 1.9 1.9 0 00-.481 1.9 1.014 1.014 0 001.131.854c.344-.007.914-.056.995.106a3.374 3.374 0 01.591 1.942 5.69 5.69 0 01-2.582 3.729 2.567 2.567 0 01-.922.121.765.765 0 01-1.131.458c-1.385.269-2.6.471-3.8.746a7.617 7.617 0 01-3.863.3l-.719.59a4.441 4.441 0 011.393-3.483 9.481 9.481 0 001.259-2.173 3.92 3.92 0 00.329-.678 3.278 3.278 0 00.1-.683c.024-.252.035-.506.055-.814l-.56-.289.542-.162-.871-1.437.889-1.156.145.109c.29-.356.578-.713.87-1.069.387-.471.39-.61.026-1.215l.564-.4c-.635-.311.141-.569.032-.836a7.928 7.928 0 00-.495-.875 3 3 0 00-.659-2.141c1.2-1.247 2.234-2.605 1.956-4.475a5.819 5.819 0 00-2.765-4.067c.7-1.476 1.255-3 .646-4.628a6.126 6.126 0 00-3.406-3.311c.675-1.928.872-3.8-.525-5.523 1.162-.069 2.286-.141 3.41-.2a1.2 1.2 0 01.624.057 6.094 6.094 0 004.564.348 6.177 6.177 0 01.719-.056 2.8 2.8 0 00-.179.91 1.567 1.567 0 00.439.963.976.976 0 00.922-.154c.369-.354.628-.281.993-.058a3.975 3.975 0 011.889 4.642 14.682 14.682 0 01-.677 1.84c-.242.579-.494 1.066-1.307 1.12s-1.372 1.518-.9 2.188a.9.9 0 00.861.169 8.732 8.732 0 001.254-1.107 4.549 4.549 0 011.8 6.529c-.228.371-.508.711-.765 1.065a.989.989 0 01-1.258.4c-.946-.3-1.636.128-1.735.938-.082.675.208.984.887.918a2.1 2.1 0 00.549-.148c1.129-.438 1.22-.416 1.994.533a5.44 5.44 0 01.014 7.154zm6.013-.39a1.444 1.444 0 00-.781 1.59c.157.819.527 1.528 1.7 1.463a2.949 2.949 0 01-.355.953c-1.1 1.152-2.243 2.267-3.372 3.394l-.185-.153.189-.392c-.663-.193-.635.276-.549.624l-1.028-.09a12.02 12.02 0 00.2-2.835 13.626 13.626 0 00-1.116-2.853c.285-.331.719-.8 1.109-1.3.188-.242.436-.571.4-.824-.072-.517-.123-.917.52-1.029-.114-.776.893-1.3.452-2.187a3.073 3.073 0 01-.023-1.17l-.687-.44.745-.206c-.524-.763-1.019-1.44-1.457-2.151-.115-.187-.056-.48-.083-.805-.653-.091-.5-.609-.319-1.194l.507.274.655-.8-.709.06a9.086 9.086 0 00.933-1.1 7.135 7.135 0 00.47-1.206l-.269-.115-.748 1-.354-3.455.391.447.827-.145c.164-.877-.488-1-.994-1.161l.114-.826-.6.147.207-.389c-.561-.7-.932-1.576-2.019-1.755l-.2.375c-.08-.141-.163-.223-.146-.269.232-.636.513-1.257.713-1.9a4.933 4.933 0 00-1.776-5.843.7.7 0 01-.274-.432c1.04.051 2.08.141 3.12.139a5.859 5.859 0 002.059-.244 18.091 18.091 0 002.44-1.4c.988.522 2.447.673 3.266 1.991a2.067 2.067 0 01.151 2.231c-.192.372-.372.529-.826.375a2.938 2.938 0 00-1 .022c.016.259-.066.6.068.757.221.261.641.623.873.56 1.079-.292 1.587.539 2.242 1.034a3.046 3.046 0 011.4 2.22 5.119 5.119 0 01-1.53 3.925 1.6 1.6 0 00-.336-.158c-.382-.066-.768-.114-1.152-.169-.042.383-.225.831-.087 1.132.147.323.582.531.918.748.313.2.76.272.978.54a4.044 4.044 0 01-.12 5.683 5.651 5.651 0 00-1.864-.072c-.2.063-.386 1.045-.187 1.287.277.337.921.372 1.441.445 1.9 2.76 1.715 4.672-1.188 6.533-.739-.809-1.565-1.513-2.752-.876zm13.62-6.966a1.041 1.041 0 01.677 1.523 8.723 8.723 0 01-1.475 1.8 27.869 27.869 0 01-2.123 1.882c-.151.124-.437.09-.661.12-.176.023-.408-.034-.522.059-.756.613-1.512 1.229-2.216 1.9a19.6 19.6 0 01-4.041 2.66c.148-.406.171-.741.35-.9a13.471 13.471 0 011.188-.8 1.71 1.71 0 00.372-.445 9.524 9.524 0 00.961-1.507 4.847 4.847 0 00.209-1.406c.064-.649.12-1.3.149-1.95a1.617 1.617 0 00-.162-.48c-.07-.223-.13-.448-.238-.824l-.222-.052a5.147 5.147 0 01-.095-.637 2.268 2.268 0 01.065-.832c.042-.109.37-.105.638-.169.042-.307.1-.714.158-1.172.4.229.629-.022.791-.461h-.7c.954-.494 1.195-1.36.535-1.933l.431-.372c0-.3.015-.51 0-.712-.023-.253-.057-.716-.117-.722-.789-.07-.646-.688-.74-1.166s-.029-1.028-.689-1.229c-.1-.032-.167-.516-.1-.742.187-.595.523-1.145.684-1.745a3.94 3.94 0 00-1.4-4.47c-.579-.451-1.171-.884-1.6-1.206.162-1.156.3-2.125.46-3.281a18.756 18.756 0 012.561.742 24.976 24.976 0 013.278 1.75 33.249 33.249 0 014.472 3.041c1.359 1.2 1.08 2.617-.513 4.177-.535-.224-1.207-.557-1.539.178a1.722 1.722 0 00.021 1.5c.233.269.966.105 1.479.132l.188-.352a28.661 28.661 0 011.7 2.84c.459.995-.5 3.117-1.475 3.551a.785.785 0 01-.463-.022.762.762 0 00-1.06.694c-.101.594.064.996.787 1.041zm6.953-6.295c-.522 2.048-2.06 3.4-3.314 4.94-.438.54-.941 1.027-1.585 1.723l-.051-1.09-.455-.043a1.422 1.422 0 01.1-.481c.686-1.054 1.39-2.1 2.126-3.2l-.5-.331c.233-.3.465-.579.662-.877.094-.141-.314-.934-.41-1.055s-.021-.374-.119-.478c-.332-.355-.75-.636-1.042-1.018a.748.748 0 01.117-.7c.293-.3.582-.522.115-.85.193-.105.448-.158.514-.3.15-.32.7-.685.052-1.179a1.685 1.685 0 01.591.17q1.344 1.067 2.648 2.184c.425.364 1.036.715 1.149 1.175.11.396-.468.914-.596 1.415zm10.161 2.64c1.606.253 2.818 1.284 4.18 2.011a4.118 4.118 0 011.126 1.078c.781.955 1.521 1.942 2.279 2.916a17.679 17.679 0 011.362 1.926c-.355-.246-.717-.483-1.064-.74-1.071-.795-2.137-1.6-3.2-2.4a1.271 1.271 0 01-.256-.2 37.255 37.255 0 00-5.66-5.263 4.269 4.269 0 001.235.676zm-5.8 6.5c-.335-1.033-.7-2.06-.973-3.108a26.447 26.447 0 01-.526-2.848c1.61 3.458 1.6 7.582 4.422 10.55-1.732-1.06-2.344-2.817-2.92-4.593zm9.092 9.77a1.46 1.46 0 00-1.519-.826 1.177 1.177 0 01-.875-.455c-.687-.914-1.315-1.873-1.943-2.829-.569-.865-1.145-1.73-1.646-2.634a5.3 5.3 0 01-.6-1.934l.517.6.643-.37-.538-1.68h-.424c.388-.8-.5-1-.712-1.5l.187-.181a3.18 3.18 0 01.623.587c.851 1.4 1.615 2.856 2.523 4.216a34.729 34.729 0 002.255 2.766 3.487 3.487 0 01.383.424c1.01 1.761 2.009 3.528 3.041 5.345-1.182.051-1.467-.881-1.912-1.527zm5.5 1.852a1.875 1.875 0 01-1.1-.361 38.603 38.603 0 01-2.484-2.816c-1.041-1.3-2.026-2.635-3.031-3.959a6.487 6.487 0 01-.505-.742c-.837-1.5-1.664-3-2.507-4.522l.62.391.435-1c.705.876 1.416 1.843 2.216 2.729.888.982 1.858 1.89 2.795 2.828a4.429 4.429 0 01.695.687c1.375 2.217 2.726 4.449 4.065 6.645a5.994 5.994 0 01-1.198.122zm2.284-1.743a2.615 2.615 0 00-.272-.7 41.772 41.772 0 00-2.98-3.7c-2.053-2.09-3.686-4.515-5.6-6.713-1.375-1.582-2.8-3.118-4.207-4.675l.115-.112c1.508 1.42 3 2.861 4.536 4.248a12.285 12.285 0 001.626 1.049 5.88 5.88 0 011.135.776c1.445 1.528 2.816 3.126 4.286 4.627a5.055 5.055 0 011.081 2.5c.212.792.455 1.575.684 2.362z"/><path data-name="Path 1204" d="M214.097 230.159l-.045-.013.022.036.024-.021zm-.008.008l-.009.009z"/><path data-name="Path 1205" d="M162.818 193.225a17.7 17.7 0 002.7 2.535 3.915 3.915 0 001.869.649 11.373 11.373 0 001.606.028 2.1 2.1 0 002.207-1.462 1.616 1.616 0 01.716-1 1.552 1.552 0 001.03-1.478c.024-.157-.007-.446.042-.458.985-.25 1.2-1.121 1.591-1.872.249-.481.785-.9.836-1.381.141-1.351.967-1.843 2.118-2.188a2.776 2.776 0 002.209-2.911 1.359 1.359 0 01.334-.7c.547-.718 1.377-.483 2.1-.562a1.082 1.082 0 001.014-.645 8.859 8.859 0 011.279-2.062 18.264 18.264 0 003.09-5.4c.374-.9.87-1.9-.068-2.8a5.748 5.748 0 00-1.035-.748c-1.576-.936-3.116-1.955-4.768-2.733a4.072 4.072 0 01-1.792-1.223c-.47-.67-1.129-1.2-1.187-2.154a7.875 7.875 0 00-.605-1.9l-.275.058-.222 1.125-2.115-3.283 1.755.506q.072-.16.146-.319a11.909 11.909 0 00-1.011-.727 4.7 4.7 0 01-2.162-2.578 2.165 2.165 0 00-1.361-1.519 1.092 1.092 0 01-.542-.413c-.8-1.217-1.58-2.453-2.372-3.679-.322-.5-.634-1-1-1.469-.622-.8-1.288-1.559-1.918-2.35-.225-.282-.4-.606-.594-.91-.542.4-.912.257-1.17-.422a1.684 1.684 0 00-.661-.81 2.965 2.965 0 00-2.615-.078c.163-.373.357-.793.653-.885 1.577-.494 2.337.686 3.135 1.714.567-.229.636-.561.323-.974-.262-.345-.558-.666-.85-.986-.887-.975-3.034-1.085-3.839.075a24.921 24.921 0 01-2.819 3.291c-.427.43-.628.569-.062 1.014.139.109.039.762-.154 1-.463.58-1.1 1.023-1.567 1.6-.512.627-.893 1.359-1.377 2.011a10.554 10.554 0 01-1.322 1.536c-.426.388-.507 1.236-1.269 1.155-1.054-.112-1.593.653-2.236 1.2a2.936 2.936 0 00-.789 3.352 1.025 1.025 0 01-.033.485 2.983 2.983 0 00-.139.582 2.456 2.456 0 01-.351 1.925 3.87 3.87 0 00-.748 1.263c-.647 1.921-1.3 3.845-1.831 5.8a24.777 24.777 0 00-.468 3.1c.662.187 1.167.292 1.645.472 1.032.388 2.032.868 3.079 1.208a18.64 18.64 0 002.795.648c1.355.216 2.722.359 4.087.513.484.054 1.017-.209 1.407.356.1.15.5.175.739.139.393-.059.946-.435 1.125-.292a3.144 3.144 0 002.177.5 5.054 5.054 0 002.461-.125.518.518 0 01.356-.031c.662.223 1.3.523 1.979.683.6.142 1.246.1 1.859.207a14.262 14.262 0 001.644.424c.687.036 1.48.7 2.019-.283.93 1.075.88.82-.169 1.961a2.749 2.749 0 00-3.663 1.211.884.884 0 01-.654.279 1.573 1.573 0 00-1.618 1.019 8.562 8.562 0 00-.334 1.275c-.88-.068-1.7.063-2.045.989-.6 1.606.244 2.775 1.347 3.881a7.064 7.064 0 01-1.183.883 2.431 2.431 0 00-1.592 3.035l-.362-1.282c-.834.496-1.031.812-.525 1.405zm17.962-23.936c.033-.089.16-.143.327-.283 1.653 1.12 3.27 2.237 4.91 3.316.507.334.315.739.149 1.07-.631 1.259-1.269 2.519-2 3.723-.643 1.067-1.407 2.06-2.117 3.086-.314.454-1.185.468-1.813.2a2.156 2.156 0 01-1.533-1.693c-.017-.106-.234-.181-.395-.3.277-.591-.1-.842-.692-1.156-.625-.331-1.5-.583-1.492-1.528a2.548 2.548 0 01.384-.979c.5-1.025 1.764-1.474 2.167-2.442.505-1.189 1.667-1.837 2.105-3.013zm-21.371-16.267c.217-.259.369-.571.564-.85.5-.715 1.013-1.423 1.52-2.133l.171.065c-.2.731-.4 1.462-.635 2.343l-.266-.631-1.481 2.144-.344-.709c.161-.074.369-.106.471-.228zm-.35 3.252l1.306-2.285c-.263.984-.129 1.988-1.265 2.329a2.492 2.492 0 01-.239.612c-.238.324-.525.61-.782.9-.366-.537-.218-.794.98-1.553zm-5.038 1.848c1.718.016 1.854.07 3.572 1.411l-2.11 4.257a1.419 1.419 0 01-1.448-.743.474.474 0 00-.342-.174 2.07 2.07 0 01-2.011-1.952c-.34-1.904.388-2.816 2.34-2.797zm-5.136 12.793c-.107-1.288.671-2.272 1.065-3.366.418-1.159.9-2.3 1.348-3.443 1.313.544 1.313.544.827 1.342l-.324-.47c-.338 1.1-1.315 1.8-1.273 3.021.008.225-.075.974-.782.761.145 1.192-.104 1.841-.86 2.157zm24.41 3.97a2.557 2.557 0 00-.637.108v-.207l-4.3-.791c.188.454.3.7.388.951.039.116.07.3.009.369a.424.424 0 01-.37.105c-.654-.2-1.3-.434-1.938-.654l.224-.384c-.136-.012-.37-.075-.394-.029-.489.94-1.121.087-1.758.33l.4 1.174c-.3 0-.689.018-1.079 0a11.015 11.015 0 01-3.444-.282c-1.476-.606-2.977-.129-4.428-.541-1.427-.406-2.922-.57-4.369-.913a17.688 17.688 0 01-2.118-.808c1.31-.988 2.575-1.816 3.676-2.823a11.948 11.948 0 001.414-2.136c.851-1.23 1.755-2.424 2.586-3.667.249-.371.279-.882.5-1.282.957-1.757 1.9-3.524 2.938-5.236a13.966 13.966 0 001.7-4.363 20 20 0 01.85-2.3c.056-.16-.055-.371-.041-.555.085-1.1.184-2.2.28-3.316.08.007.187-.017.227.024 1.309 1.355 2.7 2.648 3.889 4.1a42.754 42.754 0 012.73 4.026c.76 1.175 1.434 2.408 2.223 3.562a83.165 83.165 0 003.188 4.373 50.407 50.407 0 003.066 3.545.8.8 0 01.092 1.2c-1.172 1.512-2.375 3-3.547 4.514a3.249 3.249 0 00-.692 1.177c-.164.782-.645.807-1.264.731zm-7.133 16.74c.708-.5 1.376-1.049 2.065-1.573.187-.142.381-.276.579-.4.615-.392 1.232-.779 2.088-1.319 1.521.481 2.526-.5 2.462-2.443a3.056 3.056 0 001.477-4.314.81.81 0 01-.051-.605 9.159 9.159 0 01.481-1.047l3.033 1.95c-.642.57-1.4 1.171-2.067 1.86a9.436 9.436 0 00-1.6 2.008c-.752 1.406-1.255 2.951-2.06 4.323a28.858 28.858 0 01-2.339 2.947 4.969 4.969 0 00-.536 1c-.245.534-.646.779-1.178.508a18.183 18.183 0 01-2.5-1.445c-.628-.464-.499-.998.147-1.448z"/><path data-name="Path 1207" d="M143.613 3.229c.689-.356 1.411-.649 2.119-.968.092-.041.2-.142.27-.122.786.217 1.059.124 1.353-.517.625.606.736.019.9-.415.192.13.345.306.526.342a15.55 15.55 0 001.588.213.513.513 0 00.345-.149c.261-.249.5-.52.714-.745l.568.883a5.167 5.167 0 001.391-.643c.6-.559 1.051.3 1.572.046.264.855 1.126.728 1.724 1.019a4.731 4.731 0 001.219.2l.281.445.448-.292c.145.252.219.549.393.63.135.063.4-.145.644-.251l.228.392.769-.154 1.8 2.238c-.048.006.146-.08.223-.02a21.37 21.37 0 011.612 1.375 2.156 2.156 0 01.539.851 11.49 11.49 0 01.536 2.121c.1.872 1.03 1.577.513 2.568-.016.031.087.129.141.191.243.278.488.553.732.829-.37.26-.621 1.148-.337 1.462a.983.983 0 01-.029 1.374 5.119 5.119 0 01-.781.756l.5.831c-.209-.1-.5-.3-.572-.237a6.046 6.046 0 00-2.009 3.17 1.737 1.737 0 001.331 2.176 2.444 2.444 0 002.569-1.662 23.315 23.315 0 00.6-3.42c.065-.474-.03-.956.447-1.3.125-.091.1-.388.153-.606.56.1.875-.29.831-1.185l1.514-.265a6.779 6.779 0 01-.047-.805.51.51 0 01.336-.051c.49.173.477.176.761-.26a3.486 3.486 0 01.722-.967 7.219 7.219 0 011.25-.518c.953-.439 1.9-.9 2.957-1.409.317.3.492 0 .523-.525l.64.089-.282-.531.139-.109.5.565.635-.582c.778.323 1.2.1 1.279-.643a5.869 5.869 0 00.822.049c.765-.058 1.526-.181 2.291-.211.741-.029 1.486.017 2.229.046.462.018 1.079-.106 1.348.139.4.367.875.214 1.273.357 1.145.41 2.309.75 3.422 1.275.535.252 1.018 1.029 1.819.441.036-.026.992-.222 1.052.583.013.169.444.277.624.468.467.5 1.664.051 1.594 1.231l2.252 1.206c.475.229 0 1.165.952 1.2.15.776.6 1.059 1.119.842.094.495.034 1.109.313 1.4s.907.3 1.508.458l-.769.248 1.12 1.405.53-.239a3.758 3.758 0 01.153.779 3.66 3.66 0 01-.166.753c.932.222 1.193.658 1.023 1.58-.027.146-.012.406.069.448 1.08.558 1.051 1.54 1.083 2.55a3.411 3.411 0 00.464 1.117 2.9 2.9 0 00-.126.912 8.1 8.1 0 01.363 3.338 10.1 10.1 0 00.3 3.108c-.557.248-.55.249-.149.89a.429.429 0 01-.021.407c-.73.546-.708 1.392 0 1.731l-1.07 1.886.226.215c-.1.369-.171.573-.21.782a3.8 3.8 0 01-.167.994c-.474.938-1.067 1.818-1.5 2.773-.212.469-.655.884-.719 1.272a3.452 3.452 0 01-.646 1.274c-.246.412-.76.666-.7 1.258.008.081-.118.256-.154.248-.949-.2-.6 1.192-1.407 1.15l.127.6c-.129 0-.3-.044-.379.021-.355.295-.69.614-1.021.937-.482.47-.954.951-1.43 1.427-.174-.013-.427-.106-.507-.026-.447.446-1.158.521-1.478 1.176a6.131 6.131 0 01-.967 1.162l.216.212a7.648 7.648 0 002.76-1.846c.067-.072-.022-.292-.039-.443a1.212 1.212 0 001.329-.294c.742-.7 1.494-1.4 2.213-2.121 1.99-2.008 3.1-4.564 4.388-7.016a15.71 15.71 0 00.892-2.419 29.48 29.48 0 001.145-5.22 17.434 17.434 0 00.013-3.666c-.126-1.74-.343-3.475-.58-5.2a10.312 10.312 0 00-.511-1.294 14.114 14.114 0 00-.593-2.3c-.717-1.463-1.665-2.814-2.365-4.283a13.817 13.817 0 00-3.935-4.5c-1.264-1.063-2.645-1.989-3.885-3.077a1.576 1.576 0 00-1.751-.407 7.566 7.566 0 00-1.117-1.026 19.661 19.661 0 00-5.8-1.806 12.978 12.978 0 00-6.949.121 10.141 10.141 0 00-2.6.823c-.769.518-1.647.7-2.415 1.166-1.033.633-2.224 1.023-3.212 1.712-1.459 1.017-2.8 2.2-4.269 3.383-.126-.573-.247-1.082-.35-1.595-.2-.994-.334-2-.595-2.98-.215-.8-.644-1.548-.845-2.352-.154-.615-.109-1.271-.938-1.415-.07-.012-.1-.191-.17-.274-.477-.551-.953-1.1-1.443-1.64a5 5 0 00-.528-.438 12.472 12.472 0 00-2.1-1.7 35.021 35.021 0 00-4.025-1.6 8.577 8.577 0 00-2.729-.758c-2.835.006-5.737-.381-8.434.931-1.606-.116-2.843.9-4.157 1.521a28.777 28.777 0 00-4.437 2.9 32.662 32.662 0 00-2.742 2.367 14.662 14.662 0 00-1.226 1.332c-.135.159-.157.428-.308.556-.359.3-.811.51-1.139.84a11.633 11.633 0 00-1.068 1.353q-.549.751-1.063 1.528c-.614.93-1.215 1.868-1.778 2.736-1.12-.832-2.069-1.65-3.124-2.3a12.989 12.989 0 00-6.348-2.276c-1.421-.045-2.845.024-4.268.055a12.654 12.654 0 00-5.238 1.07c-.789.374-1.568.774-2.341 1.181-3.611 1.9-5.773 5.011-7.2 8.713-.318.827-.435 1.732-.759 2.555a14.417 14.417 0 00-.781 4.4 14.719 14.719 0 00.95 5.567 16.631 16.631 0 003.574 5.971 23.524 23.524 0 002.646 2.55 6.371 6.371 0 005.223 1.259c-.052-.936-.2-1.678-1.359-1.259a.158.158 0 01-.081 0 10.354 10.354 0 01-4.933-2.919c-.614-.592-.929-1.5-1.549-2.077-1.3-1.22-1.608-2.9-2.269-4.416a5.651 5.651 0 01-.42-1.575 15.47 15.47 0 01-.276-3.65c.144-1.178-.036-2.423.694-3.562a12.527 12.527 0 001.022-2.87.34.34 0 00-.1-.259c-.393-.42-.036-.51.251-.728.43-.328 1.185-.927 1.106-1.1-.333-.752.176-1.016.538-1.4.762-.814 1.49-1.663 2.3-2.43a19.343 19.343 0 011.667-1.232c.155-.118.222-.39.384-.453.755-.3 1.534-.528 2.291-.82.319-.123.866-.356.855-.507-.052-.72.427-.478.743-.485.544-.012 1.09.047 1.633.024 1.153-.05 2.265-.779 3.462-.193.12.059.315-.047.477-.057a6.549 6.549 0 011.006-.034c.382.035.757.192 1.137.2.813.021 1.573-.149 2.293.616.338.359 1.189.425 1.79.684.663.285 1.5.383 1.958.856a11.756 11.756 0 001.333 1.242c.563.428 1.126.972.834 1.829a17.245 17.245 0 00-.622 1.7c-.221.983-.934 1.917-.368 3-.608.616-.3 1.37-.313 2.076-.056 2.514 1.108 3.975 3.592 3.965 1.047 0 2.209-.231 2.485-1.385a7.278 7.278 0 00.154-3.6 55.082 55.082 0 00-2.544-6.06c-.233-.529-.779-1.044.143-1.455.068-.03.05-.238.085-.359a3.973 3.973 0 01.2-.605c.163-.342.38-.66.522-1.009a2.627 2.627 0 00.091-.67l.788.262c-.046.033.037 0 .036-.029-.05-1.271 1.208-1.842 1.558-2.9.021-.064.23-.054.339-.106a1.386 1.386 0 00.457-.278c.144-.166.209-.4.34-.579.2-.278.426-.536.754-.943.695.1 1.174-.371 1.3-1.244.1-.7.618-.866 1.2-1.008a1.664 1.664 0 00.8-.447c.443-.482.857-.948 1.637-.719l.522-1.284c1.048-.1 2.155-.2 2.753-1.225.304-.518.568-.012.842-.154zM167.025 18.3a.188.188 0 00-.05.149c.436 1.282-.566 2-1.115 2.907-.372.613-.88.356-1.35.271-.126-.023-.32-.381-.3-.4a4.805 4.805 0 01.612-.48l-.5-.137c.8-.883 1.772-1.6 1.833-2.864l.568-.342c-.083.356.769.405.302.896zm-37.815 2.966l.456-.054.035.106-.57.357.729.311c-.418.641-.3 1.158.386 1.806a1.145 1.145 0 01.17.753c0 .534-.06 1.067-.092 1.553l.839.343a5.975 5.975 0 01-1.48 1.073 5.072 5.072 0 01-1.731-.083.965.965 0 00-.3-.34c-.67-.361-.718-.916-.631-1.585a3.606 3.606 0 00-.016-1.489c-.382-1.218.317-2.168.645-3.215.158-.506.284-1.022.412-1.485z"/><path data-name="Path 1208" d="M14.613 53.576c.192.221.473.477.482.725a2.521 2.521 0 001.49 2.072 16.179 16.179 0 003.689 1.375c1.181.314 1.745.688 1.892 1.682a5.249 5.249 0 003.771 4.093 9.357 9.357 0 002.275.233c.582-.023.792.3 1.1.646a24.5 24.5 0 001.741 1.741 1.9 1.9 0 00.8.463 3 3 0 002.484-.736c.172-.124.242-.391.359-.591l-.527-.257a12.59 12.59 0 017.546-1.709 1.87 1.87 0 00-.751-.3 10.144 10.144 0 00-5.743.9 11.4 11.4 0 01-2.643.82 3.19 3.19 0 01-2.97-1.058c.768-.287 1.479-.494 2.135-.813.869-.424 1.146-1.13.8-1.792a1.406 1.406 0 00-2-.457 3.3 3.3 0 00-1.74 2.329c-3.341.394-6.077-1.509-5.725-4.034a5.48 5.48 0 00.695.13 17.565 17.565 0 002.516.095 1.462 1.462 0 001.426-1.435 1.65 1.65 0 00-1.217-1.9 4.246 4.246 0 00-2.166-.066 3.027 3.027 0 01-3.181-.515l-.056.746 1.423 1.224-.09.184a12.307 12.307 0 01-2.615-.7 14.451 14.451 0 01-5.564-4.74c-.989-1.507-1.928-3.095-1.275-5.115a3.68 3.68 0 012.7-2.676c2.5-.407 4.263.888 5.881 2.568a13.662 13.662 0 002.72 2.418c1.705 1 3.556 1.756 5.313 2.6l-.164.172.82.478.283-.65c0 .9.35 1.161 1.022 1.3a13.059 13.059 0 012.067.73l1.415 1.426a4.834 4.834 0 00.43-4.926c-.362-.972-.749-1.934-1.119-2.9-.189-.5-.238-1.124-.577-1.468a4.278 4.278 0 01-.87-2.57 3.555 3.555 0 00-.36-.79v-2.341c.8-2.275 2.875-2.64 4.453-3.488 1.623-.873 3.644-.326 5.483-.015l-.09.28 1.725 1.392.41-.107 1.063 1.083a5.609 5.609 0 01.882.743 4.5 4.5 0 011.094 1.453 1.1 1.1 0 001.424.935 1.336 1.336 0 00.411 1.831c.483.37.665.674.43 1.038.33.455.887.894.82 1.192a1.89 1.89 0 00.939 2.057c1.064.588.5 2.05 1.6 2.481.03.012-.048.221-.01.311.118.285.267.559.4.836.161.3.1.744.291 1.025a2.589 2.589 0 00.949.623c.239.131.5.218.838.359a7.926 7.926 0 001.36 2.484 12.856 12.856 0 011.345 2.833 5.217 5.217 0 00.627.832l.08-.08c.2.574.4 1.149.519 1.5l.344 3.913c-.457.49-.977 1.075-1.527 1.628-.266.267-.741.418-.856.722-.245.651-.925.627-1.258.648a24.077 24.077 0 01-3.342-.205c-.227-.018-.455-.019-.682-.033-.167-.01-.456-.086-.481-.033a1.386 1.386 0 00-.17.738c.018.129.3.3.474.314 1.331.08 2.666.178 4 .155a3.524 3.524 0 001.817-.464 9.348 9.348 0 002.064-1.9 4.291 4.291 0 00.974-1.987 10.115 10.115 0 00-1.59-6.718 14.666 14.666 0 01-.846-1.556 10.356 10.356 0 00-2.5-3.933.67.67 0 01-.2-.5c.194-1.788.654-3.446 2.364-4.344a2.349 2.349 0 001.334-.167 35.554 35.554 0 004.21-2.984 7.724 7.724 0 002.2-4.286c.024-.107-.1-.242-.136-.368a4.127 4.127 0 01-.314-1.086c-.046-2.528-.968-4.124-2.86-4.458-.083-.969-.111-1.895-.256-2.8a11.524 11.524 0 00-.67-2.868 2.961 2.961 0 00-2.718-1.908c-.68-.006-.87-.333-1.031-.875a2.515 2.515 0 00-.489-.675l-.232.151c.041.421.1.842.118 1.264.033 1.071.116 1.15 1.214 1.023a2.039 2.039 0 012.2 1.366l-3.459-.383c-.04-.149-.1-.387-.167-.622a13.987 13.987 0 00-4.676-7.535c-2.372-1.846-4.855-1.1-6 1.669-.938 2.276-.435 4.427.411 6.6.931 2.389 1.758 4.819 2.66 7.22a3.857 3.857 0 01-.812 3.92 8.455 8.455 0 00-1.224-1.467q-2.4-1.825-4.9-3.513c-1.534-1.036-3.343-.794-4.935-.469a8.978 8.978 0 00-5.105 2.751 4.671 4.671 0 00-1.357 2.213 14.126 14.126 0 00.694 5.744c.578 1.71 1.353 3.354 2.127 5.235a34.05 34.05 0 01-3.648-.756 26 26 0 01-8.587-4.846 9.255 9.255 0 00-3.812-2 4.711 4.711 0 00-5.871 5.422 9.461 9.461 0 002.541 4.834zm19.505 11.457c-.937.911-1.685 1-2.63.324zm-3.16-3.905c.255-.095.647.18.977.287-.143.285-.212.712-.441.828a17.872 17.872 0 01-2.076.769 2.371 2.371 0 011.54-1.884zm-7.082-3.418a3.927 3.927 0 00.8.079c-.129-.368 1.021-1.017-.4-1.183l.208-.275a6.608 6.608 0 011.8.212 1.354 1.354 0 01.657 1.056 1.163 1.163 0 01-.8.816 26.972 26.972 0 01-2.969-.061c.063-.855.058-.838.705-.644zm32.963-27.259c.509 1.768.272 4.456-.506 5.344-.976-1.394-.649-4.568.507-5.344zm-9.346-3.864a4.548 4.548 0 01.479-4.78 1.973 1.973 0 012.3-.868 6.464 6.464 0 012.4 1.3 13.931 13.931 0 013.908 6.708 1.255 1.255 0 01-.255.807 8.393 8.393 0 00-.931 1.408 6.964 6.964 0 00.02 4.354c.125.4.6.7.911 1.041.31-.358.838-.687.889-1.079.191-1.48.235-2.981.316-4.474a5.491 5.491 0 00-.1-.877 4.053 4.053 0 013.24.48 2.39 2.39 0 01.7 1.3 14.912 14.912 0 01.294 2.091 2.273 2.273 0 01-.468 1.993c-.224.242-.207.709-.3 1.074.37-.2.874-.306 1.086-.614.646-.941 1.226-1.022 1.955-.085a4.2 4.2 0 01.629 3.966 10.061 10.061 0 01-3.885 5.427c-.619.447-1.278.84-1.926 1.247-1.974 1.243-3.454 2.782-3.245 5.407a6.827 6.827 0 01-2.039-2.969 9.357 9.357 0 00-1.171-1.951 13.951 13.951 0 01-1.353-2.858 9.493 9.493 0 01-.061-2.725c.02-.545.167-1.085.218-1.63.01-.11-.157-.236-.138-.209.128-.336.237-.563.3-.8.275-.988.562-1.973.8-2.97.339-1.427-.407-2.648-.83-3.92a5.633 5.633 0 00-.759-1.376c-.093-.134-.383-.132-.72-.233l1.4 4.046-.261.1c-.328-.754-.674-1.5-.979-2.265-.797-2.027-1.476-4.111-2.419-6.066z"/><path data-name="Path 1209" d="M207.47 91.566a5.647 5.647 0 001.822-.437 15.02 15.02 0 002.98-2.371c1.566-1.723 2.057-4 2.807-6.136a29.221 29.221 0 011.661-3.995 1.945 1.945 0 012.554-1.051 3.46 3.46 0 011.922 2.938 1.268 1.268 0 01-.081.22c-.16.453-.5.935-.441 1.355a6.473 6.473 0 01-.414 2.917c-.181.6-1.123 1.195-.28 1.97.036.033-.037.207-.084.3-.3.607-.6 1.211-.846 1.7a5.132 5.132 0 00-1.408.018 6.608 6.608 0 00-4.048 3.8c-.123.276-.09.852.089.977a1.2 1.2 0 001.059.038 15.2 15.2 0 002.087-1.429c.828-.656 1.609-1.373 2.4-2.056a2.716 2.716 0 01.019 3.091c-.533 1.034-1.12 2.042-1.6 3.1a.909.909 0 00.354.816 1.641 1.641 0 011.1 2.251c-.625 2.3-4.484 4.47-6.707 3.655a2.028 2.028 0 00-1.66.112 2.215 2.215 0 01-2.968-.876 6.4 6.4 0 01-.349-.732l-.474.317c.09.4.181.794.282 1.235-.976-.254-1.977-.512-2.977-.775-.432-.114-.883-.168-.842-.823a13.546 13.546 0 00-.093-1.655l-.462-.023c.239-.805.447-1.588.7-2.353.292-.87.668-1.712.934-2.589.315-1.041.554-2.106.823-3.161a10.425 10.425 0 00.042-5.578 4.659 4.659 0 01-.388-1.123 6.685 6.685 0 00-1.781-4.116c-.258-.331-.6-.6-.835-.943a5.563 5.563 0 00-4.667-2.761 12.745 12.745 0 00-4.892.986 6.286 6.286 0 00-3.614 2.985 21.346 21.346 0 00-1.06 3.562c-.228.866-.388 1.749-.63 2.862a22.216 22.216 0 01-1.455-2.05 25.691 25.691 0 01-2.868-8.834 25.905 25.905 0 00-.956-4.467 4.682 4.682 0 00-3.123-3.142c-2.635-.82-5.606 1.01-6.372 3.968a12.212 12.212 0 00-.457 4.863 1.4 1.4 0 01-.044.8 3.255 3.255 0 00.213 2.994c.483 1.141 1.055 2.243 1.581 3.346a5.134 5.134 0 00-.14 7.314c.63.653 1.306 1.244 1.119 2.29a.86.86 0 00.146.463 9.642 9.642 0 006.8 5.416 4.7 4.7 0 003.092-.086 6.913 6.913 0 00-1.2-.145 9.182 9.182 0 01-7.814-4.659 8.239 8.239 0 01-.556-1.533 4.957 4.957 0 011.138.338 6.047 6.047 0 001.823.3 1.214 1.214 0 001.193-1.239 1.067 1.067 0 00-1.136-1.072 18.54 18.54 0 00-2.643.232c-.2.02-.437.139-.578.063a4.955 4.955 0 01-2.016-4.789 1.485 1.485 0 01.491-.562c.2-.177.5-.272.649-.477.358-.476.616-.381.967.013a2.558 2.558 0 002.129 1.038 1.05 1.05 0 00.907-1.721 3.46 3.46 0 00-2.892-1.746 1.226 1.226 0 01-.894-.41 7.638 7.638 0 01-.927-1.9 15.049 15.049 0 01-.363-8.64 6.4 6.4 0 011.158-2.3 3.817 3.817 0 016.615.732 7.2 7.2 0 01.823 4.525 8.659 8.659 0 00.275 3.8c.224.807.474 1.607.751 2.544l-.646-.554.24 1.486.442-.108a3.2 3.2 0 00-.021 1.278 4.764 4.764 0 00.877 1.1c-.069.363-.217.652-.15.875.236.781.535 1.545.838 2.3.049.123.246.182.367.28.4.325.794.654 1.339 1.1a3.348 3.348 0 002.625-2.594c.138-.741.465-1.445.67-2.177a8.11 8.11 0 00.418-1.9 6.379 6.379 0 01.424-1.727 3.7 3.7 0 012.374-2.451c.667-.22 1.3-.536 2.06-.854.172-.017.475-.04.776-.08a5.268 5.268 0 01.975-.139c.661.042 1.316.183 1.977.231a3.632 3.632 0 012.477 1.676c.51.642 1.093 1.264 1.548 1.966.311.481.654.942 1 1.438l-.186.109c.166.817.3 1.5.449 2.221l.482.207c-.374.667-.337 1.179-.129 1.348 0 .448.016.727 0 1a8.409 8.409 0 00-.11 1.044c.052.9-.993 1.861.192 2.673-.987.571-1.232 1.326-.7 2.094-.2.162-.406.315-.59.494-.1.094-.231.27-.2.348.28.687-.039 1.083-.547 1.514-.211.179-.165.662-.233 1.007-.013.066-.007.135-.019.2-.079.421-.164.842-.241 1.264-.05.271 0 .693-.157.79-.483.3-.714.582-.372 1.127.037.06-.07.235-.14.335-.492.7-1.357 1.256-.941 2.33.013.032-.033.113-.072.134-.675.355-.205.757-.144 1.11a11.986 11.986 0 00-.888 2c-.1.325.1.791-.059 1.05-.623.991-.341 2.124-.587 3.168a3.883 3.883 0 00.152 1.228l-.284 1.724-.874 1.547c-.291.513-.516 1.4-.889 1.466-.991.182-1.937.754-3 .517-.125-.028-.28.129-.427.142a4.621 4.621 0 01-1.745.082 6.727 6.727 0 01-2.5-1.8c-.135-.136-.267-.278-.414-.4-.127-.106-.333-.3-.4-.263a1.785 1.785 0 00-.62.535c-.05.073.135.336.251.483s.28.217.394.349a5.494 5.494 0 004.4 2.235 19.949 19.949 0 003.205-.525 3.513 3.513 0 001.252-.481c2.439-1.655 2.617-4.288 2.905-6.865a19.842 19.842 0 01.256-2.4c.267-1.115.691-2.193 1.02-3.3.308-1.031.579-2.072.877-3.153l.941.313.3-.488c1.6.4 3.162.8 4.724 1.175.471.114 1.2.018 1.381.3.393.611.706.252 1.082.149a3.481 3.481 0 01.854-.189 10.883 10.883 0 003.946-.435 8.4 8.4 0 004.108-2.829 3.022 3.022 0 00.5-2.641 6.976 6.976 0 00-1.162-1.767 2.826 2.826 0 01.75.217 2 2 0 011.047 1.814c0 .154.273.3.42.455.14-.169.344-.32.4-.514a.886.886 0 00-.072-.635c-.454-.771-.948-1.519-1.45-2.312l.974-1.251-.878-.194c.768-1.615 1.158-3.215-.12-4.519.707-1.888 1.509-3.63 2-5.455a8.406 8.406 0 00-.229-5.673c.778-.54.846-1.036.24-1.791l-.35 1.42-1.783-1.476 1.343-.9-.119-.275-.941.221a4.965 4.965 0 01-1.728.365c-.919-.149-1.535-.157-1.493 1 0 .088-.11.179-.169.269-1.454 2.233-3.027 4.4-3.684 7.055-.026.105-.083.2-.118.305a11.043 11.043 0 01-4.734 6.181 5.328 5.328 0 00-.554.439zm6.81 1.846c.136-1.66 2.545-3.69 4.208-3.581a10.622 10.622 0 01-4.207 3.58zm-38.159-.2a21.318 21.318 0 012.213.028c.24.025.446.375.667.577-.275.192-.587.581-.82.539a17.577 17.577 0 01-2.19-.664zm1.717-5.96a2 2 0 01-2.5-1.655 2.241 2.241 0 012.5 1.657z"/><path data-name="Path 1210" d="M12.221 206.191c-.509-.409-1.071-.758-1.545-1.2a19.605 19.605 0 01-2.148-2.215c-.69-.891-1.669-1.565-2.029-2.726-.087-.28-.525-.449-.795-.677a.729.729 0 01-.21-.254c-.276-.662-.515-1.341-.822-1.989-.093-.2-.476-.27-.536-.461-.464-1.445-.938-2.891-1.3-4.365a16.185 16.185 0 01-.71-4.117c.053-2.065-.411-4.135.156-6.211.389-1.424.355-2.964.761-4.38a34.6 34.6 0 011.742-4.276 22.467 22.467 0 011.484-3.063 33.948 33.948 0 014.249-6.009 7.755 7.755 0 011.535-1.509 26.989 26.989 0 003.026-2.371c.381-.307.706-.715 1.3-.453.454.2 1.1.2 1.377.521.991 1.149 2.425.88 3.639 1.253a26.094 26.094 0 002.986.361c.734.132 1.4.261 1.872-.46l.582.287.2-.836.37.61.442-.718c.491.359 1.9.237 2.034-.262.21-.772.761-.867 1.379-1.007a1.3 1.3 0 00.914-1.992c.591.176 1.077.165 1.1-.587a4.594 4.594 0 01.048-.814 1.534 1.534 0 00-1.06-1.622c-.034-.007-.055-.079-.126-.188l.408-.159-.1-.354-1.913-.107.106-.208c-1.279-.133-2.536-.281-3.8-.38a1.966 1.966 0 00-.834.224 7.628 7.628 0 01-2.289.932 5.719 5.719 0 00-3.056.924 14.594 14.594 0 01-1.4.778c-.658.335-1.343.625-1.984.989-.18.1-.251.4-.49.808a3.72 3.72 0 01-1.469-.469 31.763 31.763 0 01-2.738-2.865 9.588 9.588 0 01-2.064-4.314 28.857 28.857 0 01-.361-4.959 9.466 9.466 0 01.415-3.46 33.975 33.975 0 013.237-6.654 19.282 19.282 0 012.692-3.341 23.41 23.41 0 012.795-2.538 23.156 23.156 0 012.917-1.719 32.7 32.7 0 014.385-2.249c2.379-.851 4.871-1.537 7.407-.729a9.555 9.555 0 013.089 1.644 42.092 42.092 0 013.365 3.41c.055-.034.209-.136.371-.225.763-.421.824-.607.265-1.265a81.341 81.341 0 00-2.706-3.045 3.159 3.159 0 00-1.121-.794 55.725 55.725 0 00-4.013-1.365 5.09 5.09 0 00-1.746-.151 30.268 30.268 0 00-3.494.4 11.644 11.644 0 00-2.548.8c-1.029.454-2 1.032-2.991 1.576-.475.261-.929.56-1.383.855-.11.072-.166.228-.277.3-1.158.728-2.322 1.447-3.485 2.167a3.553 3.553 0 00-.818.514c-.626.7-1.2 1.45-1.82 2.207l.208.361c-.221.16-.412.4-.645.451a1.676 1.676 0 00-1.439 1.648 1.648 1.648 0 01-.357.671c-.108.163-.282.283-.381.45-.535.9-1.114 1.785-1.564 2.73a30.536 30.536 0 00-1.146 2.969c-.083.234.022.53-.042.775a18.2 18.2 0 00-.736 2.762c-.04.4-.538 1.189.383 1.456.059.017.069.3.057.45a13.223 13.223 0 00-.158 1.8 22.985 22.985 0 00.364 2.677c.027.154.424.274.418.4-.047.947-.115 1.871.946 2.378.066.031.047.241.066.367a2.867 2.867 0 001.39 2.186l.138-.3a20.143 20.143 0 001.341 2.194c.549.7.522 1.083-.112 1.742-.983 1.022-2.408 1.535-3.157 2.821a5.7 5.7 0 01-.777.874c-.781.271-1.431.573-1.356 1.727a1.136 1.136 0 01-.781 1.154 1.756 1.756 0 00-1.089.925 2.161 2.161 0 01-1.367 1.659c-.086.612.034 1.468-.3 1.71-.523.384.368 1.42-.745 1.37l.131-.51-.174-.071-.809 1.533a.706.706 0 01-.2 1.125c-.217.544-.392.981-.564 1.42-.054.139-.182.321-.136.414.25.508-.084.8-.364 1.112a1.546 1.546 0 00-.215 1.816l-.489.819.778.408c-1.244.314-.671 1.392-1.116 1.9-.848.975.357 1.128.559 1.562l-1.251.854.066.161.588.034.676 3a1.984 1.984 0 00-.671 1.126 4.646 4.646 0 00.251 1.359c.125.548.265 1.093.435 1.787l.351.119-.4.868.805.163c-.077.292-.138.52-.158.6.263.221.457.314.535.467a2.509 2.509 0 01.183.7c.154.835.3 1.672.437 2.437a3.5 3.5 0 01.362.464c.215.394.3.95.621 1.179a7.911 7.911 0 012.286 3.313 6.092 6.092 0 001.359 1.638c.295.274 1.119.375.9 1.174a3.118 3.118 0 00.976.5 1.689 1.689 0 00.627-.042 1.19 1.19 0 001.277 1.49l.914.735.078-.116-.4-.974.748.435a1.853 1.853 0 00-.622-.854zm12.082-50.761l-.509-.477.131-.118.524.577a15.826 15.826 0 012.163-.461 9.717 9.717 0 014.417.314c1.171.467 1.3 1.312.445 2.134a10.117 10.117 0 01-8.316 3.014 16.885 16.885 0 01-3.79-.539c-.736-.247-1.429-.619-2.285-1z"/><path data-name="Path 1211" d="M84.485 289.122c-.53-1.41-1.135-2.794-1.61-4.222a1.807 1.807 0 01.092-1.481 12.173 12.173 0 012.206-1.787c.641-.445 1.478-.676 1.434-1.85l.689.617a14.8 14.8 0 011.481-2.074c.432-.434.938-1.145.8-1.524.252-.3.692-.625.64-.806a2.579 2.579 0 01.032-2.411c.022-.033-.126-.16-.153-.255-.138-.477-.263-.957-.42-1.544l-1.719-.93c.343-.369.539-.757-.2-.9a10.528 10.528 0 00-1.479-.254c-.661-.033-1.326.014-1.989.046a1.6 1.6 0 00-1.207 1.491c-.294.152-.645.23-.815.448a2.815 2.815 0 00-.3.92l-.49-.321.512.971-1.169.142a1.62 1.62 0 01-.121 2.7v2.177l.221.113c-.117.234-.344.487-.288.615a4.688 4.688 0 00.6.762.432.432 0 01.012.307 2.808 2.808 0 00-.153.474c-.017.557-.184 1.09-.212 1.657-.039.794-.987.746-1.517.834a34.242 34.242 0 01-6.555.718 28.138 28.138 0 01-6.265-1.242 21.849 21.849 0 01-4.028-1.762 25.85 25.85 0 01-2.718-1.52 16.2 16.2 0 01-4.1-4.287 22.9 22.9 0 01-1.957-3.909 13.328 13.328 0 01-1.139-2.737 19.914 19.914 0 01-.508-5.385 24.069 24.069 0 01.92-6.323 4.761 4.761 0 013.5-3.245c.753-.2.912-.7 1.105-1.335a4.151 4.151 0 00-2.547.169 6.68 6.68 0 00-3.581 4.464 8.565 8.565 0 00-.849 3.125c.111 1.223-.475 2.347-.108 3.607.376 1.292-.223 2.752.387 4.073.139.3.3.59.517 1.016-.4.933-.316 1.293.394 1.663a18.354 18.354 0 00.721 2.161 25.516 25.516 0 001.59 2.854c.417.646.42 1.746 1.613 1.668.07 0 .179.133.221.227a7.074 7.074 0 00.4.951c.363.562.682 1.218 1.254 1.211.894.743 1.637 1.383 2.409 1.984.142.11.517.161.591.074.21-.246.208-.117.345.054a4.811 4.811 0 00.879.855 2.026 2.026 0 00.973.481c1.151.051 2 .813 3.017 1.167.91.318 1.815.654 2.737.931a15.6 15.6 0 001.962.423c.064.01.161-.181.171-.215.339.179.789.544.909.457.708-.513 1.313 0 1.956.073.1.011.271.006.306-.053.4-.676.993-.168 1.465-.277.629-.145 1.3.37 1.907-.225a1.8 1.8 0 011.152-.315c.877-.008 1.791.271 2.423-.683.1-.145.537-.061.844-.085.06.851.07 1.631.191 2.394.055.345.518.689.467.977-.133.76.194.96.936.924-.99 1.013.353 1.26.456 2.094l.383-.8.4.327a1.785 1.785 0 00-.023-.639zm-2.448-7.289c0-1.174-.034-2.118.009-3.058.051-1.138-.2-2.32.433-3.389a.876.876 0 00.068-.392 4.681 4.681 0 012.274-3.663 2.637 2.637 0 012.729.569 4.012 4.012 0 01.989 4.2 2.545 2.545 0 01-.933 1.55c-.627.447-1.026 1.2-1.614 1.719a11.663 11.663 0 01-1.661 1.057c-.733.458-1.469.905-2.294 1.41z"/><path data-name="Path 1212" d="M53.846 222.513c.025-.019.092.019.188.042l-.121.52a10.028 10.028 0 011.762.145c.58.148 1.1.342 1.649-.068a.541.541 0 01.451.007c1.484.669 2.848.091 4.1-.567.566-.3.83-.318 1.25.2a4.9 4.9 0 01.366-.543 3.388 3.388 0 01.426-.348c.045.526.321.4.632.236a3.21 3.21 0 00.856-.431c.164-.172.14-.522.2-.781l2.239-.615c.082-.263.083-.544.212-.63.3-.2.921-.254.97-.467.226-.988 1.241-.991 1.77-1.575.439-.484.963-.89 1.41-1.367a2.891 2.891 0 00.366-.734l.3.187c.256-.525.487-1.046.759-1.544.369-.671 1.166-1.094 1.125-2.018-.006-.137.33-.289.574-.489l-.305-.547.426.147.409-1.1c-.055-.132-.256-.431-.195-.5a4.7 4.7 0 00.835-1.885 10.947 10.947 0 01.56-2.518 2.229 2.229 0 00-.149-1.878c-.289-.607-.43-1.072-1.189-1.1l.585 3.313.531-.172a4.462 4.462 0 00-1.118 1.532c-.2.489-.146 1.087-.358 1.569-.662 1.506-1.342 3.009-2.117 4.458a11.752 11.752 0 01-3.53 4.334 6.6 6.6 0 00-.951 1 3.618 3.618 0 00-.793.35 19.444 19.444 0 01-5.543 2.832 14.828 14.828 0 01-7.293.607 16.108 16.108 0 01-2.838-.517 28.21 28.21 0 01-3.178-1.579 6.548 6.548 0 01-1.288-.711c-1-.854-1.954-1.764-2.917-2.661a17.577 17.577 0 01-5.34-8.439c-.213-.808-.021-1.869-1.114-2.273-.034-.013-.013-.289 0-.289.673-.068.42-.783.76-1.077a4.054 4.054 0 00.285-.3l.631-.675-.152-.155.7-.256-.579-.339.065-.162.793.184c.232-.449.173-1.066.867-1.235.189-.046.434-.8.356-.865-.612-.5-.131-.562.22-.72a.482.482 0 00.2-.245c.5-1.2 1-2.409 1.505-3.625-.742-.549-1.377-1.2-2.406-.659a5.257 5.257 0 00-2.908 3.113l-.317-.014c-.143 1.306-1.409 2.379-.837 3.551a5.037 5.037 0 00-.273 1.536 1.314 1.314 0 01-.7 1.428 25.683 25.683 0 01-2.518 1.755 18.169 18.169 0 01-6.075 2.331 12.568 12.568 0 00-1.572.3c-.114.031-.159.317-.235.485-.214.022-.461-.541-.654.034-.008.023-.142.008-.217 0-.933-.055-1.867-.093-2.8-.171a11.223 11.223 0 01-2.909-.344c-2.193-.811-4.317-1.812-6.519-2.759l-.083 1.311 2.239.787c.122.042.245.08.364.128a9.17 9.17 0 011.082.453 14.76 14.76 0 001.649 1 2.92 2.92 0 001.791.3 4.53 4.53 0 012.436.1c.877.148 1.741.719 2.656.151.327-.2.632-.44.946-.662.211.074.5.085.621.232.6.7 1.372.309 2.057.343.27.013.558-.345.924-.593.351.231.924-.032 1.123-.717.034-.116.3-.233.46-.231.5.009 1 .074 1.5.118l-.068-.26.191-.644a2.17 2.17 0 00.486.238c.133.029.368.005.417-.078a2.522 2.522 0 00.216-.676c.012-.047-.036-.108-.115-.322l.485.347c.165-.225.272-.513.477-.628.821-.458 1.66-.887 2.519-1.269.2-.09.505.045.761.077a5.374 5.374 0 00-.083.582 2.275 2.275 0 00.029.906c.224.53.566 1.01.826 1.526.094.186.187.569.126.607-.338.2-.121.368-.1.624.1 1.106 1.033 1.468 1.662 2.136-.146 1.215.623 2.047 1.359 2.891l.755-.246c-.148.264-.377.505-.327.609.244.5.271 1.188.926 1.367.256.07.57-.1.859-.1.136 0 .273.122.479.223l-.83.434 1.7 1.281.506-.474a13.1 13.1 0 00.633 1.467c.063.11.408.054.623.083.331.045.748-.009.968.173.29.238.394.688.639 1a.705.705 0 00.542.13 2.751 2.751 0 012.142.728 1.815 1.815 0 002.107.299zm-11.379-25.682a14.9 14.9 0 01-.853 2.245c-.528.925-1.221 1.755-1.823 2.64a4.494 4.494 0 00-.312.711c-.079.176-.168.347-.253.521-.999-2.064 1.362-6.256 3.241-6.116z"/><path data-name="Path 1213" d="M108.226 108.201c-.585 1.2-1.121 2.422-1.672 3.637a13.982 13.982 0 00-.789 1.806c-.244.836-.368 1.707-.548 2.586a4.912 4.912 0 01-.587-.238 9.187 9.187 0 00-8.425-.649 8.678 8.678 0 00-4.216 2.947 31.326 31.326 0 00-2.831 4.088 8.088 8.088 0 00-.991 4.144 21.672 21.672 0 00.274 2.955 14.568 14.568 0 001.046 3.316 38.275 38.275 0 002.3 3.832 6.868 6.868 0 001.154 1.425 1.994 1.994 0 002.742-.31c-.312-.532-.64-1-1.4-.852a.76.76 0 01-.6-.306c-.884-1.286-1.776-2.569-2.576-3.907a10.659 10.659 0 01-.693-1.913c-.026-.073-.117-.128-.132-.2-.133-.62-.251-1.244-.383-1.865-.118-.556-.246-1.109-.371-1.663.092-.284.753-.538.036-1.1-.033-.026.017-.174.044-.26.389-1.223.5-2.547 1.413-3.577.142-.161.056-.524.06-.578a8.275 8.275 0 011.232-1.637 3.768 3.768 0 001.451-1.709c.034-.1.263-.139.4-.2a3.728 3.728 0 00.752-.349 7.8 7.8 0 011.295-.8c1.079-.541 2.215-.242 3.266-.6a2.746 2.746 0 01.946.029c.3-.039.756.173.851.066.391-.442.59-.018.854.1a8.9 8.9 0 011.294.612 17.777 17.777 0 011.5 1.187c.036.03 0 .155-.013.235a10.765 10.765 0 001.26 6.432c.662 1.264.731 1.285 2.163 1.022a2.572 2.572 0 00.324-.12c.114-1.188.3-2.412.321-3.638a9.2 9.2 0 00-.43-1.705 5.745 5.745 0 00-2.213-3.2c-.29-.254-.4-.39-.077-.663a2.063 2.063 0 00.629-2.057c-.3-1.011.275-1.187.881-1.493a1.691 1.691 0 01.6-2.238 2.058 2.058 0 00.641-1.721 2.917 2.917 0 00.565-.662c.161-.4-.049-.6-.475-.57l.107-.247c-.591-.259-.797.235-.979.608zm-1.6 11.649l1.106 1.841-.533.208a1.025 1.025 0 01-.292 1.758 1.708 1.708 0 00-.225-1.619 5.43 5.43 0 01-.277-2.067z"/><path data-name="Path 1214" d="M187.816 237.252a20.99 20.99 0 003.94 1.183c1.506.1 2.911.645 4.507.509a58.141 58.141 0 017.546.248c.31.014.617.111.925.113.531 0 1.22.157 1.554-.111a1.692 1.692 0 011.257-.359c.364.007.729-.056 1.245-.1l-.706-1.749c-.478.079-.889.131-1.292.219a9.922 9.922 0 01-1.448.353c-1.311.081-2.627.08-3.941.13a8.433 8.433 0 01-1.249.126c-1.32-.155-2.629-.4-3.949-.554-.4-.046-.837.2-1.234.14-1.651-.238-3.293-.536-4.937-.82-.379-.065-.915-.028-1.1-.26-.576-.721-1.42-.622-2.135-.813a9.71 9.71 0 00-4.941.147 4.564 4.564 0 00-1.792.7 14.954 14.954 0 01-4.721 2.179 7.9 7.9 0 01-4.207.315 11.077 11.077 0 00-1.553-.079 13.333 13.333 0 01-3.125-.161c-3.092-.9-6.114-.268-9.168.1a34.143 34.143 0 01-4.032.193c-1.568 0-3.137-.069-4.7-.144a9.594 9.594 0 01-2.22-.259c-.811-.237-1.021-.19-1.156.681a66.507 66.507 0 0013.238.457l.16-.283c.529 0 1 .019 1.46 0 1.4-.069 2.782-.543 4.192.005.258.1.63-.094 1.008-.163.026.035.11.277.239.3a12.109 12.109 0 001.563.206c.5.037 1 0 1.495.047a8 8 0 001.631.24 6.856 6.856 0 012.791.081c.34.1.777-.132 1.169-.213.141-.047.365.084.548.041 1.1-.256 2.192-.528 3.272-.848a5.784 5.784 0 001.125-.58 12.066 12.066 0 011.812-1.017c.875-.306 1.819-.411 2.717-.661a7.635 7.635 0 014.212.461z"/><path data-name="Path 1242" d="M275.924 243.593a15.768 15.768 0 00-2.957-.888 20.9 20.9 0 00-3.383-.382 43.6 43.6 0 01-5.664-.186c-.233-.011-.463-.083-.695-.085-.4 0-.916-.118-1.166.083a1.27 1.27 0 01-.944.27c-.273 0-.547.042-.935.075l.53 1.312c.359-.06.667-.1.97-.165a7.427 7.427 0 011.087-.265c.984-.061 1.972-.06 2.958-.1a6.348 6.348 0 01.937-.094c.99.116 1.973.3 2.964.416.3.035.628-.147.926-.1 1.239.179 2.472.4 3.706.615.285.049.687.021.826.2.432.541 1.066.467 1.6.61a7.287 7.287 0 003.708-.111 3.427 3.427 0 001.345-.522 11.225 11.225 0 013.543-1.635 5.934 5.934 0 013.157-.236 8.321 8.321 0 001.166.06 9.988 9.988 0 012.345.121c2.32.678 4.589.2 6.881-.078a25.636 25.636 0 013.026-.145c1.177 0 2.355.052 3.531.108a7.188 7.188 0 011.666.195c.608.178.766.143.867-.511a49.91 49.91 0 00-9.936-.343l-.12.212c-.4 0-.747-.014-1.1 0-1.047.052-2.088.407-3.146 0-.193-.075-.473.071-.757.122-.019-.026-.083-.208-.179-.228a9.129 9.129 0 00-1.173-.155c-.373-.028-.75 0-1.122-.036a6 6 0 00-1.224-.18 5.145 5.145 0 01-2.095-.061c-.256-.074-.583.1-.877.16-.106.035-.274-.063-.412-.031-.823.192-1.645.4-2.456.637a4.341 4.341 0 00-.845.435 9.064 9.064 0 01-1.36.763c-.657.23-1.365.309-2.04.5a5.73 5.73 0 01-3.153-.357z"/><path data-name="Path 1215" d="M127.703 282.914c0-.4-.021-.971-.271-1.177-.6-.5-.188-1.513-1.035-1.811.183-.728-.239-.974-.851-1.08a.244.244 0 01-.166-.144 1.651 1.651 0 00-1.279-1.386c-.1-.027-.193-.194-.228-.314-.256-.885-1.034-.755-1.664-.8-.274-.021-.571.265-1.031.5.4.189.538.31.684.318a3.882 3.882 0 012.683 1.733 8.1 8.1 0 012.05 7.085 17.493 17.493 0 01-1.886 5.317 18.045 18.045 0 01-4.706 5.206c-1.133.865-2.39 1.566-3.589 2.343a18.726 18.726 0 01-4.891 2.227 9.515 9.515 0 00-1.375.673 5.649 5.649 0 00-1.787.029 15 15 0 01-7.278.009 14.208 14.208 0 01-2.758-.645c-1.1-.435-2.1-1.151-3.2-1.593a15.894 15.894 0 01-4.594-3.011c-.207-.183-.607-.136-.843-.3-.212-.149-.305-.457-.48-.672-.889-1.091-2.062-1.924-2.628-3.316a10.319 10.319 0 00-1.583-2.225c-.069-.089-.315-.042-.485-.053l-.513.8a3.489 3.489 0 01.5.4c.389.443 1.026.878 1.077 1.367a2.6 2.6 0 001.683 2.234 1.372 1.372 0 01.421.484c.486.7.563 1.814 1.817 1.751.092 0 .281.409.3.636a1.714 1.714 0 002.322 1.338c.275 1.145.076 1.173 1.1.775-.03.239-.057.462-.1.771a2.134 2.134 0 012.232.581 2.8 2.8 0 001.947.905c.312-.03.656.283.988.44l.184-.532.175.068-.135.6c.6-.557 1.163 1.106 1.666.076.461.136.921.288 1.391.4a14.047 14.047 0 002.186.473c.813.066 1.621-.166 2.462-.129 1.007.045 2.023-.246 3.04-.3.489-.028.914.026.953-.618.327.087.457-.788.916-.186.045.06.345-.046.512-.112.587-.233 1.047-.906 1.83-.482.082.045.323-.21.493-.321.35-.23.76-.7 1.041-.638.711.167 1.063-.323 1.547-.573.1-.051.175-.227.255-.223 1.069.044 1.582-.859 2.33-1.353.313-.207.584-.477 1.035-.851.068-.524.4-.807 1.035-.835a8.721 8.721 0 01.954-1.27c.529-.478 1.2-.808 1.695-1.312a9.967 9.967 0 001.062-1.639c.787-.166.878-1.041 1.145-1.81a12.4 12.4 0 01.611-1.261v-.395c.8.147.48-.5.532-.813s-.2-.879-.051-.991c.584-.45.325-1.036.4-1.562.038-.273-.021-.558 0-.835.041-.664.153-1.317.153-1.971z"/><path data-name="Path 1216" d="M84.531 289.79l-.028-.023v.051h.012l.019-.029z"/><path data-name="Path 1217" d="M266.007 248.673c-.261-.113-.548-.346-.69-.278-.4.193-.712.026-1.094-.016-1.88-.207-3.777-.256-5.613-.358l-.223.669c-.174-.247-.279-.565-.444-.6a11.469 11.469 0 00-1.584-.144c-1.15-.072-2.3-.157-3.454-.2a15.268 15.268 0 00-1.659.091c-.226.017-.222.341-.643.267a13.547 13.547 0 00-3.121-.114c-1.7.1-3.384.307-5.078.451-.58.05-1.165.028-1.746.071-.279.021-.55.146-.829.169-.993.082-1.99.125-2.983.212-.83.072-1.655.2-2.485.271a7.589 7.589 0 01-1.829.063c-1.72-.278-3.408-.844-5.186-.424-.074.017-.173-.09-.266-.128a1.758 1.758 0 00-.661-.247c-.789.043-1.565.325-2.337-.2a2.145 2.145 0 00-1.121-.177 19.275 19.275 0 00-2.147.088c-.174.018-.323.287-.483.44l-.015-.032-.026.023.028.007c.023.258 0 .682.085.7.652.159 1.374.557 1.806-.221a3.4 3.4 0 00.649.325c.363.088.74.115 1.11.175.611.1 1.217.253 1.831.3 1.091.076 2.189.049 3.278.138.845.069 1.677.333 2.521.361 1.459.049 2.926.032 4.384-.045 2.649-.14 5.292-.419 7.941-.5 2.033-.062 4.06-.557 6.108-.131a2.764 2.764 0 00.948-.108 14.133 14.133 0 012.3-.37c1.315.007 2.629.163 3.943.266.532.042 1.063.107 1.594.162.605.063 1.209.137 1.815.187.918.076 1.838.127 2.756.2a16.5 16.5 0 001.733.166c.37-.009.731-.3 1.1-.312.746-.026 1.495.052 2.422.1l-.592-1.748c-.66.347-1.577-.689-2.043.451z"/><path data-name="Path 1218" d="M51.508 66.465c.083.122.2.487.387.534a2.176 2.176 0 002.573-2.735 5.535 5.535 0 01.168-3.478 6.137 6.137 0 00-.327-4.8c-.354-.628-.624-1.106.013-1.6a25.91 25.91 0 01-2.5-2.726 34.935 34.935 0 01-3.113-5.154 15.371 15.371 0 00-4.638-5.357 5.073 5.073 0 00-5.879-.835c-.548.267-1.187.343-1.758.574-.712.289-1.509.266-1.917 1.275a4.881 4.881 0 00.186 4.733c.6.9.909 2.54 2.678 2.087.08-.021.192.086.29.133a9.441 9.441 0 00-1.368-1.664c-.112-.115-.36-.194-.366-.3-.027-.463.017-.93.026-1.4.014-.724.019-1.448.028-2.171l.261-.023a1.751 1.751 0 01.212.329 1.763 1.763 0 01.056.391.89.89 0 00.228-.577 1 1 0 011.158-1.029 1.635 1.635 0 001.447-.344 1.691 1.691 0 012.111-.2c.123.056.335-.085.465-.122.134.233.324.778.46.765.846-.083 1.29 1.108 2.276.618.519-.258.636.489.957.692a4.707 4.707 0 011.984 1.883c.685 1.393 1.6 2.671 2.361 4.032.209.376.411.992.246 1.294a.831.831 0 00.442 1.306c1.755.81 2.263 2.562 3.132 4.03a2.9 2.9 0 01.419 1.625c-.1 1.039-.44 2.053-.584 3.091a24.419 24.419 0 00-.12 2.533c-.02.627.2 1.413-.1 1.838s-1.109.47-1.894.752zM35.48 43.5c-.137.194 0 .579.024 1.1-.773-1.163-.417-2.175.683-2.537l.192 1.025c-.346.142-.744.191-.904.412z"/><path data-name="Path 1219" d="M133.798 101.511a10.193 10.193 0 00-4.874-3.97c-.99-.351-2-.66-3.014-.919a3.232 3.232 0 00-1.03.05 4.775 4.775 0 00-1.384-.242c-2.366.322-4.79.442-6.919 1.722a9.924 9.924 0 00-2 1.228 19.586 19.586 0 00-3.36 3.855 30.393 30.393 0 01-2.121 2.835c-.455.609-.4 1.131.122 1.5v.011c.01 0 .019 0 .03.009l-.025-.02c.222-.016.445-.031.669-.045l-.19-.169c.242-.43.382-1.065.748-1.245a1.361 1.361 0 00.866-1.52.787.787 0 01.073-.245l.534.19.806-1.722c.956.153 1.337-.178 1.363-1.256.845-.118 1.108-.427 1.063-1.288.713-.281 1.449-.538 2.158-.858.834-.377 1.627-.846 2.471-1.2.313-.129.766.073 1.075-.061a5.332 5.332 0 013.348-.2l.7-.725c.17.23.257.42.313.411.734-.117 1.308.768 2.09.331a.336.336 0 01.292-.009c.459.332.888.71 1.36 1.021.569.375 1.166.962 1.76.974.655.013.7.22.735.725.615-.249.74.136.958.613a12.4 12.4 0 001.138 1.722c.114.039-.018.256.04.336.282.391.839.727.872 1.118.042.5-.04.932.4 1.3a1.476 1.476 0 01.293.615c.118.313.212.634.324.949.056.158.186.308.188.464a16.772 16.772 0 00.069 2.877c.086.437-.336.728-.11 1.033.283.381.031.623-.084.933a4.7 4.7 0 00-.093.69.522.522 0 01-.17.33 1.058 1.058 0 00-.022 1.924 21.681 21.681 0 001.2-2.542 12.073 12.073 0 00.1-5.273 13.857 13.857 0 00-2.762-6.257z"/><path data-name="Path 1220" d="M46.152 61.945a2.332 2.332 0 001.324 1.338c.389.116.814.211.94.507.3.719.759.507 1.313.387a3.292 3.292 0 00-1.108-1.631c-.934-.839-.921-2.122-1.023-3.3-.04-.467-.006-.94-.006-1.391l-.662-.133v-.154l.862-.27.184-1.08-.922.2c.181-.252.454-.3.6-.454a1.506 1.506 0 00.333-.713 15.045 15.045 0 00-2.2-1.448c-.7-.344-1.55-.4-2.221-.781-.474-.271-.567-.309-.787.2a.686.686 0 01-1.054.38c-.332-.2-.648-.429-1.041-.691-.068.32-.088.454-.127.582s-.1.252-.224.567c.055-1.086.06-1.162-.617-1.412a4 4 0 01-1.977-1.881c-.255-.41-.8-.641-1.237-.974l-.358.965.292-.264c.452.6.945 1.178 1.349 1.81 1.135 1.773 2.586 3.1 4.79 3.183a3.849 3.849 0 013.5 4.139 5.4 5.4 0 00.077 2.319z"/><path data-name="Path 1221" d="M201.993 85.595a5.6 5.6 0 00-1.967-2.786 7.97 7.97 0 00-2.088-1.029 2.619 2.619 0 00-1.27-.119c-.586.087-1.146.341-1.729.469a5.2 5.2 0 00-3.875 3.788 12.844 12.844 0 00-.333 2.392c-.089.649.048.745.761.52.023-.3.073-.6.067-.9a4.627 4.627 0 011.381-3.669 5.96 5.96 0 01.64-.638 3.876 3.876 0 01.775-.325 11.829 11.829 0 011.38-.279 9.138 9.138 0 011.642.3l.008.028h1.3c-.211.306-.5.543-.464.716a1.314 1.314 0 00.53.648 4.471 4.471 0 00.66.258 1.859 1.859 0 01.73.479 7.943 7.943 0 01.869 1.689 3.708 3.708 0 01.372 1.937 26 26 0 01-1.439 3.553 7.848 7.848 0 00-.76 4.762c.033.167.2.308.307.46.193-.751.048-1.457.221-2.073a32.1 32.1 0 011.709-5.084 6.792 6.792 0 00.573-5.097z"/><path data-name="Path 1222" d="M189.623 103.28a2.705 2.705 0 00-1.322 2.68 1.77 1.77 0 00.287.58c.163-.156.382-.286.471-.476a2.088 2.088 0 00.049-.645c.063-.64 1.617-2.435 2.15-2.262.885.289 1.333-.547 2.09-.373l.065-.243-.8-.844.727-1.418.309.076c0 .295.111.659-.022.87-.358.57-.235.938.25 1.212l.909-.536a10.3 10.3 0 00-.274-1.788 12.9 12.9 0 00-.878-1.754l.361.03-.31-.583-.149.1q-.109-.6-.219-1.193l-.189-.012-.405.7.056-1.1c-.457.006-.723-1.137-1.3-.318a8.188 8.188 0 00-.99-1.612c-.486-.489-.593-.469-.606-1.124-.007-.325.037-.652.014-.975-.009-.125-.142-.24-.218-.359-.118.087-.337.176-.337.262.008 1.153-.465 2.339.1 3.452.377.738.885 1.408 1.317 2.119a6.864 6.864 0 01.512 1 3.941 3.941 0 01-1.648 4.534z"/><path data-name="Path 1223" d="M190.347 113.032a2.879 2.879 0 01-.873-.342l-.469.592a3.964 3.964 0 001.118.529c2.253.232 3.049-.492 4.043-2.4a19.992 19.992 0 01.965-2.1c1-1.473 2.1-2.888 3.175-4.308a7.132 7.132 0 001.755-4.966 2.366 2.366 0 00-.28-.671 5.439 5.439 0 00-.31.765c-.184.755-.28 1.535-.513 2.272-.548 1.736-1.969 2.878-3.028 4.262a13.085 13.085 0 00-2.427 4.1 2.712 2.712 0 01-3.156 2.267z"/><path data-name="Path 1224" d="M195.164 95.04c.17.056.347.092.566.149a3.193 3.193 0 00.1-.606c-.045-1.087.53-2.32-.729-3.136-.093-.06-.067-.3-.1-.451-.125-.523-.253-1.046-.432-1.784l-.624.834-.151-.04.133-.557-.8-.993c-.767.827-.4 1.6-.146 2.448.274.9.979 1.241 1.773 1.833v2.138c.06.026.232.106.41.165z"/><path data-name="Path 1225" d="M178.882 100.738l.476-.366a5.588 5.588 0 00-.55-.358 1.2 1.2 0 00-.4-.082 2.385 2.385 0 01-2.192-1.916 3.663 3.663 0 00-.751-1.2c-.09-.113-.371-.073-.564-.1a1.685 1.685 0 000 .59 9.791 9.791 0 01.489 1.013c.475 1.965 1.663 2.29 3.492 2.419z"/><path data-name="Path 1226" d="M147.328 156.22a42.468 42.468 0 00-3.127-1.327 8.8 8.8 0 00-1.524-.291l-.139.421 5.111 2.545c.562-.541.519-.955-.321-1.348z"/><path data-name="Path 1227" d="M150.54 155.37c.794-.314.924-.618.474-1.363-.642-1.061-1.312-2.105-1.978-3.152a2.03 2.03 0 00-.41-.506c-.108-.086-.293-.076-.443-.109-.031.145-.122.308-.083.43a5.8 5.8 0 00.41.963c.656 1.23 1.33 2.448 2.03 3.737z"/><path data-name="Path 1228" d="M209.744 87.582a4.078 4.078 0 001.137-1.193 32.5 32.5 0 001.138-3.378 1.931 1.931 0 00-.054-.689 3.653 3.653 0 00-.694.394.918.918 0 00-.229.513 9.408 9.408 0 01-1.946 4.288c.323.038.564.14.648.065z"/><path data-name="Path 1229" d="M146.879 161.176a26.25 26.25 0 00-2.981 1.252c-.235.115-.325.526-.482.8a4.091 4.091 0 00.891-.09c1.138-.373 2.264-.781 3.516-1.219.007-.684-.25-.984-.944-.743z"/><path data-name="Path 1230" d="M217.654 247.777l-7.482-.569-.066.43c-.239-.166-.493-.486-.778-.517a39.446 39.446 0 00-4.439-.328 36.48 36.48 0 00-4.019.387c-1.115.131-2.221.341-3.337.452-1.669.167-3.341.327-5.016.4-2.177.1-4.363.027-6.534.184a7.6 7.6 0 01-3.129-.226c-.725-.251-1.195.093-1.213.605 2.953.735 5.9.173 8.858.175 2.879 0 5.756.231 8.6-.405.2-.027.4-.253.608-.268.464-.031.94.1 1.4.066a74.26 74.26 0 003.733-.4c.189-.024.352-.248.422-.3a4.189 4.189 0 001.375.518c.493 0 1.184.413 1.452-.392.25.181.445.437.667.464 1.5.178 3 .311 4.5.452 1.2.113 2.392.234 3.591.305.172.01.4-.206.528-.375a2.763 2.763 0 00.271-.656c.026.4-.1 1.01.112 1.174a2.021 2.021 0 002.526-.381c-.7-.182-1.406-.358-2.105-.551a3.507 3.507 0 01-.525-.244z"/><path data-name="Path 1231" d="M253.264 243.18l-2.7.138-.1.841c1.007-.194 2.312.806 2.8-.979z"/><path data-name="Path 1232" d="M250.552 243.319c-.176-.119-.346-.329-.53-.341q-1.614-.109-3.233-.137c-1.313-.024-2.631.059-3.937-.037-1.607-.119-3.2-.477-4.807-.546-1.8-.077-3.616.045-5.425.1-1.133.033-2.265.147-3.4.141q-2.882-.015-5.763-.146c-1.152-.052-2.3-.265-3.45-.3-2.331-.066-4.664-.045-7-.09-.87-.016-1.255.324-1.188.935.572-.029 1.131-.08 1.69-.077.426 0 .852.111 1.277.107 2.043-.021 4.088-.123 6.128-.078a30.732 30.732 0 013.945.419 11.445 11.445 0 004.2.108 8.049 8.049 0 011.655-.018 14.632 14.632 0 011.735-.144c.845-.02 1.692.007 2.537-.032s1.667-.222 2.492-.177c.665.036 1.309.373 1.979.465.292.041.622-.2.969-.322.144.108.346.377.592.426 1.545.308 3.128.177 4.691.365a33.248 33.248 0 004 .1c.172 0 .35-.252.516-.4.113-.1.212-.217.315-.327h.014v-.016z"/><path data-name="Path 1233" d="M180.644 101.413a2.251 2.251 0 002.136 1.57c.035-.719-.956-1.471-2.136-1.57z"/><path data-name="Path 1234" d="M36.074 65.566l2.551.652c-.197-1.029-1.456-1.349-2.551-.652z"/><path data-name="Path 1235" d="M19.543 54.634c-.241-.224-.484-.445-.722-.672q-1.315-1.261-2.631-2.528l-.447.523.262.861.856.64.3-.119c-.264 1.08 1.319.522 1.2 1.487h1.016c-.256.359.019.561.231.782.047-.13.1-.26.145-.4.373.448.565 1.121 1.343.758-.115-.2-.221-.417-.349-.613-.281-.433-.592-.834-1.204-.719z"/><path data-name="Path 1236" d="M206.608 170.13a5.147 5.147 0 00-5.291 5.2c-.023 2.869 2.612 5.27 5.591 5.434 2.089.115 5.2-3.463 4.9-5.6a4.936 4.936 0 00-5.2-5.034zm1.543 5.366c.335-1.1.192-1.68-.476-2.089a1.987 1.987 0 00-2.34.335 2.683 2.683 0 00-.483 3.107c.112.24.252.468.409.754a2.524 2.524 0 01-1.014-2.469 2.486 2.486 0 011.862-2.073 2.253 2.253 0 012.8 1.1c.4.688.114 1.247-.758 1.335zm-4.33 3.193a4.237 4.237 0 01-.613-5.893 4.21 4.21 0 015.65-.834 4.062 4.062 0 00-4.749.983 3.565 3.565 0 00-.6 4.054c.985 2.382 2.98 2.587 5.285 2.176-1.186 1.183-3.359.917-4.973-.485zm4.984-.385l1.471-1.576a1.564 1.564 0 01-1.471 1.577z"/><path data-name="Path 1237" d="M222.815 168.701c.224-1.075-.121-1.7-.768-1.611l.857 2.656c.451-1.084.451-1.084-.089-1.045z"/><path data-name="Path 1238" d="M258 175.311a2.11 2.11 0 00.091.4 1.826 1.826 0 00.381-.3c.2-.259.357-.545.561-.865-.651.054-.372-.339-.287-.518l-.768-.307c.006.534.006 1.062.022 1.59z"/><path data-name="Path 1239" d="M212.958 229.561c0 .1.005.191.007.286l1.086.3a5.333 5.333 0 00-.554-.807c-.047-.051-.352.141-.539.221z"/><path data-name="Path 1240" d="M163.899 174.577c-.553-.041-1.112-.021-1.668-.021l.036.15c.443.156.88.339 1.333.453.156.04.355-.089.534-.14-.078-.154-.146-.435-.235-.442z"/></svg>